G04 #@! TF.FileFunction,Copper,L2,Bot,Signal*
%FSLAX46Y46*%
G04 Gerber Fmt 4.6, Leading zero omitted, Abs format (unit mm)*
G04 Created by KiCad (PCBNEW 4.0.7) date 05/21/18 22:53:13*
%MOMM*%
%LPD*%
G01*
G04 APERTURE LIST*
%ADD10C,0.020000*%
%ADD11C,2.500000*%
%ADD12C,2.600000*%
%ADD13R,1.700000X1.700000*%
%ADD14O,1.700000X1.700000*%
%ADD15C,0.600000*%
%ADD16C,0.508000*%
%ADD17C,0.254000*%
%ADD18C,0.500000*%
G04 APERTURE END LIST*
D10*
D11*
X37338000Y-59690000D03*
D12*
X34798000Y-57150000D03*
X34798000Y-62230000D03*
X39878000Y-62230000D03*
X39878000Y-57150000D03*
D13*
X82804000Y-43942000D03*
D14*
X82804000Y-46482000D03*
X82804000Y-49022000D03*
X82804000Y-51562000D03*
X82804000Y-54102000D03*
X82804000Y-56642000D03*
X82804000Y-59182000D03*
X82804000Y-61722000D03*
D15*
X55880000Y-50800000D03*
X58928000Y-50800000D03*
X58928000Y-47244000D03*
X56388000Y-47244000D03*
X71628000Y-60325000D03*
X53213000Y-57785000D03*
X69977000Y-58547000D03*
X60960000Y-58547000D03*
X75311000Y-53848000D03*
X78994000Y-48006000D03*
X76073000Y-48387000D03*
X76073000Y-50800000D03*
D16*
X59309000Y-60325000D02*
X71628000Y-60325000D01*
X56642000Y-57658000D02*
X59309000Y-60325000D01*
X53340000Y-57658000D02*
X56642000Y-57658000D01*
X53213000Y-57785000D02*
X53340000Y-57658000D01*
D17*
X60960000Y-58547000D02*
X69977000Y-58547000D01*
D16*
X75311000Y-53848000D02*
X76200000Y-52959000D01*
X78994000Y-50165000D02*
X76200000Y-52959000D01*
X78994000Y-48006000D02*
X78994000Y-50165000D01*
D17*
X76073000Y-50800000D02*
X76073000Y-48387000D01*
D18*
G36*
X98048000Y-74680000D02*
X33524000Y-74680000D01*
X33524000Y-63306118D01*
X33727539Y-63306118D01*
X33872324Y-63510890D01*
X34432962Y-63767629D01*
X35049174Y-63790278D01*
X35627146Y-63575389D01*
X35723676Y-63510890D01*
X35868461Y-63306118D01*
X38807539Y-63306118D01*
X38952324Y-63510890D01*
X39512962Y-63767629D01*
X40129174Y-63790278D01*
X40707146Y-63575389D01*
X40803676Y-63510890D01*
X40948461Y-63306118D01*
X39878000Y-62235657D01*
X38807539Y-63306118D01*
X35868461Y-63306118D01*
X34798000Y-62235657D01*
X33727539Y-63306118D01*
X33524000Y-63306118D01*
X33524000Y-63160548D01*
X33721882Y-63300461D01*
X34792343Y-62230000D01*
X34803657Y-62230000D01*
X35874118Y-63300461D01*
X36078890Y-63155676D01*
X36335629Y-62595038D01*
X36339814Y-62481174D01*
X38317722Y-62481174D01*
X38532611Y-63059146D01*
X38597110Y-63155676D01*
X38801882Y-63300461D01*
X39872343Y-62230000D01*
X39883657Y-62230000D01*
X40954118Y-63300461D01*
X41158890Y-63155676D01*
X41415629Y-62595038D01*
X41438278Y-61978826D01*
X41408238Y-61898028D01*
X81718175Y-61898028D01*
X81733466Y-61974898D01*
X81911735Y-62365323D01*
X82225844Y-62657808D01*
X82627972Y-62807825D01*
X82800000Y-62759493D01*
X82800000Y-61726000D01*
X82808000Y-61726000D01*
X82808000Y-62759493D01*
X82980028Y-62807825D01*
X83382156Y-62657808D01*
X83696265Y-62365323D01*
X83874534Y-61974898D01*
X83889825Y-61898028D01*
X83841492Y-61726000D01*
X82808000Y-61726000D01*
X82800000Y-61726000D01*
X81766508Y-61726000D01*
X81718175Y-61898028D01*
X41408238Y-61898028D01*
X41277344Y-61545972D01*
X81718175Y-61545972D01*
X81766508Y-61718000D01*
X82800000Y-61718000D01*
X82800000Y-60684507D01*
X82808000Y-60684507D01*
X82808000Y-61718000D01*
X83841492Y-61718000D01*
X83889825Y-61545972D01*
X83874534Y-61469102D01*
X83696265Y-61078677D01*
X83382156Y-60786192D01*
X82980028Y-60636175D01*
X82808000Y-60684507D01*
X82800000Y-60684507D01*
X82627972Y-60636175D01*
X82225844Y-60786192D01*
X81911735Y-61078677D01*
X81733466Y-61469102D01*
X81718175Y-61545972D01*
X41277344Y-61545972D01*
X41223389Y-61400854D01*
X41158890Y-61304324D01*
X40954118Y-61159539D01*
X39883657Y-62230000D01*
X39872343Y-62230000D01*
X38801882Y-61159539D01*
X38597110Y-61304324D01*
X38340371Y-61864962D01*
X38317722Y-62481174D01*
X36339814Y-62481174D01*
X36358278Y-61978826D01*
X36143389Y-61400854D01*
X36078890Y-61304324D01*
X35874118Y-61159539D01*
X34803657Y-62230000D01*
X34792343Y-62230000D01*
X33721882Y-61159539D01*
X33524000Y-61299452D01*
X33524000Y-61153882D01*
X33727539Y-61153882D01*
X34798000Y-62224343D01*
X35868461Y-61153882D01*
X35723676Y-60949110D01*
X35163038Y-60692371D01*
X34546826Y-60669722D01*
X33968854Y-60884611D01*
X33872324Y-60949110D01*
X33727539Y-61153882D01*
X33524000Y-61153882D01*
X33524000Y-60037362D01*
X35583696Y-60037362D01*
X35850164Y-60682263D01*
X36343142Y-61176102D01*
X36987577Y-61443695D01*
X37685362Y-61444304D01*
X38330263Y-61177836D01*
X38354258Y-61153882D01*
X38807539Y-61153882D01*
X39878000Y-62224343D01*
X40948461Y-61153882D01*
X40803676Y-60949110D01*
X40243038Y-60692371D01*
X39626826Y-60669722D01*
X39048854Y-60884611D01*
X38952324Y-60949110D01*
X38807539Y-61153882D01*
X38354258Y-61153882D01*
X38824102Y-60684858D01*
X39091695Y-60040423D01*
X39092304Y-59342638D01*
X38825836Y-58697737D01*
X38355040Y-58226118D01*
X38807539Y-58226118D01*
X38952324Y-58430890D01*
X39512962Y-58687629D01*
X40129174Y-58710278D01*
X40707146Y-58495389D01*
X40803676Y-58430890D01*
X40948461Y-58226118D01*
X39878000Y-57155657D01*
X38807539Y-58226118D01*
X38355040Y-58226118D01*
X38332858Y-58203898D01*
X37688423Y-57936305D01*
X36990638Y-57935696D01*
X36345737Y-58202164D01*
X35851898Y-58695142D01*
X35584305Y-59339577D01*
X35583696Y-60037362D01*
X33524000Y-60037362D01*
X33524000Y-58226118D01*
X33727539Y-58226118D01*
X33872324Y-58430890D01*
X34432962Y-58687629D01*
X35049174Y-58710278D01*
X35627146Y-58495389D01*
X35723676Y-58430890D01*
X35868461Y-58226118D01*
X34798000Y-57155657D01*
X33727539Y-58226118D01*
X33524000Y-58226118D01*
X33524000Y-58080548D01*
X33721882Y-58220461D01*
X34792343Y-57150000D01*
X34803657Y-57150000D01*
X35874118Y-58220461D01*
X36078890Y-58075676D01*
X36335629Y-57515038D01*
X36339814Y-57401174D01*
X38317722Y-57401174D01*
X38532611Y-57979146D01*
X38597110Y-58075676D01*
X38801882Y-58220461D01*
X39872343Y-57150000D01*
X39883657Y-57150000D01*
X40954118Y-58220461D01*
X41158890Y-58075676D01*
X41219087Y-57944224D01*
X52408861Y-57944224D01*
X52531005Y-58239834D01*
X52756976Y-58466200D01*
X53052373Y-58588860D01*
X53372224Y-58589139D01*
X53667834Y-58466995D01*
X53718918Y-58416000D01*
X56328026Y-58416000D01*
X58773013Y-60860987D01*
X59018926Y-61025301D01*
X59309000Y-61083000D01*
X71356930Y-61083000D01*
X71467373Y-61128860D01*
X71787224Y-61129139D01*
X72082834Y-61006995D01*
X72309200Y-60781024D01*
X72431860Y-60485627D01*
X72432139Y-60165776D01*
X72309995Y-59870166D01*
X72084024Y-59643800D01*
X71788627Y-59521140D01*
X71468776Y-59520861D01*
X71357111Y-59567000D01*
X59622974Y-59567000D01*
X58762198Y-58706224D01*
X60155861Y-58706224D01*
X60278005Y-59001834D01*
X60503976Y-59228200D01*
X60799373Y-59350860D01*
X61119224Y-59351139D01*
X61414834Y-59228995D01*
X61465918Y-59178000D01*
X69470864Y-59178000D01*
X69520976Y-59228200D01*
X69816373Y-59350860D01*
X70136224Y-59351139D01*
X70431834Y-59228995D01*
X70658200Y-59003024D01*
X70780860Y-58707627D01*
X70781139Y-58387776D01*
X70658995Y-58092166D01*
X70433024Y-57865800D01*
X70137627Y-57743140D01*
X69817776Y-57742861D01*
X69522166Y-57865005D01*
X69471082Y-57916000D01*
X61466136Y-57916000D01*
X61416024Y-57865800D01*
X61120627Y-57743140D01*
X60800776Y-57742861D01*
X60505166Y-57865005D01*
X60278800Y-58090976D01*
X60156140Y-58386373D01*
X60155861Y-58706224D01*
X58762198Y-58706224D01*
X57177987Y-57122013D01*
X56932074Y-56957699D01*
X56642000Y-56900000D01*
X53340000Y-56900000D01*
X53049926Y-56957699D01*
X52952851Y-57022563D01*
X52758166Y-57103005D01*
X52531800Y-57328976D01*
X52409140Y-57624373D01*
X52408861Y-57944224D01*
X41219087Y-57944224D01*
X41415629Y-57515038D01*
X41438278Y-56898826D01*
X41223389Y-56320854D01*
X41158890Y-56224324D01*
X40954118Y-56079539D01*
X39883657Y-57150000D01*
X39872343Y-57150000D01*
X38801882Y-56079539D01*
X38597110Y-56224324D01*
X38340371Y-56784962D01*
X38317722Y-57401174D01*
X36339814Y-57401174D01*
X36358278Y-56898826D01*
X36143389Y-56320854D01*
X36078890Y-56224324D01*
X35874118Y-56079539D01*
X34803657Y-57150000D01*
X34792343Y-57150000D01*
X33721882Y-56079539D01*
X33524000Y-56219452D01*
X33524000Y-56073882D01*
X33727539Y-56073882D01*
X34798000Y-57144343D01*
X35868461Y-56073882D01*
X38807539Y-56073882D01*
X39878000Y-57144343D01*
X40948461Y-56073882D01*
X40803676Y-55869110D01*
X40243038Y-55612371D01*
X39626826Y-55589722D01*
X39048854Y-55804611D01*
X38952324Y-55869110D01*
X38807539Y-56073882D01*
X35868461Y-56073882D01*
X35723676Y-55869110D01*
X35163038Y-55612371D01*
X34546826Y-55589722D01*
X33968854Y-55804611D01*
X33872324Y-55869110D01*
X33727539Y-56073882D01*
X33524000Y-56073882D01*
X33524000Y-54007224D01*
X74506861Y-54007224D01*
X74629005Y-54302834D01*
X74854976Y-54529200D01*
X75150373Y-54651860D01*
X75470224Y-54652139D01*
X75765834Y-54529995D01*
X75992200Y-54304024D01*
X76038534Y-54192440D01*
X79529987Y-50700987D01*
X79694301Y-50455074D01*
X79752000Y-50165000D01*
X79752000Y-48277070D01*
X79797860Y-48166627D01*
X79798139Y-47846776D01*
X79675995Y-47551166D01*
X79450024Y-47324800D01*
X79154627Y-47202140D01*
X78834776Y-47201861D01*
X78539166Y-47324005D01*
X78312800Y-47549976D01*
X78190140Y-47845373D01*
X78189861Y-48165224D01*
X78236000Y-48276889D01*
X78236000Y-49851026D01*
X74966688Y-53120338D01*
X74856166Y-53166005D01*
X74629800Y-53391976D01*
X74507140Y-53687373D01*
X74506861Y-54007224D01*
X33524000Y-54007224D01*
X33524000Y-48546224D01*
X75268861Y-48546224D01*
X75391005Y-48841834D01*
X75442000Y-48892918D01*
X75442000Y-50293864D01*
X75391800Y-50343976D01*
X75269140Y-50639373D01*
X75268861Y-50959224D01*
X75391005Y-51254834D01*
X75616976Y-51481200D01*
X75912373Y-51603860D01*
X76232224Y-51604139D01*
X76527834Y-51481995D01*
X76754200Y-51256024D01*
X76876860Y-50960627D01*
X76877139Y-50640776D01*
X76754995Y-50345166D01*
X76704000Y-50294082D01*
X76704000Y-48893136D01*
X76754200Y-48843024D01*
X76876860Y-48547627D01*
X76877139Y-48227776D01*
X76754995Y-47932166D01*
X76529024Y-47705800D01*
X76233627Y-47583140D01*
X75913776Y-47582861D01*
X75618166Y-47705005D01*
X75391800Y-47930976D01*
X75269140Y-48226373D01*
X75268861Y-48546224D01*
X33524000Y-48546224D01*
X33524000Y-46482000D01*
X81423474Y-46482000D01*
X81526541Y-47000153D01*
X81820051Y-47439423D01*
X82259321Y-47732933D01*
X82355177Y-47752000D01*
X82259321Y-47771067D01*
X81820051Y-48064577D01*
X81526541Y-48503847D01*
X81423474Y-49022000D01*
X81526541Y-49540153D01*
X81820051Y-49979423D01*
X82259321Y-50272933D01*
X82355177Y-50292000D01*
X82259321Y-50311067D01*
X81820051Y-50604577D01*
X81526541Y-51043847D01*
X81423474Y-51562000D01*
X81526541Y-52080153D01*
X81820051Y-52519423D01*
X82259321Y-52812933D01*
X82355177Y-52832000D01*
X82259321Y-52851067D01*
X81820051Y-53144577D01*
X81526541Y-53583847D01*
X81423474Y-54102000D01*
X81526541Y-54620153D01*
X81820051Y-55059423D01*
X82259321Y-55352933D01*
X82355177Y-55372000D01*
X82259321Y-55391067D01*
X81820051Y-55684577D01*
X81526541Y-56123847D01*
X81423474Y-56642000D01*
X81526541Y-57160153D01*
X81820051Y-57599423D01*
X82259321Y-57892933D01*
X82355177Y-57912000D01*
X82259321Y-57931067D01*
X81820051Y-58224577D01*
X81526541Y-58663847D01*
X81423474Y-59182000D01*
X81526541Y-59700153D01*
X81820051Y-60139423D01*
X82259321Y-60432933D01*
X82777474Y-60536000D01*
X82830526Y-60536000D01*
X83348679Y-60432933D01*
X83787949Y-60139423D01*
X84081459Y-59700153D01*
X84184526Y-59182000D01*
X84081459Y-58663847D01*
X83787949Y-58224577D01*
X83348679Y-57931067D01*
X83252823Y-57912000D01*
X83348679Y-57892933D01*
X83787949Y-57599423D01*
X84081459Y-57160153D01*
X84184526Y-56642000D01*
X84081459Y-56123847D01*
X83787949Y-55684577D01*
X83348679Y-55391067D01*
X83252823Y-55372000D01*
X83348679Y-55352933D01*
X83787949Y-55059423D01*
X84081459Y-54620153D01*
X84184526Y-54102000D01*
X84081459Y-53583847D01*
X83787949Y-53144577D01*
X83348679Y-52851067D01*
X83252823Y-52832000D01*
X83348679Y-52812933D01*
X83787949Y-52519423D01*
X84081459Y-52080153D01*
X84184526Y-51562000D01*
X84081459Y-51043847D01*
X83787949Y-50604577D01*
X83348679Y-50311067D01*
X83252823Y-50292000D01*
X83348679Y-50272933D01*
X83787949Y-49979423D01*
X84081459Y-49540153D01*
X84184526Y-49022000D01*
X84081459Y-48503847D01*
X83787949Y-48064577D01*
X83348679Y-47771067D01*
X83252823Y-47752000D01*
X83348679Y-47732933D01*
X83787949Y-47439423D01*
X84081459Y-47000153D01*
X84184526Y-46482000D01*
X84081459Y-45963847D01*
X83787949Y-45524577D01*
X83460634Y-45305873D01*
X83654000Y-45305873D01*
X83840771Y-45270730D01*
X84012309Y-45160348D01*
X84127387Y-44991925D01*
X84167873Y-44792000D01*
X84167873Y-43092000D01*
X84132730Y-42905229D01*
X84022348Y-42733691D01*
X83853925Y-42618613D01*
X83654000Y-42578127D01*
X81954000Y-42578127D01*
X81767229Y-42613270D01*
X81595691Y-42723652D01*
X81480613Y-42892075D01*
X81440127Y-43092000D01*
X81440127Y-44792000D01*
X81475270Y-44978771D01*
X81585652Y-45150309D01*
X81754075Y-45265387D01*
X81954000Y-45305873D01*
X82147366Y-45305873D01*
X81820051Y-45524577D01*
X81526541Y-45963847D01*
X81423474Y-46482000D01*
X33524000Y-46482000D01*
X33524000Y-29333000D01*
X98048000Y-29333000D01*
X98048000Y-74680000D01*
X98048000Y-74680000D01*
G37*
X98048000Y-74680000D02*
X33524000Y-74680000D01*
X33524000Y-63306118D01*
X33727539Y-63306118D01*
X33872324Y-63510890D01*
X34432962Y-63767629D01*
X35049174Y-63790278D01*
X35627146Y-63575389D01*
X35723676Y-63510890D01*
X35868461Y-63306118D01*
X38807539Y-63306118D01*
X38952324Y-63510890D01*
X39512962Y-63767629D01*
X40129174Y-63790278D01*
X40707146Y-63575389D01*
X40803676Y-63510890D01*
X40948461Y-63306118D01*
X39878000Y-62235657D01*
X38807539Y-63306118D01*
X35868461Y-63306118D01*
X34798000Y-62235657D01*
X33727539Y-63306118D01*
X33524000Y-63306118D01*
X33524000Y-63160548D01*
X33721882Y-63300461D01*
X34792343Y-62230000D01*
X34803657Y-62230000D01*
X35874118Y-63300461D01*
X36078890Y-63155676D01*
X36335629Y-62595038D01*
X36339814Y-62481174D01*
X38317722Y-62481174D01*
X38532611Y-63059146D01*
X38597110Y-63155676D01*
X38801882Y-63300461D01*
X39872343Y-62230000D01*
X39883657Y-62230000D01*
X40954118Y-63300461D01*
X41158890Y-63155676D01*
X41415629Y-62595038D01*
X41438278Y-61978826D01*
X41408238Y-61898028D01*
X81718175Y-61898028D01*
X81733466Y-61974898D01*
X81911735Y-62365323D01*
X82225844Y-62657808D01*
X82627972Y-62807825D01*
X82800000Y-62759493D01*
X82800000Y-61726000D01*
X82808000Y-61726000D01*
X82808000Y-62759493D01*
X82980028Y-62807825D01*
X83382156Y-62657808D01*
X83696265Y-62365323D01*
X83874534Y-61974898D01*
X83889825Y-61898028D01*
X83841492Y-61726000D01*
X82808000Y-61726000D01*
X82800000Y-61726000D01*
X81766508Y-61726000D01*
X81718175Y-61898028D01*
X41408238Y-61898028D01*
X41277344Y-61545972D01*
X81718175Y-61545972D01*
X81766508Y-61718000D01*
X82800000Y-61718000D01*
X82800000Y-60684507D01*
X82808000Y-60684507D01*
X82808000Y-61718000D01*
X83841492Y-61718000D01*
X83889825Y-61545972D01*
X83874534Y-61469102D01*
X83696265Y-61078677D01*
X83382156Y-60786192D01*
X82980028Y-60636175D01*
X82808000Y-60684507D01*
X82800000Y-60684507D01*
X82627972Y-60636175D01*
X82225844Y-60786192D01*
X81911735Y-61078677D01*
X81733466Y-61469102D01*
X81718175Y-61545972D01*
X41277344Y-61545972D01*
X41223389Y-61400854D01*
X41158890Y-61304324D01*
X40954118Y-61159539D01*
X39883657Y-62230000D01*
X39872343Y-62230000D01*
X38801882Y-61159539D01*
X38597110Y-61304324D01*
X38340371Y-61864962D01*
X38317722Y-62481174D01*
X36339814Y-62481174D01*
X36358278Y-61978826D01*
X36143389Y-61400854D01*
X36078890Y-61304324D01*
X35874118Y-61159539D01*
X34803657Y-62230000D01*
X34792343Y-62230000D01*
X33721882Y-61159539D01*
X33524000Y-61299452D01*
X33524000Y-61153882D01*
X33727539Y-61153882D01*
X34798000Y-62224343D01*
X35868461Y-61153882D01*
X35723676Y-60949110D01*
X35163038Y-60692371D01*
X34546826Y-60669722D01*
X33968854Y-60884611D01*
X33872324Y-60949110D01*
X33727539Y-61153882D01*
X33524000Y-61153882D01*
X33524000Y-60037362D01*
X35583696Y-60037362D01*
X35850164Y-60682263D01*
X36343142Y-61176102D01*
X36987577Y-61443695D01*
X37685362Y-61444304D01*
X38330263Y-61177836D01*
X38354258Y-61153882D01*
X38807539Y-61153882D01*
X39878000Y-62224343D01*
X40948461Y-61153882D01*
X40803676Y-60949110D01*
X40243038Y-60692371D01*
X39626826Y-60669722D01*
X39048854Y-60884611D01*
X38952324Y-60949110D01*
X38807539Y-61153882D01*
X38354258Y-61153882D01*
X38824102Y-60684858D01*
X39091695Y-60040423D01*
X39092304Y-59342638D01*
X38825836Y-58697737D01*
X38355040Y-58226118D01*
X38807539Y-58226118D01*
X38952324Y-58430890D01*
X39512962Y-58687629D01*
X40129174Y-58710278D01*
X40707146Y-58495389D01*
X40803676Y-58430890D01*
X40948461Y-58226118D01*
X39878000Y-57155657D01*
X38807539Y-58226118D01*
X38355040Y-58226118D01*
X38332858Y-58203898D01*
X37688423Y-57936305D01*
X36990638Y-57935696D01*
X36345737Y-58202164D01*
X35851898Y-58695142D01*
X35584305Y-59339577D01*
X35583696Y-60037362D01*
X33524000Y-60037362D01*
X33524000Y-58226118D01*
X33727539Y-58226118D01*
X33872324Y-58430890D01*
X34432962Y-58687629D01*
X35049174Y-58710278D01*
X35627146Y-58495389D01*
X35723676Y-58430890D01*
X35868461Y-58226118D01*
X34798000Y-57155657D01*
X33727539Y-58226118D01*
X33524000Y-58226118D01*
X33524000Y-58080548D01*
X33721882Y-58220461D01*
X34792343Y-57150000D01*
X34803657Y-57150000D01*
X35874118Y-58220461D01*
X36078890Y-58075676D01*
X36335629Y-57515038D01*
X36339814Y-57401174D01*
X38317722Y-57401174D01*
X38532611Y-57979146D01*
X38597110Y-58075676D01*
X38801882Y-58220461D01*
X39872343Y-57150000D01*
X39883657Y-57150000D01*
X40954118Y-58220461D01*
X41158890Y-58075676D01*
X41219087Y-57944224D01*
X52408861Y-57944224D01*
X52531005Y-58239834D01*
X52756976Y-58466200D01*
X53052373Y-58588860D01*
X53372224Y-58589139D01*
X53667834Y-58466995D01*
X53718918Y-58416000D01*
X56328026Y-58416000D01*
X58773013Y-60860987D01*
X59018926Y-61025301D01*
X59309000Y-61083000D01*
X71356930Y-61083000D01*
X71467373Y-61128860D01*
X71787224Y-61129139D01*
X72082834Y-61006995D01*
X72309200Y-60781024D01*
X72431860Y-60485627D01*
X72432139Y-60165776D01*
X72309995Y-59870166D01*
X72084024Y-59643800D01*
X71788627Y-59521140D01*
X71468776Y-59520861D01*
X71357111Y-59567000D01*
X59622974Y-59567000D01*
X58762198Y-58706224D01*
X60155861Y-58706224D01*
X60278005Y-59001834D01*
X60503976Y-59228200D01*
X60799373Y-59350860D01*
X61119224Y-59351139D01*
X61414834Y-59228995D01*
X61465918Y-59178000D01*
X69470864Y-59178000D01*
X69520976Y-59228200D01*
X69816373Y-59350860D01*
X70136224Y-59351139D01*
X70431834Y-59228995D01*
X70658200Y-59003024D01*
X70780860Y-58707627D01*
X70781139Y-58387776D01*
X70658995Y-58092166D01*
X70433024Y-57865800D01*
X70137627Y-57743140D01*
X69817776Y-57742861D01*
X69522166Y-57865005D01*
X69471082Y-57916000D01*
X61466136Y-57916000D01*
X61416024Y-57865800D01*
X61120627Y-57743140D01*
X60800776Y-57742861D01*
X60505166Y-57865005D01*
X60278800Y-58090976D01*
X60156140Y-58386373D01*
X60155861Y-58706224D01*
X58762198Y-58706224D01*
X57177987Y-57122013D01*
X56932074Y-56957699D01*
X56642000Y-56900000D01*
X53340000Y-56900000D01*
X53049926Y-56957699D01*
X52952851Y-57022563D01*
X52758166Y-57103005D01*
X52531800Y-57328976D01*
X52409140Y-57624373D01*
X52408861Y-57944224D01*
X41219087Y-57944224D01*
X41415629Y-57515038D01*
X41438278Y-56898826D01*
X41223389Y-56320854D01*
X41158890Y-56224324D01*
X40954118Y-56079539D01*
X39883657Y-57150000D01*
X39872343Y-57150000D01*
X38801882Y-56079539D01*
X38597110Y-56224324D01*
X38340371Y-56784962D01*
X38317722Y-57401174D01*
X36339814Y-57401174D01*
X36358278Y-56898826D01*
X36143389Y-56320854D01*
X36078890Y-56224324D01*
X35874118Y-56079539D01*
X34803657Y-57150000D01*
X34792343Y-57150000D01*
X33721882Y-56079539D01*
X33524000Y-56219452D01*
X33524000Y-56073882D01*
X33727539Y-56073882D01*
X34798000Y-57144343D01*
X35868461Y-56073882D01*
X38807539Y-56073882D01*
X39878000Y-57144343D01*
X40948461Y-56073882D01*
X40803676Y-55869110D01*
X40243038Y-55612371D01*
X39626826Y-55589722D01*
X39048854Y-55804611D01*
X38952324Y-55869110D01*
X38807539Y-56073882D01*
X35868461Y-56073882D01*
X35723676Y-55869110D01*
X35163038Y-55612371D01*
X34546826Y-55589722D01*
X33968854Y-55804611D01*
X33872324Y-55869110D01*
X33727539Y-56073882D01*
X33524000Y-56073882D01*
X33524000Y-54007224D01*
X74506861Y-54007224D01*
X74629005Y-54302834D01*
X74854976Y-54529200D01*
X75150373Y-54651860D01*
X75470224Y-54652139D01*
X75765834Y-54529995D01*
X75992200Y-54304024D01*
X76038534Y-54192440D01*
X79529987Y-50700987D01*
X79694301Y-50455074D01*
X79752000Y-50165000D01*
X79752000Y-48277070D01*
X79797860Y-48166627D01*
X79798139Y-47846776D01*
X79675995Y-47551166D01*
X79450024Y-47324800D01*
X79154627Y-47202140D01*
X78834776Y-47201861D01*
X78539166Y-47324005D01*
X78312800Y-47549976D01*
X78190140Y-47845373D01*
X78189861Y-48165224D01*
X78236000Y-48276889D01*
X78236000Y-49851026D01*
X74966688Y-53120338D01*
X74856166Y-53166005D01*
X74629800Y-53391976D01*
X74507140Y-53687373D01*
X74506861Y-54007224D01*
X33524000Y-54007224D01*
X33524000Y-48546224D01*
X75268861Y-48546224D01*
X75391005Y-48841834D01*
X75442000Y-48892918D01*
X75442000Y-50293864D01*
X75391800Y-50343976D01*
X75269140Y-50639373D01*
X75268861Y-50959224D01*
X75391005Y-51254834D01*
X75616976Y-51481200D01*
X75912373Y-51603860D01*
X76232224Y-51604139D01*
X76527834Y-51481995D01*
X76754200Y-51256024D01*
X76876860Y-50960627D01*
X76877139Y-50640776D01*
X76754995Y-50345166D01*
X76704000Y-50294082D01*
X76704000Y-48893136D01*
X76754200Y-48843024D01*
X76876860Y-48547627D01*
X76877139Y-48227776D01*
X76754995Y-47932166D01*
X76529024Y-47705800D01*
X76233627Y-47583140D01*
X75913776Y-47582861D01*
X75618166Y-47705005D01*
X75391800Y-47930976D01*
X75269140Y-48226373D01*
X75268861Y-48546224D01*
X33524000Y-48546224D01*
X33524000Y-46482000D01*
X81423474Y-46482000D01*
X81526541Y-47000153D01*
X81820051Y-47439423D01*
X82259321Y-47732933D01*
X82355177Y-47752000D01*
X82259321Y-47771067D01*
X81820051Y-48064577D01*
X81526541Y-48503847D01*
X81423474Y-49022000D01*
X81526541Y-49540153D01*
X81820051Y-49979423D01*
X82259321Y-50272933D01*
X82355177Y-50292000D01*
X82259321Y-50311067D01*
X81820051Y-50604577D01*
X81526541Y-51043847D01*
X81423474Y-51562000D01*
X81526541Y-52080153D01*
X81820051Y-52519423D01*
X82259321Y-52812933D01*
X82355177Y-52832000D01*
X82259321Y-52851067D01*
X81820051Y-53144577D01*
X81526541Y-53583847D01*
X81423474Y-54102000D01*
X81526541Y-54620153D01*
X81820051Y-55059423D01*
X82259321Y-55352933D01*
X82355177Y-55372000D01*
X82259321Y-55391067D01*
X81820051Y-55684577D01*
X81526541Y-56123847D01*
X81423474Y-56642000D01*
X81526541Y-57160153D01*
X81820051Y-57599423D01*
X82259321Y-57892933D01*
X82355177Y-57912000D01*
X82259321Y-57931067D01*
X81820051Y-58224577D01*
X81526541Y-58663847D01*
X81423474Y-59182000D01*
X81526541Y-59700153D01*
X81820051Y-60139423D01*
X82259321Y-60432933D01*
X82777474Y-60536000D01*
X82830526Y-60536000D01*
X83348679Y-60432933D01*
X83787949Y-60139423D01*
X84081459Y-59700153D01*
X84184526Y-59182000D01*
X84081459Y-58663847D01*
X83787949Y-58224577D01*
X83348679Y-57931067D01*
X83252823Y-57912000D01*
X83348679Y-57892933D01*
X83787949Y-57599423D01*
X84081459Y-57160153D01*
X84184526Y-56642000D01*
X84081459Y-56123847D01*
X83787949Y-55684577D01*
X83348679Y-55391067D01*
X83252823Y-55372000D01*
X83348679Y-55352933D01*
X83787949Y-55059423D01*
X84081459Y-54620153D01*
X84184526Y-54102000D01*
X84081459Y-53583847D01*
X83787949Y-53144577D01*
X83348679Y-52851067D01*
X83252823Y-52832000D01*
X83348679Y-52812933D01*
X83787949Y-52519423D01*
X84081459Y-52080153D01*
X84184526Y-51562000D01*
X84081459Y-51043847D01*
X83787949Y-50604577D01*
X83348679Y-50311067D01*
X83252823Y-50292000D01*
X83348679Y-50272933D01*
X83787949Y-49979423D01*
X84081459Y-49540153D01*
X84184526Y-49022000D01*
X84081459Y-48503847D01*
X83787949Y-48064577D01*
X83348679Y-47771067D01*
X83252823Y-47752000D01*
X83348679Y-47732933D01*
X83787949Y-47439423D01*
X84081459Y-47000153D01*
X84184526Y-46482000D01*
X84081459Y-45963847D01*
X83787949Y-45524577D01*
X83460634Y-45305873D01*
X83654000Y-45305873D01*
X83840771Y-45270730D01*
X84012309Y-45160348D01*
X84127387Y-44991925D01*
X84167873Y-44792000D01*
X84167873Y-43092000D01*
X84132730Y-42905229D01*
X84022348Y-42733691D01*
X83853925Y-42618613D01*
X83654000Y-42578127D01*
X81954000Y-42578127D01*
X81767229Y-42613270D01*
X81595691Y-42723652D01*
X81480613Y-42892075D01*
X81440127Y-43092000D01*
X81440127Y-44792000D01*
X81475270Y-44978771D01*
X81585652Y-45150309D01*
X81754075Y-45265387D01*
X81954000Y-45305873D01*
X82147366Y-45305873D01*
X81820051Y-45524577D01*
X81526541Y-45963847D01*
X81423474Y-46482000D01*
X33524000Y-46482000D01*
X33524000Y-29333000D01*
X98048000Y-29333000D01*
X98048000Y-74680000D01*
M02*
