<?xml version="1.0" standalone="no"?>
 <!DOCTYPE svg PUBLIC "-//W3C//DTD SVG 1.1//EN" 
 "http://www.w3.org/Graphics/SVG/1.1/DTD/svg11.dtd"> 
<svg xmlns="http://www.w3.org/2000/svg" version="1.1" 
    width="29.7002cm" height="21.0007cm" viewBox="0 0 116930 82680 ">
<title>SVG Picture created as tracking_system-F.CrtYd.svg date 2018/05/02 13:54:07 </title>
  <desc>Picture generated by PCBNEW </desc>
<g style="fill:#000000; fill-opacity:1;stroke:#000000; stroke-opacity:1;
stroke-linecap:round; stroke-linejoin:round; "
 transform="translate(0 0) scale(1 1)">
</g>
<g style="fill:#000000; fill-opacity:0.0; 
stroke:#000000; stroke-width:-0.000393701; stroke-opacity:1; 
stroke-linecap:round; stroke-linejoin:round;">
</g>
<g style="fill:#000000; fill-opacity:0.0; 
stroke:#000000; stroke-width:19.685; stroke-opacity:1; 
stroke-linecap:round; stroke-linejoin:round;">
<path d="M68721 64208
L68721 55803
" />
<path d="M68721 55803
L70138 55803
" />
<path d="M70138 55803
L70138 64208
" />
<path d="M70138 64208
L68721 64208
" />
<path d="M99221 60708
L99221 57303
" />
<path d="M99221 57303
L100638 57303
" />
<path d="M100638 57303
L100638 60708
" />
<path d="M100638 60708
L99221 60708
" />
<path d="M95221 60708
L95221 57303
" />
<path d="M95221 57303
L96638 57303
" />
<path d="M96638 57303
L96638 60708
" />
<path d="M96638 60708
L95221 60708
" />
<path d="M103138 21791
L103138 26200
" />
<path d="M103138 26200
L101721 26200
" />
<path d="M101721 26200
L101721 21791
" />
<path d="M101721 21791
L103138 21791
" />
<path d="M64721 29208
L64721 24799
" />
<path d="M64721 24799
L66138 24799
" />
<path d="M66138 24799
L66138 29208
" />
<path d="M66138 29208
L64721 29208
" />
<path d="M79638 13708
L77217 13708
" />
<path d="M77217 13708
L77217 12291
" />
<path d="M77217 12291
L79638 12291
" />
<path d="M79638 12291
L79638 13708
" />
<path d="M70717 12779
L74142 12779
" />
<path d="M74142 12779
L74142 16204
" />
<path d="M74142 16204
L70717 16204
" />
<path d="M70717 16204
L70717 12779
" />
<path d="M92544 63547
L94315 63547
" />
<path d="M94315 63547
L94315 65456
" />
<path d="M94315 65456
L92544 65456
" />
<path d="M92544 65456
L92544 63547
" />
<path d="M101544 63547
L103315 63547
" />
<path d="M103315 63547
L103315 65456
" />
<path d="M103315 65456
L101544 65456
" />
<path d="M101544 65456
L101544 63547
" />
<path d="M101300 57586
L102559 57586
" />
<path d="M102559 57586
L102559 62429
" />
<path d="M102559 62429
L101300 62429
" />
<path d="M101300 62429
L101300 57586
" />
<path d="M92800 57586
L94059 57586
" />
<path d="M94059 57586
L94059 62429
" />
<path d="M94059 62429
L92800 62429
" />
<path d="M92800 62429
L92800 57586
" />
</g> 
</svg>
