<?xml version="1.0" standalone="no"?>
 <!DOCTYPE svg PUBLIC "-//W3C//DTD SVG 1.1//EN" 
 "http://www.w3.org/Graphics/SVG/1.1/DTD/svg11.dtd"> 
<svg xmlns="http://www.w3.org/2000/svg" version="1.1" 
    width="29.7002cm" height="21.0007cm" viewBox="0 0 116930 82680 ">
<title>SVG Picture created as tracking_system-F.Fab.svg date 2018/05/02 13:54:07 </title>
  <desc>Picture generated by PCBNEW </desc>
<g style="fill:#000000; fill-opacity:1;stroke:#000000; stroke-opacity:1;
stroke-linecap:round; stroke-linejoin:round; "
 transform="translate(0 0) scale(1 1)">
</g>
<g style="fill:#000000; fill-opacity:0.0; 
stroke:#000000; stroke-width:-0.000393701; stroke-opacity:1; 
stroke-linecap:round; stroke-linejoin:round;">
</g>
<g style="fill:#000000; fill-opacity:0.0; 
stroke:#000000; stroke-width:39.3701; stroke-opacity:1; 
stroke-linecap:round; stroke-linejoin:round;">
<path d="M69180 64000
L69930 64000
" />
<path d="M69930 64000
L69930 56000
" />
<path d="M69930 56000
L68930 56000
" />
<path d="M68930 56000
L68930 63750
" />
<path d="M68930 63750
L69180 64000
" />
<path d="M99680 60500
L100430 60500
" />
<path d="M100430 60500
L100430 57500
" />
<path d="M100430 57500
L99430 57500
" />
<path d="M99430 57500
L99430 60250
" />
<path d="M99430 60250
L99680 60500
" />
<path d="M95680 60500
L96430 60500
" />
<path d="M96430 60500
L96430 57500
" />
<path d="M96430 57500
L95430 57500
" />
<path d="M95430 57500
L95430 60250
" />
<path d="M95430 60250
L95680 60500
" />
<path d="M102680 22000
L101930 22000
" />
<path d="M101930 22000
L101930 26000
" />
<path d="M101930 26000
L102930 26000
" />
<path d="M102930 26000
L102930 22250
" />
<path d="M102930 22250
L102680 22000
" />
<path d="M65180 29000
L65930 29000
" />
<path d="M65930 29000
L65930 25000
" />
<path d="M65930 25000
L64930 25000
" />
<path d="M64930 25000
L64930 28750
" />
<path d="M64930 28750
L65180 29000
" />
<path d="M79430 13250
L79430 12500
" />
<path d="M79430 12500
L77430 12500
" />
<path d="M77430 12500
L77430 13500
" />
<path d="M77430 13500
L79180 13500
" />
<path d="M79180 13500
L79430 13250
" />
<circle cx="72430" cy="14492.1" r="1574.8" /> 
<path d="M72430 13133
L72430 13606
" />
<path d="M72174 13370
L72685 13370
" />
<path d="M92970.9 63909.4 A748.031 748.031 0.0 1 0 93888.8 63909.2 " />
<circle cx="93430" cy="64500" r="590.551" /> 
<path d="M92970 63909
L93889 63909
" />
<path d="M101971 63909.4 A748.031 748.031 0.0 1 0 102889 63909.2 " />
<circle cx="102430" cy="64500" r="590.551" /> 
<path d="M101970 63909
L102889 63909
" />
<path d="M101437 58759
L102422 58759
" />
<path d="M102422 58759
L102422 61240
" />
<path d="M102422 61240
L101437 61240
" />
<path d="M101437 61240
L101437 58759
" />
<path d="M101930 58000
L101930 58759
" />
<path d="M101930 62000
L101930 61240
" />
<path d="M92937 58759
L93922 58759
" />
<path d="M93922 58759
L93922 61240
" />
<path d="M93922 61240
L92937 61240
" />
<path d="M92937 61240
L92937 58759
" />
<path d="M93430 58000
L93430 58759
" />
<path d="M93430 62000
L93430 61240
" />
</g>
<g style="fill:#000000; fill-opacity:0.0; 
stroke:#000000; stroke-width:59.0551; stroke-opacity:1; 
stroke-linecap:round; stroke-linejoin:round;">
<path d="M84967 27368
L84779 27368
" />
<path d="M85004 27481
L84873 27087
L84742 27481
" />
<path d="M84442 27481
L84442 27087
" />
<path d="M84442 27462
L84479 27481
L84554 27481
L84592 27462
L84610 27443
L84629 27406
L84629 27293
L84610 27256
L84592 27237
L84554 27218
L84479 27218
L84442 27237
" />
<path d="M84085 27481
L84085 27275
L84104 27237
L84142 27218
L84217 27218
L84254 27237
" />
<path d="M84085 27462
L84123 27481
L84217 27481
L84254 27462
L84273 27425
L84273 27387
L84254 27350
L84217 27331
L84123 27331
L84085 27312
" />
<path d="M83954 27218
L83804 27218
" />
<path d="M83898 27481
L83898 27143
L83879 27106
L83842 27087
L83804 27087
" />
<path d="M83673 27481
L83673 27218
" />
<path d="M83673 27293
L83654 27256
L83636 27237
L83598 27218
L83561 27218
" />
<path d="M83261 27218
L83261 27481
" />
<path d="M83429 27218
L83429 27425
L83411 27462
L83373 27481
L83317 27481
L83279 27462
L83261 27443
" />
<path d="M83073 27481
L83073 27218
" />
<path d="M83073 27087
L83092 27106
L83073 27125
L83054 27106
L83073 27087
L83073 27125
" />
<path d="M82942 27218
L82792 27218
" />
<path d="M82886 27087
L82886 27425
L82867 27462
L82829 27481
L82792 27481
" />
<path d="M82754 27518
L82454 27518
" />
<path d="M82361 27481
L82361 27087
L82229 27368
L82098 27087
L82098 27481
" />
<path d="M81855 27481
L81892 27462
L81911 27443
L81930 27406
L81930 27293
L81911 27256
L81892 27237
L81855 27218
L81798 27218
L81761 27237
L81742 27256
L81723 27293
L81723 27406
L81742 27443
L81761 27462
L81798 27481
L81855 27481
" />
<path d="M81611 27218
L81461 27218
" />
<path d="M81555 27087
L81555 27425
L81536 27462
L81498 27481
L81461 27481
" />
<path d="M81273 27481
L81311 27462
L81330 27443
L81348 27406
L81348 27293
L81330 27256
L81311 27237
L81273 27218
L81217 27218
L81180 27237
L81161 27256
L81142 27293
L81142 27406
L81161 27443
L81180 27462
L81217 27481
L81273 27481
" />
<path d="M80973 27481
L80973 27218
" />
<path d="M80973 27293
L80955 27256
L80936 27237
L80898 27218
L80861 27218
" />
<path d="M80823 27518
L80523 27518
" />
<path d="M80430 27481
L80430 27087
L80336 27087
L80280 27106
L80242 27143
L80223 27181
L80205 27256
L80205 27312
L80223 27387
L80242 27425
L80280 27462
L80336 27481
L80430 27481
" />
<path d="M80036 27481
L80036 27218
" />
<path d="M80036 27293
L80017 27256
L79998 27237
L79961 27218
L79924 27218
" />
<path d="M79792 27481
L79792 27218
" />
<path d="M79792 27087
L79811 27106
L79792 27125
L79774 27106
L79792 27087
L79792 27125
" />
<path d="M79642 27218
L79549 27481
L79455 27218
" />
<path d="M79155 27462
L79192 27481
L79267 27481
L79305 27462
L79324 27425
L79324 27275
L79305 27237
L79267 27218
L79192 27218
L79155 27237
L79136 27275
L79136 27312
L79324 27350
" />
<path d="M78967 27481
L78967 27218
" />
<path d="M78967 27293
L78949 27256
L78930 27237
L78892 27218
L78855 27218
" />
<path d="M84786 45971
L84654 45971
" />
<path d="M84598 46178
L84786 46178
L84786 45784
L84598 45784
" />
<path d="M84448 46159
L84392 46178
L84298 46178
L84261 46159
L84242 46140
L84223 46103
L84223 46065
L84242 46028
L84261 46009
L84298 45990
L84373 45971
L84411 45953
L84429 45934
L84448 45896
L84448 45859
L84429 45821
L84411 45803
L84373 45784
L84279 45784
L84223 45803
" />
<path d="M84054 46178
L84054 45784
L83904 45784
L83867 45803
L83848 45821
L83829 45859
L83829 45915
L83848 45953
L83867 45971
L83904 45990
L84054 45990
" />
<path d="M83698 45784
L83454 45784
L83586 45934
L83529 45934
L83492 45953
L83473 45971
L83454 46009
L83454 46103
L83473 46140
L83492 46159
L83529 46178
L83642 46178
L83679 46159
L83698 46140
" />
<path d="M83304 45821
L83286 45803
L83248 45784
L83154 45784
L83117 45803
L83098 45821
L83079 45859
L83079 45896
L83098 45953
L83323 46178
L83079 46178
" />
<path d="M83004 46215
L82705 46215
" />
<path d="M82442 46178
L82442 45784
" />
<path d="M82442 46159
L82480 46178
L82555 46178
L82592 46159
L82611 46140
L82630 46103
L82630 45990
L82611 45953
L82592 45934
L82555 45915
L82480 45915
L82442 45934
" />
<path d="M82105 46159
L82142 46178
L82217 46178
L82255 46159
L82273 46121
L82273 45971
L82255 45934
L82217 45915
L82142 45915
L82105 45934
L82086 45971
L82086 46009
L82273 46046
" />
<path d="M81955 45915
L81861 46178
L81767 45915
" />
<path d="M81617 46178
L81617 45784
" />
<path d="M81580 46028
L81467 46178
" />
<path d="M81467 45915
L81617 46065
" />
<path d="M81298 46178
L81298 45915
" />
<path d="M81298 45784
L81317 45803
L81298 45821
L81280 45803
L81298 45784
L81298 45821
" />
<path d="M81167 45915
L81017 45915
" />
<path d="M81111 45784
L81111 46121
L81092 46159
L81055 46178
L81017 46178
" />
<path d="M86176 66659
L86120 66678
L86026 66678
L85989 66659
L85970 66640
L85951 66603
L85951 66565
L85970 66528
L85989 66509
L86026 66490
L86101 66471
L86139 66453
L86157 66434
L86176 66396
L86176 66359
L86157 66321
L86139 66303
L86101 66284
L86007 66284
L85951 66303
" />
<path d="M85801 66659
L85745 66678
L85651 66678
L85614 66659
L85595 66640
L85576 66603
L85576 66565
L85595 66528
L85614 66509
L85651 66490
L85726 66471
L85764 66453
L85783 66434
L85801 66396
L85801 66359
L85783 66321
L85764 66303
L85726 66284
L85633 66284
L85576 66303
" />
<path d="M85408 66678
L85408 66284
L85314 66284
L85258 66303
L85220 66340
L85201 66378
L85183 66453
L85183 66509
L85201 66584
L85220 66621
L85258 66659
L85314 66678
L85408 66678
" />
<path d="M84808 66678
L85033 66678
" />
<path d="M84920 66678
L84920 66284
L84958 66340
L84995 66378
L85033 66396
" />
<path d="M84676 66284
L84433 66284
L84564 66434
L84508 66434
L84470 66453
L84451 66471
L84433 66509
L84433 66603
L84451 66640
L84470 66659
L84508 66678
L84620 66678
L84658 66659
L84676 66640
" />
<path d="M84189 66284
L84151 66284
L84114 66303
L84095 66321
L84076 66359
L84058 66434
L84058 66528
L84076 66603
L84095 66640
L84114 66659
L84151 66678
L84189 66678
L84226 66659
L84245 66640
L84264 66603
L84283 66528
L84283 66434
L84264 66359
L84245 66321
L84226 66303
L84189 66284
" />
<path d="M83720 66284
L83795 66284
L83833 66303
L83852 66321
L83889 66378
L83908 66453
L83908 66603
L83889 66640
L83870 66659
L83833 66678
L83758 66678
L83720 66659
L83702 66640
L83683 66603
L83683 66509
L83702 66471
L83720 66453
L83758 66434
L83833 66434
L83870 66453
L83889 66471
L83908 66509
" />
<path d="M70901 55723
L70920 55742
L70976 55760
L71014 55760
L71070 55742
L71107 55704
L71126 55667
L71145 55592
L71145 55535
L71126 55460
L71107 55423
L71070 55385
L71014 55367
L70976 55367
L70920 55385
L70901 55404
" />
<path d="M70676 55760
L70714 55742
L70732 55723
L70751 55685
L70751 55573
L70732 55535
L70714 55517
L70676 55498
L70620 55498
L70582 55517
L70564 55535
L70545 55573
L70545 55685
L70564 55723
L70582 55742
L70620 55760
L70676 55760
" />
<path d="M70376 55498
L70376 55760
" />
<path d="M70376 55535
L70358 55517
L70320 55498
L70264 55498
L70226 55517
L70208 55554
L70208 55760
" />
<path d="M70020 55498
L70020 55760
" />
<path d="M70020 55535
L70001 55517
L69964 55498
L69908 55498
L69870 55517
L69851 55554
L69851 55760
" />
<path d="M69758 55798
L69458 55798
" />
<path d="M69289 55367
L69251 55367
L69214 55385
L69195 55404
L69176 55442
L69158 55517
L69158 55610
L69176 55685
L69195 55723
L69214 55742
L69251 55760
L69289 55760
L69326 55742
L69345 55723
L69364 55685
L69383 55610
L69383 55517
L69364 55442
L69345 55404
L69326 55385
L69289 55367
" />
<path d="M68783 55760
L69008 55760
" />
<path d="M68895 55760
L68895 55367
L68933 55423
L68970 55460
L69008 55479
" />
<path d="M68651 55760
L68445 55498
" />
<path d="M68651 55498
L68445 55760
" />
<path d="M68220 55367
L68183 55367
L68145 55385
L68127 55404
L68108 55442
L68089 55517
L68089 55610
L68108 55685
L68127 55723
L68145 55742
L68183 55760
L68220 55760
L68258 55742
L68277 55723
L68295 55685
L68314 55610
L68314 55517
L68295 55442
L68277 55404
L68258 55385
L68220 55367
" />
<path d="M67864 55535
L67902 55517
L67920 55498
L67939 55460
L67939 55442
L67920 55404
L67902 55385
L67864 55367
L67789 55367
L67752 55385
L67733 55404
L67714 55442
L67714 55460
L67733 55498
L67752 55517
L67789 55535
L67864 55535
L67902 55554
L67920 55573
L67939 55610
L67939 55685
L67920 55723
L67902 55742
L67864 55760
L67789 55760
L67752 55742
L67733 55723
L67714 55685
L67714 55610
L67733 55573
L67752 55554
L67789 55535
" />
<path d="M69645 60131
L69364 60131
L69308 60149
L69270 60187
L69251 60243
L69251 60281
" />
<path d="M69645 59775
L69645 59850
L69626 59887
L69608 59906
L69551 59943
L69476 59962
L69326 59962
L69289 59943
L69270 59925
L69251 59887
L69251 59812
L69270 59775
L69289 59756
L69326 59737
L69420 59737
L69458 59756
L69476 59775
L69495 59812
L69495 59887
L69476 59925
L69458 59943
L69420 59962
" />
<path d="M101401 57223
L101420 57242
L101476 57260
L101514 57260
L101570 57242
L101607 57204
L101626 57167
L101645 57092
L101645 57035
L101626 56960
L101607 56923
L101570 56885
L101514 56867
L101476 56867
L101420 56885
L101401 56904
" />
<path d="M101176 57260
L101214 57242
L101232 57223
L101251 57185
L101251 57073
L101232 57035
L101214 57017
L101176 56998
L101120 56998
L101082 57017
L101064 57035
L101045 57073
L101045 57185
L101064 57223
L101082 57242
L101120 57260
L101176 57260
" />
<path d="M100876 56998
L100876 57260
" />
<path d="M100876 57035
L100858 57017
L100820 56998
L100764 56998
L100726 57017
L100708 57054
L100708 57260
" />
<path d="M100520 56998
L100520 57260
" />
<path d="M100520 57035
L100501 57017
L100464 56998
L100408 56998
L100370 57017
L100351 57054
L100351 57260
" />
<path d="M100258 57298
L99958 57298
" />
<path d="M99789 56867
L99751 56867
L99714 56885
L99695 56904
L99676 56942
L99658 57017
L99658 57110
L99676 57185
L99695 57223
L99714 57242
L99751 57260
L99789 57260
L99826 57242
L99845 57223
L99864 57185
L99883 57110
L99883 57017
L99864 56942
L99845 56904
L99826 56885
L99789 56867
" />
<path d="M99283 57260
L99508 57260
" />
<path d="M99395 57260
L99395 56867
L99433 56923
L99470 56960
L99508 56979
" />
<path d="M99151 57260
L98945 56998
" />
<path d="M99151 56998
L98945 57260
" />
<path d="M98720 56867
L98683 56867
L98645 56885
L98627 56904
L98608 56942
L98589 57017
L98589 57110
L98608 57185
L98627 57223
L98645 57242
L98683 57260
L98720 57260
L98758 57242
L98777 57223
L98795 57185
L98814 57110
L98814 57017
L98795 56942
L98777 56904
L98758 56885
L98720 56867
" />
<path d="M98458 56867
L98214 56867
L98345 57017
L98289 57017
L98252 57035
L98233 57054
L98214 57092
L98214 57185
L98233 57223
L98252 57242
L98289 57260
L98402 57260
L98439 57242
L98458 57223
" />
<path d="M100145 59131
L99864 59131
L99808 59149
L99770 59187
L99751 59243
L99751 59281
" />
<path d="M100014 58775
L99751 58775
" />
<path d="M100164 58868
L99883 58962
L99883 58718
" />
<path d="M97401 57223
L97420 57242
L97476 57260
L97514 57260
L97570 57242
L97607 57204
L97626 57167
L97645 57092
L97645 57035
L97626 56960
L97607 56923
L97570 56885
L97514 56867
L97476 56867
L97420 56885
L97401 56904
" />
<path d="M97176 57260
L97214 57242
L97232 57223
L97251 57185
L97251 57073
L97232 57035
L97214 57017
L97176 56998
L97120 56998
L97082 57017
L97064 57035
L97045 57073
L97045 57185
L97064 57223
L97082 57242
L97120 57260
L97176 57260
" />
<path d="M96876 56998
L96876 57260
" />
<path d="M96876 57035
L96858 57017
L96820 56998
L96764 56998
L96726 57017
L96708 57054
L96708 57260
" />
<path d="M96520 56998
L96520 57260
" />
<path d="M96520 57035
L96501 57017
L96464 56998
L96408 56998
L96370 57017
L96351 57054
L96351 57260
" />
<path d="M96258 57298
L95958 57298
" />
<path d="M95789 56867
L95751 56867
L95714 56885
L95695 56904
L95676 56942
L95658 57017
L95658 57110
L95676 57185
L95695 57223
L95714 57242
L95751 57260
L95789 57260
L95826 57242
L95845 57223
L95864 57185
L95883 57110
L95883 57017
L95864 56942
L95845 56904
L95826 56885
L95789 56867
" />
<path d="M95283 57260
L95508 57260
" />
<path d="M95395 57260
L95395 56867
L95433 56923
L95470 56960
L95508 56979
" />
<path d="M95151 57260
L94945 56998
" />
<path d="M95151 56998
L94945 57260
" />
<path d="M94720 56867
L94683 56867
L94645 56885
L94627 56904
L94608 56942
L94589 57017
L94589 57110
L94608 57185
L94627 57223
L94645 57242
L94683 57260
L94720 57260
L94758 57242
L94777 57223
L94795 57185
L94814 57110
L94814 57017
L94795 56942
L94777 56904
L94758 56885
L94720 56867
" />
<path d="M94458 56867
L94214 56867
L94345 57017
L94289 57017
L94252 57035
L94233 57054
L94214 57092
L94214 57185
L94233 57223
L94252 57242
L94289 57260
L94402 57260
L94439 57242
L94458 57223
" />
<path d="M96145 59131
L95864 59131
L95808 59149
L95770 59187
L95751 59243
L95751 59281
" />
<path d="M96145 58756
L96145 58943
L95958 58962
L95976 58943
L95995 58906
L95995 58812
L95976 58775
L95958 58756
L95920 58737
L95826 58737
L95789 58756
L95770 58775
L95751 58812
L95751 58906
L95770 58943
L95789 58962
" />
<path d="M103901 26557
L103920 26576
L103976 26595
L104014 26595
L104070 26576
L104107 26539
L104126 26501
L104145 26426
L104145 26370
L104126 26295
L104107 26257
L104070 26220
L104014 26201
L103976 26201
L103920 26220
L103901 26239
" />
<path d="M103676 26595
L103714 26576
L103732 26557
L103751 26520
L103751 26407
L103732 26370
L103714 26351
L103676 26332
L103620 26332
L103582 26351
L103564 26370
L103545 26407
L103545 26520
L103564 26557
L103582 26576
L103620 26595
L103676 26595
" />
<path d="M103376 26332
L103376 26595
" />
<path d="M103376 26370
L103358 26351
L103320 26332
L103264 26332
L103226 26351
L103208 26389
L103208 26595
" />
<path d="M103020 26332
L103020 26595
" />
<path d="M103020 26370
L103001 26351
L102964 26332
L102908 26332
L102870 26351
L102851 26389
L102851 26595
" />
<path d="M102758 26632
L102458 26632
" />
<path d="M102289 26201
L102251 26201
L102214 26220
L102195 26239
L102176 26276
L102158 26351
L102158 26445
L102176 26520
L102195 26557
L102214 26576
L102251 26595
L102289 26595
L102326 26576
L102345 26557
L102364 26520
L102383 26445
L102383 26351
L102364 26276
L102345 26239
L102326 26220
L102289 26201
" />
<path d="M101783 26595
L102008 26595
" />
<path d="M101895 26595
L101895 26201
L101933 26257
L101970 26295
L102008 26314
" />
<path d="M101651 26595
L101445 26332
" />
<path d="M101651 26332
L101445 26595
" />
<path d="M101220 26201
L101183 26201
L101145 26220
L101127 26239
L101108 26276
L101089 26351
L101089 26445
L101108 26520
L101127 26557
L101145 26576
L101183 26595
L101220 26595
L101258 26576
L101277 26557
L101295 26520
L101314 26445
L101314 26351
L101295 26276
L101277 26239
L101258 26220
L101220 26201
" />
<path d="M100752 26332
L100752 26595
" />
<path d="M100845 26182
L100939 26464
L100695 26464
" />
<path d="M102645 24131
L102364 24131
L102308 24149
L102270 24187
L102251 24243
L102251 24281
" />
<path d="M102645 23981
L102645 23737
L102495 23868
L102495 23812
L102476 23775
L102458 23756
L102420 23737
L102326 23737
L102289 23756
L102270 23775
L102251 23812
L102251 23925
L102270 23962
L102289 23981
" />
<path d="M66901 24723
L66920 24742
L66976 24760
L67014 24760
L67070 24742
L67107 24704
L67126 24667
L67145 24592
L67145 24535
L67126 24460
L67107 24423
L67070 24385
L67014 24367
L66976 24367
L66920 24385
L66901 24404
" />
<path d="M66676 24760
L66714 24742
L66732 24723
L66751 24685
L66751 24573
L66732 24535
L66714 24517
L66676 24498
L66620 24498
L66582 24517
L66564 24535
L66545 24573
L66545 24685
L66564 24723
L66582 24742
L66620 24760
L66676 24760
" />
<path d="M66376 24498
L66376 24760
" />
<path d="M66376 24535
L66358 24517
L66320 24498
L66264 24498
L66226 24517
L66208 24554
L66208 24760
" />
<path d="M66020 24498
L66020 24760
" />
<path d="M66020 24535
L66001 24517
L65964 24498
L65908 24498
L65870 24517
L65851 24554
L65851 24760
" />
<path d="M65758 24798
L65458 24798
" />
<path d="M65289 24367
L65251 24367
L65214 24385
L65195 24404
L65176 24442
L65158 24517
L65158 24610
L65176 24685
L65195 24723
L65214 24742
L65251 24760
L65289 24760
L65326 24742
L65345 24723
L65364 24685
L65383 24610
L65383 24517
L65364 24442
L65345 24404
L65326 24385
L65289 24367
" />
<path d="M64783 24760
L65008 24760
" />
<path d="M64895 24760
L64895 24367
L64933 24423
L64970 24460
L65008 24479
" />
<path d="M64651 24760
L64445 24498
" />
<path d="M64651 24498
L64445 24760
" />
<path d="M64220 24367
L64183 24367
L64145 24385
L64127 24404
L64108 24442
L64089 24517
L64089 24610
L64108 24685
L64127 24723
L64145 24742
L64183 24760
L64220 24760
L64258 24742
L64277 24723
L64295 24685
L64314 24610
L64314 24517
L64295 24442
L64277 24404
L64258 24385
L64220 24367
" />
<path d="M63752 24498
L63752 24760
" />
<path d="M63845 24348
L63939 24629
L63695 24629
" />
<path d="M65645 27131
L65364 27131
L65308 27149
L65270 27187
L65251 27243
L65251 27281
" />
<path d="M65608 26962
L65626 26943
L65645 26906
L65645 26812
L65626 26775
L65608 26756
L65570 26737
L65533 26737
L65476 26756
L65251 26981
L65251 26737
" />
<path d="M76872 14471
L76853 14490
L76834 14546
L76834 14584
L76853 14640
L76890 14677
L76928 14696
L77003 14715
L77059 14715
L77134 14696
L77172 14677
L77209 14640
L77228 14584
L77228 14546
L77209 14490
L77190 14471
" />
<path d="M76834 14246
L76853 14284
L76872 14302
L76909 14321
L77022 14321
L77059 14302
L77078 14284
L77097 14246
L77097 14190
L77078 14152
L77059 14134
L77022 14115
L76909 14115
L76872 14134
L76853 14152
L76834 14190
L76834 14246
" />
<path d="M77097 13946
L76834 13946
" />
<path d="M77059 13946
L77078 13928
L77097 13890
L77097 13834
L77078 13796
L77040 13778
L76834 13778
" />
<path d="M77097 13590
L76834 13590
" />
<path d="M77059 13590
L77078 13571
L77097 13534
L77097 13478
L77078 13440
L77040 13421
L76834 13421
" />
<path d="M76797 13328
L76797 13028
" />
<path d="M77228 12859
L77228 12821
L77209 12784
L77190 12765
L77153 12746
L77078 12728
L76984 12728
L76909 12746
L76872 12765
L76853 12784
L76834 12821
L76834 12859
L76853 12896
L76872 12915
L76909 12934
L76984 12953
L77078 12953
L77153 12934
L77190 12915
L77209 12896
L77228 12859
" />
<path d="M76834 12353
L76834 12578
" />
<path d="M76834 12465
L77228 12465
L77172 12503
L77134 12540
L77115 12578
" />
<path d="M76834 12221
L77097 12015
" />
<path d="M77097 12221
L76834 12015
" />
<path d="M77228 11790
L77228 11753
L77209 11715
L77190 11697
L77153 11678
L77078 11659
L76984 11659
L76909 11678
L76872 11697
L76853 11715
L76834 11753
L76834 11790
L76853 11828
L76872 11847
L76909 11865
L76984 11884
L77078 11884
L77153 11865
L77190 11847
L77209 11828
L77228 11790
" />
<path d="M77190 11509
L77209 11490
L77228 11453
L77228 11359
L77209 11322
L77190 11303
L77153 11284
L77115 11284
L77059 11303
L76834 11528
L76834 11284
" />
<path d="M78561 12784
L78561 13065
L78579 13121
L78617 13159
L78673 13178
L78711 13178
" />
<path d="M78167 13178
L78392 13178
" />
<path d="M78280 13178
L78280 12784
L78317 12840
L78355 12878
L78392 12896
" />
<path d="M74379 14567
L74361 14585
L74342 14642
L74342 14679
L74361 14735
L74398 14773
L74436 14792
L74511 14810
L74567 14810
L74642 14792
L74679 14773
L74717 14735
L74736 14679
L74736 14642
L74717 14585
L74698 14567
" />
<path d="M74342 14398
L74736 14398
L74736 14248
L74717 14210
L74698 14192
L74661 14173
L74604 14173
L74567 14192
L74548 14210
L74529 14248
L74529 14398
" />
<path d="M72289 14557
L72270 14576
L72251 14632
L72251 14670
L72270 14726
L72308 14763
L72345 14782
L72420 14801
L72476 14801
L72551 14782
L72589 14763
L72626 14726
L72645 14670
L72645 14632
L72626 14576
L72608 14557
" />
<path d="M72251 14182
L72251 14407
" />
<path d="M72251 14295
L72645 14295
L72589 14332
L72551 14370
L72533 14407
" />
<path d="M94417 64753
L94417 64940
L94810 64940
" />
<path d="M94623 64621
L94623 64490
" />
<path d="M94417 64434
L94417 64621
L94810 64621
L94810 64434
" />
<path d="M94417 64265
L94810 64265
L94810 64171
L94792 64115
L94754 64078
L94717 64059
L94642 64040
L94585 64040
L94510 64059
L94473 64078
L94435 64115
L94417 64171
L94417 64265
" />
<path d="M103417 64753
L103417 64940
L103810 64940
" />
<path d="M103623 64621
L103623 64490
" />
<path d="M103417 64434
L103417 64621
L103810 64621
L103810 64434
" />
<path d="M103417 64265
L103810 64265
L103810 64171
L103792 64115
L103754 64078
L103717 64059
L103642 64040
L103585 64040
L103510 64059
L103473 64078
L103435 64115
L103417 64171
L103417 64265
" />
<path d="M103017 60487
L103036 60468
L103055 60431
L103055 60337
L103036 60299
L103017 60281
L102980 60262
L102942 60262
L102886 60281
L102661 60506
L102661 60262
" />
<path d="M103017 60112
L103036 60093
L103055 60056
L103055 59962
L103036 59925
L103017 59906
L102980 59887
L102942 59887
L102886 59906
L102661 60131
L102661 59887
" />
<path d="M103055 59643
L103055 59606
L103036 59568
L103017 59550
L102980 59531
L102905 59512
L102811 59512
L102736 59531
L102698 59550
L102680 59568
L102661 59606
L102661 59643
L102680 59681
L102698 59700
L102736 59718
L102811 59737
L102905 59737
L102980 59718
L103017 59700
L103036 59681
L103055 59643
" />
<path d="M94517 60487
L94536 60468
L94555 60431
L94555 60337
L94536 60299
L94517 60281
L94480 60262
L94442 60262
L94386 60281
L94161 60506
L94161 60262
" />
<path d="M94517 60112
L94536 60093
L94555 60056
L94555 59962
L94536 59925
L94517 59906
L94480 59887
L94442 59887
L94386 59906
L94161 60131
L94161 59887
" />
<path d="M94555 59643
L94555 59606
L94536 59568
L94517 59550
L94480 59531
L94405 59512
L94311 59512
L94236 59531
L94198 59550
L94180 59568
L94161 59606
L94161 59643
L94180 59681
L94198 59700
L94236 59718
L94311 59737
L94405 59737
L94480 59718
L94517 59700
L94536 59681
L94555 59643
" />
</g> 
</svg>
