<?xml version="1.0" standalone="no"?>
 <!DOCTYPE svg PUBLIC "-//W3C//DTD SVG 1.1//EN" 
 "http://www.w3.org/Graphics/SVG/1.1/DTD/svg11.dtd"> 
<svg xmlns="http://www.w3.org/2000/svg" version="1.1" 
    width="29.7002cm" height="21.0007cm" viewBox="0 0 116930 82680 ">
<title>SVG Picture created as tracking_system-F.SilkS.svg date 2018/05/02 13:54:07 </title>
  <desc>Picture generated by PCBNEW </desc>
<g style="fill:#000000; fill-opacity:1;stroke:#000000; stroke-opacity:1;
stroke-linecap:round; stroke-linejoin:round; "
 transform="translate(0 0) scale(1 1)">
</g>
<g style="fill:#000000; fill-opacity:0.0; 
stroke:#000000; stroke-width:-0.000393701; stroke-opacity:1; 
stroke-linecap:round; stroke-linejoin:round;">
</g>
<g style="fill:#000000; fill-opacity:0.0; 
stroke:#000000; stroke-width:78.7402; stroke-opacity:1; 
stroke-linecap:round; stroke-linejoin:round;">
<path d="M104930 69000
L84930 69000
" />
<path d="M104930 11000
L104930 69000
" />
<path d="M104430 11000
L104930 11000
" />
<path d="M62930 11000
L104430 11000
" />
<path d="M62930 69000
L62930 11000
" />
<path d="M84930 69000
L62930 69000
" />
</g>
<g style="fill:#000000; fill-opacity:0.0; 
stroke:#000000; stroke-width:59.0551; stroke-opacity:1; 
stroke-linecap:round; stroke-linejoin:round;">
<path d="M97430 25500
L98430 25500
" />
<path d="M97430 27000
L98430 27000
" />
<path d="M97430 22500
L98430 22500
" />
<path d="M97430 21000
L98430 21000
" />
<path d="M70430 30000
L69430 30000
" />
<path d="M70430 28500
L69430 28500
" />
<path d="M70430 25500
L69430 25500
" />
<path d="M70430 24000
L69430 24000
" />
<path d="M77430 18000
L77430 17000
" />
<path d="M79430 18000
L79430 17000
" />
<circle cx="76430" cy="38000" r="500" /> 
<circle cx="75930" cy="19000" r="500" /> 
<circle cx="96430" cy="32000" r="500" /> 
<path d="M80930 18000
L70430 18000
" />
<path d="M70430 18000
L70430 39000
" />
<path d="M70430 39000
L76930 39000
" />
<path d="M95930 18000
L96430 18000
" />
<path d="M96430 18000
L96430 19000
" />
<path d="M96430 19000
L97430 20000
" />
<path d="M97430 20000
L97430 32500
" />
<path d="M97430 32500
L96430 33500
" />
<path d="M96430 33500
L96430 39000
" />
<path d="M96430 39000
L76930 39000
" />
<path d="M95930 18000
L80930 18000
" />
<path d="M71430 53000
L71430 52000
" />
<path d="M92430 48000
L92430 47000
" />
<path d="M91930 49500
L91930 48500
" />
<circle cx="71930" cy="42500" r="500" /> 
<circle cx="71930" cy="52500" r="500" /> 
<path d="M92430 45000
L92430 43000
" />
<path d="M92430 49000
L92430 48000
" />
<path d="M92430 53000
L92430 50000
" />
<path d="M91930 46000
L92430 46000
" />
<path d="M91930 49000
L92430 49000
" />
<path d="M92430 45000
L91930 45500
" />
<path d="M91930 45500
L91930 48500
" />
<path d="M91930 49500
L92430 50000
" />
<path d="M92430 46000
L92430 47000
" />
<path d="M92430 42000
L92430 43000
" />
<path d="M92430 53000
L71430 53000
" />
<path d="M71430 52000
L71430 42000
" />
<path d="M71430 42000
L92430 42000
" />
<path d="M92430 42000
L92430 43000
" />
<path d="M80180 64750
L79680 64750
" />
<path d="M79680 64750
L79680 58750
" />
<path d="M79680 58750
L89680 58750
" />
<path d="M89680 58750
L89680 64750
" />
<path d="M89680 64750
L80180 64750
" />
<path d="M80180 64750
L79680 64750
" />
<path d="M79680 64750
L79680 65750
" />
<path d="M79680 65750
L89680 65750
" />
<path d="M89680 65750
L89680 64750
" />
<circle cx="89180" cy="66750" r="500" /> 
<circle cx="80180" cy="66750" r="500" /> 
<circle cx="80180" cy="57750" r="500" /> 
<circle cx="89180" cy="57750" r="500" /> 
<path d="M81180 56750
L79180 56750
" />
<path d="M79180 56750
L79180 67750
" />
<path d="M79180 67750
L90180 67750
" />
<path d="M81180 56750
L90180 56750
" />
<path d="M90180 56750
L90180 67750
" />
</g>
<g style="fill:#000000; fill-opacity:0.0; 
stroke:#000000; stroke-width:47.2441; stroke-opacity:1; 
stroke-linecap:round; stroke-linejoin:round;">
<path d="M68906 55976
L69953 55976
" />
<path d="M68906 63000
L68906 55976
" />
<path d="M69953 63000
L69953 55976
" />
<path d="M68906 63000
L69953 63000
" />
<path d="M68906 63500
L68906 64023
" />
<path d="M68906 64023
L69430 64023
" />
<path d="M99406 57476
L100453 57476
" />
<path d="M99406 59500
L99406 57476
" />
<path d="M100453 59500
L100453 57476
" />
<path d="M99406 59500
L100453 59500
" />
<path d="M99406 60000
L99406 60523
" />
<path d="M99406 60523
L99930 60523
" />
<path d="M95406 57476
L96453 57476
" />
<path d="M95406 59500
L95406 57476
" />
<path d="M96453 59500
L96453 57476
" />
<path d="M95406 59500
L96453 59500
" />
<path d="M95406 60000
L95406 60523
" />
<path d="M95406 60523
L95930 60523
" />
<path d="M102953 26023
L101906 26023
" />
<path d="M102953 23000
L102953 26023
" />
<path d="M101906 23000
L101906 26023
" />
<path d="M102953 23000
L101906 23000
" />
<path d="M102953 22500
L102953 21976
" />
<path d="M102953 21976
L102430 21976
" />
<path d="M64906 24976
L65953 24976
" />
<path d="M64906 28000
L64906 24976
" />
<path d="M65953 28000
L65953 24976
" />
<path d="M64906 28000
L65953 28000
" />
<path d="M64906 28500
L64906 29023
" />
<path d="M64906 29023
L65430 29023
" />
<path d="M77406 13523
L77406 12476
" />
<path d="M78430 13523
L77406 13523
" />
<path d="M78430 12476
L77406 12476
" />
<path d="M78430 13523
L78430 12476
" />
<path d="M78930 13523
L79453 13523
" />
<path d="M79453 13523
L79453 13000
" />
<circle cx="72430" cy="14492.1" r="1610.24" /> 
<path d="M70835 14492
L74024 14492
" />
<path d="M70835 14507
L74024 14507
" />
<path d="M70835 14523
L74024 14523
" />
<path d="M70835 14539
L74024 14539
" />
<path d="M70836 14555
L74023 14555
" />
<path d="M70837 14570
L74022 14570
" />
<path d="M70838 14586
L74021 14586
" />
<path d="M70839 14602
L72044 14602
" />
<path d="M72815 14602
L74020 14602
" />
<path d="M70840 14618
L72044 14618
" />
<path d="M72815 14618
L74019 14618
" />
<path d="M70841 14633
L72044 14633
" />
<path d="M72815 14633
L74018 14633
" />
<path d="M70842 14649
L72044 14649
" />
<path d="M72815 14649
L74017 14649
" />
<path d="M70844 14665
L72044 14665
" />
<path d="M72815 14665
L74015 14665
" />
<path d="M70846 14681
L72044 14681
" />
<path d="M72815 14681
L74013 14681
" />
<path d="M70848 14696
L72044 14696
" />
<path d="M72815 14696
L74011 14696
" />
<path d="M70850 14712
L72044 14712
" />
<path d="M72815 14712
L74009 14712
" />
<path d="M70852 14728
L72044 14728
" />
<path d="M72815 14728
L74007 14728
" />
<path d="M70855 14744
L72044 14744
" />
<path d="M72815 14744
L74004 14744
" />
<path d="M70857 14759
L72044 14759
" />
<path d="M72815 14759
L74002 14759
" />
<path d="M70860 14775
L72044 14775
" />
<path d="M72815 14775
L73999 14775
" />
<path d="M70863 14791
L72044 14791
" />
<path d="M72815 14791
L73996 14791
" />
<path d="M70866 14807
L72044 14807
" />
<path d="M72815 14807
L73993 14807
" />
<path d="M70869 14823
L72044 14823
" />
<path d="M72815 14823
L73990 14823
" />
<path d="M70872 14838
L72044 14838
" />
<path d="M72815 14838
L73987 14838
" />
<path d="M70876 14854
L72044 14854
" />
<path d="M72815 14854
L73983 14854
" />
<path d="M70880 14870
L72044 14870
" />
<path d="M72815 14870
L73979 14870
" />
<path d="M70884 14886
L72044 14886
" />
<path d="M72815 14886
L73975 14886
" />
<path d="M70888 14901
L72044 14901
" />
<path d="M72815 14901
L73971 14901
" />
<path d="M70892 14917
L72044 14917
" />
<path d="M72815 14917
L73967 14917
" />
<path d="M70896 14933
L72044 14933
" />
<path d="M72815 14933
L73963 14933
" />
<path d="M70901 14949
L72044 14949
" />
<path d="M72815 14949
L73958 14949
" />
<path d="M70906 14964
L72044 14964
" />
<path d="M72815 14964
L73953 14964
" />
<path d="M70911 14980
L72044 14980
" />
<path d="M72815 14980
L73948 14980
" />
<path d="M70916 14996
L72044 14996
" />
<path d="M72815 14996
L73943 14996
" />
<path d="M70921 15012
L72044 15012
" />
<path d="M72815 15012
L73938 15012
" />
<path d="M70926 15027
L72044 15027
" />
<path d="M72815 15027
L73933 15027
" />
<path d="M70932 15043
L72044 15043
" />
<path d="M72815 15043
L73927 15043
" />
<path d="M70938 15059
L72044 15059
" />
<path d="M72815 15059
L73921 15059
" />
<path d="M70944 15075
L72044 15075
" />
<path d="M72815 15075
L73915 15075
" />
<path d="M70950 15090
L72044 15090
" />
<path d="M72815 15090
L73909 15090
" />
<path d="M70957 15106
L72044 15106
" />
<path d="M72815 15106
L73902 15106
" />
<path d="M70963 15122
L72044 15122
" />
<path d="M72815 15122
L73896 15122
" />
<path d="M70970 15138
L72044 15138
" />
<path d="M72815 15138
L73889 15138
" />
<path d="M70977 15153
L72044 15153
" />
<path d="M72815 15153
L73882 15153
" />
<path d="M70984 15169
L72044 15169
" />
<path d="M72815 15169
L73875 15169
" />
<path d="M70992 15185
L72044 15185
" />
<path d="M72815 15185
L73867 15185
" />
<path d="M70999 15201
L72044 15201
" />
<path d="M72815 15201
L73860 15201
" />
<path d="M71007 15216
L72044 15216
" />
<path d="M72815 15216
L73852 15216
" />
<path d="M71015 15232
L72044 15232
" />
<path d="M72815 15232
L73844 15232
" />
<path d="M71023 15248
L72044 15248
" />
<path d="M72815 15248
L73836 15248
" />
<path d="M71032 15264
L72044 15264
" />
<path d="M72815 15264
L73827 15264
" />
<path d="M71041 15279
L72044 15279
" />
<path d="M72815 15279
L73818 15279
" />
<path d="M71050 15295
L72044 15295
" />
<path d="M72815 15295
L73809 15295
" />
<path d="M71059 15311
L72044 15311
" />
<path d="M72815 15311
L73800 15311
" />
<path d="M71068 15327
L72044 15327
" />
<path d="M72815 15327
L73791 15327
" />
<path d="M71078 15342
L72044 15342
" />
<path d="M72815 15342
L73781 15342
" />
<path d="M71088 15358
L72044 15358
" />
<path d="M72815 15358
L73771 15358
" />
<path d="M71098 15374
L73761 15374
" />
<path d="M71108 15390
L73751 15390
" />
<path d="M71119 15405
L73740 15405
" />
<path d="M71130 15421
L73729 15421
" />
<path d="M71141 15437
L73718 15437
" />
<path d="M71153 15453
L73706 15453
" />
<path d="M71165 15468
L73694 15468
" />
<path d="M71177 15484
L73682 15484
" />
<path d="M71189 15500
L73670 15500
" />
<path d="M71202 15516
L73657 15516
" />
<path d="M71215 15531
L73644 15531
" />
<path d="M71229 15547
L73630 15547
" />
<path d="M71242 15563
L73617 15563
" />
<path d="M71257 15579
L73602 15579
" />
<path d="M71271 15594
L73588 15594
" />
<path d="M71286 15610
L73573 15610
" />
<path d="M71302 15626
L73557 15626
" />
<path d="M71318 15642
L73541 15642
" />
<path d="M71334 15657
L73525 15657
" />
<path d="M71351 15673
L73508 15673
" />
<path d="M71368 15689
L73491 15689
" />
<path d="M71385 15705
L73474 15705
" />
<path d="M71404 15720
L73455 15720
" />
<path d="M71423 15736
L73436 15736
" />
<path d="M71442 15752
L73417 15752
" />
<path d="M71462 15768
L73397 15768
" />
<path d="M71483 15783
L73376 15783
" />
<path d="M71505 15799
L73354 15799
" />
<path d="M71527 15815
L73332 15815
" />
<path d="M71550 15831
L73309 15831
" />
<path d="M71574 15846
L73285 15846
" />
<path d="M71599 15862
L73260 15862
" />
<path d="M71625 15878
L73234 15878
" />
<path d="M71652 15894
L73207 15894
" />
<path d="M71681 15909
L73178 15909
" />
<path d="M71711 15925
L73148 15925
" />
<path d="M71742 15941
L73117 15941
" />
<path d="M71776 15957
L73083 15957
" />
<path d="M71811 15972
L73048 15972
" />
<path d="M71850 15988
L73009 15988
" />
<path d="M71891 16004
L72968 16004
" />
<path d="M71936 16020
L72923 16020
" />
<path d="M71986 16035
L72873 16035
" />
<path d="M72042 16051
L72817 16051
" />
<path d="M72109 16067
L72750 16067
" />
<path d="M72194 16083
L72665 16083
" />
<path d="M72333 16098
L72526 16098
" />
<path d="M72430 13133
L72430 13606
" />
<path d="M72174 13370
L72685 13370
" />
<path d="M92943.6 63885.8 A783.465 783.465 0.0 0 0 93005.4 65158.4 " />
<path d="M93854.6 65158.4 A783.465 783.465 0.0 0 0 93916.4 63885.8 " />
<path d="M93004.8 64090.2 A590.551 590.551 0.0 0 0 93004.9 64909.9 " />
<path d="M93855.1 64909.9 A590.551 590.551 0.0 0 0 93855.2 64090.2 " />
<path d="M92943 63885
L93004 63885
" />
<path d="M93855 63885
L93916 63885
" />
<path d="M101944 63885.8 A783.465 783.465 0.0 0 0 102005 65158.4 " />
<path d="M102855 65158.4 A783.465 783.465 0.0 0 0 102916 63885.8 " />
<path d="M102005 64090.2 A590.551 590.551 0.0 0 0 102005 64909.9 " />
<path d="M102855 64909.9 A590.551 590.551 0.0 0 0 102855 64090.2 " />
<path d="M101943 63885
L102004 63885
" />
<path d="M102855 63885
L102916 63885
" />
<path d="M101414 58736
L102445 58736
" />
<path d="M102445 58736
L102445 61263
" />
<path d="M102445 61263
L101414 61263
" />
<path d="M101414 61263
L101414 58736
" />
<path d="M101930 58385
L101930 58736
" />
<path d="M101930 61614
L101930 61263
" />
<path d="M92914 58736
L93945 58736
" />
<path d="M93945 58736
L93945 61263
" />
<path d="M93945 61263
L92914 61263
" />
<path d="M92914 61263
L92914 58736
" />
<path d="M93430 58385
L93430 58736
" />
<path d="M93430 61614
L93430 61263
" />
</g>
<g style="fill:#000000; fill-opacity:0.0; 
stroke:#000000; stroke-width:59.0551; stroke-opacity:1; 
stroke-linecap:round; stroke-linejoin:round;">
<path d="M83204 27874
L83204 27481
L83111 27481
L83054 27500
L83017 27537
L82998 27574
L82979 27649
L82979 27706
L82998 27781
L83017 27818
L83054 27856
L83111 27874
L83204 27874
" />
<path d="M82586 27874
L82717 27687
" />
<path d="M82811 27874
L82811 27481
L82661 27481
L82623 27500
L82604 27518
L82586 27556
L82586 27612
L82604 27649
L82623 27668
L82661 27687
L82811 27687
" />
<path d="M82417 27874
L82417 27481
" />
<path d="M82286 27481
L82154 27874
L82023 27481
" />
<path d="M81892 27668
L81761 27668
" />
<path d="M81705 27874
L81892 27874
L81892 27481
L81705 27481
" />
<path d="M81311 27874
L81442 27687
" />
<path d="M81536 27874
L81536 27481
L81386 27481
L81348 27500
L81330 27518
L81311 27556
L81311 27612
L81330 27649
L81348 27668
L81386 27687
L81536 27687
" />
<path d="M81236 27912
L80936 27912
" />
<path d="M80636 27874
L80861 27874
" />
<path d="M80748 27874
L80748 27481
L80786 27537
L80823 27574
L80861 27593
" />
<path d="M84111 46971
L83979 46971
" />
<path d="M83923 47178
L84111 47178
L84111 46784
L83923 46784
" />
<path d="M83773 47159
L83717 47178
L83623 47178
L83586 47159
L83567 47140
L83548 47103
L83548 47065
L83567 47028
L83586 47009
L83623 46990
L83698 46971
L83736 46953
L83754 46934
L83773 46896
L83773 46859
L83754 46821
L83736 46803
L83698 46784
L83604 46784
L83548 46803
" />
<path d="M83379 47178
L83379 46784
L83229 46784
L83192 46803
L83173 46821
L83154 46859
L83154 46915
L83173 46953
L83192 46971
L83229 46990
L83379 46990
" />
<path d="M83023 46784
L82780 46784
L82911 46934
L82855 46934
L82817 46953
L82798 46971
L82780 47009
L82780 47103
L82798 47140
L82817 47159
L82855 47178
L82967 47178
L83004 47159
L83023 47140
" />
<path d="M82630 46821
L82611 46803
L82573 46784
L82480 46784
L82442 46803
L82423 46821
L82405 46859
L82405 46896
L82423 46953
L82648 47178
L82405 47178
" />
<path d="M82330 47215
L82030 47215
" />
<path d="M81730 47178
L81955 47178
" />
<path d="M81842 47178
L81842 46784
L81880 46840
L81917 46878
L81955 46896
" />
<path d="M86514 67159
L86457 67178
L86364 67178
L86326 67159
L86307 67140
L86289 67103
L86289 67065
L86307 67028
L86326 67009
L86364 66990
L86439 66971
L86476 66953
L86495 66934
L86514 66896
L86514 66859
L86495 66821
L86476 66803
L86439 66784
L86345 66784
L86289 66803
" />
<path d="M86139 67159
L86082 67178
L85989 67178
L85951 67159
L85932 67140
L85914 67103
L85914 67065
L85932 67028
L85951 67009
L85989 66990
L86064 66971
L86101 66953
L86120 66934
L86139 66896
L86139 66859
L86120 66821
L86101 66803
L86064 66784
L85970 66784
L85914 66803
" />
<path d="M85745 67178
L85745 66784
L85651 66784
L85595 66803
L85558 66840
L85539 66878
L85520 66953
L85520 67009
L85539 67084
L85558 67121
L85595 67159
L85651 67178
L85745 67178
" />
<path d="M85145 67178
L85370 67178
" />
<path d="M85258 67178
L85258 66784
L85295 66840
L85333 66878
L85370 66896
" />
<path d="M85014 66784
L84770 66784
L84901 66934
L84845 66934
L84808 66953
L84789 66971
L84770 67009
L84770 67103
L84789 67140
L84808 67159
L84845 67178
L84958 67178
L84995 67159
L85014 67140
" />
<path d="M84526 66784
L84489 66784
L84451 66803
L84433 66821
L84414 66859
L84395 66934
L84395 67028
L84414 67103
L84433 67140
L84451 67159
L84489 67178
L84526 67178
L84564 67159
L84583 67140
L84601 67103
L84620 67028
L84620 66934
L84601 66859
L84583 66821
L84564 66803
L84526 66784
" />
<path d="M84058 66784
L84133 66784
L84170 66803
L84189 66821
L84226 66878
L84245 66953
L84245 67103
L84226 67140
L84208 67159
L84170 67178
L84095 67178
L84058 67159
L84039 67140
L84020 67103
L84020 67009
L84039 66971
L84058 66953
L84095 66934
L84170 66934
L84208 66953
L84226 66971
L84245 67009
" />
<path d="M83945 67215
L83645 67215
" />
<path d="M83345 67178
L83570 67178
" />
<path d="M83458 67178
L83458 66784
L83495 66840
L83533 66878
L83570 66896
" />
<path d="M69561 64201
L69561 64482
L69579 64539
L69617 64576
L69673 64595
L69711 64595
" />
<path d="M69205 64201
L69280 64201
L69317 64220
L69336 64239
L69373 64295
L69392 64370
L69392 64520
L69373 64557
L69355 64576
L69317 64595
L69242 64595
L69205 64576
L69186 64557
L69167 64520
L69167 64426
L69186 64389
L69205 64370
L69242 64351
L69317 64351
L69355 64370
L69373 64389
L69392 64426
" />
<path d="M100061 60701
L100061 60982
L100079 61039
L100117 61076
L100173 61095
L100211 61095
" />
<path d="M99705 60832
L99705 61095
" />
<path d="M99798 60682
L99892 60964
L99648 60964
" />
<path d="M96061 60701
L96061 60982
L96079 61039
L96117 61076
L96173 61095
L96211 61095
" />
<path d="M95686 60701
L95873 60701
L95892 60889
L95873 60870
L95836 60851
L95742 60851
L95705 60870
L95686 60889
L95667 60926
L95667 61020
L95686 61057
L95705 61076
L95742 61095
L95836 61095
L95873 61076
L95892 61057
" />
<path d="M102561 21367
L102561 21648
L102579 21704
L102617 21742
L102673 21760
L102711 21760
" />
<path d="M102411 21367
L102167 21367
L102298 21517
L102242 21517
L102205 21535
L102186 21554
L102167 21592
L102167 21685
L102186 21723
L102205 21742
L102242 21760
L102355 21760
L102392 21742
L102411 21723
" />
<path d="M65561 29201
L65561 29482
L65579 29539
L65617 29576
L65673 29595
L65711 29595
" />
<path d="M65392 29239
L65373 29220
L65336 29201
L65242 29201
L65205 29220
L65186 29239
L65167 29276
L65167 29314
L65186 29370
L65411 29595
L65167 29595
" />
<path d="M80062 13131
L79781 13131
L79725 13149
L79687 13187
L79669 13243
L79669 13281
" />
<path d="M79669 12737
L79669 12962
" />
<path d="M79669 12850
L80062 12850
L80006 12887
L79969 12925
L79950 12962
" />
<path d="M70198 14557
L70180 14576
L70161 14632
L70161 14670
L70180 14726
L70217 14763
L70255 14782
L70330 14801
L70386 14801
L70461 14782
L70498 14763
L70536 14726
L70555 14670
L70555 14632
L70536 14576
L70517 14557
" />
<path d="M70161 14182
L70161 14407
" />
<path d="M70161 14295
L70555 14295
L70498 14332
L70461 14370
L70442 14407
" />
<path d="M92086 64790
L92480 64790
L92480 64696
L92461 64640
L92424 64603
L92386 64584
L92311 64565
L92255 64565
L92180 64584
L92142 64603
L92105 64640
L92086 64696
L92086 64790
" />
<path d="M92442 64415
L92461 64396
L92480 64359
L92480 64265
L92461 64228
L92442 64209
L92405 64190
L92367 64190
L92311 64209
L92086 64434
L92086 64190
" />
<path d="M101086 64790
L101480 64790
L101480 64696
L101461 64640
L101424 64603
L101386 64584
L101311 64565
L101255 64565
L101180 64584
L101142 64603
L101105 64640
L101086 64696
L101086 64790
" />
<path d="M101086 64190
L101086 64415
" />
<path d="M101086 64303
L101480 64303
L101424 64340
L101386 64378
L101367 64415
" />
<path d="M100842 60065
L101029 60196
" />
<path d="M100842 60290
L101236 60290
L101236 60140
L101217 60103
L101198 60084
L101161 60065
L101104 60065
L101067 60084
L101048 60103
L101029 60140
L101029 60290
" />
<path d="M100842 59690
L100842 59915
" />
<path d="M100842 59803
L101236 59803
L101179 59840
L101142 59878
L101123 59915
" />
<path d="M92342 60065
L92529 60196
" />
<path d="M92342 60290
L92736 60290
L92736 60140
L92717 60103
L92698 60084
L92661 60065
L92604 60065
L92567 60084
L92548 60103
L92529 60140
L92529 60290
" />
<path d="M92698 59915
L92717 59896
L92736 59859
L92736 59765
L92717 59728
L92698 59709
L92661 59690
L92623 59690
L92567 59709
L92342 59934
L92342 59690
" />
</g> 
</svg>
