<?xml version="1.0" standalone="no"?>
 <!DOCTYPE svg PUBLIC "-//W3C//DTD SVG 1.1//EN" 
 "http://www.w3.org/Graphics/SVG/1.1/DTD/svg11.dtd"> 
<svg xmlns="http://www.w3.org/2000/svg" version="1.1" 
    width="29.7002cm" height="21.0007cm" viewBox="0 0 116930 82680 ">
<title>SVG Picture created as tracking_system-F.Mask.svg date 2018/05/02 13:54:07 </title>
  <desc>Picture generated by PCBNEW </desc>
<g style="fill:#000000; fill-opacity:1;stroke:#000000; stroke-opacity:1;
stroke-linecap:round; stroke-linejoin:round; "
 transform="translate(0 0) scale(1 1)">
</g>
<g style="fill:#000000; fill-opacity:0.0; 
stroke:#000000; stroke-width:-0.000393701; stroke-opacity:1; 
stroke-linecap:round; stroke-linejoin:round;">
</g>
<g style="fill:#000000; fill-opacity:0.0; 
stroke:#000000; stroke-width:757.48; stroke-opacity:1; 
stroke-linecap:round; stroke-linejoin:round;">
<path d="M95430 18800
L95430 19200
" />
<path d="M94430 18800
L94430 19200
" />
<path d="M93430 18800
L93430 19200
" />
<path d="M92430 18800
L92430 19200
" />
<path d="M91430 18800
L91430 19200
" />
<path d="M90430 18800
L90430 19200
" />
<path d="M88430 18800
L88430 19200
" />
<path d="M87430 18800
L87430 19200
" />
<path d="M86430 18800
L86430 19200
" />
<path d="M85430 18800
L85430 19200
" />
<path d="M84430 18800
L84430 19200
" />
<path d="M83430 18800
L83430 19200
" />
<path d="M82430 18800
L82430 19200
" />
<path d="M81430 18800
L81430 19200
" />
<path d="M95430 37800
L95430 38200
" />
<path d="M94430 37800
L94430 38200
" />
<path d="M93430 37800
L93430 38200
" />
<path d="M92430 37800
L92430 38200
" />
<path d="M91430 37800
L91430 38200
" />
<path d="M90430 37800
L90430 38200
" />
<path d="M89430 37800
L89430 38200
" />
<path d="M88430 37800
L88430 38200
" />
<path d="M86930 37800
L86930 38200
" />
<path d="M85930 37800
L85930 38200
" />
<path d="M84930 37800
L84930 38200
" />
<path d="M83930 37800
L83930 38200
" />
<path d="M82930 37800
L82930 38200
" />
<path d="M81930 37800
L81930 38200
" />
<path d="M80930 37800
L80930 38200
" />
<path d="M79930 37800
L79930 38200
" />
<path d="M78930 37800
L78930 38200
" />
<path d="M77930 37800
L77930 38200
" />
<path d="M98230 21000
L98630 21000
" />
<path d="M98230 22500
L98630 22500
" />
<path d="M98230 25500
L98630 25500
" />
<path d="M98230 27000
L98630 27000
" />
<path d="M69630 24000
L69230 24000
" />
<path d="M69630 25500
L69230 25500
" />
<path d="M69630 28500
L69230 28500
" />
<path d="M69630 30000
L69230 30000
" />
</g>
<g style="fill:#000000; fill-opacity:1.0; 
stroke:#000000; stroke-width:0; stroke-opacity:1; 
stroke-linecap:round; stroke-linejoin:round;">
<circle cx="79430" cy="17000" r="578.74" /> 
</g>
<g style="fill:#000000; fill-opacity:1.0; 
stroke:#000000; stroke-width:39.3701; stroke-opacity:1; 
stroke-linecap:round; stroke-linejoin:round;">
</g>
<g style="fill:#000000; fill-opacity:1.0; 
stroke:#000000; stroke-width:0; stroke-opacity:1; 
stroke-linecap:round; stroke-linejoin:round;">
<circle cx="77430" cy="17000" r="578.74" /> 
</g>
<g style="fill:#000000; fill-opacity:1.0; 
stroke:#000000; stroke-width:39.3701; stroke-opacity:1; 
stroke-linecap:round; stroke-linejoin:round;">
</g>
<g style="fill:#000000; fill-opacity:1.0; 
stroke:#000000; stroke-width:757.48; stroke-opacity:1; 
stroke-linecap:round; stroke-linejoin:round;">
</g>
<g style="fill:#000000; fill-opacity:0.0; 
stroke:#000000; stroke-width:757.48; stroke-opacity:1; 
stroke-linecap:round; stroke-linejoin:round;">
<path d="M73930 42700
L73930 42300
" />
<path d="M74930 42700
L74930 42300
" />
<path d="M75930 42700
L75930 42300
" />
<path d="M76930 42700
L76930 42300
" />
<path d="M77930 42700
L77930 42300
" />
<path d="M78930 42700
L78930 42300
" />
<path d="M79930 42700
L79930 42300
" />
<path d="M80930 42700
L80930 42300
" />
<path d="M81930 42700
L81930 42300
" />
<path d="M82930 42700
L82930 42300
" />
<path d="M83930 42700
L83930 42300
" />
<path d="M84930 42700
L84930 42300
" />
<path d="M85930 42700
L85930 42300
" />
<path d="M86930 42700
L86930 42300
" />
<path d="M87930 42700
L87930 42300
" />
<path d="M88930 42700
L88930 42300
" />
<path d="M89930 42700
L89930 42300
" />
<path d="M90930 42700
L90930 42300
" />
<path d="M91930 42700
L91930 42300
" />
<path d="M91930 52700
L91930 52300
" />
<path d="M90930 52700
L90930 52300
" />
<path d="M89930 52700
L89930 52300
" />
<path d="M88930 52700
L88930 52300
" />
<path d="M87930 52700
L87930 52300
" />
<path d="M86930 52700
L86930 52300
" />
<path d="M85930 52700
L85930 52300
" />
<path d="M84930 52700
L84930 52300
" />
<path d="M83930 52700
L83930 52300
" />
<path d="M82930 52700
L82930 52300
" />
<path d="M81930 52700
L81930 52300
" />
<path d="M80930 52700
L80930 52300
" />
<path d="M79930 52700
L79930 52300
" />
<path d="M78930 52700
L78930 52300
" />
<path d="M77930 52700
L77930 52300
" />
<path d="M76930 52700
L76930 52300
" />
<path d="M75930 52700
L75930 52300
" />
<path d="M74930 52700
L74930 52300
" />
<path d="M73930 52700
L73930 52300
" />
<path d="M81680 57450
L81680 57050
" />
<path d="M82680 57450
L82680 57050
" />
<path d="M83680 57450
L83680 57050
" />
<path d="M84680 57450
L84680 57050
" />
<path d="M85680 57450
L85680 57050
" />
<path d="M86680 57450
L86680 57050
" />
<path d="M87680 57450
L87680 57050
" />
</g>
<g style="fill:#000000; fill-opacity:0.0; 
stroke:#000000; stroke-width:0; stroke-opacity:1; 
stroke-linecap:round; stroke-linejoin:round;">
</g>
<g style="fill:#000000; fill-opacity:1.0; 
stroke:#000000; stroke-width:0; stroke-opacity:1; 
stroke-linecap:round; stroke-linejoin:round;">
<polyline style="fill-rule:evenodd;"
points="70178,63086
68681,63086
68681,63913
70178,63913
70178,63086
" /> 
</g>
<g style="fill:#000000; fill-opacity:1.0; 
stroke:#000000; stroke-width:826.772; stroke-opacity:1; 
stroke-linecap:round; stroke-linejoin:round;">
</g>
<g style="fill:#000000; fill-opacity:0.0; 
stroke:#000000; stroke-width:826.772; stroke-opacity:1; 
stroke-linecap:round; stroke-linejoin:round;">
<path d="M69095 62500
L69764 62500
" />
<path d="M69095 61500
L69764 61500
" />
<path d="M69095 60500
L69764 60500
" />
<path d="M69095 59500
L69764 59500
" />
<path d="M69095 58500
L69764 58500
" />
<path d="M69095 57500
L69764 57500
" />
<path d="M69095 56500
L69764 56500
" />
</g>
<g style="fill:#000000; fill-opacity:0.0; 
stroke:#000000; stroke-width:0; stroke-opacity:1; 
stroke-linecap:round; stroke-linejoin:round;">
</g>
<g style="fill:#000000; fill-opacity:1.0; 
stroke:#000000; stroke-width:0; stroke-opacity:1; 
stroke-linecap:round; stroke-linejoin:round;">
<polyline style="fill-rule:evenodd;"
points="99181,59586
99181,60413
100678,60413
100678,59586
99181,59586
" /> 
</g>
<g style="fill:#000000; fill-opacity:1.0; 
stroke:#000000; stroke-width:826.772; stroke-opacity:1; 
stroke-linecap:round; stroke-linejoin:round;">
</g>
<g style="fill:#000000; fill-opacity:0.0; 
stroke:#000000; stroke-width:826.772; stroke-opacity:1; 
stroke-linecap:round; stroke-linejoin:round;">
<path d="M99595 59000
L100264 59000
" />
<path d="M99595 58000
L100264 58000
" />
</g>
<g style="fill:#000000; fill-opacity:0.0; 
stroke:#000000; stroke-width:0; stroke-opacity:1; 
stroke-linecap:round; stroke-linejoin:round;">
</g>
<g style="fill:#000000; fill-opacity:1.0; 
stroke:#000000; stroke-width:0; stroke-opacity:1; 
stroke-linecap:round; stroke-linejoin:round;">
<polyline style="fill-rule:evenodd;"
points="95181,59586
95181,60413
96678,60413
96678,59586
95181,59586
" /> 
</g>
<g style="fill:#000000; fill-opacity:1.0; 
stroke:#000000; stroke-width:826.772; stroke-opacity:1; 
stroke-linecap:round; stroke-linejoin:round;">
</g>
<g style="fill:#000000; fill-opacity:0.0; 
stroke:#000000; stroke-width:826.772; stroke-opacity:1; 
stroke-linecap:round; stroke-linejoin:round;">
<path d="M95595 59000
L96264 59000
" />
<path d="M95595 58000
L96264 58000
" />
</g>
<g style="fill:#000000; fill-opacity:0.0; 
stroke:#000000; stroke-width:0; stroke-opacity:1; 
stroke-linecap:round; stroke-linejoin:round;">
</g>
<g style="fill:#000000; fill-opacity:1.0; 
stroke:#000000; stroke-width:0; stroke-opacity:1; 
stroke-linecap:round; stroke-linejoin:round;">
<polyline style="fill-rule:evenodd;"
points="103178,22913
103178,22086
101681,22086
101681,22913
103178,22913
" /> 
</g>
<g style="fill:#000000; fill-opacity:1.0; 
stroke:#000000; stroke-width:826.772; stroke-opacity:1; 
stroke-linecap:round; stroke-linejoin:round;">
</g>
<g style="fill:#000000; fill-opacity:0.0; 
stroke:#000000; stroke-width:826.772; stroke-opacity:1; 
stroke-linecap:round; stroke-linejoin:round;">
<path d="M102764 23500
L102095 23500
" />
<path d="M102764 24500
L102095 24500
" />
<path d="M102764 25500
L102095 25500
" />
</g>
<g style="fill:#000000; fill-opacity:0.0; 
stroke:#000000; stroke-width:0; stroke-opacity:1; 
stroke-linecap:round; stroke-linejoin:round;">
</g>
<g style="fill:#000000; fill-opacity:1.0; 
stroke:#000000; stroke-width:0; stroke-opacity:1; 
stroke-linecap:round; stroke-linejoin:round;">
<polyline style="fill-rule:evenodd;"
points="64681,28086
64681,28913
66178,28913
66178,28086
64681,28086
" /> 
</g>
<g style="fill:#000000; fill-opacity:1.0; 
stroke:#000000; stroke-width:826.772; stroke-opacity:1; 
stroke-linecap:round; stroke-linejoin:round;">
</g>
<g style="fill:#000000; fill-opacity:0.0; 
stroke:#000000; stroke-width:826.772; stroke-opacity:1; 
stroke-linecap:round; stroke-linejoin:round;">
<path d="M65095 27500
L65764 27500
" />
<path d="M65095 26500
L65764 26500
" />
<path d="M65095 25500
L65764 25500
" />
</g>
<g style="fill:#000000; fill-opacity:0.0; 
stroke:#000000; stroke-width:0; stroke-opacity:1; 
stroke-linecap:round; stroke-linejoin:round;">
</g>
<g style="fill:#000000; fill-opacity:1.0; 
stroke:#000000; stroke-width:0; stroke-opacity:1; 
stroke-linecap:round; stroke-linejoin:round;">
<polyline style="fill-rule:evenodd;"
points="78516,12251
78516,13748
79343,13748
79343,12251
78516,12251
" /> 
</g>
<g style="fill:#000000; fill-opacity:1.0; 
stroke:#000000; stroke-width:826.772; stroke-opacity:1; 
stroke-linecap:round; stroke-linejoin:round;">
</g>
<g style="fill:#000000; fill-opacity:0.0; 
stroke:#000000; stroke-width:826.772; stroke-opacity:1; 
stroke-linecap:round; stroke-linejoin:round;">
<path d="M77930 13334
L77930 12665
" />
</g>
<g style="fill:#000000; fill-opacity:0.0; 
stroke:#000000; stroke-width:0; stroke-opacity:1; 
stroke-linecap:round; stroke-linejoin:round;">
</g>
<g style="fill:#000000; fill-opacity:1.0; 
stroke:#000000; stroke-width:0; stroke-opacity:1; 
stroke-linecap:round; stroke-linejoin:round;">
<polyline style="fill-rule:evenodd;"
points="73178,13606
71681,13606
71681,14393
73178,14393
73178,13606
" /> 
</g>
<g style="fill:#000000; fill-opacity:1.0; 
stroke:#000000; stroke-width:787.402; stroke-opacity:1; 
stroke-linecap:round; stroke-linejoin:round;">
</g>
<g style="fill:#000000; fill-opacity:0.0; 
stroke:#000000; stroke-width:787.402; stroke-opacity:1; 
stroke-linecap:round; stroke-linejoin:round;">
<path d="M72075 14984
L72784 14984
" />
</g>
<g style="fill:#000000; fill-opacity:0.0; 
stroke:#000000; stroke-width:0; stroke-opacity:1; 
stroke-linecap:round; stroke-linejoin:round;">
</g>
<g style="fill:#000000; fill-opacity:1.0; 
stroke:#000000; stroke-width:0; stroke-opacity:1; 
stroke-linecap:round; stroke-linejoin:round;">
<polyline style="fill-rule:evenodd;"
points="94178,63566
92681,63566
92681,64433
94178,64433
94178,63566
" /> 
</g>
<g style="fill:#000000; fill-opacity:1.0; 
stroke:#000000; stroke-width:866.142; stroke-opacity:1; 
stroke-linecap:round; stroke-linejoin:round;">
</g>
<g style="fill:#000000; fill-opacity:0.0; 
stroke:#000000; stroke-width:866.142; stroke-opacity:1; 
stroke-linecap:round; stroke-linejoin:round;">
<path d="M93115 65000
L93744 65000
" />
</g>
<g style="fill:#000000; fill-opacity:0.0; 
stroke:#000000; stroke-width:0; stroke-opacity:1; 
stroke-linecap:round; stroke-linejoin:round;">
</g>
<g style="fill:#000000; fill-opacity:1.0; 
stroke:#000000; stroke-width:0; stroke-opacity:1; 
stroke-linecap:round; stroke-linejoin:round;">
<polyline style="fill-rule:evenodd;"
points="103178,63566
101681,63566
101681,64433
103178,64433
103178,63566
" /> 
</g>
<g style="fill:#000000; fill-opacity:1.0; 
stroke:#000000; stroke-width:866.142; stroke-opacity:1; 
stroke-linecap:round; stroke-linejoin:round;">
</g>
<g style="fill:#000000; fill-opacity:0.0; 
stroke:#000000; stroke-width:866.142; stroke-opacity:1; 
stroke-linecap:round; stroke-linejoin:round;">
<path d="M102115 65000
L102744 65000
" />
</g>
<g style="fill:#000000; fill-opacity:0.0; 
stroke:#000000; stroke-width:787.402; stroke-opacity:1; 
stroke-linecap:round; stroke-linejoin:round;">
<path d="M101575 58000
L102284 58000
" />
<path d="M101575 62000
L102284 62000
" />
<path d="M93075 58000
L93784 58000
" />
<path d="M93075 62000
L93784 62000
" />
</g> 
</svg>
