<?xml version="1.0" standalone="no"?>
 <!DOCTYPE svg PUBLIC "-//W3C//DTD SVG 1.1//EN" 
 "http://www.w3.org/Graphics/SVG/1.1/DTD/svg11.dtd"> 
<svg xmlns="http://www.w3.org/2000/svg" version="1.1" 
    width="29.7002cm" height="21.0007cm" viewBox="0 0 116930 82680 ">
<title>SVG Picture created as rf_footprints-F.Cu.svg date 2018/04/25 12:11:22 </title>
  <desc>Picture generated by PCBNEW </desc>
<g style="fill:#000000; fill-opacity:1;stroke:#000000; stroke-opacity:1;
stroke-linecap:round; stroke-linejoin:round; "
 transform="translate(0 0) scale(1 1)">
</g>
<g style="fill:#000000; fill-opacity:0.0; 
stroke:#000000; stroke-width:-0.000393701; stroke-opacity:1; 
stroke-linecap:round; stroke-linejoin:round;">
</g>
<g style="fill:#000000; fill-opacity:0.0; 
stroke:#000000; stroke-width:39.3701; stroke-opacity:1; 
stroke-linecap:round; stroke-linejoin:round;">
</g>
<g style="fill:#000000; fill-opacity:0.0; 
stroke:#000000; stroke-width:59.0551; stroke-opacity:1; 
stroke-linecap:round; stroke-linejoin:round;">
<rect x="69685.9" y="65357.2" width="42519.7" height="12598.4" rx="0" />
</g>
<g style="fill:#000000; fill-opacity:0.0; 
stroke:#000000; stroke-width:39.3701; stroke-opacity:1; 
stroke-linecap:round; stroke-linejoin:round;">
</g>
<g style="fill:#000000; fill-opacity:0.0; 
stroke:#000000; stroke-width:59.0551; stroke-opacity:1; 
stroke-linecap:round; stroke-linejoin:round;">
<rect x="3937.01" y="3937.01" width="109056" height="74806" rx="0" />
</g>
<g style="fill:#000000; fill-opacity:0.0; 
stroke:#000000; stroke-width:39.3701; stroke-opacity:1; 
stroke-linecap:round; stroke-linejoin:round;">
</g>
<g style="fill:#000000; fill-opacity:0.0; 
stroke:#000000; stroke-width:59.0551; stroke-opacity:1; 
stroke-linecap:round; stroke-linejoin:round;">
<rect x="4724.41" y="4724.41" width="107481" height="73231.2" rx="0" />
</g>
<g style="fill:#000000; fill-opacity:0.0; 
stroke:#000000; stroke-width:39.3701; stroke-opacity:1; 
stroke-linecap:round; stroke-linejoin:round;">
</g>
<g style="fill:#000000; fill-opacity:0.0; 
stroke:#000000; stroke-width:59.0551; stroke-opacity:1; 
stroke-linecap:round; stroke-linejoin:round;">
<path d="M23622 4724
L23622 3937
" />
</g>
<g style="fill:#000000; fill-opacity:0.0; 
stroke:#000000; stroke-width:39.3701; stroke-opacity:1; 
stroke-linecap:round; stroke-linejoin:round;">
</g>
<g style="fill:#000000; fill-opacity:0.0; 
stroke:#000000; stroke-width:59.0551; stroke-opacity:1; 
stroke-linecap:round; stroke-linejoin:round;">
<path d="M43307 4724
L43307 3937
" />
</g>
<g style="fill:#000000; fill-opacity:0.0; 
stroke:#000000; stroke-width:39.3701; stroke-opacity:1; 
stroke-linecap:round; stroke-linejoin:round;">
</g>
<g style="fill:#000000; fill-opacity:0.0; 
stroke:#000000; stroke-width:59.0551; stroke-opacity:1; 
stroke-linecap:round; stroke-linejoin:round;">
<path d="M62992 4724
L62992 3937
" />
</g>
<g style="fill:#000000; fill-opacity:0.0; 
stroke:#000000; stroke-width:39.3701; stroke-opacity:1; 
stroke-linecap:round; stroke-linejoin:round;">
</g>
<g style="fill:#000000; fill-opacity:0.0; 
stroke:#000000; stroke-width:59.0551; stroke-opacity:1; 
stroke-linecap:round; stroke-linejoin:round;">
<path d="M82677 4724
L82677 3937
" />
</g>
<g style="fill:#000000; fill-opacity:0.0; 
stroke:#000000; stroke-width:39.3701; stroke-opacity:1; 
stroke-linecap:round; stroke-linejoin:round;">
</g>
<g style="fill:#000000; fill-opacity:0.0; 
stroke:#000000; stroke-width:59.0551; stroke-opacity:1; 
stroke-linecap:round; stroke-linejoin:round;">
<path d="M102362 4724
L102362 3937
" />
</g>
<g style="fill:#000000; fill-opacity:0.0; 
stroke:#000000; stroke-width:39.3701; stroke-opacity:1; 
stroke-linecap:round; stroke-linejoin:round;">
</g>
<g style="fill:#000000; fill-opacity:0.0; 
stroke:#000000; stroke-width:59.0551; stroke-opacity:1; 
stroke-linecap:round; stroke-linejoin:round;">
<path d="M14169 4562
L13877 4562
" />
<path d="M14023 4562
L14023 4050
L13974 4123
L13925 4172
L13877 4196
" />
</g>
<g style="fill:#000000; fill-opacity:0.0; 
stroke:#000000; stroke-width:39.3701; stroke-opacity:1; 
stroke-linecap:round; stroke-linejoin:round;">
</g>
<g style="fill:#000000; fill-opacity:0.0; 
stroke:#000000; stroke-width:59.0551; stroke-opacity:1; 
stroke-linecap:round; stroke-linejoin:round;">
<path d="M33562 4099
L33586 4074
L33635 4050
L33757 4050
L33805 4074
L33830 4099
L33854 4147
L33854 4196
L33830 4269
L33537 4562
L33854 4562
" />
</g>
<g style="fill:#000000; fill-opacity:0.0; 
stroke:#000000; stroke-width:39.3701; stroke-opacity:1; 
stroke-linecap:round; stroke-linejoin:round;">
</g>
<g style="fill:#000000; fill-opacity:0.0; 
stroke:#000000; stroke-width:59.0551; stroke-opacity:1; 
stroke-linecap:round; stroke-linejoin:round;">
<path d="M53222 4050
L53539 4050
L53368 4245
L53442 4245
L53490 4269
L53515 4294
L53539 4342
L53539 4464
L53515 4513
L53490 4537
L53442 4562
L53295 4562
L53247 4537
L53222 4513
" />
</g>
<g style="fill:#000000; fill-opacity:0.0; 
stroke:#000000; stroke-width:39.3701; stroke-opacity:1; 
stroke-linecap:round; stroke-linejoin:round;">
</g>
<g style="fill:#000000; fill-opacity:0.0; 
stroke:#000000; stroke-width:59.0551; stroke-opacity:1; 
stroke-linecap:round; stroke-linejoin:round;">
<path d="M73175 4221
L73175 4562
" />
<path d="M73053 4026
L72932 4391
L73248 4391
" />
</g>
<g style="fill:#000000; fill-opacity:0.0; 
stroke:#000000; stroke-width:39.3701; stroke-opacity:1; 
stroke-linecap:round; stroke-linejoin:round;">
</g>
<g style="fill:#000000; fill-opacity:0.0; 
stroke:#000000; stroke-width:59.0551; stroke-opacity:1; 
stroke-linecap:round; stroke-linejoin:round;">
<path d="M92885 4050
L92641 4050
L92617 4294
L92641 4269
L92690 4245
L92812 4245
L92860 4269
L92885 4294
L92909 4342
L92909 4464
L92885 4513
L92860 4537
L92812 4562
L92690 4562
L92641 4537
L92617 4513
" />
</g>
<g style="fill:#000000; fill-opacity:0.0; 
stroke:#000000; stroke-width:39.3701; stroke-opacity:1; 
stroke-linecap:round; stroke-linejoin:round;">
</g>
<g style="fill:#000000; fill-opacity:0.0; 
stroke:#000000; stroke-width:59.0551; stroke-opacity:1; 
stroke-linecap:round; stroke-linejoin:round;">
<path d="M112545 4050
L112448 4050
L112399 4074
L112375 4099
L112326 4172
L112302 4269
L112302 4464
L112326 4513
L112350 4537
L112399 4562
L112497 4562
L112545 4537
L112570 4513
L112594 4464
L112594 4342
L112570 4294
L112545 4269
L112497 4245
L112399 4245
L112350 4269
L112326 4294
L112302 4342
" />
</g>
<g style="fill:#000000; fill-opacity:0.0; 
stroke:#000000; stroke-width:39.3701; stroke-opacity:1; 
stroke-linecap:round; stroke-linejoin:round;">
</g>
<g style="fill:#000000; fill-opacity:0.0; 
stroke:#000000; stroke-width:59.0551; stroke-opacity:1; 
stroke-linecap:round; stroke-linejoin:round;">
<path d="M23622 77955
L23622 78742
" />
</g>
<g style="fill:#000000; fill-opacity:0.0; 
stroke:#000000; stroke-width:39.3701; stroke-opacity:1; 
stroke-linecap:round; stroke-linejoin:round;">
</g>
<g style="fill:#000000; fill-opacity:0.0; 
stroke:#000000; stroke-width:59.0551; stroke-opacity:1; 
stroke-linecap:round; stroke-linejoin:round;">
<path d="M43307 77955
L43307 78742
" />
</g>
<g style="fill:#000000; fill-opacity:0.0; 
stroke:#000000; stroke-width:39.3701; stroke-opacity:1; 
stroke-linecap:round; stroke-linejoin:round;">
</g>
<g style="fill:#000000; fill-opacity:0.0; 
stroke:#000000; stroke-width:59.0551; stroke-opacity:1; 
stroke-linecap:round; stroke-linejoin:round;">
<path d="M62992 77955
L62992 78742
" />
</g>
<g style="fill:#000000; fill-opacity:0.0; 
stroke:#000000; stroke-width:39.3701; stroke-opacity:1; 
stroke-linecap:round; stroke-linejoin:round;">
</g>
<g style="fill:#000000; fill-opacity:0.0; 
stroke:#000000; stroke-width:59.0551; stroke-opacity:1; 
stroke-linecap:round; stroke-linejoin:round;">
<path d="M82677 77955
L82677 78742
" />
</g>
<g style="fill:#000000; fill-opacity:0.0; 
stroke:#000000; stroke-width:39.3701; stroke-opacity:1; 
stroke-linecap:round; stroke-linejoin:round;">
</g>
<g style="fill:#000000; fill-opacity:0.0; 
stroke:#000000; stroke-width:59.0551; stroke-opacity:1; 
stroke-linecap:round; stroke-linejoin:round;">
<path d="M102362 77955
L102362 78742
" />
</g>
<g style="fill:#000000; fill-opacity:0.0; 
stroke:#000000; stroke-width:39.3701; stroke-opacity:1; 
stroke-linecap:round; stroke-linejoin:round;">
</g>
<g style="fill:#000000; fill-opacity:0.0; 
stroke:#000000; stroke-width:59.0551; stroke-opacity:1; 
stroke-linecap:round; stroke-linejoin:round;">
<path d="M14169 78580
L13877 78580
" />
<path d="M14023 78580
L14023 78069
L13974 78142
L13925 78190
L13877 78215
" />
</g>
<g style="fill:#000000; fill-opacity:0.0; 
stroke:#000000; stroke-width:39.3701; stroke-opacity:1; 
stroke-linecap:round; stroke-linejoin:round;">
</g>
<g style="fill:#000000; fill-opacity:0.0; 
stroke:#000000; stroke-width:59.0551; stroke-opacity:1; 
stroke-linecap:round; stroke-linejoin:round;">
<path d="M33562 78117
L33586 78093
L33635 78069
L33757 78069
L33805 78093
L33830 78117
L33854 78166
L33854 78215
L33830 78288
L33537 78580
L33854 78580
" />
</g>
<g style="fill:#000000; fill-opacity:0.0; 
stroke:#000000; stroke-width:39.3701; stroke-opacity:1; 
stroke-linecap:round; stroke-linejoin:round;">
</g>
<g style="fill:#000000; fill-opacity:0.0; 
stroke:#000000; stroke-width:59.0551; stroke-opacity:1; 
stroke-linecap:round; stroke-linejoin:round;">
<path d="M53222 78069
L53539 78069
L53368 78263
L53442 78263
L53490 78288
L53515 78312
L53539 78361
L53539 78483
L53515 78532
L53490 78556
L53442 78580
L53295 78580
L53247 78556
L53222 78532
" />
</g>
<g style="fill:#000000; fill-opacity:0.0; 
stroke:#000000; stroke-width:39.3701; stroke-opacity:1; 
stroke-linecap:round; stroke-linejoin:round;">
</g>
<g style="fill:#000000; fill-opacity:0.0; 
stroke:#000000; stroke-width:59.0551; stroke-opacity:1; 
stroke-linecap:round; stroke-linejoin:round;">
<path d="M73175 78239
L73175 78580
" />
<path d="M73053 78044
L72932 78410
L73248 78410
" />
</g>
<g style="fill:#000000; fill-opacity:0.0; 
stroke:#000000; stroke-width:39.3701; stroke-opacity:1; 
stroke-linecap:round; stroke-linejoin:round;">
</g>
<g style="fill:#000000; fill-opacity:0.0; 
stroke:#000000; stroke-width:59.0551; stroke-opacity:1; 
stroke-linecap:round; stroke-linejoin:round;">
<path d="M92885 78069
L92641 78069
L92617 78312
L92641 78288
L92690 78263
L92812 78263
L92860 78288
L92885 78312
L92909 78361
L92909 78483
L92885 78532
L92860 78556
L92812 78580
L92690 78580
L92641 78556
L92617 78532
" />
</g>
<g style="fill:#000000; fill-opacity:0.0; 
stroke:#000000; stroke-width:39.3701; stroke-opacity:1; 
stroke-linecap:round; stroke-linejoin:round;">
</g>
<g style="fill:#000000; fill-opacity:0.0; 
stroke:#000000; stroke-width:59.0551; stroke-opacity:1; 
stroke-linecap:round; stroke-linejoin:round;">
<path d="M112545 78069
L112448 78069
L112399 78093
L112375 78117
L112326 78190
L112302 78288
L112302 78483
L112326 78532
L112350 78556
L112399 78580
L112497 78580
L112545 78556
L112570 78532
L112594 78483
L112594 78361
L112570 78312
L112545 78288
L112497 78263
L112399 78263
L112350 78288
L112326 78312
L112302 78361
" />
</g>
<g style="fill:#000000; fill-opacity:0.0; 
stroke:#000000; stroke-width:39.3701; stroke-opacity:1; 
stroke-linecap:round; stroke-linejoin:round;">
</g>
<g style="fill:#000000; fill-opacity:0.0; 
stroke:#000000; stroke-width:59.0551; stroke-opacity:1; 
stroke-linecap:round; stroke-linejoin:round;">
<path d="M3937 23622
L4724 23622
" />
</g>
<g style="fill:#000000; fill-opacity:0.0; 
stroke:#000000; stroke-width:39.3701; stroke-opacity:1; 
stroke-linecap:round; stroke-linejoin:round;">
</g>
<g style="fill:#000000; fill-opacity:0.0; 
stroke:#000000; stroke-width:59.0551; stroke-opacity:1; 
stroke-linecap:round; stroke-linejoin:round;">
<path d="M3937 43307
L4724 43307
" />
</g>
<g style="fill:#000000; fill-opacity:0.0; 
stroke:#000000; stroke-width:39.3701; stroke-opacity:1; 
stroke-linecap:round; stroke-linejoin:round;">
</g>
<g style="fill:#000000; fill-opacity:0.0; 
stroke:#000000; stroke-width:59.0551; stroke-opacity:1; 
stroke-linecap:round; stroke-linejoin:round;">
<path d="M3937 62992
L4724 62992
" />
</g>
<g style="fill:#000000; fill-opacity:0.0; 
stroke:#000000; stroke-width:39.3701; stroke-opacity:1; 
stroke-linecap:round; stroke-linejoin:round;">
</g>
<g style="fill:#000000; fill-opacity:0.0; 
stroke:#000000; stroke-width:59.0551; stroke-opacity:1; 
stroke-linecap:round; stroke-linejoin:round;">
<path d="M4208 13864
L4452 13864
" />
<path d="M4160 14011
L4330 13499
L4501 14011
" />
</g>
<g style="fill:#000000; fill-opacity:0.0; 
stroke:#000000; stroke-width:39.3701; stroke-opacity:1; 
stroke-linecap:round; stroke-linejoin:round;">
</g>
<g style="fill:#000000; fill-opacity:0.0; 
stroke:#000000; stroke-width:59.0551; stroke-opacity:1; 
stroke-linecap:round; stroke-linejoin:round;">
<path d="M4367 33428
L4440 33452
L4464 33476
L4489 33525
L4489 33598
L4464 33647
L4440 33671
L4391 33696
L4196 33696
L4196 33184
L4367 33184
L4416 33208
L4440 33233
L4464 33281
L4464 33330
L4440 33379
L4416 33403
L4367 33428
L4196 33428
" />
</g>
<g style="fill:#000000; fill-opacity:0.0; 
stroke:#000000; stroke-width:39.3701; stroke-opacity:1; 
stroke-linecap:round; stroke-linejoin:round;">
</g>
<g style="fill:#000000; fill-opacity:0.0; 
stroke:#000000; stroke-width:59.0551; stroke-opacity:1; 
stroke-linecap:round; stroke-linejoin:round;">
<path d="M4489 53332
L4464 53356
L4391 53381
L4342 53381
L4269 53356
L4221 53308
L4196 53259
L4172 53161
L4172 53088
L4196 52991
L4221 52942
L4269 52893
L4342 52869
L4391 52869
L4464 52893
L4489 52918
" />
</g>
<g style="fill:#000000; fill-opacity:0.0; 
stroke:#000000; stroke-width:39.3701; stroke-opacity:1; 
stroke-linecap:round; stroke-linejoin:round;">
</g>
<g style="fill:#000000; fill-opacity:0.0; 
stroke:#000000; stroke-width:59.0551; stroke-opacity:1; 
stroke-linecap:round; stroke-linejoin:round;">
<path d="M4196 73066
L4196 72554
L4318 72554
L4391 72578
L4440 72627
L4464 72676
L4489 72773
L4489 72846
L4464 72944
L4440 72993
L4391 73041
L4318 73066
L4196 73066
" />
</g>
<g style="fill:#000000; fill-opacity:0.0; 
stroke:#000000; stroke-width:39.3701; stroke-opacity:1; 
stroke-linecap:round; stroke-linejoin:round;">
</g>
<g style="fill:#000000; fill-opacity:0.0; 
stroke:#000000; stroke-width:59.0551; stroke-opacity:1; 
stroke-linecap:round; stroke-linejoin:round;">
<path d="M112992 23622
L112205 23622
" />
</g>
<g style="fill:#000000; fill-opacity:0.0; 
stroke:#000000; stroke-width:39.3701; stroke-opacity:1; 
stroke-linecap:round; stroke-linejoin:round;">
</g>
<g style="fill:#000000; fill-opacity:0.0; 
stroke:#000000; stroke-width:59.0551; stroke-opacity:1; 
stroke-linecap:round; stroke-linejoin:round;">
<path d="M112992 43307
L112205 43307
" />
</g>
<g style="fill:#000000; fill-opacity:0.0; 
stroke:#000000; stroke-width:39.3701; stroke-opacity:1; 
stroke-linecap:round; stroke-linejoin:round;">
</g>
<g style="fill:#000000; fill-opacity:0.0; 
stroke:#000000; stroke-width:59.0551; stroke-opacity:1; 
stroke-linecap:round; stroke-linejoin:round;">
<path d="M112992 62992
L112205 62992
" />
</g>
<g style="fill:#000000; fill-opacity:0.0; 
stroke:#000000; stroke-width:39.3701; stroke-opacity:1; 
stroke-linecap:round; stroke-linejoin:round;">
</g>
<g style="fill:#000000; fill-opacity:0.0; 
stroke:#000000; stroke-width:59.0551; stroke-opacity:1; 
stroke-linecap:round; stroke-linejoin:round;">
<path d="M112477 13864
L112721 13864
" />
<path d="M112428 14011
L112599 13499
L112769 14011
" />
</g>
<g style="fill:#000000; fill-opacity:0.0; 
stroke:#000000; stroke-width:39.3701; stroke-opacity:1; 
stroke-linecap:round; stroke-linejoin:round;">
</g>
<g style="fill:#000000; fill-opacity:0.0; 
stroke:#000000; stroke-width:59.0551; stroke-opacity:1; 
stroke-linecap:round; stroke-linejoin:round;">
<path d="M112635 33428
L112708 33452
L112733 33476
L112757 33525
L112757 33598
L112733 33647
L112708 33671
L112660 33696
L112465 33696
L112465 33184
L112635 33184
L112684 33208
L112708 33233
L112733 33281
L112733 33330
L112708 33379
L112684 33403
L112635 33428
L112465 33428
" />
</g>
<g style="fill:#000000; fill-opacity:0.0; 
stroke:#000000; stroke-width:39.3701; stroke-opacity:1; 
stroke-linecap:round; stroke-linejoin:round;">
</g>
<g style="fill:#000000; fill-opacity:0.0; 
stroke:#000000; stroke-width:59.0551; stroke-opacity:1; 
stroke-linecap:round; stroke-linejoin:round;">
<path d="M112757 53332
L112733 53356
L112660 53381
L112611 53381
L112538 53356
L112489 53308
L112465 53259
L112440 53161
L112440 53088
L112465 52991
L112489 52942
L112538 52893
L112611 52869
L112660 52869
L112733 52893
L112757 52918
" />
</g>
<g style="fill:#000000; fill-opacity:0.0; 
stroke:#000000; stroke-width:39.3701; stroke-opacity:1; 
stroke-linecap:round; stroke-linejoin:round;">
</g>
<g style="fill:#000000; fill-opacity:0.0; 
stroke:#000000; stroke-width:59.0551; stroke-opacity:1; 
stroke-linecap:round; stroke-linejoin:round;">
<path d="M112465 73066
L112465 72554
L112587 72554
L112660 72578
L112708 72627
L112733 72676
L112757 72773
L112757 72846
L112733 72944
L112708 72993
L112660 73041
L112587 73066
L112465 73066
" />
</g>
<g style="fill:#000000; fill-opacity:0.0; 
stroke:#000000; stroke-width:39.3701; stroke-opacity:1; 
stroke-linecap:round; stroke-linejoin:round;">
</g>
<g style="fill:#000000; fill-opacity:0.0; 
stroke:#000000; stroke-width:59.0551; stroke-opacity:1; 
stroke-linecap:round; stroke-linejoin:round;">
<path d="M78881 76293
L78881 75703
L79022 75703
L79106 75731
L79162 75787
L79190 75843
L79219 75956
L79219 76040
L79190 76153
L79162 76209
L79106 76265
L79022 76293
L78881 76293
" />
<path d="M79725 76293
L79725 75984
L79697 75928
L79640 75899
L79528 75899
L79472 75928
" />
<path d="M79725 76265
L79669 76293
L79528 76293
L79472 76265
L79444 76209
L79444 76153
L79472 76096
L79528 76068
L79669 76068
L79725 76040
" />
<path d="M79922 75899
L80147 75899
" />
<path d="M80006 75703
L80006 76209
L80034 76265
L80090 76293
L80147 76293
" />
<path d="M80568 76265
L80512 76293
L80400 76293
L80343 76265
L80315 76209
L80315 75984
L80343 75928
L80400 75899
L80512 75899
L80568 75928
L80597 75984
L80597 76040
L80315 76096
" />
<path d="M80850 76237
L80878 76265
L80850 76293
L80822 76265
L80850 76237
L80850 76293
" />
<path d="M80850 75928
L80878 75956
L80850 75984
L80822 75956
L80850 75928
L80850 75984
" />
</g>
<g style="fill:#000000; fill-opacity:0.0; 
stroke:#000000; stroke-width:39.3701; stroke-opacity:1; 
stroke-linecap:round; stroke-linejoin:round;">
</g>
<g style="fill:#000000; fill-opacity:0.0; 
stroke:#000000; stroke-width:59.0551; stroke-opacity:1; 
stroke-linecap:round; stroke-linejoin:round;">
<path d="M69685 76577
L112205 76577
" />
</g>
<g style="fill:#000000; fill-opacity:0.0; 
stroke:#000000; stroke-width:39.3701; stroke-opacity:1; 
stroke-linecap:round; stroke-linejoin:round;">
</g>
<g style="fill:#000000; fill-opacity:0.0; 
stroke:#000000; stroke-width:59.0551; stroke-opacity:1; 
stroke-linecap:round; stroke-linejoin:round;">
<path d="M70220 77395
L70220 76805
" />
<path d="M70557 77395
L70304 77058
" />
<path d="M70557 76805
L70220 77142
" />
<path d="M70810 77395
L70810 77002
" />
<path d="M70810 76805
L70782 76833
L70810 76861
L70838 76833
L70810 76805
L70810 76861
" />
<path d="M71429 77339
L71401 77367
L71316 77395
L71260 77395
L71176 77367
L71120 77311
L71091 77255
L71063 77142
L71063 77058
L71091 76946
L71120 76889
L71176 76833
L71260 76805
L71316 76805
L71401 76833
L71429 76861
" />
<path d="M71935 77395
L71935 77086
L71907 77030
L71851 77002
L71738 77002
L71682 77030
" />
<path d="M71935 77367
L71879 77395
L71738 77395
L71682 77367
L71654 77311
L71654 77255
L71682 77199
L71738 77171
L71879 77171
L71935 77142
" />
<path d="M72469 77395
L72469 76805
" />
<path d="M72469 77367
L72413 77395
L72301 77395
L72244 77367
L72216 77339
L72188 77283
L72188 77114
L72216 77058
L72244 77030
L72301 77002
L72413 77002
L72469 77030
" />
<path d="M73201 77086
L73397 77086
" />
<path d="M73482 77395
L73201 77395
L73201 76805
L73482 76805
" />
<path d="M73735 77339
L73763 77367
L73735 77395
L73707 77367
L73735 77339
L73735 77395
" />
<path d="M74016 77395
L74016 76805
L74157 76805
L74241 76833
L74297 76889
L74325 76946
L74354 77058
L74354 77142
L74325 77255
L74297 77311
L74241 77367
L74157 77395
L74016 77395
" />
<path d="M74607 77339
L74635 77367
L74607 77395
L74579 77367
L74607 77339
L74607 77395
" />
<path d="M74860 77227
L75141 77227
" />
<path d="M74804 77395
L75000 76805
L75197 77395
" />
<path d="M75394 77339
L75422 77367
L75394 77395
L75366 77367
L75394 77339
L75394 77395
" />
<path d="M76575 77395
L76575 76805
" />
<path d="M76631 77171
L76800 77395
" />
<path d="M76800 77002
L76575 77227
" />
<path d="M77053 77395
L77053 77002
" />
<path d="M77053 76805
L77025 76833
L77053 76861
L77081 76833
L77053 76805
L77053 76861
" />
<path d="M77588 77367
L77531 77395
L77419 77395
L77363 77367
L77334 77339
L77306 77283
L77306 77114
L77334 77058
L77363 77030
L77419 77002
L77531 77002
L77588 77030
" />
<path d="M78094 77395
L78094 77086
L78066 77030
L78009 77002
L77897 77002
L77841 77030
" />
<path d="M78094 77367
L78037 77395
L77897 77395
L77841 77367
L77813 77311
L77813 77255
L77841 77199
L77897 77171
L78037 77171
L78094 77142
" />
<path d="M78628 77395
L78628 76805
" />
<path d="M78628 77367
L78572 77395
L78459 77395
L78403 77367
L78375 77339
L78347 77283
L78347 77114
L78375 77058
L78403 77030
L78459 77002
L78572 77002
L78628 77030
" />
<path d="M79612 77002
L79612 77395
" />
<path d="M79472 76777
L79331 77199
L79697 77199
" />
<path d="M79922 77339
L79950 77367
L79922 77395
L79894 77367
L79922 77339
L79922 77395
" />
<path d="M80315 76805
L80372 76805
L80428 76833
L80456 76861
L80484 76917
L80512 77030
L80512 77171
L80484 77283
L80456 77339
L80428 77367
L80372 77395
L80315 77395
L80259 77367
L80231 77339
L80203 77283
L80175 77171
L80175 77030
L80203 76917
L80231 76861
L80259 76833
L80315 76805
" />
<path d="M80765 77339
L80793 77367
L80765 77395
L80737 77367
L80765 77339
L80765 77395
" />
<path d="M80990 76805
L81384 76805
L81131 77395
" />
</g>
<g style="fill:#000000; fill-opacity:0.0; 
stroke:#000000; stroke-width:39.3701; stroke-opacity:1; 
stroke-linecap:round; stroke-linejoin:round;">
</g>
<g style="fill:#000000; fill-opacity:0.0; 
stroke:#000000; stroke-width:59.0551; stroke-opacity:1; 
stroke-linecap:round; stroke-linejoin:round;">
<path d="M69685 75396
L112205 75396
" />
</g>
<g style="fill:#000000; fill-opacity:0.0; 
stroke:#000000; stroke-width:39.3701; stroke-opacity:1; 
stroke-linecap:round; stroke-linejoin:round;">
</g>
<g style="fill:#000000; fill-opacity:0.0; 
stroke:#000000; stroke-width:118.11; stroke-opacity:1; 
stroke-linecap:round; stroke-linejoin:round;">
<path d="M104022 76293
L103825 76012
" />
<path d="M103684 76293
L103684 75703
L103909 75703
L103965 75731
L103994 75759
L104022 75815
L104022 75899
L103994 75956
L103965 75984
L103909 76012
L103684 76012
" />
<path d="M104500 76265
L104444 76293
L104331 76293
L104275 76265
L104247 76209
L104247 75984
L104275 75928
L104331 75899
L104444 75899
L104500 75928
L104528 75984
L104528 76040
L104247 76096
" />
<path d="M104725 75899
L104865 76293
L105006 75899
" />
<path d="M105231 76237
L105259 76265
L105231 76293
L105203 76265
L105231 76237
L105231 76293
" />
<path d="M105231 75928
L105259 75956
L105231 75984
L105203 75956
L105231 75928
L105231 75984
" />
</g>
<g style="fill:#000000; fill-opacity:0.0; 
stroke:#000000; stroke-width:39.3701; stroke-opacity:1; 
stroke-linecap:round; stroke-linejoin:round;">
</g>
<g style="fill:#000000; fill-opacity:0.0; 
stroke:#000000; stroke-width:59.0551; stroke-opacity:1; 
stroke-linecap:round; stroke-linejoin:round;">
<path d="M70192 76265
L70276 76293
L70417 76293
L70473 76265
L70501 76237
L70529 76181
L70529 76124
L70501 76068
L70473 76040
L70417 76012
L70304 75984
L70248 75956
L70220 75928
L70192 75871
L70192 75815
L70220 75759
L70248 75731
L70304 75703
L70445 75703
L70529 75731
" />
<path d="M70782 76293
L70782 75899
" />
<path d="M70782 75703
L70754 75731
L70782 75759
L70810 75731
L70782 75703
L70782 75759
" />
<path d="M71007 75899
L71316 75899
L71007 76293
L71316 76293
" />
<path d="M71766 76265
L71710 76293
L71598 76293
L71541 76265
L71513 76209
L71513 75984
L71541 75928
L71598 75899
L71710 75899
L71766 75928
L71795 75984
L71795 76040
L71513 76096
" />
<path d="M72048 76237
L72076 76265
L72048 76293
L72019 76265
L72048 76237
L72048 76293
" />
<path d="M72048 75928
L72076 75956
L72048 75984
L72019 75956
L72048 75928
L72048 75984
" />
<path d="M72751 76124
L73032 76124
" />
<path d="M72694 76293
L72891 75703
L73088 76293
" />
<path d="M73538 75899
L73538 76293
" />
<path d="M73397 75674
L73257 76096
L73622 76096
" />
</g>
<g style="fill:#000000; fill-opacity:0.0; 
stroke:#000000; stroke-width:39.3701; stroke-opacity:1; 
stroke-linecap:round; stroke-linejoin:round;">
</g>
<g style="fill:#000000; fill-opacity:0.0; 
stroke:#000000; stroke-width:59.0551; stroke-opacity:1; 
stroke-linecap:round; stroke-linejoin:round;">
<path d="M103684 77395
L103684 76805
" />
<path d="M104219 77395
L104219 76805
" />
<path d="M104219 77367
L104162 77395
L104050 77395
L103994 77367
L103965 77339
L103937 77283
L103937 77114
L103965 77058
L103994 77030
L104050 77002
L104162 77002
L104219 77030
" />
<path d="M104500 77339
L104528 77367
L104500 77395
L104472 77367
L104500 77339
L104500 77395
" />
<path d="M104500 77030
L104528 77058
L104500 77086
L104472 77058
L104500 77030
L104500 77086
" />
<path d="M105540 77395
L105203 77395
" />
<path d="M105372 77395
L105372 76805
L105315 76889
L105259 76946
L105203 76974
" />
<path d="M106215 76777
L105709 77536
" />
<path d="M106721 77395
L106384 77395
" />
<path d="M106553 77395
L106553 76805
L106496 76889
L106440 76946
L106384 76974
" />
</g>
<g style="fill:#000000; fill-opacity:0.0; 
stroke:#000000; stroke-width:39.3701; stroke-opacity:1; 
stroke-linecap:round; stroke-linejoin:round;">
</g>
<g style="fill:#000000; fill-opacity:0.0; 
stroke:#000000; stroke-width:59.0551; stroke-opacity:1; 
stroke-linecap:round; stroke-linejoin:round;">
<path d="M69685 73821
L112205 73821
" />
</g>
<g style="fill:#000000; fill-opacity:0.0; 
stroke:#000000; stroke-width:39.3701; stroke-opacity:1; 
stroke-linecap:round; stroke-linejoin:round;">
</g>
<g style="fill:#000000; fill-opacity:0.0; 
stroke:#000000; stroke-width:157.48; stroke-opacity:1; 
stroke-linecap:round; stroke-linejoin:round;">
<path d="M70257 74099
L70707 74099
" />
<path d="M70384 74886
L70482 74099
" />
<path d="M70871 74886
L70937 74361
" />
<path d="M70970 74099
L70927 74136
L70960 74174
L71002 74136
L70970 74099
L70960 74174
" />
<path d="M71199 74361
L71499 74361
" />
<path d="M71345 74099
L71260 74774
L71288 74849
L71359 74886
L71434 74886
" />
<path d="M71809 74886
L71738 74849
L71710 74774
L71795 74099
" />
<path d="M72413 74849
L72334 74886
L72184 74886
L72113 74849
L72085 74774
L72123 74474
L72169 74399
L72249 74361
L72399 74361
L72469 74399
L72498 74474
L72488 74549
L72104 74624
" />
<path d="M72793 74811
L72826 74849
L72783 74886
L72751 74849
L72793 74811
L72783 74886
" />
<path d="M72844 74399
L72877 74436
L72835 74474
L72802 74436
L72844 74399
L72835 74474
" />
</g>
<g style="fill:#000000; fill-opacity:0.0; 
stroke:#000000; stroke-width:39.3701; stroke-opacity:1; 
stroke-linecap:round; stroke-linejoin:round;">
</g>
<g style="fill:#000000; fill-opacity:0.0; 
stroke:#000000; stroke-width:59.0551; stroke-opacity:1; 
stroke-linecap:round; stroke-linejoin:round;">
<path d="M70417 73070
L70220 73070
" />
<path d="M70220 73380
L70220 72789
L70501 72789
" />
<path d="M70726 73380
L70726 72986
" />
<path d="M70726 72789
L70698 72817
L70726 72845
L70754 72817
L70726 72789
L70726 72845
" />
<path d="M71091 73380
L71035 73352
L71007 73295
L71007 72789
" />
<path d="M71541 73352
L71485 73380
L71373 73380
L71316 73352
L71288 73295
L71288 73070
L71316 73014
L71373 72986
L71485 72986
L71541 73014
L71570 73070
L71570 73127
L71288 73183
" />
<path d="M71823 73323
L71851 73352
L71823 73380
L71795 73352
L71823 73323
L71823 73380
" />
<path d="M71823 73014
L71851 73042
L71823 73070
L71795 73042
L71823 73014
L71823 73070
" />
<path d="M72554 73380
L72554 72986
" />
<path d="M72554 73099
L72582 73042
L72610 73014
L72666 72986
L72723 72986
" />
<path d="M72835 72986
L73060 72986
" />
<path d="M72919 73380
L72919 72874
L72947 72817
L73004 72789
L73060 72789
" />
<path d="M73116 73436
L73566 73436
" />
<path d="M73622 72986
L73847 72986
" />
<path d="M73707 73380
L73707 72874
L73735 72817
L73791 72789
L73847 72789
" />
<path d="M74129 73380
L74072 73352
L74044 73323
L74016 73267
L74016 73099
L74044 73042
L74072 73014
L74129 72986
L74213 72986
L74269 73014
L74297 73042
L74325 73099
L74325 73267
L74297 73323
L74269 73352
L74213 73380
L74129 73380
" />
<path d="M74663 73380
L74607 73352
L74579 73323
L74550 73267
L74550 73099
L74579 73042
L74607 73014
L74663 72986
L74747 72986
L74804 73014
L74832 73042
L74860 73099
L74860 73267
L74832 73323
L74804 73352
L74747 73380
L74663 73380
" />
<path d="M75028 72986
L75253 72986
" />
<path d="M75113 72789
L75113 73295
L75141 73352
L75197 73380
L75253 73380
" />
<path d="M75450 72986
L75450 73577
" />
<path d="M75450 73014
L75507 72986
L75619 72986
L75675 73014
L75703 73042
L75732 73099
L75732 73267
L75703 73323
L75675 73352
L75619 73380
L75507 73380
L75450 73352
" />
<path d="M75985 73380
L75985 72986
" />
<path d="M75985 73099
L76013 73042
L76041 73014
L76097 72986
L76153 72986
" />
<path d="M76350 73380
L76350 72986
" />
<path d="M76350 72789
L76322 72817
L76350 72845
L76378 72817
L76350 72789
L76350 72845
" />
<path d="M76631 72986
L76631 73380
" />
<path d="M76631 73042
L76660 73014
L76716 72986
L76800 72986
L76856 73014
L76885 73070
L76885 73380
" />
<path d="M77081 72986
L77306 72986
" />
<path d="M77166 72789
L77166 73295
L77194 73352
L77250 73380
L77306 73380
" />
<path d="M77475 73352
L77531 73380
L77644 73380
L77700 73352
L77728 73295
L77728 73267
L77700 73211
L77644 73183
L77559 73183
L77503 73155
L77475 73099
L77475 73070
L77503 73014
L77559 72986
L77644 72986
L77700 73014
" />
<path d="M77981 73323
L78009 73352
L77981 73380
L77953 73352
L77981 73323
L77981 73380
" />
<path d="M78262 73380
L78262 72789
" />
<path d="M78319 73155
L78487 73380
" />
<path d="M78487 72986
L78262 73211
" />
<path d="M78741 73380
L78741 72986
" />
<path d="M78741 72789
L78712 72817
L78741 72845
L78769 72817
L78741 72789
L78741 72845
" />
<path d="M79275 73352
L79219 73380
L79106 73380
L79050 73352
L79022 73323
L78994 73267
L78994 73099
L79022 73042
L79050 73014
L79106 72986
L79219 72986
L79275 73014
" />
<path d="M79781 73380
L79781 73070
L79753 73014
L79697 72986
L79584 72986
L79528 73014
" />
<path d="M79781 73352
L79725 73380
L79584 73380
L79528 73352
L79500 73295
L79500 73239
L79528 73183
L79584 73155
L79725 73155
L79781 73127
" />
<path d="M80315 73380
L80315 72789
" />
<path d="M80315 73352
L80259 73380
L80147 73380
L80090 73352
L80062 73323
L80034 73267
L80034 73099
L80062 73042
L80090 73014
L80147 72986
L80259 72986
L80315 73014
" />
<path d="M80456 73436
L80906 73436
" />
<path d="M81046 72986
L81046 73577
" />
<path d="M81046 73014
L81103 72986
L81215 72986
L81271 73014
L81300 73042
L81328 73099
L81328 73267
L81300 73323
L81271 73352
L81215 73380
L81103 73380
L81046 73352
" />
<path d="M81834 73352
L81778 73380
L81665 73380
L81609 73352
L81581 73323
L81553 73267
L81553 73099
L81581 73042
L81609 73014
L81665 72986
L81778 72986
L81834 73014
" />
<path d="M82087 73380
L82087 72789
" />
<path d="M82087 73014
L82143 72986
L82256 72986
L82312 73014
L82340 73042
L82368 73099
L82368 73267
L82340 73323
L82312 73352
L82256 73380
L82143 73380
L82087 73352
" />
</g>
<g style="fill:#000000; fill-opacity:0.0; 
stroke:#000000; stroke-width:39.3701; stroke-opacity:1; 
stroke-linecap:round; stroke-linejoin:round;">
</g>
<g style="fill:#000000; fill-opacity:0.0; 
stroke:#000000; stroke-width:59.0551; stroke-opacity:1; 
stroke-linecap:round; stroke-linejoin:round;">
<path d="M69685 71459
L112205 71459
" />
</g>
<g style="fill:#000000; fill-opacity:0.0; 
stroke:#000000; stroke-width:39.3701; stroke-opacity:1; 
stroke-linecap:round; stroke-linejoin:round;">
</g>
<g style="fill:#000000; fill-opacity:0.0; 
stroke:#000000; stroke-width:59.0551; stroke-opacity:1; 
stroke-linecap:round; stroke-linejoin:round;">
<path d="M70192 72289
L70276 72317
L70417 72317
L70473 72289
L70501 72260
L70529 72204
L70529 72148
L70501 72092
L70473 72064
L70417 72036
L70304 72007
L70248 71979
L70220 71951
L70192 71895
L70192 71839
L70220 71782
L70248 71754
L70304 71726
L70445 71726
L70529 71754
" />
<path d="M70782 72317
L70782 71726
" />
<path d="M71035 72317
L71035 72007
L71007 71951
L70951 71923
L70867 71923
L70810 71951
L70782 71979
" />
<path d="M71541 72289
L71485 72317
L71373 72317
L71316 72289
L71288 72232
L71288 72007
L71316 71951
L71373 71923
L71485 71923
L71541 71951
L71570 72007
L71570 72064
L71288 72120
" />
<path d="M72048 72289
L71991 72317
L71879 72317
L71823 72289
L71795 72232
L71795 72007
L71823 71951
L71879 71923
L71991 71923
L72048 71951
L72076 72007
L72076 72064
L71795 72120
" />
<path d="M72244 71923
L72469 71923
" />
<path d="M72329 71726
L72329 72232
L72357 72289
L72413 72317
L72469 72317
" />
<path d="M72666 72260
L72694 72289
L72666 72317
L72638 72289
L72666 72260
L72666 72317
" />
<path d="M72666 71951
L72694 71979
L72666 72007
L72638 71979
L72666 71951
L72666 72007
" />
</g>
<g style="fill:#000000; fill-opacity:0.0; 
stroke:#000000; stroke-width:39.3701; stroke-opacity:1; 
stroke-linecap:round; stroke-linejoin:round;">
</g>
<g style="fill:#000000; fill-opacity:0.0; 
stroke:#000000; stroke-width:59.0551; stroke-opacity:1; 
stroke-linecap:round; stroke-linejoin:round;">
<path d="M77559 75396
L77559 76577
" />
</g>
<g style="fill:#000000; fill-opacity:0.0; 
stroke:#000000; stroke-width:39.3701; stroke-opacity:1; 
stroke-linecap:round; stroke-linejoin:round;">
</g>
<g style="fill:#000000; fill-opacity:0.0; 
stroke:#000000; stroke-width:59.0551; stroke-opacity:1; 
stroke-linecap:round; stroke-linejoin:round;">
<path d="M102756 75396
L102756 77955
" />
</g>
<g style="fill:#840000; fill-opacity:0.0; 
stroke:#840000; stroke-width:59.0551; stroke-opacity:1; 
stroke-linecap:round; stroke-linejoin:round;">
</g>
<g style="fill:#840000; fill-opacity:0.0; 
stroke:#840000; stroke-width:0; stroke-opacity:1; 
stroke-linecap:round; stroke-linejoin:round;">
</g>
<g style="fill:#840000; fill-opacity:1.0; 
stroke:#840000; stroke-width:0; stroke-opacity:1; 
stroke-linecap:round; stroke-linejoin:round;">
<polyline style="fill-rule:evenodd;"
points="20801,27365
20998,27365
20998,27601
20801,27601
20801,27365
" /> 
<polyline style="fill-rule:evenodd;"
points="20801,27798
20998,27798
20998,28034
20801,28034
20801,27798
" /> 
<polyline style="fill-rule:evenodd;"
points="21792,18710
22599,18710
22599,18946
21792,18946
21792,18710
" /> 
<polyline style="fill-rule:evenodd;"
points="21792,19182
22225,19182
22225,19418
21792,19418
21792,19182
" /> 
<polyline style="fill-rule:evenodd;"
points="21792,19654
22225,19654
22225,19890
21792,19890
21792,19654
" /> 
<polyline style="fill-rule:evenodd;"
points="22974,19654
23407,19654
23407,19890
22974,19890
22974,19654
" /> 
<polyline style="fill-rule:evenodd;"
points="22974,19182
23407,19182
23407,19418
22974,19418
22974,19182
" /> 
<polyline style="fill-rule:evenodd;"
points="22974,18710
23407,18710
23407,18946
22974,18946
22974,18710
" /> 
<polyline style="fill-rule:evenodd;"
points="20504,25501
20327,25501
20327,24930
20504,24930
20504,25501
" /> 
<polyline style="fill-rule:evenodd;"
points="20760,25501
20583,25501
20583,24930
20760,24930
20760,25501
" /> 
<polyline style="fill-rule:evenodd;"
points="21016,25501
20839,25501
20839,24930
21016,24930
21016,25501
" /> 
<polyline style="fill-rule:evenodd;"
points="21272,25501
21095,25501
21095,24930
21272,24930
21272,25501
" /> 
<polyline style="fill-rule:evenodd;"
points="21272,23769
21095,23769
21095,23198
21272,23198
21272,23769
" /> 
<polyline style="fill-rule:evenodd;"
points="21016,23769
20839,23769
20839,23198
21016,23198
21016,23769
" /> 
<polyline style="fill-rule:evenodd;"
points="20760,23769
20583,23769
20583,23198
20760,23198
20760,23769
" /> 
<polyline style="fill-rule:evenodd;"
points="20504,23769
20327,23769
20327,23198
20504,23198
20504,23769
" /> 
<polyline style="fill-rule:evenodd;"
points="21274,24700
20325,24700
20325,23999
21274,23999
21274,24700
" /> 
<circle cx="14700" cy="23500" r="492.126" /> 
</g>
<g style="fill:#840000; fill-opacity:1.0; 
stroke:#840000; stroke-width:39.3701; stroke-opacity:1; 
stroke-linecap:round; stroke-linejoin:round;">
</g>
<g style="fill:#840000; fill-opacity:1.0; 
stroke:#840000; stroke-width:0; stroke-opacity:1; 
stroke-linecap:round; stroke-linejoin:round;">
<circle cx="13700" cy="22500" r="511.811" /> 
</g>
<g style="fill:#840000; fill-opacity:1.0; 
stroke:#840000; stroke-width:39.3701; stroke-opacity:1; 
stroke-linecap:round; stroke-linejoin:round;">
</g>
<g style="fill:#840000; fill-opacity:1.0; 
stroke:#840000; stroke-width:0; stroke-opacity:1; 
stroke-linecap:round; stroke-linejoin:round;">
<circle cx="13700" cy="24500" r="511.811" /> 
</g>
<g style="fill:#840000; fill-opacity:1.0; 
stroke:#840000; stroke-width:39.3701; stroke-opacity:1; 
stroke-linecap:round; stroke-linejoin:round;">
</g>
<g style="fill:#840000; fill-opacity:1.0; 
stroke:#840000; stroke-width:0; stroke-opacity:1; 
stroke-linecap:round; stroke-linejoin:round;">
<circle cx="15700" cy="24500" r="511.811" /> 
</g>
<g style="fill:#840000; fill-opacity:1.0; 
stroke:#840000; stroke-width:39.3701; stroke-opacity:1; 
stroke-linecap:round; stroke-linejoin:round;">
</g>
<g style="fill:#840000; fill-opacity:1.0; 
stroke:#840000; stroke-width:0; stroke-opacity:1; 
stroke-linecap:round; stroke-linejoin:round;">
<circle cx="15700" cy="22500" r="511.811" /> 
</g>
<g style="fill:#840000; fill-opacity:1.0; 
stroke:#840000; stroke-width:39.3701; stroke-opacity:1; 
stroke-linecap:round; stroke-linejoin:round;">
</g>
<g style="fill:#840000; fill-opacity:1.0; 
stroke:#840000; stroke-width:0; stroke-opacity:1; 
stroke-linecap:round; stroke-linejoin:round;">
<polyline style="fill-rule:evenodd;"
points="27053,19157
26722,19157
26722,19055
27053,19055
27053,19157
" /> 
<polyline style="fill-rule:evenodd;"
points="27053,19354
26722,19354
26722,19251
27053,19251
27053,19354
" /> 
<polyline style="fill-rule:evenodd;"
points="27053,19551
26722,19551
26722,19448
27053,19448
27053,19551
" /> 
<polyline style="fill-rule:evenodd;"
points="27053,19748
26722,19748
26722,19645
27053,19645
27053,19748
" /> 
<polyline style="fill-rule:evenodd;"
points="27053,19944
26722,19944
26722,19842
27053,19842
27053,19944
" /> 
<polyline style="fill-rule:evenodd;"
points="27307,20096
27307,20427
27205,20427
27205,20096
27307,20096
" /> 
<polyline style="fill-rule:evenodd;"
points="27504,20096
27504,20427
27401,20427
27401,20096
27504,20096
" /> 
<polyline style="fill-rule:evenodd;"
points="27701,20096
27701,20427
27598,20427
27598,20096
27701,20096
" /> 
<polyline style="fill-rule:evenodd;"
points="27898,20096
27898,20427
27795,20427
27795,20096
27898,20096
" /> 
<polyline style="fill-rule:evenodd;"
points="28094,20096
28094,20427
27992,20427
27992,20096
28094,20096
" /> 
<polyline style="fill-rule:evenodd;"
points="28246,19842
28577,19842
28577,19944
28246,19944
28246,19842
" /> 
<polyline style="fill-rule:evenodd;"
points="28246,19645
28577,19645
28577,19748
28246,19748
28246,19645
" /> 
<polyline style="fill-rule:evenodd;"
points="28246,19448
28577,19448
28577,19551
28246,19551
28246,19448
" /> 
<polyline style="fill-rule:evenodd;"
points="28246,19251
28577,19251
28577,19354
28246,19354
28246,19251
" /> 
<polyline style="fill-rule:evenodd;"
points="28246,19055
28577,19055
28577,19157
28246,19157
28246,19055
" /> 
<polyline style="fill-rule:evenodd;"
points="27992,18903
27992,18572
28094,18572
28094,18903
27992,18903
" /> 
<polyline style="fill-rule:evenodd;"
points="27795,18903
27795,18572
27898,18572
27898,18903
27795,18903
" /> 
<polyline style="fill-rule:evenodd;"
points="27598,18903
27598,18572
27701,18572
27701,18903
27598,18903
" /> 
<polyline style="fill-rule:evenodd;"
points="27401,18903
27401,18572
27504,18572
27504,18903
27401,18903
" /> 
<polyline style="fill-rule:evenodd;"
points="27205,18903
27205,18572
27307,18572
27307,18903
27205,18903
" /> 
<polyline style="fill-rule:evenodd;"
points="27138,20011
27138,18988
28161,18988
28161,20011
27138,20011
" /> 
<polyline style="fill-rule:evenodd;"
points="32265,17634
32265,16965
32934,16965
32934,17634
32265,17634
" /> 
</g>
<g style="fill:#840000; fill-opacity:1.0; 
stroke:#840000; stroke-width:669.291; stroke-opacity:1; 
stroke-linecap:round; stroke-linejoin:round;">
</g>
<g style="fill:#840000; fill-opacity:0.0; 
stroke:#840000; stroke-width:669.291; stroke-opacity:1; 
stroke-linecap:round; stroke-linejoin:round;">
<path d="M32600 18300
L32600 18300
" />
<path d="M32600 19300
L32600 19300
" />
<path d="M32600 20300
L32600 20300
" />
<path d="M32600 21300
L32600 21300
" />
<path d="M32600 22300
L32600 22300
" />
<path d="M32600 23300
L32600 23300
" />
<path d="M32600 24300
L32600 24300
" />
</g>
<g style="fill:#840000; fill-opacity:0.0; 
stroke:#840000; stroke-width:0; stroke-opacity:1; 
stroke-linecap:round; stroke-linejoin:round;">
</g>
<g style="fill:#840000; fill-opacity:1.0; 
stroke:#840000; stroke-width:0; stroke-opacity:1; 
stroke-linecap:round; stroke-linejoin:round;">
<polyline style="fill-rule:evenodd;"
points="16748,23634
16551,23634
16551,23398
16748,23398
16748,23634
" /> 
<polyline style="fill-rule:evenodd;"
points="16748,23201
16551,23201
16551,22965
16748,22965
16748,23201
" /> 
<polyline style="fill-rule:evenodd;"
points="17948,23584
17751,23584
17751,23348
17948,23348
17948,23584
" /> 
<polyline style="fill-rule:evenodd;"
points="17948,23151
17751,23151
17751,22915
17948,22915
17948,23151
" /> 
<polyline style="fill-rule:evenodd;"
points="18165,23598
18165,23401
18401,23401
18401,23598
18165,23598
" /> 
<polyline style="fill-rule:evenodd;"
points="18598,23598
18598,23401
18834,23401
18834,23598
18598,23598
" /> 
<polyline style="fill-rule:evenodd;"
points="19248,23584
19051,23584
19051,23348
19248,23348
19248,23584
" /> 
<polyline style="fill-rule:evenodd;"
points="19248,23151
19051,23151
19051,22915
19248,22915
19248,23151
" /> 
<polyline style="fill-rule:evenodd;"
points="22065,27598
22065,27401
22301,27401
22301,27598
22065,27598
" /> 
<polyline style="fill-rule:evenodd;"
points="22498,27598
22498,27401
22734,27401
22734,27598
22498,27598
" /> 
<polyline style="fill-rule:evenodd;"
points="23401,27415
23598,27415
23598,27651
23401,27651
23401,27415
" /> 
<polyline style="fill-rule:evenodd;"
points="23401,27848
23598,27848
23598,28084
23401,28084
23401,27848
" /> 
<polyline style="fill-rule:evenodd;"
points="22951,27415
23148,27415
23148,27651
22951,27651
22951,27415
" /> 
<polyline style="fill-rule:evenodd;"
points="22951,27848
23148,27848
23148,28084
22951,28084
22951,27848
" /> 
<polyline style="fill-rule:evenodd;"
points="20301,25915
20498,25915
20498,26151
20301,26151
20301,25915
" /> 
<polyline style="fill-rule:evenodd;"
points="20301,26348
20498,26348
20498,26584
20301,26584
20301,26348
" /> 
<polyline style="fill-rule:evenodd;"
points="16994,23618
16994,23381
17151,23381
17151,23618
16994,23618
" /> 
<polyline style="fill-rule:evenodd;"
points="17348,23618
17348,23381
17505,23381
17505,23618
17348,23618
" /> 
<polyline style="fill-rule:evenodd;"
points="21294,27618
21294,27381
21451,27381
21451,27618
21294,27618
" /> 
<polyline style="fill-rule:evenodd;"
points="21648,27618
21648,27381
21805,27381
21805,27618
21648,27618
" /> 
<polyline style="fill-rule:evenodd;"
points="20518,22905
20281,22905
20281,22748
20518,22748
20518,22905
" /> 
<polyline style="fill-rule:evenodd;"
points="20518,22551
20281,22551
20281,22394
20518,22394
20518,22551
" /> 
<polyline style="fill-rule:evenodd;"
points="19531,23444
19768,23444
19768,23601
19531,23601
19531,23444
" /> 
<polyline style="fill-rule:evenodd;"
points="19531,23798
19768,23798
19768,23955
19531,23955
19531,23798
" /> 
<polyline style="fill-rule:evenodd;"
points="23894,27618
23894,27381
24051,27381
24051,27618
23894,27618
" /> 
<polyline style="fill-rule:evenodd;"
points="24248,27618
24248,27381
24405,27381
24405,27618
24248,27618
" /> 
<polyline style="fill-rule:evenodd;"
points="25018,27955
24781,27955
24781,27798
25018,27798
25018,27955
" /> 
<polyline style="fill-rule:evenodd;"
points="25018,27601
24781,27601
24781,27444
25018,27444
25018,27601
" /> 
<polyline style="fill-rule:evenodd;"
points="20281,27044
20518,27044
20518,27201
20281,27201
20281,27044
" /> 
<polyline style="fill-rule:evenodd;"
points="20281,27398
20518,27398
20518,27555
20281,27555
20281,27398
" /> 
<polyline style="fill-rule:evenodd;"
points="25268,24105
25031,24105
25031,23948
25268,23948
25268,24105
" /> 
<polyline style="fill-rule:evenodd;"
points="25268,23751
25031,23751
25031,23594
25268,23594
25268,23751
" /> 
<polyline style="fill-rule:evenodd;"
points="27155,24531
27155,24768
26998,24768
26998,24531
27155,24531
" /> 
<polyline style="fill-rule:evenodd;"
points="26801,24531
26801,24768
26644,24768
26644,24531
26801,24531
" /> 
<polyline style="fill-rule:evenodd;"
points="20484,21901
20484,22098
20248,22098
20248,21901
20484,21901
" /> 
<polyline style="fill-rule:evenodd;"
points="20051,21901
20051,22098
19815,22098
19815,21901
20051,21901
" /> 
<polyline style="fill-rule:evenodd;"
points="20498,21634
20301,21634
20301,21398
20498,21398
20498,21634
" /> 
<polyline style="fill-rule:evenodd;"
points="20498,21201
20301,21201
20301,20965
20498,20965
20498,21201
" /> 
<polyline style="fill-rule:evenodd;"
points="21798,25334
21601,25334
21601,25098
21798,25098
21798,25334
" /> 
<polyline style="fill-rule:evenodd;"
points="21798,24901
21601,24901
21601,24665
21798,24665
21798,24901
" /> 
<polyline style="fill-rule:evenodd;"
points="23765,19398
23765,19201
24001,19201
24001,19398
23765,19398
" /> 
<polyline style="fill-rule:evenodd;"
points="24198,19398
24198,19201
24434,19201
24434,19398
24198,19398
" /> 
<polyline style="fill-rule:evenodd;"
points="25248,23334
25051,23334
25051,23098
25248,23098
25248,23334
" /> 
<polyline style="fill-rule:evenodd;"
points="25248,22901
25051,22901
25051,22665
25248,22665
25248,22901
" /> 
<polyline style="fill-rule:evenodd;"
points="25065,19798
25065,19601
25301,19601
25301,19798
25065,19798
" /> 
<polyline style="fill-rule:evenodd;"
points="25498,19798
25498,19601
25734,19601
25734,19798
25498,19798
" /> 
<polyline style="fill-rule:evenodd;"
points="25698,19384
25501,19384
25501,19148
25698,19148
25698,19384
" /> 
<polyline style="fill-rule:evenodd;"
points="25698,18951
25501,18951
25501,18715
25698,18715
25698,18951
" /> 
<polyline style="fill-rule:evenodd;"
points="25965,21948
25965,21751
26201,21751
26201,21948
25965,21948
" /> 
<polyline style="fill-rule:evenodd;"
points="26398,21948
26398,21751
26634,21751
26634,21948
26398,21948
" /> 
<polyline style="fill-rule:evenodd;"
points="26648,21184
26451,21184
26451,20948
26648,20948
26648,21184
" /> 
<polyline style="fill-rule:evenodd;"
points="26648,20751
26451,20751
26451,20515
26648,20515
26648,20751
" /> 
<polyline style="fill-rule:evenodd;"
points="20281,18844
20518,18844
20518,19001
20281,19001
20281,18844
" /> 
<polyline style="fill-rule:evenodd;"
points="20281,19198
20518,19198
20518,19355
20281,19355
20281,19198
" /> 
<polyline style="fill-rule:evenodd;"
points="26005,22631
26005,22868
25848,22868
25848,22631
26005,22631
" /> 
<polyline style="fill-rule:evenodd;"
points="25651,22631
25651,22868
25494,22868
25494,22631
25651,22631
" /> 
<polyline style="fill-rule:evenodd;"
points="24744,19418
24744,19181
24901,19181
24901,19418
24744,19418
" /> 
<polyline style="fill-rule:evenodd;"
points="25098,19418
25098,19181
25255,19181
25255,19418
25098,19418
" /> 
<polyline style="fill-rule:evenodd;"
points="25668,22305
25431,22305
25431,22148
25668,22148
25668,22305
" /> 
<polyline style="fill-rule:evenodd;"
points="25668,21951
25431,21951
25431,21794
25668,21794
25668,21951
" /> 
<polyline style="fill-rule:evenodd;"
points="26218,19755
25981,19755
25981,19598
26218,19598
26218,19755
" /> 
<polyline style="fill-rule:evenodd;"
points="26218,19401
25981,19401
25981,19244
26218,19244
26218,19401
" /> 
<polyline style="fill-rule:evenodd;"
points="26168,21505
25931,21505
25931,21348
26168,21348
26168,21505
" /> 
<polyline style="fill-rule:evenodd;"
points="26168,21151
25931,21151
25931,20994
26168,20994
26168,21151
" /> 
<polyline style="fill-rule:evenodd;"
points="26094,20268
26094,20031
26251,20031
26251,20268
26094,20268
" /> 
<polyline style="fill-rule:evenodd;"
points="26448,20268
26448,20031
26605,20031
26605,20268
26448,20268
" /> 
<polyline style="fill-rule:evenodd;"
points="26031,24331
26268,24331
26268,24942
26031,24942
26031,24331
" /> 
<polyline style="fill-rule:evenodd;"
points="25531,24331
25768,24331
25768,24942
25531,24942
25531,24331
" /> 
<polyline style="fill-rule:evenodd;"
points="25031,24331
25268,24331
25268,24942
25031,24942
25031,24331
" /> 
<polyline style="fill-rule:evenodd;"
points="24531,24331
24768,24331
24768,24942
24531,24942
24531,24331
" /> 
<polyline style="fill-rule:evenodd;"
points="24531,26457
24768,26457
24768,27068
24531,27068
24531,26457
" /> 
<polyline style="fill-rule:evenodd;"
points="25031,26457
25268,26457
25268,27068
25031,27068
25031,26457
" /> 
<polyline style="fill-rule:evenodd;"
points="25531,26457
25768,26457
25768,27068
25531,27068
25531,26457
" /> 
<polyline style="fill-rule:evenodd;"
points="26031,26457
26268,26457
26268,27068
26031,27068
26031,26457
" /> 
<polyline style="fill-rule:evenodd;"
points="24750,25400
26050,25400
26050,26000
24750,26000
24750,25400
" /> 
<polyline style="fill-rule:evenodd;"
points="29390,16407
29390,17392
28642,17392
28642,16407
29390,16407
" /> 
<polyline style="fill-rule:evenodd;"
points="27657,16407
27657,17392
26909,17392
26909,16407
27657,16407
" /> 
<polyline style="fill-rule:evenodd;"
points="20815,19398
20815,19201
21051,19201
21051,19398
20815,19398
" /> 
<polyline style="fill-rule:evenodd;"
points="21248,19398
21248,19201
21484,19201
21484,19398
21248,19398
" /> 
<polyline style="fill-rule:evenodd;"
points="21744,20918
21744,20681
21901,20681
21901,20918
21744,20918
" /> 
<polyline style="fill-rule:evenodd;"
points="22098,20918
22098,20681
22255,20681
22255,20918
22098,20918
" /> 
<polyline style="fill-rule:evenodd;"
points="21568,21505
21331,21505
21331,21348
21568,21348
21568,21505
" /> 
<polyline style="fill-rule:evenodd;"
points="21568,21151
21331,21151
21331,20994
21568,20994
21568,21151
" /> 
<polyline style="fill-rule:evenodd;"
points="20263,20602
20145,20602
20145,20405
20263,20405
20263,20602
" /> 
<polyline style="fill-rule:evenodd;"
points="20460,20602
20342,20602
20342,20405
20460,20405
20460,20602
" /> 
<polyline style="fill-rule:evenodd;"
points="20657,20602
20539,20602
20539,20405
20657,20405
20657,20602
" /> 
<polyline style="fill-rule:evenodd;"
points="20854,20602
20736,20602
20736,20405
20854,20405
20854,20602
" /> 
<polyline style="fill-rule:evenodd;"
points="20854,19894
20736,19894
20736,19697
20854,19697
20854,19894
" /> 
<polyline style="fill-rule:evenodd;"
points="20657,19894
20539,19894
20539,19697
20657,19697
20657,19894
" /> 
<polyline style="fill-rule:evenodd;"
points="20460,19894
20342,19894
20342,19697
20460,19697
20460,19894
" /> 
<polyline style="fill-rule:evenodd;"
points="20263,19894
20145,19894
20145,19697
20263,19697
20263,19894
" /> 
<polyline style="fill-rule:evenodd;"
points="20846,20358
20500,20358
20500,19941
20846,19941
20846,20358
" /> 
<polyline style="fill-rule:evenodd;"
points="20500,20358
20153,20358
20153,19941
20500,19941
20500,20358
" /> 
<polyline style="fill-rule:evenodd;"
points="31198,26684
31001,26684
31001,26448
31198,26448
31198,26684
" /> 
<polyline style="fill-rule:evenodd;"
points="31198,26251
31001,26251
31001,26015
31198,26015
31198,26251
" /> 
<polyline style="fill-rule:evenodd;"
points="30298,26684
30101,26684
30101,26448
30298,26448
30298,26684
" /> 
<polyline style="fill-rule:evenodd;"
points="30298,26251
30101,26251
30101,26015
30298,26015
30298,26251
" /> 
<polyline style="fill-rule:evenodd;"
points="28401,21165
28598,21165
28598,21401
28401,21401
28401,21165
" /> 
<polyline style="fill-rule:evenodd;"
points="28401,21598
28598,21598
28598,21834
28401,21834
28401,21598
" /> 
<polyline style="fill-rule:evenodd;"
points="28901,21165
29098,21165
29098,21401
28901,21401
28901,21165
" /> 
<polyline style="fill-rule:evenodd;"
points="28901,21598
29098,21598
29098,21834
28901,21834
28901,21598
" /> 
<polyline style="fill-rule:evenodd;"
points="27901,21165
28098,21165
28098,21401
27901,21401
27901,21165
" /> 
<polyline style="fill-rule:evenodd;"
points="27901,21598
28098,21598
28098,21834
27901,21834
27901,21598
" /> 
</g>
<g style="fill:#C2C2C2; fill-opacity:1.0; 
stroke:#C2C2C2; stroke-width:0; stroke-opacity:1; 
stroke-linecap:round; stroke-linejoin:round;">
<circle cx="28200" cy="23750" r="118.11" /> 
</g>
<g style="fill:#C2C2C2; fill-opacity:1.0; 
stroke:#C2C2C2; stroke-width:39.3701; stroke-opacity:1; 
stroke-linecap:round; stroke-linejoin:round;">
</g>
<g style="fill:#C2C2C2; fill-opacity:1.0; 
stroke:#C2C2C2; stroke-width:0; stroke-opacity:1; 
stroke-linecap:round; stroke-linejoin:round;">
<circle cx="23350" cy="23750" r="118.11" /> 
</g>
<g style="fill:#C2C2C2; fill-opacity:1.0; 
stroke:#C2C2C2; stroke-width:39.3701; stroke-opacity:1; 
stroke-linecap:round; stroke-linejoin:round;">
</g>
<g style="fill:#C2C2C2; fill-opacity:1.0; 
stroke:#C2C2C2; stroke-width:0; stroke-opacity:1; 
stroke-linecap:round; stroke-linejoin:round;">
<circle cx="27550" cy="23050" r="118.11" /> 
</g>
<g style="fill:#C2C2C2; fill-opacity:1.0; 
stroke:#C2C2C2; stroke-width:39.3701; stroke-opacity:1; 
stroke-linecap:round; stroke-linejoin:round;">
</g>
<g style="fill:#C2C2C2; fill-opacity:1.0; 
stroke:#C2C2C2; stroke-width:0; stroke-opacity:1; 
stroke-linecap:round; stroke-linejoin:round;">
<circle cx="24000" cy="23050" r="118.11" /> 
</g>
<g style="fill:#C2C2C2; fill-opacity:1.0; 
stroke:#C2C2C2; stroke-width:39.3701; stroke-opacity:1; 
stroke-linecap:round; stroke-linejoin:round;">
</g>
<g style="fill:#C2C2C2; fill-opacity:1.0; 
stroke:#C2C2C2; stroke-width:0; stroke-opacity:1; 
stroke-linecap:round; stroke-linejoin:round;">
<circle cx="31100" cy="18900" r="118.11" /> 
</g>
<g style="fill:#C2C2C2; fill-opacity:1.0; 
stroke:#C2C2C2; stroke-width:39.3701; stroke-opacity:1; 
stroke-linecap:round; stroke-linejoin:round;">
</g>
<g style="fill:#C2C2C2; fill-opacity:1.0; 
stroke:#C2C2C2; stroke-width:0; stroke-opacity:1; 
stroke-linecap:round; stroke-linejoin:round;">
<circle cx="29650" cy="21200" r="118.11" /> 
</g>
<g style="fill:#C2C2C2; fill-opacity:1.0; 
stroke:#C2C2C2; stroke-width:39.3701; stroke-opacity:1; 
stroke-linecap:round; stroke-linejoin:round;">
</g>
<g style="fill:#C2C2C2; fill-opacity:1.0; 
stroke:#C2C2C2; stroke-width:0; stroke-opacity:1; 
stroke-linecap:round; stroke-linejoin:round;">
<circle cx="29950" cy="19050" r="118.11" /> 
</g>
<g style="fill:#C2C2C2; fill-opacity:1.0; 
stroke:#C2C2C2; stroke-width:39.3701; stroke-opacity:1; 
stroke-linecap:round; stroke-linejoin:round;">
</g>
<g style="fill:#C2C2C2; fill-opacity:1.0; 
stroke:#C2C2C2; stroke-width:0; stroke-opacity:1; 
stroke-linecap:round; stroke-linejoin:round;">
<circle cx="29950" cy="20000" r="118.11" /> 
</g>
<g style="fill:#C2C2C2; fill-opacity:1.0; 
stroke:#C2C2C2; stroke-width:39.3701; stroke-opacity:1; 
stroke-linecap:round; stroke-linejoin:round;">
</g>
<g style="fill:#840000; fill-opacity:1.0; 
stroke:#840000; stroke-width:39.3701; stroke-opacity:1; 
stroke-linecap:round; stroke-linejoin:round;">
</g>
<g style="fill:#840000; fill-opacity:1.0; 
stroke:#840000; stroke-width:100; stroke-opacity:1; 
stroke-linecap:round; stroke-linejoin:round;">
</g>
<g style="fill:#840000; fill-opacity:0.0; 
stroke:#840000; stroke-width:100; stroke-opacity:1; 
stroke-linecap:round; stroke-linejoin:round;">
<path d="M16400 23500
L16633 23500
" />
<path d="M16633 23500
L16650 23516
" />
<path d="M17072 23500
L16400 23500
" />
<path d="M16400 23500
L14700 23500
" />
</g>
<g style="fill:#840000; fill-opacity:0.0; 
stroke:#840000; stroke-width:200; stroke-opacity:1; 
stroke-linecap:round; stroke-linejoin:round;">
<path d="M27650 18738
L27650 18400
" />
<path d="M27650 18400
L27450 18200
" />
<path d="M27650 18738
L27650 19500
" />
<path d="M26888 19106
L27256 19106
" />
<path d="M27256 19106
L27650 19500
" />
<path d="M20672 23483
L20672 22727
" />
<path d="M20672 22727
L20950 22450
" />
<path d="M20672 23483
L20672 24222
" />
<path d="M20672 24222
L20800 24350
" />
<path d="M20672 25216
L20672 24477
" />
<path d="M20672 24477
L20800 24350
" />
<path d="M20672 25216
L20672 25772
" />
<path d="M20672 25772
L21050 26150
" />
</g>
<g style="fill:#840000; fill-opacity:0.0; 
stroke:#840000; stroke-width:100; stroke-opacity:1; 
stroke-linecap:round; stroke-linejoin:round;">
<path d="M20750 27477
L20893 27477
" />
<path d="M20893 27477
L20900 27483
" />
<path d="M20400 27477
L20750 27477
" />
<path d="M20750 27477
L21350 27477
" />
<path d="M21350 27477
L21372 27500
" />
<path d="M20400 22150
L20400 22033
" />
<path d="M20400 22033
L20366 22000
" />
<path d="M20400 22150
L20400 21516
" />
<path d="M20400 22472
L20400 22150
" />
<path d="M17700 23500
L17816 23500
" />
<path d="M17816 23500
L17850 23466
" />
<path d="M18283 23500
L17700 23500
" />
<path d="M17700 23500
L17427 23500
" />
<path d="M18950 23500
L19116 23500
" />
<path d="M19116 23500
L19150 23466
" />
<path d="M19500 23500
L19627 23500
" />
<path d="M19627 23500
L19650 23522
" />
<path d="M18716 23500
L18950 23500
" />
<path d="M18950 23500
L19500 23500
" />
<path d="M19500 23500
L20400 23500
" />
<path d="M20400 23500
L20416 23483
" />
<path d="M20416 23483
L20416 22843
" />
</g>
<g style="fill:#840000; fill-opacity:0.0; 
stroke:#840000; stroke-width:157.48; stroke-opacity:1; 
stroke-linecap:round; stroke-linejoin:round;">
<path d="M20416 22843
L20400 22827
" />
</g>
<g style="fill:#840000; fill-opacity:0.0; 
stroke:#840000; stroke-width:100; stroke-opacity:1; 
stroke-linecap:round; stroke-linejoin:round;">
<path d="M21727 27500
L22183 27500
" />
<path d="M23300 27500
L23466 27500
" />
<path d="M23466 27500
L23500 27533
" />
<path d="M22850 27500
L23016 27500
" />
<path d="M23016 27500
L23050 27533
" />
<path d="M22616 27500
L22850 27500
" />
<path d="M22850 27500
L23300 27500
" />
<path d="M23300 27500
L23972 27500
" />
<path d="M20400 21083
L20400 20505
" />
<path d="M20400 20505
L20401 20504
" />
<path d="M21183 25216
L21699 25216
" />
</g>
<g style="fill:#840000; fill-opacity:0.0; 
stroke:#840000; stroke-width:157.48; stroke-opacity:1; 
stroke-linecap:round; stroke-linejoin:round;">
<path d="M21699 25216
L21700 25216
" />
</g>
<g style="fill:#840000; fill-opacity:0.0; 
stroke:#840000; stroke-width:100; stroke-opacity:1; 
stroke-linecap:round; stroke-linejoin:round;">
<path d="M20416 25216
L20416 26017
" />
<path d="M20416 26017
L20400 26033
" />
<path d="M20416 25216
L20266 25216
" />
<path d="M19650 24600
L19650 23877
" />
<path d="M20266 25216
L19650 24600
" />
<path d="M20400 26466
L20400 27122
" />
<path d="M23883 19300
L23191 19300
" />
<path d="M24822 19300
L24822 19572
" />
<path d="M24950 19700
L25183 19700
" />
<path d="M24822 19572
L24950 19700
" />
<path d="M24316 19300
L24822 19300
" />
<path d="M25150 23672
L25150 23216
" />
<path d="M25572 22750
L25572 22250
" />
<path d="M25572 22250
L25550 22227
" />
<path d="M25150 22783
L25539 22783
" />
<path d="M25539 22783
L25572 22750
" />
<path d="M25616 19700
L26077 19700
" />
</g>
<g style="fill:#840000; fill-opacity:0.0; 
stroke:#840000; stroke-width:157.48; stroke-opacity:1; 
stroke-linecap:round; stroke-linejoin:round;">
<path d="M26077 19700
L26100 19677
" />
</g>
<g style="fill:#840000; fill-opacity:0.0; 
stroke:#840000; stroke-width:100; stroke-opacity:1; 
stroke-linecap:round; stroke-linejoin:round;">
<path d="M26888 19500
L26277 19500
" />
<path d="M26277 19500
L26100 19677
" />
<path d="M26888 19303
L26119 19303
" />
<path d="M26119 19303
L26100 19322
" />
<path d="M25900 19300
L26077 19300
" />
<path d="M26077 19300
L26100 19322
" />
<path d="M25400 19300
L25566 19300
" />
<path d="M25566 19300
L25600 19266
" />
<path d="M25177 19300
L25400 19300
" />
<path d="M25400 19300
L25900 19300
" />
<path d="M26550 21066
L26056 21066
" />
<path d="M26056 21066
L26050 21072
" />
<path d="M26527 19872
L26527 20150
" />
<path d="M26527 20150
L26527 20610
" />
<path d="M26527 20610
L26550 20633
" />
<path d="M26703 19696
L26527 19872
" />
<path d="M25400 26762
L25400 27350
" />
<path d="M25227 27522
L24900 27522
" />
<path d="M25400 27350
L25227 27522
" />
<path d="M25150 26762
L25400 26762
" />
<path d="M25400 26762
L25650 26762
" />
<path d="M24922 27500
L24900 27522
" />
<path d="M24700 27500
L24877 27500
" />
<path d="M24877 27500
L24900 27522
" />
<path d="M24327 27500
L24700 27500
" />
</g>
<g style="fill:#840000; fill-opacity:0.0; 
stroke:#840000; stroke-width:200; stroke-opacity:1; 
stroke-linecap:round; stroke-linejoin:round;">
<path d="M30200 26566
L30200 26650
" />
<path d="M30200 26650
L30312 26762
" />
<path d="M31100 26566
L31116 26566
" />
<path d="M31116 26566
L31312 26762
" />
</g>
<g style="fill:#840000; fill-opacity:0.0; 
stroke:#840000; stroke-width:500; stroke-opacity:1; 
stroke-linecap:round; stroke-linejoin:round;">
<path d="M32600 18300
L33850 18300
" />
<path d="M29200 26762
L30312 26762
" />
<path d="M30312 26762
L31312 26762
" />
<path d="M31312 26762
L32187 26762
" />
</g>
<g style="fill:#840000; fill-opacity:0.0; 
stroke:#840000; stroke-width:200; stroke-opacity:1; 
stroke-linecap:round; stroke-linejoin:round;">
<path d="M20400 17150
L21800 15750
" />
<path d="M21800 15750
L33100 15750
" />
<path d="M33100 15750
L33850 16500
" />
<path d="M33850 16500
L33850 18300
" />
<path d="M20400 17150
L20400 18922
" />
</g>
<g style="fill:#840000; fill-opacity:0.0; 
stroke:#840000; stroke-width:500; stroke-opacity:1; 
stroke-linecap:round; stroke-linejoin:round;">
<path d="M33850 25100
L33850 18300
" />
<path d="M32187 26762
L33850 25100
" />
<path d="M26150 26762
L28137 26762
" />
<path d="M28137 26762
L29200 26762
" />
</g>
<g style="fill:#840000; fill-opacity:0.0; 
stroke:#840000; stroke-width:200; stroke-opacity:1; 
stroke-linecap:round; stroke-linejoin:round;">
<path d="M20927 23483
L20927 23022
" />
<path d="M29200 24750
L29200 26762
" />
<path d="M28200 23750
L29200 24750
" />
<path d="M23350 23750
L23350 23750
" />
<path d="M22250 22650
L23350 23750
" />
<path d="M21300 22650
L22250 22650
" />
<path d="M20927 23022
L21300 22650
" />
<path d="M24900 27877
L27022 27877
" />
<path d="M27022 27877
L28137 26762
" />
</g>
<g style="fill:#840000; fill-opacity:0.0; 
stroke:#840000; stroke-width:100; stroke-opacity:1; 
stroke-linecap:round; stroke-linejoin:round;">
<path d="M25150 24637
L25150 24027
" />
<path d="M27077 24650
L27400 24650
" />
<path d="M27700 23550
L28200 23050
" />
<path d="M27700 24350
L27700 23550
" />
<path d="M27400 24650
L27700 24350
" />
<path d="M23700 23050
L24000 23050
" />
<path d="M31800 23300
L32600 23300
" />
<path d="M31550 23050
L31800 23300
" />
<path d="M27550 23050
L28200 23050
" />
<path d="M28200 23050
L31550 23050
" />
<path d="M21450 21427
L22077 21427
" />
<path d="M20927 25627
L20927 25216
" />
<path d="M21100 25800
L20927 25627
" />
<path d="M21950 25800
L21100 25800
" />
<path d="M23700 24050
L21950 25800
" />
<path d="M23700 23050
L23700 24050
" />
<path d="M22077 21427
L23700 23050
" />
<path d="M26150 24637
L26709 24637
" />
<path d="M26709 24637
L26722 24650
" />
<path d="M28200 21225
L28058 21225
" />
<path d="M28058 21225
L28000 21283
" />
<path d="M28650 21225
L28558 21225
" />
<path d="M28558 21225
L28500 21283
" />
<path d="M29250 21225
L29058 21225
" />
<path d="M29058 21225
L29000 21283
" />
<path d="M29575 21225
L29625 21225
" />
<path d="M27625 21225
L28200 21225
" />
<path d="M28200 21225
L28650 21225
" />
<path d="M28650 21225
L29250 21225
" />
<path d="M29250 21225
L29575 21225
" />
<path d="M31850 17300
L32600 17300
" />
<path d="M31100 18050
L31850 17300
" />
<path d="M31100 18800
L31100 18050
" />
<path d="M31100 18800
L31100 18900
" />
<path d="M29625 21225
L29650 21200
" />
<path d="M27625 21225
L27475 21225
" />
<path d="M27256 21006
L27256 20261
" />
<path d="M27475 21225
L27256 21006
" />
<path d="M27625 21225
L27650 21225
" />
<path d="M27650 20261
L27650 21225
" />
<path d="M28414 19700
L30600 19700
" />
<path d="M32200 21300
L30600 19700
" />
<path d="M32200 21300
L32600 21300
" />
<path d="M28414 19700
L28411 19696
" />
<path d="M32600 20300
L32200 20300
" />
<path d="M31400 19500
L28411 19500
" />
<path d="M32200 20300
L31400 19500
" />
<path d="M32600 19300
L28414 19300
" />
<path d="M28414 19300
L28411 19303
" />
<path d="M29600 19050
L28700 19050
" />
<path d="M29950 19050
L29600 19050
" />
<path d="M29950 20100
L29950 20000
" />
<path d="M32150 22300
L29950 20100
" />
<path d="M32600 22300
L32150 22300
" />
<path d="M28643 19106
L28411 19106
" />
<path d="M28700 19050
L28643 19106
" />
<path d="M28411 19106
L28411 19106
" />
<path d="M28043 18738
L28043 17872
" />
<path d="M28043 17872
L29016 16900
" />
<path d="M28850 16900
L29016 16900
" />
<path d="M27846 18738
L27846 17462
" />
<path d="M27846 17462
L27283 16900
" />
<path d="M27296 16912
L27283 16900
" />
<path d="M20401 19795
L20401 19278
" />
<path d="M20401 19278
L20400 19277
" />
<path d="M20933 19300
L20422 19300
" />
<path d="M20422 19300
L20400 19277
" />
<path d="M22009 19300
L21366 19300
" />
<path d="M21822 20800
L21450 20800
" />
<path d="M20598 19795
L20598 19701
" />
<path d="M20598 19701
L20750 19550
" />
<path d="M20750 19550
L21100 19550
" />
<path d="M21100 19550
L21450 19900
" />
<path d="M21450 19900
L21450 20800
" />
<path d="M21450 20800
L21450 21072
" />
<path d="M26083 21850
L26083 21460
" />
<path d="M26083 21460
L26050 21427
" />
<path d="M26083 21850
L25572 21850
" />
<path d="M25572 21850
L25550 21872
" />
<path d="M26888 19696
L26703 19696
" />
</g>
<g style="fill:#840000; fill-opacity:1.0; 
stroke:#840000; stroke-width:78.7402; stroke-opacity:1; 
stroke-linecap:round; stroke-linejoin:round;">
<polyline style="fill-rule:evenodd;"
points="38660,29460
13139,29460
13139,27985
20762,27985
20762,28042
20768,28056
20779,28068
20793,28074
20840,28074
20850,28064
20850,27975
20949,27975
20949,28064
20959,28074
21006,28074
21020,28068
21031,28056
21037,28042
21037,28035
22912,28035
22912,28092
22918,28106
22929,28118
22943,28124
22990,28124
23000,28114
23000,28025
23099,28025
23099,28114
23109,28124
23156,28124
23170,28118
23181,28106
23187,28092
23187,28035
23362,28035
23362,28092
23368,28106
23379,28118
23393,28124
23440,28124
23450,28114
23450,28025
23549,28025
23549,28114
23559,28124
23606,28124
23620,28118
23631,28106
23637,28092
23637,28035
23627,28025
23549,28025
23450,28025
23372,28025
23362,28035
23187,28035
23177,28025
23099,28025
23000,28025
22922,28025
22912,28035
21037,28035
21037,27985
21027,27975
20949,27975
20850,27975
20772,27975
20762,27985
13139,27985
13139,24930
13354,24930
13420,24987
13628,25057
13847,25042
13979,24987
14045,24930
15354,24930
15420,24987
15628,25057
15847,25042
15979,24987
16045,24930
15700,24585
15354,24930
14045,24930
13700,24585
13354,24930
13139,24930
13139,24428
13142,24428
13157,24647
13212,24779
13269,24845
13614,24500
13785,24500
14130,24845
14187,24779
14257,24571
14247,24428
15142,24428
15157,24647
15212,24779
15269,24845
15614,24500
15785,24500
16130,24845
16187,24779
16257,24571
16242,24352
16187,24220
16130,24154
15785,24500
15614,24500
15269,24154
15212,24220
15142,24428
14247,24428
14242,24352
14187,24220
14130,24154
13785,24500
13614,24500
13269,24154
13212,24220
13142,24428
13139,24428
13139,24069
13354,24069
13700,24414
14045,24069
13979,24012
13771,23942
13552,23957
13420,24012
13354,24069
13139,24069
13139,23644
13971,23644
14082,23912
14286,24117
14554,24228
14844,24228
15112,24117
15160,24069
15354,24069
15700,24414
16045,24069
15979,24012
15771,23942
15552,23957
15420,24012
15354,24069
15160,24069
15317,23913
15369,23786
16368,23786
16378,23802
16457,23856
16551,23875
16748,23875
16835,23859
16883,23828
16900,23839
16994,23858
17151,23858
17239,23842
17249,23836
17254,23839
17348,23858
17505,23858
17593,23842
17653,23803
17657,23806
17751,23825
17948,23825
18035,23809
18045,23802
18071,23820
18165,23839
18401,23839
18489,23822
18499,23816
18504,23820
18598,23839
18834,23839
18922,23822
18952,23803
18957,23806
19051,23825
19248,23825
19291,23817
19291,23955
19307,24043
19359,24123
19363,24126
19363,24599
19363,24600
19374,24655
19385,24709
19447,24802
20063,25418
20063,25418
20086,25433
20086,25501
20103,25589
20129,25630
20129,25748
20079,25821
20060,25915
20060,26151
20077,26239
20083,26249
20079,26254
20060,26348
20060,26584
20077,26672
20113,26729
20113,26871
20060,26950
20041,27044
20041,27201
20057,27289
20063,27299
20060,27304
20041,27398
20041,27555
20057,27643
20109,27723
20188,27777
20281,27796
20518,27796
20605,27780
20627,27766
20628,27769
20707,27823
20762,27834
20762,27847
20772,27857
20850,27857
20850,27848
20949,27848
20949,27857
21027,27857
21037,27847
21037,27835
21085,27825
21134,27794
21200,27839
21294,27858
21451,27858
21539,27842
21549,27836
21554,27839
21648,27858
21805,27858
21893,27842
21950,27805
21971,27820
22065,27839
22301,27839
22389,27822
22399,27816
22404,27820
22498,27839
22734,27839
22792,27828
22857,27873
22912,27884
22912,27897
22922,27907
23000,27907
23000,27898
23099,27898
23099,27907
23177,27907
23187,27897
23187,27885
23235,27875
23274,27850
23307,27873
23362,27884
23362,27897
23372,27907
23450,27907
23450,27898
23549,27898
23549,27907
23627,27907
23637,27897
23637,27885
23685,27875
23766,27824
23769,27819
23800,27839
23894,27858
24051,27858
24139,27842
24149,27836
24154,27839
24248,27858
24405,27858
24493,27842
24541,27811
24541,27955
24557,28043
24609,28123
24688,28177
24781,28196
24816,28196
24900,28213
27022,28213
27151,28187
27260,28114
28126,27249
32187,27249
32373,27212
32530,27106
34193,25443
34299,25286
34336,25100
34336,18300
34299,18113
34193,17956
34186,17951
34186,16500
34160,16371
34087,16262
33337,15512
33228,15439
33100,15413
21800,15413
21671,15439
21562,15512
20162,16912
20089,17021
20063,17150
20063,18744
20060,18750
20041,18844
20041,19001
20057,19089
20063,19099
20060,19104
20041,19198
20041,19355
20057,19443
20074,19469
20058,19472
19977,19524
19923,19603
19904,19697
19904,19894
19921,19981
19973,20062
20051,20115
20145,20134
20263,20134
20304,20127
20342,20134
20460,20134
20501,20127
20539,20134
20657,20134
20698,20127
20736,20134
20854,20134
20941,20118
21022,20066
21076,19987
21085,19940
21163,20018
21163,20821
21110,20900
21091,20994
21091,21151
21107,21239
21113,21249
21110,21254
21091,21348
21091,21505
21107,21593
21159,21673
21238,21727
21331,21746
21568,21746
21655,21730
21681,21713
21958,21713
23413,23168
23413,23338
22487,22412
22484,22410
22378,22339
22250,22313
21300,22313
21171,22339
21065,22410
21062,22412
20753,22720
20742,22660
20736,22650
20739,22645
20758,22551
20758,22394
20742,22306
20690,22226
20686,22223
20686,22221
20706,22192
20725,22098
20725,21901
20709,21814
20686,21778
20686,21778
20720,21728
20739,21634
20739,21398
20722,21310
20716,21300
20720,21295
20739,21201
20739,20965
20722,20877
20696,20836
20698,20835
20736,20843
20854,20843
20941,20827
21022,20775
21076,20696
21095,20602
21095,20405
21078,20318
21026,20237
20948,20184
20854,20165
20736,20165
20695,20172
20657,20165
20539,20165
20498,20172
20460,20165
20342,20165
20301,20172
20263,20165
20145,20165
20058,20181
19977,20233
19923,20312
19904,20405
19904,20602
19921,20690
19973,20770
20051,20824
20104,20835
20079,20871
20060,20965
20060,21201
20077,21289
20083,21299
20079,21304
20060,21398
20060,21634
20077,21722
20081,21728
20080,21728
20026,21807
20015,21862
20002,21862
19992,21872
19992,21950
20001,21950
20001,22049
19992,22049
19992,22127
20002,22137
20014,22137
20024,22185
20075,22266
20080,22269
20060,22300
20041,22394
20041,22551
20057,22639
20063,22649
20060,22654
20041,22748
20041,22905
20057,22993
20109,23073
20121,23082
20105,23104
20086,23198
20086,23213
19820,23213
19768,23203
19531,23203
19475,23213
19442,23213
19421,23180
19342,23126
19287,23115
19287,23102
19277,23092
19199,23092
19199,23101
19100,23101
19100,23092
19022,23092
19012,23102
19012,23114
18964,23124
18889,23171
18834,23160
18598,23160
18510,23177
18500,23183
18495,23179
18401,23160
18165,23160
18107,23171
18042,23126
17987,23115
17987,23102
17977,23092
17899,23092
17899,23101
17800,23101
17800,23092
17722,23092
17712,23102
17712,23114
17664,23124
17603,23162
17599,23160
17505,23141
17348,23141
17260,23157
17250,23163
17245,23160
17151,23141
16994,23141
16906,23157
16859,23188
16842,23176
16787,23165
16787,23152
16777,23142
16699,23142
16699,23151
16600,23151
16600,23142
16522,23142
16512,23152
16512,23164
16464,23174
16402,23213
15369,23213
15317,23087
15161,22930
15354,22930
15420,22987
15628,23057
15847,23042
15979,22987
16014,22957
16512,22957
16512,23014
16522,23024
16600,23024
16600,22935
16699,22935
16699,23024
16777,23024
16787,23014
16787,22957
16781,22943
16770,22931
16756,22925
16709,22925
16699,22935
16600,22935
16590,22925
16543,22925
16529,22931
16518,22943
16512,22957
16014,22957
16045,22930
16021,22907
17712,22907
17712,22964
17722,22974
17800,22974
17800,22885
17899,22885
17899,22974
17977,22974
17987,22964
17987,22907
19012,22907
19012,22964
19022,22974
19100,22974
19100,22885
19199,22885
19199,22974
19277,22974
19287,22964
19287,22907
19281,22893
19270,22881
19256,22875
19209,22875
19199,22885
19100,22885
19090,22875
19043,22875
19029,22881
19018,22893
19012,22907
17987,22907
17981,22893
17970,22881
17956,22875
17909,22875
17899,22885
17800,22885
17790,22875
17743,22875
17729,22881
17718,22893
17712,22907
16021,22907
15700,22585
15354,22930
15161,22930
15113,22882
14845,22771
14555,22771
14287,22882
14082,23086
13971,23354
13971,23644
13139,23644
13139,22930
13354,22930
13420,22987
13628,23057
13847,23042
13979,22987
14045,22930
13700,22585
13354,22930
13139,22930
13139,22428
13142,22428
13157,22647
13212,22779
13269,22845
13614,22500
13785,22500
14130,22845
14187,22779
14257,22571
14247,22428
15142,22428
15157,22647
15212,22779
15269,22845
15614,22500
15785,22500
16130,22845
16187,22779
16257,22571
16242,22352
16187,22220
16130,22154
15785,22500
15614,22500
15269,22154
15212,22220
15142,22428
14247,22428
14242,22352
14187,22220
14130,22154
13785,22500
13614,22500
13269,22154
13212,22220
13142,22428
13139,22428
13139,22069
13354,22069
13700,22414
14045,22069
15354,22069
15700,22414
16045,22069
16033,22059
19775,22059
19775,22106
19781,22120
19793,22131
19807,22137
19864,22137
19874,22127
19874,22049
19785,22049
19775,22059
16033,22059
15979,22012
15771,21942
15552,21957
15420,22012
15354,22069
14045,22069
13979,22012
13771,21942
13552,21957
13420,22012
13354,22069
13139,22069
13139,21893
19775,21893
19775,21940
19785,21950
19874,21950
19874,21872
19864,21862
19807,21862
19793,21868
19781,21879
19775,21893
13139,21893
13139,11489
38660,11489
38660,29460
" /> 
<polyline style="fill-rule:evenodd;"
points="33513,16639
33513,17813
33092,17813
33102,17807
33156,17728
33175,17634
33175,16965
33159,16877
33107,16797
33028,16743
32934,16724
32265,16724
32177,16740
32097,16792
32043,16871
32024,16965
32024,17013
31850,17013
31850,17013
31758,17031
31740,17035
31647,17097
30897,17847
30835,17940
30835,17940
30813,18050
30813,18050
30813,18685
30799,18699
30745,18829
30745,18970
30763,19013
30304,19013
30304,18979
30250,18849
30150,18749
30020,18695
29879,18695
29749,18749
29735,18763
28700,18763
28700,18763
28590,18785
28570,18798
28547,18814
28335,18814
28335,18572
28329,18541
28329,17990
28687,17632
29390,17632
29477,17616
29558,17564
29612,17485
29631,17392
29631,16407
29614,16320
29562,16239
29483,16186
29390,16167
28642,16167
28554,16183
28474,16235
28420,16314
28401,16407
28401,17110
28119,17392
28111,17353
28049,17260
28049,17260
27898,17110
27898,16407
27882,16320
27830,16239
27751,16186
27657,16167
26909,16167
26822,16183
26741,16235
26687,16314
26668,16407
26668,17392
26685,17479
26737,17560
26816,17613
26909,17632
27560,17632
27560,18343
27504,18331
27401,18331
27352,18341
27307,18331
27205,18331
27117,18348
27037,18400
26983,18479
26964,18572
26964,18903
26980,18991
26993,19011
26722,19011
26691,19016
26285,19016
26218,19003
25981,19003
25925,19013
25892,19013
25871,18980
25792,18926
25737,18915
25737,18902
25727,18892
25649,18892
25649,18901
25550,18901
25550,18892
25472,18892
25462,18902
25462,18914
25414,18924
25353,18962
25349,18960
25255,18941
25098,18941
25010,18957
25000,18963
24995,18960
24901,18941
24744,18941
24656,18957
24576,19009
24574,19011
24528,18979
24434,18960
24198,18960
24110,18977
24100,18983
24095,18979
24001,18960
23765,18960
23677,18977
23620,19013
23579,19013
23501,18960
23446,18949
23446,18896
23437,18887
23251,18887
23251,18896
23130,18896
23130,18887
22944,18887
22935,18896
22935,18948
22886,18957
22806,19009
22752,19088
22733,19182
22733,19418
22750,19505
22801,19585
22880,19639
22935,19650
22935,19703
22944,19713
23130,19713
23130,19703
23251,19703
23251,19713
23437,19713
23446,19703
23446,19651
23495,19642
23575,19590
23578,19586
23621,19586
23671,19620
23765,19639
24001,19639
24089,19622
24099,19616
24104,19620
24198,19639
24434,19639
24522,19622
24543,19608
24551,19645
24558,19682
24586,19723
24620,19775
24747,19902
24840,19964
24850,19966
24910,19978
24971,20020
25065,20039
25301,20039
25389,20022
25399,20016
25404,20020
25498,20039
25734,20039
25822,20022
25879,19986
25929,19986
25981,19996
25985,19996
26059,20011
26054,20024
26054,20081
26064,20090
26133,20090
26133,20081
26207,20081
26207,20268
26212,20292
26212,20297
26213,20298
26224,20355
26240,20381
26240,20405
26229,20421
26210,20515
26210,20751
26212,20762
26168,20753
25931,20753
25844,20769
25763,20821
25710,20900
25691,20994
25691,21151
25707,21239
25713,21249
25710,21254
25691,21348
25691,21505
25701,21559
25668,21553
25431,21553
25344,21569
25263,21621
25210,21700
25191,21794
25191,21951
25207,22039
25213,22049
25210,22054
25191,22148
25191,22305
25207,22393
25227,22424
25051,22424
24964,22440
24883,22492
24829,22571
24810,22665
24810,22901
24827,22989
24833,22999
24829,23004
24810,23098
24810,23334
24827,23422
24844,23449
24810,23500
24791,23594
24791,23751
24807,23839
24813,23849
24810,23854
24791,23948
24791,24095
24768,24091
24531,24091
24444,24107
24363,24159
24310,24238
24291,24331
24291,24942
24307,25029
24359,25110
24438,25163
24531,25182
24768,25182
24855,25166
24900,25137
24938,25163
25031,25182
25268,25182
25355,25166
25400,25137
25438,25163
25531,25182
25768,25182
25855,25166
25900,25137
25938,25163
26031,25182
26268,25182
26355,25166
26436,25114
26489,25035
26505,24959
26550,24989
26644,25008
26801,25008
26889,24992
26899,24986
26904,24989
26998,25008
27155,25008
27243,24992
27323,24940
27326,24936
27399,24936
27400,24936
27491,24918
27509,24914
27602,24852
27902,24552
27902,24552
27964,24459
27970,24428
27986,24350
27986,24349
27986,24037
27999,24050
28042,24068
28863,24889
28863,26276
26421,26276
26361,26236
26268,26217
26031,26217
25944,26233
25899,26262
25861,26236
25768,26217
25531,26217
25444,26233
25399,26262
25361,26236
25268,26217
25031,26217
24944,26233
24899,26262
24861,26236
24768,26217
24531,26217
24444,26233
24363,26285
24310,26364
24291,26457
24291,27068
24304,27141
24248,27141
24160,27157
24150,27163
24145,27160
24051,27141
23894,27141
23806,27157
23726,27209
23723,27213
23721,27213
23692,27193
23598,27174
23401,27174
23314,27190
23278,27213
23271,27213
23242,27193
23148,27174
22951,27174
22864,27190
22854,27197
22828,27179
22734,27160
22498,27160
22410,27177
22400,27183
22395,27179
22301,27160
22065,27160
21977,27177
21950,27194
21899,27160
21805,27141
21648,27141
21560,27157
21550,27163
21545,27160
21451,27141
21294,27141
21206,27157
21158,27188
21092,27143
20998,27124
20801,27124
20758,27132
20758,27044
20742,26956
20690,26876
20686,26873
20686,26728
20720,26678
20739,26584
20739,26348
20722,26260
20716,26250
20720,26245
20739,26151
20739,25915
20722,25827
20702,25796
20702,25795
20725,25830
20897,26002
20897,26002
20952,26039
20990,26064
21100,26086
21949,26086
21950,26086
22041,26068
22059,26064
22152,26002
22152,26002
22384,25770
24710,25770
24710,26007
24716,26022
24727,26033
24742,26039
25329,26039
25339,26029
25339,25760
25460,25760
25460,26029
25470,26039
26057,26039
26072,26033
26083,26022
26089,26007
26089,25770
26079,25760
25460,25760
25339,25760
24720,25760
24710,25770
22384,25770
22762,25392
24710,25392
24710,25629
24720,25639
25339,25639
25339,25370
25460,25370
25460,25639
26079,25639
26089,25629
26089,25392
26083,25377
26072,25366
26057,25360
25470,25360
25460,25370
25339,25370
25329,25360
24742,25360
24727,25366
24716,25377
24710,25392
22762,25392
23902,24252
23902,24252
23964,24159
23986,24050
23986,23404
24070,23404
24200,23350
24300,23250
24354,23120
24354,22979
24300,22849
24200,22749
24070,22695
23929,22695
23802,22748
22279,21224
22244,21201
22186,21162
22167,21158
22077,21140
22077,21140
21991,21140
22069,21090
22123,21011
22136,20949
22137,20947
22137,20940
22142,20918
22142,20859
22216,20859
22216,20947
22226,20957
22263,20957
22278,20951
22289,20940
22295,20925
22295,20868
22285,20859
22216,20859
22142,20859
22142,20681
22137,20657
22137,20652
22216,20652
22216,20740
22285,20740
22295,20731
22295,20674
22289,20659
22278,20648
22263,20642
22226,20642
22216,20652
22137,20652
22136,20651
22125,20594
22074,20513
21995,20460
21901,20441
21744,20441
21736,20442
21736,20218
26054,20218
26054,20275
26060,20290
26071,20301
26086,20307
26123,20307
26133,20297
26133,20209
26064,20209
26054,20218
21736,20218
21736,19900
21736,19900
21724,19840
21753,19840
21753,19897
21759,19912
21770,19923
21784,19929
21938,19929
21948,19919
21948,19831
22069,19831
22069,19919
22079,19929
22233,19929
22247,19923
22258,19912
22264,19897
22264,19840
22935,19840
22935,19897
22941,19912
22952,19923
22966,19929
23120,19929
23130,19919
23130,19831
23251,19831
23251,19919
23261,19929
23415,19929
23429,19923
23440,19912
23446,19897
23446,19840
23437,19831
23251,19831
23130,19831
22944,19831
22935,19840
22264,19840
22255,19831
22069,19831
21948,19831
21762,19831
21753,19840
21724,19840
21717,19806
21714,19790
21652,19697
21575,19620
21624,19589
21698,19639
21753,19650
21753,19703
21762,19713
21948,19713
21948,19703
22069,19703
22069,19713
22255,19713
22264,19703
22264,19651
22313,19642
22393,19590
22447,19511
22466,19418
22466,19182
22449,19094
22398,19014
22356,18985
22607,18985
22621,18979
22632,18968
22638,18953
22638,18896
22629,18887
22256,18887
22256,18896
22135,18896
22135,18887
21762,18887
21753,18896
21753,18948
21704,18957
21624,19009
21623,19010
21578,18979
21484,18960
21248,18960
21160,18977
21150,18983
21145,18979
21051,18960
20815,18960
20758,18971
20758,18844
20742,18756
20736,18746
20736,18702
21753,18702
21753,18759
21762,18769
22135,18769
22135,18680
22256,18680
22256,18769
22629,18769
22638,18759
22638,18702
22935,18702
22935,18759
22944,18769
23130,18769
23130,18680
23251,18680
23251,18769
23437,18769
23446,18759
23446,18707
25462,18707
25462,18764
25472,18774
25550,18774
25550,18685
25649,18685
25649,18774
25727,18774
25737,18764
25737,18707
25731,18693
25720,18681
25706,18675
25659,18675
25649,18685
25550,18685
25540,18675
25493,18675
25479,18681
25468,18693
25462,18707
23446,18707
23446,18702
23440,18687
23429,18676
23415,18670
23261,18670
23251,18680
23130,18680
23120,18670
22966,18670
22952,18676
22941,18687
22935,18702
22638,18702
22632,18687
22621,18676
22607,18670
22266,18670
22256,18680
22135,18680
22125,18670
21784,18670
21770,18676
21759,18687
21753,18702
20736,18702
20736,17289
21939,16086
32960,16086
33513,16639
" /> 
<polyline style="fill-rule:evenodd;"
points="33363,24898
31985,26276
31365,26276
31292,26226
31237,26215
31237,26202
31227,26192
31149,26192
31149,26201
31050,26201
31050,26192
30972,26192
30962,26202
30962,26214
30914,26224
30833,26275
30832,26276
30465,26276
30392,26226
30337,26215
30337,26202
30327,26192
30249,26192
30249,26201
30150,26201
30150,26192
30072,26192
30062,26202
30062,26214
30014,26224
29933,26275
29932,26276
29536,26276
29536,26007
30062,26007
30062,26064
30072,26074
30150,26074
30150,25985
30249,25985
30249,26074
30327,26074
30337,26064
30337,26007
30962,26007
30962,26064
30972,26074
31050,26074
31050,25985
31149,25985
31149,26074
31227,26074
31237,26064
31237,26007
31231,25993
31220,25981
31206,25975
31159,25975
31149,25985
31050,25985
31040,25975
30993,25975
30979,25981
30968,25993
30962,26007
30337,26007
30331,25993
30320,25981
30306,25975
30259,25975
30249,25985
30150,25985
30140,25975
30093,25975
30079,25981
30068,25993
30062,26007
29536,26007
29536,24750
29510,24621
29486,24585
29437,24512
29286,24360
32240,24360
32244,24417
32265,24467
32355,24583
32482,24655
32539,24659
32539,24360
32660,24360
32660,24659
32717,24655
32844,24583
32934,24467
32955,24417
32959,24360
32660,24360
32539,24360
32240,24360
29286,24360
29164,24239
32240,24239
32539,24239
32660,24239
32959,24239
32955,24182
32934,24132
32844,24016
32717,23944
32660,23940
32660,24239
32539,24239
32539,23940
32482,23944
32355,24016
32265,24132
32244,24182
32240,24239
29164,24239
28518,23593
28500,23549
28400,23449
28270,23395
28259,23395
28318,23336
31431,23336
31597,23502
31597,23502
31690,23564
31708,23568
31800,23586
31800,23586
32106,23586
32185,23703
32370,23827
32588,23870
32611,23870
32829,23827
33014,23703
33138,23518
33182,23300
33138,23081
33014,22896
32870,22800
33014,22703
33138,22518
33182,22300
33138,22081
33014,21896
32870,21800
33014,21703
33138,21518
33182,21300
33138,21081
33014,20896
32870,20800
33014,20703
33138,20518
33182,20300
33138,20081
33014,19896
32870,19800
33014,19703
33138,19518
33182,19300
33138,19081
33014,18896
32870,18800
32891,18786
33363,18786
33363,24898
" /> 
<polyline style="fill-rule:evenodd;"
points="23031,23906
23049,23950
23149,24050
23252,24093
22039,25305
22039,25098
22022,25010
21971,24930
21892,24876
21837,24865
21837,24852
21827,24842
21749,24842
21749,24851
21650,24851
21650,24842
21572,24842
21562,24852
21562,24864
21514,24874
21503,24880
21496,24843
21445,24762
21366,24708
21313,24698
21313,24657
21562,24657
21562,24714
21572,24724
21650,24724
21650,24635
21749,24635
21749,24724
21827,24724
21837,24714
21837,24657
21831,24643
21820,24631
21806,24625
21759,24625
21749,24635
21650,24635
21640,24625
21593,24625
21579,24631
21568,24643
21562,24657
21313,24657
21313,24420
21303,24410
20860,24410
20860,24418
20739,24418
20739,24410
20296,24410
20286,24420
20286,24697
20240,24706
20192,24737
19936,24481
19936,24128
19989,24049
20008,23955
20008,23798
20006,23786
20089,23786
20103,23856
20154,23937
20233,23991
20286,24001
20286,24279
20296,24289
20739,24289
20739,24281
20860,24281
20860,24289
21303,24289
21313,24279
21313,24002
21359,23993
21440,23941
21494,23862
21513,23769
21513,23198
21496,23110
21445,23030
21415,23010
21439,22986
22110,22986
23031,23906
" /> 
<polyline style="fill-rule:evenodd;"
points="29595,20070
29649,20200
29740,20291
29747,20302
31947,22502
31947,22502
32040,22564
32100,22576
32185,22703
32329,22800
32185,22896
32106,23013
31918,23013
31752,22847
31748,22845
31659,22785
31641,22781
31550,22763
31549,22763
27764,22763
27750,22749
27620,22695
27479,22695
27349,22749
27249,22849
27195,22979
27195,23120
27249,23250
27349,23350
27463,23397
27435,23440
27435,23440
27413,23550
27413,23550
27413,24231
27300,24344
27249,24310
27155,24291
26998,24291
26910,24307
26900,24313
26895,24310
26801,24291
26644,24291
26556,24307
26508,24338
26508,24331
26492,24244
26440,24163
26361,24110
26268,24091
26031,24091
25944,24107
25899,24136
25861,24110
25768,24091
25531,24091
25508,24095
25508,23948
25492,23860
25486,23850
25489,23845
25508,23751
25508,23594
25492,23506
25455,23449
25470,23428
25489,23334
25489,23107
25494,23108
25651,23108
25739,23092
25819,23040
25873,22961
25886,22899
25887,22897
25887,22890
25892,22868
25892,22809
25966,22809
25966,22897
25976,22907
26013,22907
26028,22901
26039,22890
26045,22875
26045,22818
26035,22809
25966,22809
25892,22809
25892,22631
25887,22607
25887,22602
25966,22602
25966,22690
26035,22690
26045,22681
26045,22624
26039,22609
26028,22598
26013,22592
25976,22592
25966,22602
25887,22602
25886,22601
25875,22544
25859,22518
25859,22444
25889,22399
25908,22305
25908,22177
25965,22189
26201,22189
26289,22172
26369,22121
26423,22042
26434,21987
26447,21987
26457,21977
26457,21899
26575,21899
26575,21977
26585,21987
26642,21987
26656,21981
26668,21970
26674,21956
26674,21909
26664,21899
26575,21899
26457,21899
26448,21899
26448,21800
26457,21800
26457,21722
26575,21722
26575,21800
26664,21800
26674,21790
26674,21785
27862,21785
27862,21842
27868,21856
27879,21868
27893,21874
27940,21874
27950,21864
27950,21775
28049,21775
28049,21864
28059,21874
28106,21874
28120,21868
28131,21856
28137,21842
28137,21785
28362,21785
28362,21842
28368,21856
28379,21868
28393,21874
28440,21874
28450,21864
28450,21775
28549,21775
28549,21864
28559,21874
28606,21874
28620,21868
28631,21856
28637,21842
28637,21785
28862,21785
28862,21842
28868,21856
28879,21868
28893,21874
28940,21874
28950,21864
28950,21775
29049,21775
29049,21864
29059,21874
29106,21874
29120,21868
29131,21856
29137,21842
29137,21785
29127,21775
29049,21775
28950,21775
28872,21775
28862,21785
28637,21785
28627,21775
28549,21775
28450,21775
28372,21775
28362,21785
28137,21785
28127,21775
28049,21775
27950,21775
27872,21775
27862,21785
26674,21785
26674,21743
26668,21729
26656,21718
26642,21712
26585,21712
26575,21722
26457,21722
26447,21712
26435,21712
26425,21664
26387,21603
26389,21599
26408,21505
26408,21416
26451,21425
26648,21425
26735,21409
26816,21357
26870,21278
26889,21184
26889,20948
26872,20860
26866,20850
26870,20845
26889,20751
26889,20515
26872,20427
26828,20358
26846,20268
26846,20185
26964,20185
26964,20427
26970,20458
26970,21006
26970,21006
26986,21090
26991,21115
27031,21174
27053,21208
27272,21427
27272,21427
27365,21489
27383,21493
27475,21511
27475,21511
27691,21511
27728,21569
27807,21623
27862,21634
27862,21647
27872,21657
27950,21657
27950,21648
28049,21648
28049,21657
28127,21657
28137,21647
28137,21635
28185,21625
28250,21584
28307,21623
28362,21634
28362,21647
28372,21657
28450,21657
28450,21648
28549,21648
28549,21657
28627,21657
28637,21647
28637,21635
28685,21625
28750,21584
28807,21623
28862,21634
28862,21647
28872,21657
28950,21657
28950,21648
29049,21648
29049,21657
29127,21657
29137,21647
29137,21635
29185,21625
29266,21574
29309,21511
29475,21511
29579,21554
29720,21554
29850,21500
29950,21400
30004,21270
30004,21129
29950,20999
29850,20899
29720,20845
29579,20845
29449,20899
29410,20938
29168,20938
29098,20924
28901,20924
28825,20938
28668,20938
28598,20924
28401,20924
28325,20938
28168,20938
28098,20924
27936,20924
27936,20660
27947,20658
27992,20668
28094,20668
28182,20651
28262,20599
28316,20520
28335,20427
28335,20185
28577,20185
28664,20169
28745,20117
28799,20038
28809,19986
29595,19986
29595,20070
" /> 
<polyline style="fill-rule:evenodd;"
points="27710,19439
27718,19439
27718,19560
27710,19560
27710,19568
27589,19568
27589,19560
27581,19560
27581,19439
27589,19439
27589,19431
27710,19431
27710,19439
" /> 
</g>
<g style="fill:#FFFFFF; fill-opacity:1.0; 
stroke:#FFFFFF; stroke-width:78.7402; stroke-opacity:1; 
stroke-linecap:round; stroke-linejoin:round;">
</g>
<g style="fill:#FFFFFF; fill-opacity:1.0; 
stroke:#FFFFFF; stroke-width:0; stroke-opacity:1; 
stroke-linecap:round; stroke-linejoin:round;">
<circle cx="28200" cy="23750" r="78.7402" /> 
</g>
<g style="fill:#FFFFFF; fill-opacity:1.0; 
stroke:#FFFFFF; stroke-width:39.3701; stroke-opacity:1; 
stroke-linecap:round; stroke-linejoin:round;">
</g>
<g style="fill:#FFFFFF; fill-opacity:1.0; 
stroke:#FFFFFF; stroke-width:0; stroke-opacity:1; 
stroke-linecap:round; stroke-linejoin:round;">
<circle cx="23350" cy="23750" r="78.7402" /> 
</g>
<g style="fill:#FFFFFF; fill-opacity:1.0; 
stroke:#FFFFFF; stroke-width:39.3701; stroke-opacity:1; 
stroke-linecap:round; stroke-linejoin:round;">
</g>
<g style="fill:#FFFFFF; fill-opacity:1.0; 
stroke:#FFFFFF; stroke-width:0; stroke-opacity:1; 
stroke-linecap:round; stroke-linejoin:round;">
<circle cx="27550" cy="23050" r="78.7402" /> 
</g>
<g style="fill:#FFFFFF; fill-opacity:1.0; 
stroke:#FFFFFF; stroke-width:39.3701; stroke-opacity:1; 
stroke-linecap:round; stroke-linejoin:round;">
</g>
<g style="fill:#FFFFFF; fill-opacity:1.0; 
stroke:#FFFFFF; stroke-width:0; stroke-opacity:1; 
stroke-linecap:round; stroke-linejoin:round;">
<circle cx="24000" cy="23050" r="78.7402" /> 
</g>
<g style="fill:#FFFFFF; fill-opacity:1.0; 
stroke:#FFFFFF; stroke-width:39.3701; stroke-opacity:1; 
stroke-linecap:round; stroke-linejoin:round;">
</g>
<g style="fill:#FFFFFF; fill-opacity:1.0; 
stroke:#FFFFFF; stroke-width:0; stroke-opacity:1; 
stroke-linecap:round; stroke-linejoin:round;">
<circle cx="31100" cy="18900" r="78.7402" /> 
</g>
<g style="fill:#FFFFFF; fill-opacity:1.0; 
stroke:#FFFFFF; stroke-width:39.3701; stroke-opacity:1; 
stroke-linecap:round; stroke-linejoin:round;">
</g>
<g style="fill:#FFFFFF; fill-opacity:1.0; 
stroke:#FFFFFF; stroke-width:0; stroke-opacity:1; 
stroke-linecap:round; stroke-linejoin:round;">
<circle cx="29650" cy="21200" r="78.7402" /> 
</g>
<g style="fill:#FFFFFF; fill-opacity:1.0; 
stroke:#FFFFFF; stroke-width:39.3701; stroke-opacity:1; 
stroke-linecap:round; stroke-linejoin:round;">
</g>
<g style="fill:#FFFFFF; fill-opacity:1.0; 
stroke:#FFFFFF; stroke-width:0; stroke-opacity:1; 
stroke-linecap:round; stroke-linejoin:round;">
<circle cx="29950" cy="19050" r="78.7402" /> 
</g>
<g style="fill:#FFFFFF; fill-opacity:1.0; 
stroke:#FFFFFF; stroke-width:39.3701; stroke-opacity:1; 
stroke-linecap:round; stroke-linejoin:round;">
</g>
<g style="fill:#FFFFFF; fill-opacity:1.0; 
stroke:#FFFFFF; stroke-width:0; stroke-opacity:1; 
stroke-linecap:round; stroke-linejoin:round;">
<circle cx="29950" cy="20000" r="78.7402" /> 
</g>
<g style="fill:#FFFFFF; fill-opacity:1.0; 
stroke:#FFFFFF; stroke-width:39.3701; stroke-opacity:1; 
stroke-linecap:round; stroke-linejoin:round;">
</g>
<g style="fill:#FFFFFF; fill-opacity:1.0; 
stroke:#FFFFFF; stroke-width:0; stroke-opacity:1; 
stroke-linecap:round; stroke-linejoin:round;">
<circle cx="14700" cy="23500" r="295.276" /> 
</g>
<g style="fill:#FFFFFF; fill-opacity:1.0; 
stroke:#FFFFFF; stroke-width:39.3701; stroke-opacity:1; 
stroke-linecap:round; stroke-linejoin:round;">
</g>
<g style="fill:#FFFFFF; fill-opacity:1.0; 
stroke:#FFFFFF; stroke-width:0; stroke-opacity:1; 
stroke-linecap:round; stroke-linejoin:round;">
<circle cx="13700" cy="22500" r="314.961" /> 
</g>
<g style="fill:#FFFFFF; fill-opacity:1.0; 
stroke:#FFFFFF; stroke-width:39.3701; stroke-opacity:1; 
stroke-linecap:round; stroke-linejoin:round;">
</g>
<g style="fill:#FFFFFF; fill-opacity:1.0; 
stroke:#FFFFFF; stroke-width:0; stroke-opacity:1; 
stroke-linecap:round; stroke-linejoin:round;">
<circle cx="13700" cy="24500" r="314.961" /> 
</g>
<g style="fill:#FFFFFF; fill-opacity:1.0; 
stroke:#FFFFFF; stroke-width:39.3701; stroke-opacity:1; 
stroke-linecap:round; stroke-linejoin:round;">
</g>
<g style="fill:#FFFFFF; fill-opacity:1.0; 
stroke:#FFFFFF; stroke-width:0; stroke-opacity:1; 
stroke-linecap:round; stroke-linejoin:round;">
<circle cx="15700" cy="24500" r="314.961" /> 
</g>
<g style="fill:#FFFFFF; fill-opacity:1.0; 
stroke:#FFFFFF; stroke-width:39.3701; stroke-opacity:1; 
stroke-linecap:round; stroke-linejoin:round;">
</g>
<g style="fill:#FFFFFF; fill-opacity:1.0; 
stroke:#FFFFFF; stroke-width:0; stroke-opacity:1; 
stroke-linecap:round; stroke-linejoin:round;">
<circle cx="15700" cy="22500" r="314.961" /> 
</g>
<g style="fill:#FFFFFF; fill-opacity:1.0; 
stroke:#FFFFFF; stroke-width:39.3701; stroke-opacity:1; 
stroke-linecap:round; stroke-linejoin:round;">
</g>
<g style="fill:#FFFFFF; fill-opacity:1.0; 
stroke:#FFFFFF; stroke-width:0; stroke-opacity:1; 
stroke-linecap:round; stroke-linejoin:round;">
<circle cx="32600" cy="17300" r="196.85" /> 
</g>
<g style="fill:#FFFFFF; fill-opacity:1.0; 
stroke:#FFFFFF; stroke-width:39.3701; stroke-opacity:1; 
stroke-linecap:round; stroke-linejoin:round;">
</g>
<g style="fill:#FFFFFF; fill-opacity:1.0; 
stroke:#FFFFFF; stroke-width:0; stroke-opacity:1; 
stroke-linecap:round; stroke-linejoin:round;">
<circle cx="32600" cy="18300" r="196.85" /> 
</g>
<g style="fill:#FFFFFF; fill-opacity:1.0; 
stroke:#FFFFFF; stroke-width:39.3701; stroke-opacity:1; 
stroke-linecap:round; stroke-linejoin:round;">
</g>
<g style="fill:#FFFFFF; fill-opacity:1.0; 
stroke:#FFFFFF; stroke-width:0; stroke-opacity:1; 
stroke-linecap:round; stroke-linejoin:round;">
<circle cx="32600" cy="19300" r="196.85" /> 
</g>
<g style="fill:#FFFFFF; fill-opacity:1.0; 
stroke:#FFFFFF; stroke-width:39.3701; stroke-opacity:1; 
stroke-linecap:round; stroke-linejoin:round;">
</g>
<g style="fill:#FFFFFF; fill-opacity:1.0; 
stroke:#FFFFFF; stroke-width:0; stroke-opacity:1; 
stroke-linecap:round; stroke-linejoin:round;">
<circle cx="32600" cy="20300" r="196.85" /> 
</g>
<g style="fill:#FFFFFF; fill-opacity:1.0; 
stroke:#FFFFFF; stroke-width:39.3701; stroke-opacity:1; 
stroke-linecap:round; stroke-linejoin:round;">
</g>
<g style="fill:#FFFFFF; fill-opacity:1.0; 
stroke:#FFFFFF; stroke-width:0; stroke-opacity:1; 
stroke-linecap:round; stroke-linejoin:round;">
<circle cx="32600" cy="21300" r="196.85" /> 
</g>
<g style="fill:#FFFFFF; fill-opacity:1.0; 
stroke:#FFFFFF; stroke-width:39.3701; stroke-opacity:1; 
stroke-linecap:round; stroke-linejoin:round;">
</g>
<g style="fill:#FFFFFF; fill-opacity:1.0; 
stroke:#FFFFFF; stroke-width:0; stroke-opacity:1; 
stroke-linecap:round; stroke-linejoin:round;">
<circle cx="32600" cy="22300" r="196.85" /> 
</g>
<g style="fill:#FFFFFF; fill-opacity:1.0; 
stroke:#FFFFFF; stroke-width:39.3701; stroke-opacity:1; 
stroke-linecap:round; stroke-linejoin:round;">
</g>
<g style="fill:#FFFFFF; fill-opacity:1.0; 
stroke:#FFFFFF; stroke-width:0; stroke-opacity:1; 
stroke-linecap:round; stroke-linejoin:round;">
<circle cx="32600" cy="23300" r="196.85" /> 
</g>
<g style="fill:#FFFFFF; fill-opacity:1.0; 
stroke:#FFFFFF; stroke-width:39.3701; stroke-opacity:1; 
stroke-linecap:round; stroke-linejoin:round;">
</g>
<g style="fill:#FFFFFF; fill-opacity:1.0; 
stroke:#FFFFFF; stroke-width:0; stroke-opacity:1; 
stroke-linecap:round; stroke-linejoin:round;">
<circle cx="32600" cy="24300" r="196.85" /> 
</g>
<g style="fill:#FFFFFF; fill-opacity:1.0; 
stroke:#FFFFFF; stroke-width:39.3701; stroke-opacity:1; 
stroke-linecap:round; stroke-linejoin:round;">
</g>
<g style="fill:#000000; fill-opacity:1.0; 
stroke:#000000; stroke-width:39.3701; stroke-opacity:1; 
stroke-linecap:round; stroke-linejoin:round;">
</g> 
</svg>
