<?xml version="1.0" standalone="no"?>
 <!DOCTYPE svg PUBLIC "-//W3C//DTD SVG 1.1//EN" 
 "http://www.w3.org/Graphics/SVG/1.1/DTD/svg11.dtd"> 
<svg xmlns="http://www.w3.org/2000/svg" version="1.1" 
    width="29.7002cm" height="21.0007cm" viewBox="0 0 116930 82680 ">
<title>SVG Picture created as rf_footprints-F.SilkS.svg date 2018/04/25 12:11:22 </title>
  <desc>Picture generated by PCBNEW </desc>
<g style="fill:#000000; fill-opacity:1;stroke:#000000; stroke-opacity:1;
stroke-linecap:round; stroke-linejoin:round; "
 transform="translate(0 0) scale(1 1)">
</g>
<g style="fill:#000000; fill-opacity:0.0; 
stroke:#000000; stroke-width:-0.000393701; stroke-opacity:1; 
stroke-linecap:round; stroke-linejoin:round;">
</g>
<g style="fill:#000000; fill-opacity:0.0; 
stroke:#000000; stroke-width:39.3701; stroke-opacity:1; 
stroke-linecap:round; stroke-linejoin:round;">
</g>
<g style="fill:#000000; fill-opacity:0.0; 
stroke:#000000; stroke-width:59.0551; stroke-opacity:1; 
stroke-linecap:round; stroke-linejoin:round;">
<rect x="69685.9" y="65357.2" width="42519.7" height="12598.4" rx="0" />
</g>
<g style="fill:#000000; fill-opacity:0.0; 
stroke:#000000; stroke-width:39.3701; stroke-opacity:1; 
stroke-linecap:round; stroke-linejoin:round;">
</g>
<g style="fill:#000000; fill-opacity:0.0; 
stroke:#000000; stroke-width:59.0551; stroke-opacity:1; 
stroke-linecap:round; stroke-linejoin:round;">
<rect x="3937.01" y="3937.01" width="109056" height="74806" rx="0" />
</g>
<g style="fill:#000000; fill-opacity:0.0; 
stroke:#000000; stroke-width:39.3701; stroke-opacity:1; 
stroke-linecap:round; stroke-linejoin:round;">
</g>
<g style="fill:#000000; fill-opacity:0.0; 
stroke:#000000; stroke-width:59.0551; stroke-opacity:1; 
stroke-linecap:round; stroke-linejoin:round;">
<rect x="4724.41" y="4724.41" width="107481" height="73231.2" rx="0" />
</g>
<g style="fill:#000000; fill-opacity:0.0; 
stroke:#000000; stroke-width:39.3701; stroke-opacity:1; 
stroke-linecap:round; stroke-linejoin:round;">
</g>
<g style="fill:#000000; fill-opacity:0.0; 
stroke:#000000; stroke-width:59.0551; stroke-opacity:1; 
stroke-linecap:round; stroke-linejoin:round;">
<path d="M23622 4724
L23622 3937
" />
</g>
<g style="fill:#000000; fill-opacity:0.0; 
stroke:#000000; stroke-width:39.3701; stroke-opacity:1; 
stroke-linecap:round; stroke-linejoin:round;">
</g>
<g style="fill:#000000; fill-opacity:0.0; 
stroke:#000000; stroke-width:59.0551; stroke-opacity:1; 
stroke-linecap:round; stroke-linejoin:round;">
<path d="M43307 4724
L43307 3937
" />
</g>
<g style="fill:#000000; fill-opacity:0.0; 
stroke:#000000; stroke-width:39.3701; stroke-opacity:1; 
stroke-linecap:round; stroke-linejoin:round;">
</g>
<g style="fill:#000000; fill-opacity:0.0; 
stroke:#000000; stroke-width:59.0551; stroke-opacity:1; 
stroke-linecap:round; stroke-linejoin:round;">
<path d="M62992 4724
L62992 3937
" />
</g>
<g style="fill:#000000; fill-opacity:0.0; 
stroke:#000000; stroke-width:39.3701; stroke-opacity:1; 
stroke-linecap:round; stroke-linejoin:round;">
</g>
<g style="fill:#000000; fill-opacity:0.0; 
stroke:#000000; stroke-width:59.0551; stroke-opacity:1; 
stroke-linecap:round; stroke-linejoin:round;">
<path d="M82677 4724
L82677 3937
" />
</g>
<g style="fill:#000000; fill-opacity:0.0; 
stroke:#000000; stroke-width:39.3701; stroke-opacity:1; 
stroke-linecap:round; stroke-linejoin:round;">
</g>
<g style="fill:#000000; fill-opacity:0.0; 
stroke:#000000; stroke-width:59.0551; stroke-opacity:1; 
stroke-linecap:round; stroke-linejoin:round;">
<path d="M102362 4724
L102362 3937
" />
</g>
<g style="fill:#000000; fill-opacity:0.0; 
stroke:#000000; stroke-width:39.3701; stroke-opacity:1; 
stroke-linecap:round; stroke-linejoin:round;">
</g>
<g style="fill:#000000; fill-opacity:0.0; 
stroke:#000000; stroke-width:59.0551; stroke-opacity:1; 
stroke-linecap:round; stroke-linejoin:round;">
<path d="M14169 4562
L13877 4562
" />
<path d="M14023 4562
L14023 4050
L13974 4123
L13925 4172
L13877 4196
" />
</g>
<g style="fill:#000000; fill-opacity:0.0; 
stroke:#000000; stroke-width:39.3701; stroke-opacity:1; 
stroke-linecap:round; stroke-linejoin:round;">
</g>
<g style="fill:#000000; fill-opacity:0.0; 
stroke:#000000; stroke-width:59.0551; stroke-opacity:1; 
stroke-linecap:round; stroke-linejoin:round;">
<path d="M33562 4099
L33586 4074
L33635 4050
L33757 4050
L33805 4074
L33830 4099
L33854 4147
L33854 4196
L33830 4269
L33537 4562
L33854 4562
" />
</g>
<g style="fill:#000000; fill-opacity:0.0; 
stroke:#000000; stroke-width:39.3701; stroke-opacity:1; 
stroke-linecap:round; stroke-linejoin:round;">
</g>
<g style="fill:#000000; fill-opacity:0.0; 
stroke:#000000; stroke-width:59.0551; stroke-opacity:1; 
stroke-linecap:round; stroke-linejoin:round;">
<path d="M53222 4050
L53539 4050
L53368 4245
L53442 4245
L53490 4269
L53515 4294
L53539 4342
L53539 4464
L53515 4513
L53490 4537
L53442 4562
L53295 4562
L53247 4537
L53222 4513
" />
</g>
<g style="fill:#000000; fill-opacity:0.0; 
stroke:#000000; stroke-width:39.3701; stroke-opacity:1; 
stroke-linecap:round; stroke-linejoin:round;">
</g>
<g style="fill:#000000; fill-opacity:0.0; 
stroke:#000000; stroke-width:59.0551; stroke-opacity:1; 
stroke-linecap:round; stroke-linejoin:round;">
<path d="M73175 4221
L73175 4562
" />
<path d="M73053 4026
L72932 4391
L73248 4391
" />
</g>
<g style="fill:#000000; fill-opacity:0.0; 
stroke:#000000; stroke-width:39.3701; stroke-opacity:1; 
stroke-linecap:round; stroke-linejoin:round;">
</g>
<g style="fill:#000000; fill-opacity:0.0; 
stroke:#000000; stroke-width:59.0551; stroke-opacity:1; 
stroke-linecap:round; stroke-linejoin:round;">
<path d="M92885 4050
L92641 4050
L92617 4294
L92641 4269
L92690 4245
L92812 4245
L92860 4269
L92885 4294
L92909 4342
L92909 4464
L92885 4513
L92860 4537
L92812 4562
L92690 4562
L92641 4537
L92617 4513
" />
</g>
<g style="fill:#000000; fill-opacity:0.0; 
stroke:#000000; stroke-width:39.3701; stroke-opacity:1; 
stroke-linecap:round; stroke-linejoin:round;">
</g>
<g style="fill:#000000; fill-opacity:0.0; 
stroke:#000000; stroke-width:59.0551; stroke-opacity:1; 
stroke-linecap:round; stroke-linejoin:round;">
<path d="M112545 4050
L112448 4050
L112399 4074
L112375 4099
L112326 4172
L112302 4269
L112302 4464
L112326 4513
L112350 4537
L112399 4562
L112497 4562
L112545 4537
L112570 4513
L112594 4464
L112594 4342
L112570 4294
L112545 4269
L112497 4245
L112399 4245
L112350 4269
L112326 4294
L112302 4342
" />
</g>
<g style="fill:#000000; fill-opacity:0.0; 
stroke:#000000; stroke-width:39.3701; stroke-opacity:1; 
stroke-linecap:round; stroke-linejoin:round;">
</g>
<g style="fill:#000000; fill-opacity:0.0; 
stroke:#000000; stroke-width:59.0551; stroke-opacity:1; 
stroke-linecap:round; stroke-linejoin:round;">
<path d="M23622 77955
L23622 78742
" />
</g>
<g style="fill:#000000; fill-opacity:0.0; 
stroke:#000000; stroke-width:39.3701; stroke-opacity:1; 
stroke-linecap:round; stroke-linejoin:round;">
</g>
<g style="fill:#000000; fill-opacity:0.0; 
stroke:#000000; stroke-width:59.0551; stroke-opacity:1; 
stroke-linecap:round; stroke-linejoin:round;">
<path d="M43307 77955
L43307 78742
" />
</g>
<g style="fill:#000000; fill-opacity:0.0; 
stroke:#000000; stroke-width:39.3701; stroke-opacity:1; 
stroke-linecap:round; stroke-linejoin:round;">
</g>
<g style="fill:#000000; fill-opacity:0.0; 
stroke:#000000; stroke-width:59.0551; stroke-opacity:1; 
stroke-linecap:round; stroke-linejoin:round;">
<path d="M62992 77955
L62992 78742
" />
</g>
<g style="fill:#000000; fill-opacity:0.0; 
stroke:#000000; stroke-width:39.3701; stroke-opacity:1; 
stroke-linecap:round; stroke-linejoin:round;">
</g>
<g style="fill:#000000; fill-opacity:0.0; 
stroke:#000000; stroke-width:59.0551; stroke-opacity:1; 
stroke-linecap:round; stroke-linejoin:round;">
<path d="M82677 77955
L82677 78742
" />
</g>
<g style="fill:#000000; fill-opacity:0.0; 
stroke:#000000; stroke-width:39.3701; stroke-opacity:1; 
stroke-linecap:round; stroke-linejoin:round;">
</g>
<g style="fill:#000000; fill-opacity:0.0; 
stroke:#000000; stroke-width:59.0551; stroke-opacity:1; 
stroke-linecap:round; stroke-linejoin:round;">
<path d="M102362 77955
L102362 78742
" />
</g>
<g style="fill:#000000; fill-opacity:0.0; 
stroke:#000000; stroke-width:39.3701; stroke-opacity:1; 
stroke-linecap:round; stroke-linejoin:round;">
</g>
<g style="fill:#000000; fill-opacity:0.0; 
stroke:#000000; stroke-width:59.0551; stroke-opacity:1; 
stroke-linecap:round; stroke-linejoin:round;">
<path d="M14169 78580
L13877 78580
" />
<path d="M14023 78580
L14023 78069
L13974 78142
L13925 78190
L13877 78215
" />
</g>
<g style="fill:#000000; fill-opacity:0.0; 
stroke:#000000; stroke-width:39.3701; stroke-opacity:1; 
stroke-linecap:round; stroke-linejoin:round;">
</g>
<g style="fill:#000000; fill-opacity:0.0; 
stroke:#000000; stroke-width:59.0551; stroke-opacity:1; 
stroke-linecap:round; stroke-linejoin:round;">
<path d="M33562 78117
L33586 78093
L33635 78069
L33757 78069
L33805 78093
L33830 78117
L33854 78166
L33854 78215
L33830 78288
L33537 78580
L33854 78580
" />
</g>
<g style="fill:#000000; fill-opacity:0.0; 
stroke:#000000; stroke-width:39.3701; stroke-opacity:1; 
stroke-linecap:round; stroke-linejoin:round;">
</g>
<g style="fill:#000000; fill-opacity:0.0; 
stroke:#000000; stroke-width:59.0551; stroke-opacity:1; 
stroke-linecap:round; stroke-linejoin:round;">
<path d="M53222 78069
L53539 78069
L53368 78263
L53442 78263
L53490 78288
L53515 78312
L53539 78361
L53539 78483
L53515 78532
L53490 78556
L53442 78580
L53295 78580
L53247 78556
L53222 78532
" />
</g>
<g style="fill:#000000; fill-opacity:0.0; 
stroke:#000000; stroke-width:39.3701; stroke-opacity:1; 
stroke-linecap:round; stroke-linejoin:round;">
</g>
<g style="fill:#000000; fill-opacity:0.0; 
stroke:#000000; stroke-width:59.0551; stroke-opacity:1; 
stroke-linecap:round; stroke-linejoin:round;">
<path d="M73175 78239
L73175 78580
" />
<path d="M73053 78044
L72932 78410
L73248 78410
" />
</g>
<g style="fill:#000000; fill-opacity:0.0; 
stroke:#000000; stroke-width:39.3701; stroke-opacity:1; 
stroke-linecap:round; stroke-linejoin:round;">
</g>
<g style="fill:#000000; fill-opacity:0.0; 
stroke:#000000; stroke-width:59.0551; stroke-opacity:1; 
stroke-linecap:round; stroke-linejoin:round;">
<path d="M92885 78069
L92641 78069
L92617 78312
L92641 78288
L92690 78263
L92812 78263
L92860 78288
L92885 78312
L92909 78361
L92909 78483
L92885 78532
L92860 78556
L92812 78580
L92690 78580
L92641 78556
L92617 78532
" />
</g>
<g style="fill:#000000; fill-opacity:0.0; 
stroke:#000000; stroke-width:39.3701; stroke-opacity:1; 
stroke-linecap:round; stroke-linejoin:round;">
</g>
<g style="fill:#000000; fill-opacity:0.0; 
stroke:#000000; stroke-width:59.0551; stroke-opacity:1; 
stroke-linecap:round; stroke-linejoin:round;">
<path d="M112545 78069
L112448 78069
L112399 78093
L112375 78117
L112326 78190
L112302 78288
L112302 78483
L112326 78532
L112350 78556
L112399 78580
L112497 78580
L112545 78556
L112570 78532
L112594 78483
L112594 78361
L112570 78312
L112545 78288
L112497 78263
L112399 78263
L112350 78288
L112326 78312
L112302 78361
" />
</g>
<g style="fill:#000000; fill-opacity:0.0; 
stroke:#000000; stroke-width:39.3701; stroke-opacity:1; 
stroke-linecap:round; stroke-linejoin:round;">
</g>
<g style="fill:#000000; fill-opacity:0.0; 
stroke:#000000; stroke-width:59.0551; stroke-opacity:1; 
stroke-linecap:round; stroke-linejoin:round;">
<path d="M3937 23622
L4724 23622
" />
</g>
<g style="fill:#000000; fill-opacity:0.0; 
stroke:#000000; stroke-width:39.3701; stroke-opacity:1; 
stroke-linecap:round; stroke-linejoin:round;">
</g>
<g style="fill:#000000; fill-opacity:0.0; 
stroke:#000000; stroke-width:59.0551; stroke-opacity:1; 
stroke-linecap:round; stroke-linejoin:round;">
<path d="M3937 43307
L4724 43307
" />
</g>
<g style="fill:#000000; fill-opacity:0.0; 
stroke:#000000; stroke-width:39.3701; stroke-opacity:1; 
stroke-linecap:round; stroke-linejoin:round;">
</g>
<g style="fill:#000000; fill-opacity:0.0; 
stroke:#000000; stroke-width:59.0551; stroke-opacity:1; 
stroke-linecap:round; stroke-linejoin:round;">
<path d="M3937 62992
L4724 62992
" />
</g>
<g style="fill:#000000; fill-opacity:0.0; 
stroke:#000000; stroke-width:39.3701; stroke-opacity:1; 
stroke-linecap:round; stroke-linejoin:round;">
</g>
<g style="fill:#000000; fill-opacity:0.0; 
stroke:#000000; stroke-width:59.0551; stroke-opacity:1; 
stroke-linecap:round; stroke-linejoin:round;">
<path d="M4208 13864
L4452 13864
" />
<path d="M4160 14011
L4330 13499
L4501 14011
" />
</g>
<g style="fill:#000000; fill-opacity:0.0; 
stroke:#000000; stroke-width:39.3701; stroke-opacity:1; 
stroke-linecap:round; stroke-linejoin:round;">
</g>
<g style="fill:#000000; fill-opacity:0.0; 
stroke:#000000; stroke-width:59.0551; stroke-opacity:1; 
stroke-linecap:round; stroke-linejoin:round;">
<path d="M4367 33428
L4440 33452
L4464 33476
L4489 33525
L4489 33598
L4464 33647
L4440 33671
L4391 33696
L4196 33696
L4196 33184
L4367 33184
L4416 33208
L4440 33233
L4464 33281
L4464 33330
L4440 33379
L4416 33403
L4367 33428
L4196 33428
" />
</g>
<g style="fill:#000000; fill-opacity:0.0; 
stroke:#000000; stroke-width:39.3701; stroke-opacity:1; 
stroke-linecap:round; stroke-linejoin:round;">
</g>
<g style="fill:#000000; fill-opacity:0.0; 
stroke:#000000; stroke-width:59.0551; stroke-opacity:1; 
stroke-linecap:round; stroke-linejoin:round;">
<path d="M4489 53332
L4464 53356
L4391 53381
L4342 53381
L4269 53356
L4221 53308
L4196 53259
L4172 53161
L4172 53088
L4196 52991
L4221 52942
L4269 52893
L4342 52869
L4391 52869
L4464 52893
L4489 52918
" />
</g>
<g style="fill:#000000; fill-opacity:0.0; 
stroke:#000000; stroke-width:39.3701; stroke-opacity:1; 
stroke-linecap:round; stroke-linejoin:round;">
</g>
<g style="fill:#000000; fill-opacity:0.0; 
stroke:#000000; stroke-width:59.0551; stroke-opacity:1; 
stroke-linecap:round; stroke-linejoin:round;">
<path d="M4196 73066
L4196 72554
L4318 72554
L4391 72578
L4440 72627
L4464 72676
L4489 72773
L4489 72846
L4464 72944
L4440 72993
L4391 73041
L4318 73066
L4196 73066
" />
</g>
<g style="fill:#000000; fill-opacity:0.0; 
stroke:#000000; stroke-width:39.3701; stroke-opacity:1; 
stroke-linecap:round; stroke-linejoin:round;">
</g>
<g style="fill:#000000; fill-opacity:0.0; 
stroke:#000000; stroke-width:59.0551; stroke-opacity:1; 
stroke-linecap:round; stroke-linejoin:round;">
<path d="M112992 23622
L112205 23622
" />
</g>
<g style="fill:#000000; fill-opacity:0.0; 
stroke:#000000; stroke-width:39.3701; stroke-opacity:1; 
stroke-linecap:round; stroke-linejoin:round;">
</g>
<g style="fill:#000000; fill-opacity:0.0; 
stroke:#000000; stroke-width:59.0551; stroke-opacity:1; 
stroke-linecap:round; stroke-linejoin:round;">
<path d="M112992 43307
L112205 43307
" />
</g>
<g style="fill:#000000; fill-opacity:0.0; 
stroke:#000000; stroke-width:39.3701; stroke-opacity:1; 
stroke-linecap:round; stroke-linejoin:round;">
</g>
<g style="fill:#000000; fill-opacity:0.0; 
stroke:#000000; stroke-width:59.0551; stroke-opacity:1; 
stroke-linecap:round; stroke-linejoin:round;">
<path d="M112992 62992
L112205 62992
" />
</g>
<g style="fill:#000000; fill-opacity:0.0; 
stroke:#000000; stroke-width:39.3701; stroke-opacity:1; 
stroke-linecap:round; stroke-linejoin:round;">
</g>
<g style="fill:#000000; fill-opacity:0.0; 
stroke:#000000; stroke-width:59.0551; stroke-opacity:1; 
stroke-linecap:round; stroke-linejoin:round;">
<path d="M112477 13864
L112721 13864
" />
<path d="M112428 14011
L112599 13499
L112769 14011
" />
</g>
<g style="fill:#000000; fill-opacity:0.0; 
stroke:#000000; stroke-width:39.3701; stroke-opacity:1; 
stroke-linecap:round; stroke-linejoin:round;">
</g>
<g style="fill:#000000; fill-opacity:0.0; 
stroke:#000000; stroke-width:59.0551; stroke-opacity:1; 
stroke-linecap:round; stroke-linejoin:round;">
<path d="M112635 33428
L112708 33452
L112733 33476
L112757 33525
L112757 33598
L112733 33647
L112708 33671
L112660 33696
L112465 33696
L112465 33184
L112635 33184
L112684 33208
L112708 33233
L112733 33281
L112733 33330
L112708 33379
L112684 33403
L112635 33428
L112465 33428
" />
</g>
<g style="fill:#000000; fill-opacity:0.0; 
stroke:#000000; stroke-width:39.3701; stroke-opacity:1; 
stroke-linecap:round; stroke-linejoin:round;">
</g>
<g style="fill:#000000; fill-opacity:0.0; 
stroke:#000000; stroke-width:59.0551; stroke-opacity:1; 
stroke-linecap:round; stroke-linejoin:round;">
<path d="M112757 53332
L112733 53356
L112660 53381
L112611 53381
L112538 53356
L112489 53308
L112465 53259
L112440 53161
L112440 53088
L112465 52991
L112489 52942
L112538 52893
L112611 52869
L112660 52869
L112733 52893
L112757 52918
" />
</g>
<g style="fill:#000000; fill-opacity:0.0; 
stroke:#000000; stroke-width:39.3701; stroke-opacity:1; 
stroke-linecap:round; stroke-linejoin:round;">
</g>
<g style="fill:#000000; fill-opacity:0.0; 
stroke:#000000; stroke-width:59.0551; stroke-opacity:1; 
stroke-linecap:round; stroke-linejoin:round;">
<path d="M112465 73066
L112465 72554
L112587 72554
L112660 72578
L112708 72627
L112733 72676
L112757 72773
L112757 72846
L112733 72944
L112708 72993
L112660 73041
L112587 73066
L112465 73066
" />
</g>
<g style="fill:#000000; fill-opacity:0.0; 
stroke:#000000; stroke-width:39.3701; stroke-opacity:1; 
stroke-linecap:round; stroke-linejoin:round;">
</g>
<g style="fill:#000000; fill-opacity:0.0; 
stroke:#000000; stroke-width:59.0551; stroke-opacity:1; 
stroke-linecap:round; stroke-linejoin:round;">
<path d="M78881 76293
L78881 75703
L79022 75703
L79106 75731
L79162 75787
L79190 75843
L79219 75956
L79219 76040
L79190 76153
L79162 76209
L79106 76265
L79022 76293
L78881 76293
" />
<path d="M79725 76293
L79725 75984
L79697 75928
L79640 75899
L79528 75899
L79472 75928
" />
<path d="M79725 76265
L79669 76293
L79528 76293
L79472 76265
L79444 76209
L79444 76153
L79472 76096
L79528 76068
L79669 76068
L79725 76040
" />
<path d="M79922 75899
L80147 75899
" />
<path d="M80006 75703
L80006 76209
L80034 76265
L80090 76293
L80147 76293
" />
<path d="M80568 76265
L80512 76293
L80400 76293
L80343 76265
L80315 76209
L80315 75984
L80343 75928
L80400 75899
L80512 75899
L80568 75928
L80597 75984
L80597 76040
L80315 76096
" />
<path d="M80850 76237
L80878 76265
L80850 76293
L80822 76265
L80850 76237
L80850 76293
" />
<path d="M80850 75928
L80878 75956
L80850 75984
L80822 75956
L80850 75928
L80850 75984
" />
</g>
<g style="fill:#000000; fill-opacity:0.0; 
stroke:#000000; stroke-width:39.3701; stroke-opacity:1; 
stroke-linecap:round; stroke-linejoin:round;">
</g>
<g style="fill:#000000; fill-opacity:0.0; 
stroke:#000000; stroke-width:59.0551; stroke-opacity:1; 
stroke-linecap:round; stroke-linejoin:round;">
<path d="M69685 76577
L112205 76577
" />
</g>
<g style="fill:#000000; fill-opacity:0.0; 
stroke:#000000; stroke-width:39.3701; stroke-opacity:1; 
stroke-linecap:round; stroke-linejoin:round;">
</g>
<g style="fill:#000000; fill-opacity:0.0; 
stroke:#000000; stroke-width:59.0551; stroke-opacity:1; 
stroke-linecap:round; stroke-linejoin:round;">
<path d="M70220 77395
L70220 76805
" />
<path d="M70557 77395
L70304 77058
" />
<path d="M70557 76805
L70220 77142
" />
<path d="M70810 77395
L70810 77002
" />
<path d="M70810 76805
L70782 76833
L70810 76861
L70838 76833
L70810 76805
L70810 76861
" />
<path d="M71429 77339
L71401 77367
L71316 77395
L71260 77395
L71176 77367
L71120 77311
L71091 77255
L71063 77142
L71063 77058
L71091 76946
L71120 76889
L71176 76833
L71260 76805
L71316 76805
L71401 76833
L71429 76861
" />
<path d="M71935 77395
L71935 77086
L71907 77030
L71851 77002
L71738 77002
L71682 77030
" />
<path d="M71935 77367
L71879 77395
L71738 77395
L71682 77367
L71654 77311
L71654 77255
L71682 77199
L71738 77171
L71879 77171
L71935 77142
" />
<path d="M72469 77395
L72469 76805
" />
<path d="M72469 77367
L72413 77395
L72301 77395
L72244 77367
L72216 77339
L72188 77283
L72188 77114
L72216 77058
L72244 77030
L72301 77002
L72413 77002
L72469 77030
" />
<path d="M73201 77086
L73397 77086
" />
<path d="M73482 77395
L73201 77395
L73201 76805
L73482 76805
" />
<path d="M73735 77339
L73763 77367
L73735 77395
L73707 77367
L73735 77339
L73735 77395
" />
<path d="M74016 77395
L74016 76805
L74157 76805
L74241 76833
L74297 76889
L74325 76946
L74354 77058
L74354 77142
L74325 77255
L74297 77311
L74241 77367
L74157 77395
L74016 77395
" />
<path d="M74607 77339
L74635 77367
L74607 77395
L74579 77367
L74607 77339
L74607 77395
" />
<path d="M74860 77227
L75141 77227
" />
<path d="M74804 77395
L75000 76805
L75197 77395
" />
<path d="M75394 77339
L75422 77367
L75394 77395
L75366 77367
L75394 77339
L75394 77395
" />
<path d="M76575 77395
L76575 76805
" />
<path d="M76631 77171
L76800 77395
" />
<path d="M76800 77002
L76575 77227
" />
<path d="M77053 77395
L77053 77002
" />
<path d="M77053 76805
L77025 76833
L77053 76861
L77081 76833
L77053 76805
L77053 76861
" />
<path d="M77588 77367
L77531 77395
L77419 77395
L77363 77367
L77334 77339
L77306 77283
L77306 77114
L77334 77058
L77363 77030
L77419 77002
L77531 77002
L77588 77030
" />
<path d="M78094 77395
L78094 77086
L78066 77030
L78009 77002
L77897 77002
L77841 77030
" />
<path d="M78094 77367
L78037 77395
L77897 77395
L77841 77367
L77813 77311
L77813 77255
L77841 77199
L77897 77171
L78037 77171
L78094 77142
" />
<path d="M78628 77395
L78628 76805
" />
<path d="M78628 77367
L78572 77395
L78459 77395
L78403 77367
L78375 77339
L78347 77283
L78347 77114
L78375 77058
L78403 77030
L78459 77002
L78572 77002
L78628 77030
" />
<path d="M79612 77002
L79612 77395
" />
<path d="M79472 76777
L79331 77199
L79697 77199
" />
<path d="M79922 77339
L79950 77367
L79922 77395
L79894 77367
L79922 77339
L79922 77395
" />
<path d="M80315 76805
L80372 76805
L80428 76833
L80456 76861
L80484 76917
L80512 77030
L80512 77171
L80484 77283
L80456 77339
L80428 77367
L80372 77395
L80315 77395
L80259 77367
L80231 77339
L80203 77283
L80175 77171
L80175 77030
L80203 76917
L80231 76861
L80259 76833
L80315 76805
" />
<path d="M80765 77339
L80793 77367
L80765 77395
L80737 77367
L80765 77339
L80765 77395
" />
<path d="M80990 76805
L81384 76805
L81131 77395
" />
</g>
<g style="fill:#000000; fill-opacity:0.0; 
stroke:#000000; stroke-width:39.3701; stroke-opacity:1; 
stroke-linecap:round; stroke-linejoin:round;">
</g>
<g style="fill:#000000; fill-opacity:0.0; 
stroke:#000000; stroke-width:59.0551; stroke-opacity:1; 
stroke-linecap:round; stroke-linejoin:round;">
<path d="M69685 75396
L112205 75396
" />
</g>
<g style="fill:#000000; fill-opacity:0.0; 
stroke:#000000; stroke-width:39.3701; stroke-opacity:1; 
stroke-linecap:round; stroke-linejoin:round;">
</g>
<g style="fill:#000000; fill-opacity:0.0; 
stroke:#000000; stroke-width:118.11; stroke-opacity:1; 
stroke-linecap:round; stroke-linejoin:round;">
<path d="M104022 76293
L103825 76012
" />
<path d="M103684 76293
L103684 75703
L103909 75703
L103965 75731
L103994 75759
L104022 75815
L104022 75899
L103994 75956
L103965 75984
L103909 76012
L103684 76012
" />
<path d="M104500 76265
L104444 76293
L104331 76293
L104275 76265
L104247 76209
L104247 75984
L104275 75928
L104331 75899
L104444 75899
L104500 75928
L104528 75984
L104528 76040
L104247 76096
" />
<path d="M104725 75899
L104865 76293
L105006 75899
" />
<path d="M105231 76237
L105259 76265
L105231 76293
L105203 76265
L105231 76237
L105231 76293
" />
<path d="M105231 75928
L105259 75956
L105231 75984
L105203 75956
L105231 75928
L105231 75984
" />
</g>
<g style="fill:#000000; fill-opacity:0.0; 
stroke:#000000; stroke-width:39.3701; stroke-opacity:1; 
stroke-linecap:round; stroke-linejoin:round;">
</g>
<g style="fill:#000000; fill-opacity:0.0; 
stroke:#000000; stroke-width:59.0551; stroke-opacity:1; 
stroke-linecap:round; stroke-linejoin:round;">
<path d="M70192 76265
L70276 76293
L70417 76293
L70473 76265
L70501 76237
L70529 76181
L70529 76124
L70501 76068
L70473 76040
L70417 76012
L70304 75984
L70248 75956
L70220 75928
L70192 75871
L70192 75815
L70220 75759
L70248 75731
L70304 75703
L70445 75703
L70529 75731
" />
<path d="M70782 76293
L70782 75899
" />
<path d="M70782 75703
L70754 75731
L70782 75759
L70810 75731
L70782 75703
L70782 75759
" />
<path d="M71007 75899
L71316 75899
L71007 76293
L71316 76293
" />
<path d="M71766 76265
L71710 76293
L71598 76293
L71541 76265
L71513 76209
L71513 75984
L71541 75928
L71598 75899
L71710 75899
L71766 75928
L71795 75984
L71795 76040
L71513 76096
" />
<path d="M72048 76237
L72076 76265
L72048 76293
L72019 76265
L72048 76237
L72048 76293
" />
<path d="M72048 75928
L72076 75956
L72048 75984
L72019 75956
L72048 75928
L72048 75984
" />
<path d="M72751 76124
L73032 76124
" />
<path d="M72694 76293
L72891 75703
L73088 76293
" />
<path d="M73538 75899
L73538 76293
" />
<path d="M73397 75674
L73257 76096
L73622 76096
" />
</g>
<g style="fill:#000000; fill-opacity:0.0; 
stroke:#000000; stroke-width:39.3701; stroke-opacity:1; 
stroke-linecap:round; stroke-linejoin:round;">
</g>
<g style="fill:#000000; fill-opacity:0.0; 
stroke:#000000; stroke-width:59.0551; stroke-opacity:1; 
stroke-linecap:round; stroke-linejoin:round;">
<path d="M103684 77395
L103684 76805
" />
<path d="M104219 77395
L104219 76805
" />
<path d="M104219 77367
L104162 77395
L104050 77395
L103994 77367
L103965 77339
L103937 77283
L103937 77114
L103965 77058
L103994 77030
L104050 77002
L104162 77002
L104219 77030
" />
<path d="M104500 77339
L104528 77367
L104500 77395
L104472 77367
L104500 77339
L104500 77395
" />
<path d="M104500 77030
L104528 77058
L104500 77086
L104472 77058
L104500 77030
L104500 77086
" />
<path d="M105540 77395
L105203 77395
" />
<path d="M105372 77395
L105372 76805
L105315 76889
L105259 76946
L105203 76974
" />
<path d="M106215 76777
L105709 77536
" />
<path d="M106721 77395
L106384 77395
" />
<path d="M106553 77395
L106553 76805
L106496 76889
L106440 76946
L106384 76974
" />
</g>
<g style="fill:#000000; fill-opacity:0.0; 
stroke:#000000; stroke-width:39.3701; stroke-opacity:1; 
stroke-linecap:round; stroke-linejoin:round;">
</g>
<g style="fill:#000000; fill-opacity:0.0; 
stroke:#000000; stroke-width:59.0551; stroke-opacity:1; 
stroke-linecap:round; stroke-linejoin:round;">
<path d="M69685 73821
L112205 73821
" />
</g>
<g style="fill:#000000; fill-opacity:0.0; 
stroke:#000000; stroke-width:39.3701; stroke-opacity:1; 
stroke-linecap:round; stroke-linejoin:round;">
</g>
<g style="fill:#000000; fill-opacity:0.0; 
stroke:#000000; stroke-width:157.48; stroke-opacity:1; 
stroke-linecap:round; stroke-linejoin:round;">
<path d="M70257 74099
L70707 74099
" />
<path d="M70384 74886
L70482 74099
" />
<path d="M70871 74886
L70937 74361
" />
<path d="M70970 74099
L70927 74136
L70960 74174
L71002 74136
L70970 74099
L70960 74174
" />
<path d="M71199 74361
L71499 74361
" />
<path d="M71345 74099
L71260 74774
L71288 74849
L71359 74886
L71434 74886
" />
<path d="M71809 74886
L71738 74849
L71710 74774
L71795 74099
" />
<path d="M72413 74849
L72334 74886
L72184 74886
L72113 74849
L72085 74774
L72123 74474
L72169 74399
L72249 74361
L72399 74361
L72469 74399
L72498 74474
L72488 74549
L72104 74624
" />
<path d="M72793 74811
L72826 74849
L72783 74886
L72751 74849
L72793 74811
L72783 74886
" />
<path d="M72844 74399
L72877 74436
L72835 74474
L72802 74436
L72844 74399
L72835 74474
" />
</g>
<g style="fill:#000000; fill-opacity:0.0; 
stroke:#000000; stroke-width:39.3701; stroke-opacity:1; 
stroke-linecap:round; stroke-linejoin:round;">
</g>
<g style="fill:#000000; fill-opacity:0.0; 
stroke:#000000; stroke-width:59.0551; stroke-opacity:1; 
stroke-linecap:round; stroke-linejoin:round;">
<path d="M70417 73070
L70220 73070
" />
<path d="M70220 73380
L70220 72789
L70501 72789
" />
<path d="M70726 73380
L70726 72986
" />
<path d="M70726 72789
L70698 72817
L70726 72845
L70754 72817
L70726 72789
L70726 72845
" />
<path d="M71091 73380
L71035 73352
L71007 73295
L71007 72789
" />
<path d="M71541 73352
L71485 73380
L71373 73380
L71316 73352
L71288 73295
L71288 73070
L71316 73014
L71373 72986
L71485 72986
L71541 73014
L71570 73070
L71570 73127
L71288 73183
" />
<path d="M71823 73323
L71851 73352
L71823 73380
L71795 73352
L71823 73323
L71823 73380
" />
<path d="M71823 73014
L71851 73042
L71823 73070
L71795 73042
L71823 73014
L71823 73070
" />
<path d="M72554 73380
L72554 72986
" />
<path d="M72554 73099
L72582 73042
L72610 73014
L72666 72986
L72723 72986
" />
<path d="M72835 72986
L73060 72986
" />
<path d="M72919 73380
L72919 72874
L72947 72817
L73004 72789
L73060 72789
" />
<path d="M73116 73436
L73566 73436
" />
<path d="M73622 72986
L73847 72986
" />
<path d="M73707 73380
L73707 72874
L73735 72817
L73791 72789
L73847 72789
" />
<path d="M74129 73380
L74072 73352
L74044 73323
L74016 73267
L74016 73099
L74044 73042
L74072 73014
L74129 72986
L74213 72986
L74269 73014
L74297 73042
L74325 73099
L74325 73267
L74297 73323
L74269 73352
L74213 73380
L74129 73380
" />
<path d="M74663 73380
L74607 73352
L74579 73323
L74550 73267
L74550 73099
L74579 73042
L74607 73014
L74663 72986
L74747 72986
L74804 73014
L74832 73042
L74860 73099
L74860 73267
L74832 73323
L74804 73352
L74747 73380
L74663 73380
" />
<path d="M75028 72986
L75253 72986
" />
<path d="M75113 72789
L75113 73295
L75141 73352
L75197 73380
L75253 73380
" />
<path d="M75450 72986
L75450 73577
" />
<path d="M75450 73014
L75507 72986
L75619 72986
L75675 73014
L75703 73042
L75732 73099
L75732 73267
L75703 73323
L75675 73352
L75619 73380
L75507 73380
L75450 73352
" />
<path d="M75985 73380
L75985 72986
" />
<path d="M75985 73099
L76013 73042
L76041 73014
L76097 72986
L76153 72986
" />
<path d="M76350 73380
L76350 72986
" />
<path d="M76350 72789
L76322 72817
L76350 72845
L76378 72817
L76350 72789
L76350 72845
" />
<path d="M76631 72986
L76631 73380
" />
<path d="M76631 73042
L76660 73014
L76716 72986
L76800 72986
L76856 73014
L76885 73070
L76885 73380
" />
<path d="M77081 72986
L77306 72986
" />
<path d="M77166 72789
L77166 73295
L77194 73352
L77250 73380
L77306 73380
" />
<path d="M77475 73352
L77531 73380
L77644 73380
L77700 73352
L77728 73295
L77728 73267
L77700 73211
L77644 73183
L77559 73183
L77503 73155
L77475 73099
L77475 73070
L77503 73014
L77559 72986
L77644 72986
L77700 73014
" />
<path d="M77981 73323
L78009 73352
L77981 73380
L77953 73352
L77981 73323
L77981 73380
" />
<path d="M78262 73380
L78262 72789
" />
<path d="M78319 73155
L78487 73380
" />
<path d="M78487 72986
L78262 73211
" />
<path d="M78741 73380
L78741 72986
" />
<path d="M78741 72789
L78712 72817
L78741 72845
L78769 72817
L78741 72789
L78741 72845
" />
<path d="M79275 73352
L79219 73380
L79106 73380
L79050 73352
L79022 73323
L78994 73267
L78994 73099
L79022 73042
L79050 73014
L79106 72986
L79219 72986
L79275 73014
" />
<path d="M79781 73380
L79781 73070
L79753 73014
L79697 72986
L79584 72986
L79528 73014
" />
<path d="M79781 73352
L79725 73380
L79584 73380
L79528 73352
L79500 73295
L79500 73239
L79528 73183
L79584 73155
L79725 73155
L79781 73127
" />
<path d="M80315 73380
L80315 72789
" />
<path d="M80315 73352
L80259 73380
L80147 73380
L80090 73352
L80062 73323
L80034 73267
L80034 73099
L80062 73042
L80090 73014
L80147 72986
L80259 72986
L80315 73014
" />
<path d="M80456 73436
L80906 73436
" />
<path d="M81046 72986
L81046 73577
" />
<path d="M81046 73014
L81103 72986
L81215 72986
L81271 73014
L81300 73042
L81328 73099
L81328 73267
L81300 73323
L81271 73352
L81215 73380
L81103 73380
L81046 73352
" />
<path d="M81834 73352
L81778 73380
L81665 73380
L81609 73352
L81581 73323
L81553 73267
L81553 73099
L81581 73042
L81609 73014
L81665 72986
L81778 72986
L81834 73014
" />
<path d="M82087 73380
L82087 72789
" />
<path d="M82087 73014
L82143 72986
L82256 72986
L82312 73014
L82340 73042
L82368 73099
L82368 73267
L82340 73323
L82312 73352
L82256 73380
L82143 73380
L82087 73352
" />
</g>
<g style="fill:#000000; fill-opacity:0.0; 
stroke:#000000; stroke-width:39.3701; stroke-opacity:1; 
stroke-linecap:round; stroke-linejoin:round;">
</g>
<g style="fill:#000000; fill-opacity:0.0; 
stroke:#000000; stroke-width:59.0551; stroke-opacity:1; 
stroke-linecap:round; stroke-linejoin:round;">
<path d="M69685 71459
L112205 71459
" />
</g>
<g style="fill:#000000; fill-opacity:0.0; 
stroke:#000000; stroke-width:39.3701; stroke-opacity:1; 
stroke-linecap:round; stroke-linejoin:round;">
</g>
<g style="fill:#000000; fill-opacity:0.0; 
stroke:#000000; stroke-width:59.0551; stroke-opacity:1; 
stroke-linecap:round; stroke-linejoin:round;">
<path d="M70192 72289
L70276 72317
L70417 72317
L70473 72289
L70501 72260
L70529 72204
L70529 72148
L70501 72092
L70473 72064
L70417 72036
L70304 72007
L70248 71979
L70220 71951
L70192 71895
L70192 71839
L70220 71782
L70248 71754
L70304 71726
L70445 71726
L70529 71754
" />
<path d="M70782 72317
L70782 71726
" />
<path d="M71035 72317
L71035 72007
L71007 71951
L70951 71923
L70867 71923
L70810 71951
L70782 71979
" />
<path d="M71541 72289
L71485 72317
L71373 72317
L71316 72289
L71288 72232
L71288 72007
L71316 71951
L71373 71923
L71485 71923
L71541 71951
L71570 72007
L71570 72064
L71288 72120
" />
<path d="M72048 72289
L71991 72317
L71879 72317
L71823 72289
L71795 72232
L71795 72007
L71823 71951
L71879 71923
L71991 71923
L72048 71951
L72076 72007
L72076 72064
L71795 72120
" />
<path d="M72244 71923
L72469 71923
" />
<path d="M72329 71726
L72329 72232
L72357 72289
L72413 72317
L72469 72317
" />
<path d="M72666 72260
L72694 72289
L72666 72317
L72638 72289
L72666 72260
L72666 72317
" />
<path d="M72666 71951
L72694 71979
L72666 72007
L72638 71979
L72666 71951
L72666 72007
" />
</g>
<g style="fill:#000000; fill-opacity:0.0; 
stroke:#000000; stroke-width:39.3701; stroke-opacity:1; 
stroke-linecap:round; stroke-linejoin:round;">
</g>
<g style="fill:#000000; fill-opacity:0.0; 
stroke:#000000; stroke-width:59.0551; stroke-opacity:1; 
stroke-linecap:round; stroke-linejoin:round;">
<path d="M77559 75396
L77559 76577
" />
</g>
<g style="fill:#000000; fill-opacity:0.0; 
stroke:#000000; stroke-width:39.3701; stroke-opacity:1; 
stroke-linecap:round; stroke-linejoin:round;">
</g>
<g style="fill:#000000; fill-opacity:0.0; 
stroke:#000000; stroke-width:59.0551; stroke-opacity:1; 
stroke-linecap:round; stroke-linejoin:round;">
<path d="M102756 75396
L102756 77955
" />
</g>
<g style="fill:#C2C200; fill-opacity:0.0; 
stroke:#C2C200; stroke-width:59.0551; stroke-opacity:1; 
stroke-linecap:round; stroke-linejoin:round;">
<path d="M21540 27765
L21559 27784
L21578 27840
L21578 27878
L21559 27934
L21521 27971
L21484 27990
L21409 28009
L21353 28009
L21278 27990
L21240 27971
L21203 27934
L21184 27878
L21184 27840
L21203 27784
L21221 27765
" />
<path d="M21221 27615
L21203 27596
L21184 27559
L21184 27465
L21203 27428
L21221 27409
L21259 27390
L21296 27390
L21353 27409
L21578 27634
L21578 27390
" />
</g>
<g style="fill:#008484; fill-opacity:0.0; 
stroke:#008484; stroke-width:59.0551; stroke-opacity:1; 
stroke-linecap:round; stroke-linejoin:round;">
</g>
<g style="fill:#008484; fill-opacity:0.0; 
stroke:#008484; stroke-width:120; stroke-opacity:1; 
stroke-linecap:round; stroke-linejoin:round;">
<path d="M20854 19757
L21340 19757
L21397 19728
L21425 19700
L21454 19642
L21454 19528
L21425 19471
L21397 19442
L21340 19414
L20854 19414
" />
<path d="M21454 18814
L21454 19157
" />
<path d="M21454 18985
L20854 18985
L20940 19042
L20997 19100
L21025 19157
" />
<path d="M23896 20400
L23924 20314
L23953 20285
L24010 20257
L24096 20257
L24153 20285
L24181 20314
L24210 20371
L24210 20600
L23610 20600
L23610 20400
L23639 20342
L23667 20314
L23724 20285
L23781 20285
L23839 20314
L23867 20342
L23896 20400
L23896 20600
" />
<path d="M23610 20057
L23610 19685
L23839 19885
L23839 19800
L23867 19742
L23896 19714
L23953 19685
L24096 19685
L24153 19714
L24181 19742
L24210 19800
L24210 19971
L24181 20028
L24153 20057
" />
<path d="M23610 19485
L23610 19085
L24210 19342
" />
<path d="M24210 18542
L24210 18885
" />
<path d="M24210 18714
L23610 18714
L23696 18771
L23753 18828
L23781 18885
" />
<path d="M23610 18171
L23610 18114
L23639 18057
L23667 18028
L23724 18000
L23839 17971
L23981 17971
L24096 18000
L24153 18028
L24181 18057
L24210 18114
L24210 18171
L24181 18228
L24153 18257
L24096 18285
L23981 18314
L23839 18314
L23724 18285
L23667 18257
L23639 18228
L23610 18171
" />
</g>
<g style="fill:#C2C200; fill-opacity:0.0; 
stroke:#C2C200; stroke-width:120; stroke-opacity:1; 
stroke-linecap:round; stroke-linejoin:round;">
</g>
<g style="fill:#C2C200; fill-opacity:0.0; 
stroke:#C2C200; stroke-width:59.0551; stroke-opacity:1; 
stroke-linecap:round; stroke-linejoin:round;">
<path d="M19560 24649
L19879 24649
L19916 24631
L19935 24612
L19954 24574
L19954 24499
L19935 24462
L19916 24443
L19879 24424
L19560 24424
" />
<path d="M19598 24256
L19579 24237
L19560 24200
L19560 24106
L19579 24068
L19598 24050
L19635 24031
L19673 24031
L19729 24050
L19954 24275
L19954 24031
" />
</g>
<g style="fill:#008484; fill-opacity:0.0; 
stroke:#008484; stroke-width:59.0551; stroke-opacity:1; 
stroke-linecap:round; stroke-linejoin:round;">
</g>
<g style="fill:#008484; fill-opacity:0.0; 
stroke:#008484; stroke-width:120; stroke-opacity:1; 
stroke-linecap:round; stroke-linejoin:round;">
<path d="M16371 23700
L16800 23700
L16885 23728
L16942 23785
L16971 23871
L16971 23928
" />
<path d="M16971 23100
L16971 23442
" />
<path d="M16971 23271
L16371 23271
L16457 23328
L16514 23385
L16542 23442
" />
</g>
<g style="fill:#008484; fill-opacity:0.0; 
stroke:#008484; stroke-width:19.685; stroke-opacity:1; 
stroke-linecap:round; stroke-linejoin:round;">
<path d="M26887 18362
L26887 18465
L26893 18477
L26899 18483
L26911 18489
L26935 18489
L26947 18483
L26953 18477
L26959 18465
L26959 18362
" />
<path d="M27079 18362
L27019 18362
L27013 18422
L27019 18416
L27031 18410
L27061 18410
L27073 18416
L27079 18422
L27085 18434
L27085 18465
L27079 18477
L27073 18483
L27061 18489
L27031 18489
L27019 18483
L27013 18477
" />
<path d="M26285 20657
L26303 20663
L26333 20663
L26345 20657
L26351 20651
L26357 20639
L26357 20627
L26351 20615
L26345 20609
L26333 20603
L26309 20597
L26297 20591
L26291 20585
L26285 20573
L26285 20561
L26291 20549
L26297 20543
L26309 20537
L26339 20537
L26357 20543
" />
<path d="M26411 20663
L26411 20537
" />
<path d="M26526 20579
L26526 20663
" />
<path d="M26496 20531
L26466 20621
L26544 20621
" />
<path d="M26646 20579
L26646 20663
" />
<path d="M26616 20531
L26586 20621
L26664 20621
" />
<path d="M26767 20537
L26743 20537
L26731 20543
L26725 20549
L26713 20567
L26707 20591
L26707 20639
L26713 20651
L26719 20657
L26731 20663
L26755 20663
L26767 20657
L26773 20651
L26779 20639
L26779 20609
L26773 20597
L26767 20591
L26755 20585
L26731 20585
L26719 20591
L26713 20597
L26707 20609
" />
<path d="M26821 20537
L26900 20537
L26857 20585
L26875 20585
L26888 20591
L26894 20597
L26900 20609
L26900 20639
L26894 20651
L26888 20657
L26875 20663
L26839 20663
L26827 20657
L26821 20651
" />
<path d="M26954 20615
L27050 20615
" />
<path d="M27153 20597
L27171 20603
L27177 20609
L27183 20621
L27183 20639
L27177 20651
L27171 20657
L27159 20663
L27111 20663
L27111 20537
L27153 20537
L27165 20543
L27171 20549
L27177 20561
L27177 20573
L27171 20585
L27165 20591
L27153 20597
L27111 20597
" />
<path d="M27304 20663
L27231 20663
" />
<path d="M27267 20663
L27267 20537
L27255 20555
L27243 20567
L27231 20573
" />
<path d="M27400 20597
L27418 20603
L27424 20609
L27430 20621
L27430 20639
L27424 20651
L27418 20657
L27406 20663
L27358 20663
L27358 20537
L27400 20537
L27412 20543
L27418 20549
L27424 20561
L27424 20573
L27418 20585
L27412 20591
L27400 20597
L27358 20597
" />
<path d="M27484 20615
L27581 20615
" />
<path d="M27683 20597
L27641 20597
" />
<path d="M27641 20663
L27641 20537
L27701 20537
" />
<path d="M27750 20663
L27750 20537
L27792 20627
L27834 20537
L27834 20663
" />
</g>
<g style="fill:#C2C200; fill-opacity:0.0; 
stroke:#C2C200; stroke-width:19.685; stroke-opacity:1; 
stroke-linecap:round; stroke-linejoin:round;">
</g>
<g style="fill:#C2C200; fill-opacity:0.0; 
stroke:#C2C200; stroke-width:59.0551; stroke-opacity:1; 
stroke-linecap:round; stroke-linejoin:round;">
<path d="M32468 16167
L32468 16448
L32450 16504
L32412 16542
L32356 16560
L32318 16560
" />
<path d="M32637 16204
L32656 16185
L32693 16167
L32787 16167
L32824 16185
L32843 16204
L32862 16242
L32862 16279
L32843 16335
L32618 16560
L32862 16560
" />
<path d="M16290 23365
L16309 23384
L16328 23440
L16328 23478
L16309 23534
L16271 23571
L16234 23590
L16159 23609
L16103 23609
L16028 23590
L15990 23571
L15953 23534
L15934 23478
L15934 23440
L15953 23384
L15971 23365
" />
<path d="M16328 22990
L16328 23215
" />
<path d="M16328 23103
L15934 23103
L15990 23140
L16028 23178
L16046 23215
" />
<path d="M17490 23315
L17509 23334
L17528 23390
L17528 23428
L17509 23484
L17471 23521
L17434 23540
L17359 23559
L17303 23559
L17228 23540
L17190 23521
L17153 23484
L17134 23428
L17134 23390
L17153 23334
L17171 23315
" />
<path d="M17265 22978
L17528 22978
" />
<path d="M17115 23071
L17396 23165
L17396 22921
" />
<path d="M18434 23140
L18415 23159
L18359 23178
L18321 23178
L18265 23159
L18228 23121
L18209 23084
L18190 23009
L18190 22953
L18209 22878
L18228 22840
L18265 22803
L18321 22784
L18359 22784
L18415 22803
L18434 22821
" />
<path d="M18790 22784
L18603 22784
L18584 22971
L18603 22953
L18640 22934
L18734 22934
L18771 22953
L18790 22971
L18809 23009
L18809 23103
L18790 23140
L18771 23159
L18734 23178
L18640 23178
L18603 23159
L18584 23140
" />
<path d="M18790 23315
L18809 23334
L18828 23390
L18828 23428
L18809 23484
L18771 23521
L18734 23540
L18659 23559
L18603 23559
L18528 23540
L18490 23521
L18453 23484
L18434 23428
L18434 23390
L18453 23334
L18471 23315
" />
<path d="M18434 22978
L18434 23053
L18453 23090
L18471 23109
L18528 23146
L18603 23165
L18753 23165
L18790 23146
L18809 23128
L18828 23090
L18828 23015
L18809 22978
L18790 22959
L18753 22940
L18659 22940
L18621 22959
L18603 22978
L18584 23015
L18584 23090
L18603 23128
L18621 23146
L18659 23165
" />
<path d="M22334 27140
L22315 27159
L22259 27178
L22221 27178
L22165 27159
L22128 27121
L22109 27084
L22090 27009
L22090 26953
L22109 26878
L22128 26840
L22165 26803
L22221 26784
L22259 26784
L22315 26803
L22334 26821
" />
<path d="M22465 26784
L22728 26784
L22559 27178
" />
<path d="M24140 27815
L24159 27834
L24178 27890
L24178 27928
L24159 27984
L24121 28021
L24084 28040
L24009 28059
L23953 28059
L23878 28040
L23840 28021
L23803 27984
L23784 27928
L23784 27890
L23803 27834
L23821 27815
" />
<path d="M24178 27628
L24178 27553
L24159 27515
L24140 27496
L24084 27459
L24009 27440
L23859 27440
L23821 27459
L23803 27478
L23784 27515
L23784 27590
L23803 27628
L23821 27646
L23859 27665
L23953 27665
L23990 27646
L24009 27628
L24028 27590
L24028 27515
L24009 27478
L23990 27459
L23953 27440
" />
<path d="M23690 28003
L23709 28021
L23728 28078
L23728 28115
L23709 28171
L23671 28209
L23634 28228
L23559 28246
L23503 28246
L23428 28228
L23390 28209
L23353 28171
L23334 28115
L23334 28078
L23353 28021
L23371 28003
" />
<path d="M23728 27628
L23728 27853
" />
<path d="M23728 27740
L23334 27740
L23390 27778
L23428 27815
L23446 27853
" />
<path d="M23334 27384
L23334 27346
L23353 27309
L23371 27290
L23409 27271
L23484 27253
L23578 27253
L23653 27271
L23690 27290
L23709 27309
L23728 27346
L23728 27384
L23709 27421
L23690 27440
L23653 27459
L23578 27478
L23484 27478
L23409 27459
L23371 27440
L23353 27421
L23334 27384
" />
<path d="M21040 26503
L21059 26521
L21078 26578
L21078 26615
L21059 26671
L21021 26709
L20984 26728
L20909 26746
L20853 26746
L20778 26728
L20740 26709
L20703 26671
L20684 26615
L20684 26578
L20703 26521
L20721 26503
" />
<path d="M21078 26128
L21078 26353
" />
<path d="M21078 26240
L20684 26240
L20740 26278
L20778 26315
L20796 26353
" />
<path d="M20721 25978
L20703 25959
L20684 25921
L20684 25828
L20703 25790
L20721 25771
L20759 25753
L20796 25753
L20853 25771
L21078 25996
L21078 25753
" />
<path d="M17184 22969
L16996 22969
L16996 22575
" />
<path d="M17521 22969
L17296 22969
" />
<path d="M17409 22969
L17409 22575
L17371 22631
L17334 22669
L17296 22688
" />
<path d="M21484 26969
L21296 26969
L21296 26575
" />
<path d="M21596 26613
L21615 26594
L21653 26575
L21746 26575
L21784 26594
L21803 26613
L21821 26650
L21821 26688
L21803 26744
L21578 26969
L21821 26969
" />
<path d="M19869 22715
L19869 22903
L19475 22903
" />
<path d="M19475 22621
L19475 22378
L19625 22509
L19625 22453
L19644 22415
L19663 22396
L19700 22378
L19794 22378
L19831 22396
L19850 22415
L19869 22453
L19869 22565
L19850 22603
L19831 22621
" />
<path d="M20536 23765
L20536 23953
L20143 23953
" />
<path d="M20143 23446
L20143 23634
L20330 23653
L20311 23634
L20293 23596
L20293 23503
L20311 23465
L20330 23446
L20368 23428
L20461 23428
L20499 23446
L20518 23465
L20536 23503
L20536 23596
L20518 23634
L20499 23653
" />
<path d="M24084 26969
L23896 26969
L23896 26575
" />
<path d="M24384 26575
L24309 26575
L24271 26594
L24253 26613
L24215 26669
L24196 26744
L24196 26894
L24215 26931
L24234 26950
L24271 26969
L24346 26969
L24384 26950
L24403 26931
L24421 26894
L24421 26800
L24403 26763
L24384 26744
L24346 26725
L24271 26725
L24234 26744
L24215 26763
L24196 26800
" />
<path d="M24369 27765
L24369 27953
L23975 27953
" />
<path d="M23975 27671
L23975 27409
L24369 27578
" />
<path d="M21286 27553
L21286 27740
L20893 27740
" />
<path d="M21286 27215
L21286 27440
" />
<path d="M21286 27328
L20893 27328
L20949 27365
L20986 27403
L21005 27440
" />
<path d="M20893 26971
L20893 26934
L20911 26896
L20930 26878
L20968 26859
L21043 26840
L21136 26840
L21211 26859
L21249 26878
L21268 26896
L21286 26934
L21286 26971
L21268 27009
L21249 27028
L21211 27046
L21136 27065
L21043 27065
L20968 27046
L20930 27028
L20911 27009
L20893 26971
" />
<path d="M24619 24103
L24619 24290
L24225 24290
" />
<path d="M24619 23765
L24619 23990
" />
<path d="M24619 23878
L24225 23878
L24281 23915
L24319 23953
L24338 23990
" />
<path d="M24619 23390
L24619 23615
" />
<path d="M24619 23503
L24225 23503
L24281 23540
L24319 23578
L24338 23615
" />
<path d="M26834 25300
L26703 25113
" />
<path d="M26609 25300
L26609 24906
L26759 24906
L26796 24925
L26815 24944
L26834 24981
L26834 25038
L26815 25075
L26796 25094
L26759 25113
L26609 25113
" />
<path d="M27209 25300
L26984 25300
" />
<path d="M27096 25300
L27096 24906
L27059 24963
L27021 25000
L26984 25019
" />
<path d="M20084 22640
L20065 22659
L20009 22678
L19971 22678
L19915 22659
L19878 22621
L19859 22584
L19840 22509
L19840 22453
L19859 22378
L19878 22340
L19915 22303
L19971 22284
L20009 22284
L20065 22303
L20084 22321
" />
<path d="M20215 22284
L20459 22284
L20328 22434
L20384 22434
L20421 22453
L20440 22471
L20459 22509
L20459 22603
L20440 22640
L20421 22659
L20384 22678
L20271 22678
L20234 22659
L20215 22640
" />
<path d="M20040 21365
L20059 21384
L20078 21440
L20078 21478
L20059 21534
L20021 21571
L19984 21590
L19909 21609
L19853 21609
L19778 21590
L19740 21571
L19703 21534
L19684 21478
L19684 21440
L19703 21384
L19721 21365
" />
<path d="M19853 21140
L19834 21178
L19815 21196
L19778 21215
L19759 21215
L19721 21196
L19703 21178
L19684 21140
L19684 21065
L19703 21028
L19721 21009
L19759 20990
L19778 20990
L19815 21009
L19834 21028
L19853 21065
L19853 21140
L19871 21178
L19890 21196
L19928 21215
L20003 21215
L20040 21196
L20059 21178
L20078 21140
L20078 21065
L20059 21028
L20040 21009
L20003 20990
L19928 20990
L19890 21009
L19871 21028
L19853 21065
" />
<path d="M21340 25253
L21359 25271
L21378 25328
L21378 25365
L21359 25421
L21321 25459
L21284 25478
L21209 25496
L21153 25496
L21078 25478
L21040 25459
L21003 25421
L20984 25365
L20984 25328
L21003 25271
L21021 25253
" />
<path d="M21378 24878
L21378 25103
" />
<path d="M21378 24990
L20984 24990
L21040 25028
L21078 25065
L21096 25103
" />
<path d="M21378 24503
L21378 24728
" />
<path d="M21378 24615
L20984 24615
L21040 24653
L21078 24690
L21096 24728
" />
<path d="M23846 18940
L23828 18959
L23771 18978
L23734 18978
L23678 18959
L23640 18921
L23621 18884
L23603 18809
L23603 18753
L23621 18678
L23640 18640
L23678 18603
L23734 18584
L23771 18584
L23828 18603
L23846 18621
" />
<path d="M24221 18978
L23996 18978
" />
<path d="M24109 18978
L24109 18584
L24071 18640
L24034 18678
L23996 18696
" />
<path d="M24353 18584
L24596 18584
L24465 18734
L24521 18734
L24559 18753
L24578 18771
L24596 18809
L24596 18903
L24578 18940
L24559 18959
L24521 18978
L24409 18978
L24371 18959
L24353 18940
" />
<path d="M24790 23253
L24809 23271
L24828 23328
L24828 23365
L24809 23421
L24771 23459
L24734 23478
L24659 23496
L24603 23496
L24528 23478
L24490 23459
L24453 23421
L24434 23365
L24434 23328
L24453 23271
L24471 23253
" />
<path d="M24828 22878
L24828 23103
" />
<path d="M24828 22990
L24434 22990
L24490 23028
L24528 23065
L24546 23103
" />
<path d="M24565 22540
L24828 22540
" />
<path d="M24415 22634
L24696 22728
L24696 22484
" />
<path d="M25146 19340
L25128 19359
L25071 19378
L25034 19378
L24978 19359
L24940 19321
L24921 19284
L24903 19209
L24903 19153
L24921 19078
L24940 19040
L24978 19003
L25034 18984
L25071 18984
L25128 19003
L25146 19021
" />
<path d="M25521 19378
L25296 19378
" />
<path d="M25409 19378
L25409 18984
L25371 19040
L25334 19078
L25296 19096
" />
<path d="M25878 18984
L25690 18984
L25671 19171
L25690 19153
L25728 19134
L25821 19134
L25859 19153
L25878 19171
L25896 19209
L25896 19303
L25878 19340
L25859 19359
L25821 19378
L25728 19378
L25690 19359
L25671 19340
" />
<path d="M25240 19303
L25259 19321
L25278 19378
L25278 19415
L25259 19471
L25221 19509
L25184 19528
L25109 19546
L25053 19546
L24978 19528
L24940 19509
L24903 19471
L24884 19415
L24884 19378
L24903 19321
L24921 19303
" />
<path d="M25278 18928
L25278 19153
" />
<path d="M25278 19040
L24884 19040
L24940 19078
L24978 19115
L24996 19153
" />
<path d="M24884 18590
L24884 18665
L24903 18703
L24921 18721
L24978 18759
L25053 18778
L25203 18778
L25240 18759
L25259 18740
L25278 18703
L25278 18628
L25259 18590
L25240 18571
L25203 18553
L25109 18553
L25071 18571
L25053 18590
L25034 18628
L25034 18703
L25053 18740
L25071 18759
L25109 18778
" />
<path d="M26046 21490
L26028 21509
L25971 21528
L25934 21528
L25878 21509
L25840 21471
L25821 21434
L25803 21359
L25803 21303
L25821 21228
L25840 21190
L25878 21153
L25934 21134
L25971 21134
L26028 21153
L26046 21171
" />
<path d="M26421 21528
L26196 21528
" />
<path d="M26309 21528
L26309 21134
L26271 21190
L26234 21228
L26196 21246
" />
<path d="M26646 21303
L26609 21284
L26590 21265
L26571 21228
L26571 21209
L26590 21171
L26609 21153
L26646 21134
L26721 21134
L26759 21153
L26778 21171
L26796 21209
L26796 21228
L26778 21265
L26759 21284
L26721 21303
L26646 21303
L26609 21321
L26590 21340
L26571 21378
L26571 21453
L26590 21490
L26609 21509
L26646 21528
L26721 21528
L26759 21509
L26778 21490
L26796 21453
L26796 21378
L26778 21340
L26759 21321
L26721 21303
" />
<path d="M26190 21103
L26209 21121
L26228 21178
L26228 21215
L26209 21271
L26171 21309
L26134 21328
L26059 21346
L26003 21346
L25928 21328
L25890 21309
L25853 21271
L25834 21215
L25834 21178
L25853 21121
L25871 21103
" />
<path d="M26228 20728
L26228 20953
" />
<path d="M26228 20840
L25834 20840
L25890 20878
L25928 20915
L25946 20953
" />
<path d="M26228 20540
L26228 20465
L26209 20428
L26190 20409
L26134 20371
L26059 20353
L25909 20353
L25871 20371
L25853 20390
L25834 20428
L25834 20503
L25853 20540
L25871 20559
L25909 20578
L26003 20578
L26040 20559
L26059 20540
L26078 20503
L26078 20428
L26059 20390
L26040 20371
L26003 20353
" />
<path d="M21286 19165
L21286 19353
L20893 19353
" />
<path d="M21024 18865
L21286 18865
" />
<path d="M20874 18959
L21155 19053
L21155 18809
" />
<path d="M25496 23636
L25309 23636
L25309 23243
" />
<path d="M25834 23636
L25609 23636
" />
<path d="M25721 23636
L25721 23243
L25684 23299
L25646 23336
L25609 23355
" />
<path d="M25984 23280
L26003 23261
L26040 23243
L26134 23243
L26171 23261
L26190 23280
L26209 23318
L26209 23355
L26190 23411
L25965 23636
L26209 23636
" />
<path d="M24746 18769
L24559 18769
L24559 18375
" />
<path d="M25084 18769
L24859 18769
" />
<path d="M24971 18769
L24971 18375
L24934 18431
L24896 18469
L24859 18488
" />
<path d="M25215 18375
L25459 18375
L25328 18525
L25384 18525
L25421 18544
L25440 18563
L25459 18600
L25459 18694
L25440 18731
L25421 18750
L25384 18769
L25271 18769
L25234 18750
L25215 18731
" />
<path d="M25019 22303
L25019 22490
L24625 22490
" />
<path d="M25019 21965
L25019 22190
" />
<path d="M25019 22078
L24625 22078
L24681 22115
L24719 22153
L24738 22190
" />
<path d="M24756 21628
L25019 21628
" />
<path d="M24606 21721
L24888 21815
L24888 21571
" />
<path d="M25569 19753
L25569 19940
L25175 19940
" />
<path d="M25569 19415
L25569 19640
" />
<path d="M25569 19528
L25175 19528
L25231 19565
L25269 19603
L25288 19640
" />
<path d="M25175 19059
L25175 19246
L25363 19265
L25344 19246
L25325 19209
L25325 19115
L25344 19078
L25363 19059
L25400 19040
L25494 19040
L25531 19059
L25550 19078
L25569 19115
L25569 19209
L25550 19246
L25531 19265
" />
<path d="M25519 21503
L25519 21690
L25125 21690
" />
<path d="M25519 21165
L25519 21390
" />
<path d="M25519 21278
L25125 21278
L25181 21315
L25219 21353
L25238 21390
" />
<path d="M25125 20828
L25125 20903
L25144 20940
L25163 20959
L25219 20996
L25294 21015
L25444 21015
L25481 20996
L25500 20978
L25519 20940
L25519 20865
L25500 20828
L25481 20809
L25444 20790
L25350 20790
L25313 20809
L25294 20828
L25275 20865
L25275 20940
L25294 20978
L25313 20996
L25350 21015
" />
<path d="M26096 19619
L25909 19619
L25909 19225
" />
<path d="M26434 19619
L26209 19619
" />
<path d="M26321 19619
L26321 19225
L26284 19281
L26246 19319
L26209 19338
" />
<path d="M26659 19394
L26621 19375
L26603 19356
L26584 19319
L26584 19300
L26603 19263
L26621 19244
L26659 19225
L26734 19225
L26771 19244
L26790 19263
L26809 19300
L26809 19319
L26790 19356
L26771 19375
L26734 19394
L26659 19394
L26621 19413
L26603 19431
L26584 19469
L26584 19544
L26603 19581
L26621 19600
L26659 19619
L26734 19619
L26771 19600
L26790 19581
L26809 19544
L26809 19469
L26790 19431
L26771 19413
L26734 19394
" />
<path d="M26562 25999
L26881 25999
L26918 25981
L26937 25962
L26956 25924
L26956 25849
L26937 25812
L26918 25793
L26881 25774
L26562 25774
" />
<path d="M26562 25625
L26562 25381
L26712 25512
L26712 25456
L26731 25418
L26749 25400
L26787 25381
L26881 25381
L26918 25400
L26937 25418
L26956 25456
L26956 25568
L26937 25606
L26918 25625
" />
<path d="M27962 18052
L27962 18239
" />
<path d="M27831 17845
L27962 18052
L28093 17845
" />
<path d="M28431 18239
L28206 18239
" />
<path d="M28318 18239
L28318 17845
L28281 17902
L28243 17939
L28206 17958
" />
<path d="M20896 18940
L20878 18959
L20821 18978
L20784 18978
L20728 18959
L20690 18921
L20671 18884
L20653 18809
L20653 18753
L20671 18678
L20690 18640
L20728 18603
L20784 18584
L20821 18584
L20878 18603
L20896 18621
" />
<path d="M21046 18621
L21065 18603
L21103 18584
L21196 18584
L21234 18603
L21253 18621
L21271 18659
L21271 18696
L21253 18753
L21028 18978
L21271 18978
" />
<path d="M21515 18584
L21553 18584
L21590 18603
L21609 18621
L21628 18659
L21646 18734
L21646 18828
L21628 18903
L21609 18940
L21590 18959
L21553 18978
L21515 18978
L21478 18959
L21459 18940
L21440 18903
L21421 18828
L21421 18734
L21440 18659
L21459 18621
L21478 18603
L21515 18584
" />
<path d="M21934 20505
L21803 20318
" />
<path d="M21709 20505
L21709 20111
L21859 20111
L21896 20130
L21915 20149
L21934 20186
L21934 20243
L21915 20280
L21896 20299
L21859 20318
L21709 20318
" />
<path d="M22271 20243
L22271 20505
" />
<path d="M22178 20093
L22084 20374
L22328 20374
" />
<path d="M21155 21315
L20968 21446
" />
<path d="M21155 21540
L20761 21540
L20761 21390
L20780 21353
L20799 21334
L20836 21315
L20893 21315
L20930 21334
L20949 21353
L20968 21390
L20968 21540
" />
<path d="M20761 20959
L20761 21146
L20949 21165
L20930 21146
L20911 21109
L20911 21015
L20930 20978
L20949 20959
L20986 20940
L21080 20940
L21118 20959
L21136 20978
L21155 21015
L21155 21109
L21136 21146
L21118 21165
" />
<path d="M19467 20449
L19786 20449
L19823 20431
L19842 20412
L19861 20374
L19861 20299
L19842 20262
L19823 20243
L19786 20224
L19467 20224
" />
<path d="M19598 19868
L19861 19868
" />
<path d="M19448 19962
L19729 20056
L19729 19812
" />
<path d="M30740 26603
L30759 26621
L30778 26678
L30778 26715
L30759 26771
L30721 26809
L30684 26828
L30609 26846
L30553 26846
L30478 26828
L30440 26809
L30403 26771
L30384 26715
L30384 26678
L30403 26621
L30421 26603
" />
<path d="M30778 26228
L30778 26453
" />
<path d="M30778 26340
L30384 26340
L30440 26378
L30478 26415
L30496 26453
" />
<path d="M30384 26096
L30384 25834
L30778 26003
" />
<path d="M29840 26603
L29859 26621
L29878 26678
L29878 26715
L29859 26771
L29821 26809
L29784 26828
L29709 26846
L29653 26846
L29578 26828
L29540 26809
L29503 26771
L29484 26715
L29484 26678
L29503 26621
L29521 26603
" />
<path d="M29521 26453
L29503 26434
L29484 26396
L29484 26303
L29503 26265
L29521 26246
L29559 26228
L29596 26228
L29653 26246
L29878 26471
L29878 26228
" />
<path d="M29878 25853
L29878 26078
" />
<path d="M29878 25965
L29484 25965
L29540 26003
L29578 26040
L29596 26078
" />
<path d="M29140 21753
L29159 21771
L29178 21828
L29178 21865
L29159 21921
L29121 21959
L29084 21978
L29009 21996
L28953 21996
L28878 21978
L28840 21959
L28803 21921
L28784 21865
L28784 21828
L28803 21771
L28821 21753
" />
<path d="M28821 21603
L28803 21584
L28784 21546
L28784 21453
L28803 21415
L28821 21396
L28859 21378
L28896 21378
L28953 21396
L29178 21621
L29178 21378
" />
<path d="M28821 21228
L28803 21209
L28784 21171
L28784 21078
L28803 21040
L28821 21021
L28859 21003
L28896 21003
L28953 21021
L29178 21246
L29178 21003
" />
<path d="M29640 21753
L29659 21771
L29678 21828
L29678 21865
L29659 21921
L29621 21959
L29584 21978
L29509 21996
L29453 21996
L29378 21978
L29340 21959
L29303 21921
L29284 21865
L29284 21828
L29303 21771
L29321 21753
" />
<path d="M29321 21603
L29303 21584
L29284 21546
L29284 21453
L29303 21415
L29321 21396
L29359 21378
L29396 21378
L29453 21396
L29678 21621
L29678 21378
" />
<path d="M29284 21246
L29284 21003
L29434 21134
L29434 21078
L29453 21040
L29471 21021
L29509 21003
L29603 21003
L29640 21021
L29659 21040
L29678 21078
L29678 21190
L29659 21228
L29640 21246
" />
<path d="M28640 21753
L28659 21771
L28678 21828
L28678 21865
L28659 21921
L28621 21959
L28584 21978
L28509 21996
L28453 21996
L28378 21978
L28340 21959
L28303 21921
L28284 21865
L28284 21828
L28303 21771
L28321 21753
" />
<path d="M28321 21603
L28303 21584
L28284 21546
L28284 21453
L28303 21415
L28321 21396
L28359 21378
L28396 21378
L28453 21396
L28678 21621
L28678 21378
" />
<path d="M28415 21040
L28678 21040
" />
<path d="M28265 21134
L28546 21228
L28546 20984
" />
</g>
<g style="fill:#008484; fill-opacity:0.0; 
stroke:#008484; stroke-width:59.0551; stroke-opacity:1; 
stroke-linecap:round; stroke-linejoin:round;">
<path d="M20140 25009
L20209 25009
" />
<path d="M20140 23690
L20238 23690
" />
<path d="M21459 23690
L21361 23690
" />
<path d="M21459 25009
L21361 25009
" />
<path d="M20140 25009
L20140 23690
" />
<path d="M21459 25009
L21459 23690
" />
<path d="M20209 25009
L20209 25501
" />
</g>
<g style="fill:#008484; fill-opacity:0.0; 
stroke:#008484; stroke-width:150; stroke-opacity:1; 
stroke-linecap:round; stroke-linejoin:round;">
<path d="M10111 22453
L9739 22453
" />
<path d="M10111 24547
L9739 24547
" />
<path d="M13460 24547
L11972 24547
" />
<path d="M13460 22453
L11972 22453
" />
<path d="M10235 24757
L10111 23395
" />
<path d="M11724 22243
L11972 24547
" />
<path d="M11724 24757
L11476 22243
" />
<path d="M11476 24757
L11228 22243
" />
<path d="M11228 24757
L10980 22243
" />
<path d="M10980 24757
L10731 22243
" />
<path d="M10731 24757
L10483 22243
" />
<path d="M10483 24757
L10235 22243
" />
<path d="M10235 24757
L10111 24547
" />
<path d="M10111 24547
L10111 22453
" />
<path d="M10111 22453
L10235 22243
" />
<path d="M10235 22243
L11848 22243
" />
<path d="M11848 22243
L11972 22453
" />
<path d="M11972 22453
L11972 24547
" />
<path d="M11972 24547
L11848 24757
" />
<path d="M11848 24757
L10235 24757
" />
<path d="M9739 22453
L9739 24547
" />
<path d="M13460 24740
L13460 22260
" />
<path d="M13460 22260
L15940 22260
" />
<path d="M15940 22260
L15940 24740
" />
<path d="M15940 24740
L13460 24740
" />
</g>
<g style="fill:#008484; fill-opacity:0.0; 
stroke:#008484; stroke-width:50; stroke-opacity:1; 
stroke-linecap:round; stroke-linejoin:round;">
<path d="M26862 18948
L26862 18712
" />
<path d="M26862 18712
L27098 18712
" />
<path d="M28201 18712
L28437 18712
" />
<path d="M28437 18712
L28437 18948
" />
<path d="M28201 20287
L28437 20287
" />
<path d="M28437 20287
L28437 20051
" />
<path d="M26862 20051
L26862 20287
" />
<path d="M26862 20287
L27098 20287
" />
</g>
<g style="fill:#008484; fill-opacity:0.0; 
stroke:#008484; stroke-width:0; stroke-opacity:1; 
stroke-linecap:round; stroke-linejoin:round;">
<circle cx="26764.2" cy="18909.4" r="59.0551" /> 
</g>
<g style="fill:#008484; fill-opacity:0.0; 
stroke:#008484; stroke-width:47.2441; stroke-opacity:1; 
stroke-linecap:round; stroke-linejoin:round;">
<path d="M32076 24823
L33123 24823
" />
<path d="M32076 17800
L32076 24823
" />
<path d="M33123 17800
L33123 24823
" />
<path d="M32076 17800
L33123 17800
" />
<path d="M32076 17300
L32076 16776
" />
<path d="M32076 16776
L32600 16776
" />
<path d="M17348 23291
L17151 23291
" />
<path d="M17151 23708
L17348 23708
" />
<path d="M21648 27291
L21451 27291
" />
<path d="M21451 27708
L21648 27708
" />
<path d="M20191 22551
L20191 22748
" />
<path d="M20608 22748
L20608 22551
" />
<path d="M19858 23798
L19858 23601
" />
<path d="M19441 23601
L19441 23798
" />
<path d="M24248 27291
L24051 27291
" />
<path d="M24051 27708
L24248 27708
" />
<path d="M24691 27601
L24691 27798
" />
<path d="M25108 27798
L25108 27601
" />
<path d="M20608 27398
L20608 27201
" />
<path d="M20191 27201
L20191 27398
" />
<path d="M24941 23751
L24941 23948
" />
<path d="M25358 23948
L25358 23751
" />
<path d="M20608 19198
L20608 19001
" />
<path d="M20191 19001
L20191 19198
" />
<path d="M25651 22958
L25848 22958
" />
<path d="M25848 22541
L25651 22541
" />
<path d="M25098 19091
L24901 19091
" />
<path d="M24901 19508
L25098 19508
" />
<path d="M25341 21951
L25341 22148
" />
<path d="M25758 22148
L25758 21951
" />
<path d="M25891 19401
L25891 19598
" />
<path d="M26308 19598
L26308 19401
" />
<path d="M25841 21151
L25841 21348
" />
<path d="M26258 21348
L26258 21151
" />
<path d="M26448 19941
L26251 19941
" />
<path d="M26251 20358
L26448 20358
" />
</g>
<g style="fill:#008484; fill-opacity:0.0; 
stroke:#008484; stroke-width:59.0551; stroke-opacity:1; 
stroke-linecap:round; stroke-linejoin:round;">
<path d="M26413 24883
L26394 24883
" />
<path d="M26413 26516
L26356 26516
" />
<path d="M24386 26516
L24443 26516
" />
<path d="M24386 24883
L24443 24883
" />
<path d="M26413 24883
L26413 26516
" />
<path d="M24386 24883
L24386 26516
" />
<path d="M26394 24883
L26394 24331
" />
</g>
<g style="fill:#008484; fill-opacity:0.0; 
stroke:#008484; stroke-width:47.2441; stroke-opacity:1; 
stroke-linecap:round; stroke-linejoin:round;">
<path d="M26890 17667
L29468 17667
" />
<path d="M29468 17667
L29468 16132
" />
<path d="M29468 16132
L26890 16132
" />
</g>
<g style="fill:#008484; fill-opacity:0.0; 
stroke:#008484; stroke-width:59.0551; stroke-opacity:1; 
stroke-linecap:round; stroke-linejoin:round;">
<path d="M20952 20405
L20952 19894
" />
<path d="M20047 20632
L20047 19894
" />
</g>
<g style="fill:#840000; fill-opacity:0.0; 
stroke:#840000; stroke-width:59.0551; stroke-opacity:1; 
stroke-linecap:round; stroke-linejoin:round;">
</g>
<g style="fill:#840000; fill-opacity:1.0; 
stroke:#840000; stroke-width:0; stroke-opacity:1; 
stroke-linecap:round; stroke-linejoin:round;">
<circle cx="14700" cy="23500" r="492.126" /> 
</g>
<g style="fill:#840000; fill-opacity:1.0; 
stroke:#840000; stroke-width:39.3701; stroke-opacity:1; 
stroke-linecap:round; stroke-linejoin:round;">
</g>
<g style="fill:#840000; fill-opacity:1.0; 
stroke:#840000; stroke-width:0; stroke-opacity:1; 
stroke-linecap:round; stroke-linejoin:round;">
<circle cx="13700" cy="22500" r="511.811" /> 
</g>
<g style="fill:#840000; fill-opacity:1.0; 
stroke:#840000; stroke-width:39.3701; stroke-opacity:1; 
stroke-linecap:round; stroke-linejoin:round;">
</g>
<g style="fill:#840000; fill-opacity:1.0; 
stroke:#840000; stroke-width:0; stroke-opacity:1; 
stroke-linecap:round; stroke-linejoin:round;">
<circle cx="13700" cy="24500" r="511.811" /> 
</g>
<g style="fill:#840000; fill-opacity:1.0; 
stroke:#840000; stroke-width:39.3701; stroke-opacity:1; 
stroke-linecap:round; stroke-linejoin:round;">
</g>
<g style="fill:#840000; fill-opacity:1.0; 
stroke:#840000; stroke-width:0; stroke-opacity:1; 
stroke-linecap:round; stroke-linejoin:round;">
<circle cx="15700" cy="24500" r="511.811" /> 
</g>
<g style="fill:#840000; fill-opacity:1.0; 
stroke:#840000; stroke-width:39.3701; stroke-opacity:1; 
stroke-linecap:round; stroke-linejoin:round;">
</g>
<g style="fill:#840000; fill-opacity:1.0; 
stroke:#840000; stroke-width:0; stroke-opacity:1; 
stroke-linecap:round; stroke-linejoin:round;">
<circle cx="15700" cy="22500" r="511.811" /> 
</g>
<g style="fill:#840000; fill-opacity:1.0; 
stroke:#840000; stroke-width:39.3701; stroke-opacity:1; 
stroke-linecap:round; stroke-linejoin:round;">
</g> 
</svg>
