<?xml version="1.0" standalone="no"?>
 <!DOCTYPE svg PUBLIC "-//W3C//DTD SVG 1.1//EN" 
 "http://www.w3.org/Graphics/SVG/1.1/DTD/svg11.dtd"> 
<svg xmlns="http://www.w3.org/2000/svg" version="1.1" 
    width="29.7002cm" height="21.0007cm" viewBox="0 0 116930 82680 ">
<title>SVG Picture created as tracking_system-F.SilkS.svg date 2018/04/18 22:43:08 </title>
  <desc>Picture generated by PCBNEW </desc>
<g style="fill:#000000; fill-opacity:1;stroke:#000000; stroke-opacity:1;
stroke-linecap:round; stroke-linejoin:round; "
 transform="translate(0 0) scale(1 1)">
</g>
<g style="fill:#000000; fill-opacity:0.0; 
stroke:#000000; stroke-width:-0.000393701; stroke-opacity:1; 
stroke-linecap:round; stroke-linejoin:round;">
</g>
<g style="fill:#000000; fill-opacity:0.0; 
stroke:#000000; stroke-width:39.3701; stroke-opacity:1; 
stroke-linecap:round; stroke-linejoin:round;">
</g>
<g style="fill:#000000; fill-opacity:0.0; 
stroke:#000000; stroke-width:59.0551; stroke-opacity:1; 
stroke-linecap:round; stroke-linejoin:round;">
<rect x="69685.9" y="65357.2" width="42519.7" height="12598.4" rx="0" />
</g>
<g style="fill:#000000; fill-opacity:0.0; 
stroke:#000000; stroke-width:39.3701; stroke-opacity:1; 
stroke-linecap:round; stroke-linejoin:round;">
</g>
<g style="fill:#000000; fill-opacity:0.0; 
stroke:#000000; stroke-width:59.0551; stroke-opacity:1; 
stroke-linecap:round; stroke-linejoin:round;">
<rect x="3937.01" y="3937.01" width="109056" height="74806" rx="0" />
</g>
<g style="fill:#000000; fill-opacity:0.0; 
stroke:#000000; stroke-width:39.3701; stroke-opacity:1; 
stroke-linecap:round; stroke-linejoin:round;">
</g>
<g style="fill:#000000; fill-opacity:0.0; 
stroke:#000000; stroke-width:59.0551; stroke-opacity:1; 
stroke-linecap:round; stroke-linejoin:round;">
<rect x="4724.41" y="4724.41" width="107481" height="73231.2" rx="0" />
</g>
<g style="fill:#000000; fill-opacity:0.0; 
stroke:#000000; stroke-width:39.3701; stroke-opacity:1; 
stroke-linecap:round; stroke-linejoin:round;">
</g>
<g style="fill:#000000; fill-opacity:0.0; 
stroke:#000000; stroke-width:59.0551; stroke-opacity:1; 
stroke-linecap:round; stroke-linejoin:round;">
<path d="M23622 4724
L23622 3937
" />
</g>
<g style="fill:#000000; fill-opacity:0.0; 
stroke:#000000; stroke-width:39.3701; stroke-opacity:1; 
stroke-linecap:round; stroke-linejoin:round;">
</g>
<g style="fill:#000000; fill-opacity:0.0; 
stroke:#000000; stroke-width:59.0551; stroke-opacity:1; 
stroke-linecap:round; stroke-linejoin:round;">
<path d="M43307 4724
L43307 3937
" />
</g>
<g style="fill:#000000; fill-opacity:0.0; 
stroke:#000000; stroke-width:39.3701; stroke-opacity:1; 
stroke-linecap:round; stroke-linejoin:round;">
</g>
<g style="fill:#000000; fill-opacity:0.0; 
stroke:#000000; stroke-width:59.0551; stroke-opacity:1; 
stroke-linecap:round; stroke-linejoin:round;">
<path d="M62992 4724
L62992 3937
" />
</g>
<g style="fill:#000000; fill-opacity:0.0; 
stroke:#000000; stroke-width:39.3701; stroke-opacity:1; 
stroke-linecap:round; stroke-linejoin:round;">
</g>
<g style="fill:#000000; fill-opacity:0.0; 
stroke:#000000; stroke-width:59.0551; stroke-opacity:1; 
stroke-linecap:round; stroke-linejoin:round;">
<path d="M82677 4724
L82677 3937
" />
</g>
<g style="fill:#000000; fill-opacity:0.0; 
stroke:#000000; stroke-width:39.3701; stroke-opacity:1; 
stroke-linecap:round; stroke-linejoin:round;">
</g>
<g style="fill:#000000; fill-opacity:0.0; 
stroke:#000000; stroke-width:59.0551; stroke-opacity:1; 
stroke-linecap:round; stroke-linejoin:round;">
<path d="M102362 4724
L102362 3937
" />
</g>
<g style="fill:#000000; fill-opacity:0.0; 
stroke:#000000; stroke-width:39.3701; stroke-opacity:1; 
stroke-linecap:round; stroke-linejoin:round;">
</g>
<g style="fill:#000000; fill-opacity:0.0; 
stroke:#000000; stroke-width:59.0551; stroke-opacity:1; 
stroke-linecap:round; stroke-linejoin:round;">
<path d="M14169 4562
L13877 4562
" />
<path d="M14023 4562
L14023 4050
L13974 4123
L13925 4172
L13877 4196
" />
</g>
<g style="fill:#000000; fill-opacity:0.0; 
stroke:#000000; stroke-width:39.3701; stroke-opacity:1; 
stroke-linecap:round; stroke-linejoin:round;">
</g>
<g style="fill:#000000; fill-opacity:0.0; 
stroke:#000000; stroke-width:59.0551; stroke-opacity:1; 
stroke-linecap:round; stroke-linejoin:round;">
<path d="M33562 4099
L33586 4074
L33635 4050
L33757 4050
L33805 4074
L33830 4099
L33854 4147
L33854 4196
L33830 4269
L33537 4562
L33854 4562
" />
</g>
<g style="fill:#000000; fill-opacity:0.0; 
stroke:#000000; stroke-width:39.3701; stroke-opacity:1; 
stroke-linecap:round; stroke-linejoin:round;">
</g>
<g style="fill:#000000; fill-opacity:0.0; 
stroke:#000000; stroke-width:59.0551; stroke-opacity:1; 
stroke-linecap:round; stroke-linejoin:round;">
<path d="M53222 4050
L53539 4050
L53368 4245
L53442 4245
L53490 4269
L53515 4294
L53539 4342
L53539 4464
L53515 4513
L53490 4537
L53442 4562
L53295 4562
L53247 4537
L53222 4513
" />
</g>
<g style="fill:#000000; fill-opacity:0.0; 
stroke:#000000; stroke-width:39.3701; stroke-opacity:1; 
stroke-linecap:round; stroke-linejoin:round;">
</g>
<g style="fill:#000000; fill-opacity:0.0; 
stroke:#000000; stroke-width:59.0551; stroke-opacity:1; 
stroke-linecap:round; stroke-linejoin:round;">
<path d="M73175 4221
L73175 4562
" />
<path d="M73053 4026
L72932 4391
L73248 4391
" />
</g>
<g style="fill:#000000; fill-opacity:0.0; 
stroke:#000000; stroke-width:39.3701; stroke-opacity:1; 
stroke-linecap:round; stroke-linejoin:round;">
</g>
<g style="fill:#000000; fill-opacity:0.0; 
stroke:#000000; stroke-width:59.0551; stroke-opacity:1; 
stroke-linecap:round; stroke-linejoin:round;">
<path d="M92885 4050
L92641 4050
L92617 4294
L92641 4269
L92690 4245
L92812 4245
L92860 4269
L92885 4294
L92909 4342
L92909 4464
L92885 4513
L92860 4537
L92812 4562
L92690 4562
L92641 4537
L92617 4513
" />
</g>
<g style="fill:#000000; fill-opacity:0.0; 
stroke:#000000; stroke-width:39.3701; stroke-opacity:1; 
stroke-linecap:round; stroke-linejoin:round;">
</g>
<g style="fill:#000000; fill-opacity:0.0; 
stroke:#000000; stroke-width:59.0551; stroke-opacity:1; 
stroke-linecap:round; stroke-linejoin:round;">
<path d="M112545 4050
L112448 4050
L112399 4074
L112375 4099
L112326 4172
L112302 4269
L112302 4464
L112326 4513
L112350 4537
L112399 4562
L112497 4562
L112545 4537
L112570 4513
L112594 4464
L112594 4342
L112570 4294
L112545 4269
L112497 4245
L112399 4245
L112350 4269
L112326 4294
L112302 4342
" />
</g>
<g style="fill:#000000; fill-opacity:0.0; 
stroke:#000000; stroke-width:39.3701; stroke-opacity:1; 
stroke-linecap:round; stroke-linejoin:round;">
</g>
<g style="fill:#000000; fill-opacity:0.0; 
stroke:#000000; stroke-width:59.0551; stroke-opacity:1; 
stroke-linecap:round; stroke-linejoin:round;">
<path d="M23622 77955
L23622 78742
" />
</g>
<g style="fill:#000000; fill-opacity:0.0; 
stroke:#000000; stroke-width:39.3701; stroke-opacity:1; 
stroke-linecap:round; stroke-linejoin:round;">
</g>
<g style="fill:#000000; fill-opacity:0.0; 
stroke:#000000; stroke-width:59.0551; stroke-opacity:1; 
stroke-linecap:round; stroke-linejoin:round;">
<path d="M43307 77955
L43307 78742
" />
</g>
<g style="fill:#000000; fill-opacity:0.0; 
stroke:#000000; stroke-width:39.3701; stroke-opacity:1; 
stroke-linecap:round; stroke-linejoin:round;">
</g>
<g style="fill:#000000; fill-opacity:0.0; 
stroke:#000000; stroke-width:59.0551; stroke-opacity:1; 
stroke-linecap:round; stroke-linejoin:round;">
<path d="M62992 77955
L62992 78742
" />
</g>
<g style="fill:#000000; fill-opacity:0.0; 
stroke:#000000; stroke-width:39.3701; stroke-opacity:1; 
stroke-linecap:round; stroke-linejoin:round;">
</g>
<g style="fill:#000000; fill-opacity:0.0; 
stroke:#000000; stroke-width:59.0551; stroke-opacity:1; 
stroke-linecap:round; stroke-linejoin:round;">
<path d="M82677 77955
L82677 78742
" />
</g>
<g style="fill:#000000; fill-opacity:0.0; 
stroke:#000000; stroke-width:39.3701; stroke-opacity:1; 
stroke-linecap:round; stroke-linejoin:round;">
</g>
<g style="fill:#000000; fill-opacity:0.0; 
stroke:#000000; stroke-width:59.0551; stroke-opacity:1; 
stroke-linecap:round; stroke-linejoin:round;">
<path d="M102362 77955
L102362 78742
" />
</g>
<g style="fill:#000000; fill-opacity:0.0; 
stroke:#000000; stroke-width:39.3701; stroke-opacity:1; 
stroke-linecap:round; stroke-linejoin:round;">
</g>
<g style="fill:#000000; fill-opacity:0.0; 
stroke:#000000; stroke-width:59.0551; stroke-opacity:1; 
stroke-linecap:round; stroke-linejoin:round;">
<path d="M14169 78580
L13877 78580
" />
<path d="M14023 78580
L14023 78069
L13974 78142
L13925 78190
L13877 78215
" />
</g>
<g style="fill:#000000; fill-opacity:0.0; 
stroke:#000000; stroke-width:39.3701; stroke-opacity:1; 
stroke-linecap:round; stroke-linejoin:round;">
</g>
<g style="fill:#000000; fill-opacity:0.0; 
stroke:#000000; stroke-width:59.0551; stroke-opacity:1; 
stroke-linecap:round; stroke-linejoin:round;">
<path d="M33562 78117
L33586 78093
L33635 78069
L33757 78069
L33805 78093
L33830 78117
L33854 78166
L33854 78215
L33830 78288
L33537 78580
L33854 78580
" />
</g>
<g style="fill:#000000; fill-opacity:0.0; 
stroke:#000000; stroke-width:39.3701; stroke-opacity:1; 
stroke-linecap:round; stroke-linejoin:round;">
</g>
<g style="fill:#000000; fill-opacity:0.0; 
stroke:#000000; stroke-width:59.0551; stroke-opacity:1; 
stroke-linecap:round; stroke-linejoin:round;">
<path d="M53222 78069
L53539 78069
L53368 78263
L53442 78263
L53490 78288
L53515 78312
L53539 78361
L53539 78483
L53515 78532
L53490 78556
L53442 78580
L53295 78580
L53247 78556
L53222 78532
" />
</g>
<g style="fill:#000000; fill-opacity:0.0; 
stroke:#000000; stroke-width:39.3701; stroke-opacity:1; 
stroke-linecap:round; stroke-linejoin:round;">
</g>
<g style="fill:#000000; fill-opacity:0.0; 
stroke:#000000; stroke-width:59.0551; stroke-opacity:1; 
stroke-linecap:round; stroke-linejoin:round;">
<path d="M73175 78239
L73175 78580
" />
<path d="M73053 78044
L72932 78410
L73248 78410
" />
</g>
<g style="fill:#000000; fill-opacity:0.0; 
stroke:#000000; stroke-width:39.3701; stroke-opacity:1; 
stroke-linecap:round; stroke-linejoin:round;">
</g>
<g style="fill:#000000; fill-opacity:0.0; 
stroke:#000000; stroke-width:59.0551; stroke-opacity:1; 
stroke-linecap:round; stroke-linejoin:round;">
<path d="M92885 78069
L92641 78069
L92617 78312
L92641 78288
L92690 78263
L92812 78263
L92860 78288
L92885 78312
L92909 78361
L92909 78483
L92885 78532
L92860 78556
L92812 78580
L92690 78580
L92641 78556
L92617 78532
" />
</g>
<g style="fill:#000000; fill-opacity:0.0; 
stroke:#000000; stroke-width:39.3701; stroke-opacity:1; 
stroke-linecap:round; stroke-linejoin:round;">
</g>
<g style="fill:#000000; fill-opacity:0.0; 
stroke:#000000; stroke-width:59.0551; stroke-opacity:1; 
stroke-linecap:round; stroke-linejoin:round;">
<path d="M112545 78069
L112448 78069
L112399 78093
L112375 78117
L112326 78190
L112302 78288
L112302 78483
L112326 78532
L112350 78556
L112399 78580
L112497 78580
L112545 78556
L112570 78532
L112594 78483
L112594 78361
L112570 78312
L112545 78288
L112497 78263
L112399 78263
L112350 78288
L112326 78312
L112302 78361
" />
</g>
<g style="fill:#000000; fill-opacity:0.0; 
stroke:#000000; stroke-width:39.3701; stroke-opacity:1; 
stroke-linecap:round; stroke-linejoin:round;">
</g>
<g style="fill:#000000; fill-opacity:0.0; 
stroke:#000000; stroke-width:59.0551; stroke-opacity:1; 
stroke-linecap:round; stroke-linejoin:round;">
<path d="M3937 23622
L4724 23622
" />
</g>
<g style="fill:#000000; fill-opacity:0.0; 
stroke:#000000; stroke-width:39.3701; stroke-opacity:1; 
stroke-linecap:round; stroke-linejoin:round;">
</g>
<g style="fill:#000000; fill-opacity:0.0; 
stroke:#000000; stroke-width:59.0551; stroke-opacity:1; 
stroke-linecap:round; stroke-linejoin:round;">
<path d="M3937 43307
L4724 43307
" />
</g>
<g style="fill:#000000; fill-opacity:0.0; 
stroke:#000000; stroke-width:39.3701; stroke-opacity:1; 
stroke-linecap:round; stroke-linejoin:round;">
</g>
<g style="fill:#000000; fill-opacity:0.0; 
stroke:#000000; stroke-width:59.0551; stroke-opacity:1; 
stroke-linecap:round; stroke-linejoin:round;">
<path d="M3937 62992
L4724 62992
" />
</g>
<g style="fill:#000000; fill-opacity:0.0; 
stroke:#000000; stroke-width:39.3701; stroke-opacity:1; 
stroke-linecap:round; stroke-linejoin:round;">
</g>
<g style="fill:#000000; fill-opacity:0.0; 
stroke:#000000; stroke-width:59.0551; stroke-opacity:1; 
stroke-linecap:round; stroke-linejoin:round;">
<path d="M4208 13864
L4452 13864
" />
<path d="M4160 14011
L4330 13499
L4501 14011
" />
</g>
<g style="fill:#000000; fill-opacity:0.0; 
stroke:#000000; stroke-width:39.3701; stroke-opacity:1; 
stroke-linecap:round; stroke-linejoin:round;">
</g>
<g style="fill:#000000; fill-opacity:0.0; 
stroke:#000000; stroke-width:59.0551; stroke-opacity:1; 
stroke-linecap:round; stroke-linejoin:round;">
<path d="M4367 33428
L4440 33452
L4464 33476
L4489 33525
L4489 33598
L4464 33647
L4440 33671
L4391 33696
L4196 33696
L4196 33184
L4367 33184
L4416 33208
L4440 33233
L4464 33281
L4464 33330
L4440 33379
L4416 33403
L4367 33428
L4196 33428
" />
</g>
<g style="fill:#000000; fill-opacity:0.0; 
stroke:#000000; stroke-width:39.3701; stroke-opacity:1; 
stroke-linecap:round; stroke-linejoin:round;">
</g>
<g style="fill:#000000; fill-opacity:0.0; 
stroke:#000000; stroke-width:59.0551; stroke-opacity:1; 
stroke-linecap:round; stroke-linejoin:round;">
<path d="M4489 53332
L4464 53356
L4391 53381
L4342 53381
L4269 53356
L4221 53308
L4196 53259
L4172 53161
L4172 53088
L4196 52991
L4221 52942
L4269 52893
L4342 52869
L4391 52869
L4464 52893
L4489 52918
" />
</g>
<g style="fill:#000000; fill-opacity:0.0; 
stroke:#000000; stroke-width:39.3701; stroke-opacity:1; 
stroke-linecap:round; stroke-linejoin:round;">
</g>
<g style="fill:#000000; fill-opacity:0.0; 
stroke:#000000; stroke-width:59.0551; stroke-opacity:1; 
stroke-linecap:round; stroke-linejoin:round;">
<path d="M4196 73066
L4196 72554
L4318 72554
L4391 72578
L4440 72627
L4464 72676
L4489 72773
L4489 72846
L4464 72944
L4440 72993
L4391 73041
L4318 73066
L4196 73066
" />
</g>
<g style="fill:#000000; fill-opacity:0.0; 
stroke:#000000; stroke-width:39.3701; stroke-opacity:1; 
stroke-linecap:round; stroke-linejoin:round;">
</g>
<g style="fill:#000000; fill-opacity:0.0; 
stroke:#000000; stroke-width:59.0551; stroke-opacity:1; 
stroke-linecap:round; stroke-linejoin:round;">
<path d="M112992 23622
L112205 23622
" />
</g>
<g style="fill:#000000; fill-opacity:0.0; 
stroke:#000000; stroke-width:39.3701; stroke-opacity:1; 
stroke-linecap:round; stroke-linejoin:round;">
</g>
<g style="fill:#000000; fill-opacity:0.0; 
stroke:#000000; stroke-width:59.0551; stroke-opacity:1; 
stroke-linecap:round; stroke-linejoin:round;">
<path d="M112992 43307
L112205 43307
" />
</g>
<g style="fill:#000000; fill-opacity:0.0; 
stroke:#000000; stroke-width:39.3701; stroke-opacity:1; 
stroke-linecap:round; stroke-linejoin:round;">
</g>
<g style="fill:#000000; fill-opacity:0.0; 
stroke:#000000; stroke-width:59.0551; stroke-opacity:1; 
stroke-linecap:round; stroke-linejoin:round;">
<path d="M112992 62992
L112205 62992
" />
</g>
<g style="fill:#000000; fill-opacity:0.0; 
stroke:#000000; stroke-width:39.3701; stroke-opacity:1; 
stroke-linecap:round; stroke-linejoin:round;">
</g>
<g style="fill:#000000; fill-opacity:0.0; 
stroke:#000000; stroke-width:59.0551; stroke-opacity:1; 
stroke-linecap:round; stroke-linejoin:round;">
<path d="M112477 13864
L112721 13864
" />
<path d="M112428 14011
L112599 13499
L112769 14011
" />
</g>
<g style="fill:#000000; fill-opacity:0.0; 
stroke:#000000; stroke-width:39.3701; stroke-opacity:1; 
stroke-linecap:round; stroke-linejoin:round;">
</g>
<g style="fill:#000000; fill-opacity:0.0; 
stroke:#000000; stroke-width:59.0551; stroke-opacity:1; 
stroke-linecap:round; stroke-linejoin:round;">
<path d="M112635 33428
L112708 33452
L112733 33476
L112757 33525
L112757 33598
L112733 33647
L112708 33671
L112660 33696
L112465 33696
L112465 33184
L112635 33184
L112684 33208
L112708 33233
L112733 33281
L112733 33330
L112708 33379
L112684 33403
L112635 33428
L112465 33428
" />
</g>
<g style="fill:#000000; fill-opacity:0.0; 
stroke:#000000; stroke-width:39.3701; stroke-opacity:1; 
stroke-linecap:round; stroke-linejoin:round;">
</g>
<g style="fill:#000000; fill-opacity:0.0; 
stroke:#000000; stroke-width:59.0551; stroke-opacity:1; 
stroke-linecap:round; stroke-linejoin:round;">
<path d="M112757 53332
L112733 53356
L112660 53381
L112611 53381
L112538 53356
L112489 53308
L112465 53259
L112440 53161
L112440 53088
L112465 52991
L112489 52942
L112538 52893
L112611 52869
L112660 52869
L112733 52893
L112757 52918
" />
</g>
<g style="fill:#000000; fill-opacity:0.0; 
stroke:#000000; stroke-width:39.3701; stroke-opacity:1; 
stroke-linecap:round; stroke-linejoin:round;">
</g>
<g style="fill:#000000; fill-opacity:0.0; 
stroke:#000000; stroke-width:59.0551; stroke-opacity:1; 
stroke-linecap:round; stroke-linejoin:round;">
<path d="M112465 73066
L112465 72554
L112587 72554
L112660 72578
L112708 72627
L112733 72676
L112757 72773
L112757 72846
L112733 72944
L112708 72993
L112660 73041
L112587 73066
L112465 73066
" />
</g>
<g style="fill:#000000; fill-opacity:0.0; 
stroke:#000000; stroke-width:39.3701; stroke-opacity:1; 
stroke-linecap:round; stroke-linejoin:round;">
</g>
<g style="fill:#000000; fill-opacity:0.0; 
stroke:#000000; stroke-width:59.0551; stroke-opacity:1; 
stroke-linecap:round; stroke-linejoin:round;">
<path d="M78881 76293
L78881 75703
L79022 75703
L79106 75731
L79162 75787
L79190 75843
L79219 75956
L79219 76040
L79190 76153
L79162 76209
L79106 76265
L79022 76293
L78881 76293
" />
<path d="M79725 76293
L79725 75984
L79697 75928
L79640 75899
L79528 75899
L79472 75928
" />
<path d="M79725 76265
L79669 76293
L79528 76293
L79472 76265
L79444 76209
L79444 76153
L79472 76096
L79528 76068
L79669 76068
L79725 76040
" />
<path d="M79922 75899
L80147 75899
" />
<path d="M80006 75703
L80006 76209
L80034 76265
L80090 76293
L80147 76293
" />
<path d="M80568 76265
L80512 76293
L80400 76293
L80343 76265
L80315 76209
L80315 75984
L80343 75928
L80400 75899
L80512 75899
L80568 75928
L80597 75984
L80597 76040
L80315 76096
" />
<path d="M80850 76237
L80878 76265
L80850 76293
L80822 76265
L80850 76237
L80850 76293
" />
<path d="M80850 75928
L80878 75956
L80850 75984
L80822 75956
L80850 75928
L80850 75984
" />
<path d="M81553 75759
L81581 75731
L81637 75703
L81778 75703
L81834 75731
L81862 75759
L81890 75815
L81890 75871
L81862 75956
L81525 76293
L81890 76293
" />
<path d="M82256 75703
L82312 75703
L82368 75731
L82396 75759
L82424 75815
L82453 75928
L82453 76068
L82424 76181
L82396 76237
L82368 76265
L82312 76293
L82256 76293
L82199 76265
L82171 76237
L82143 76181
L82115 76068
L82115 75928
L82143 75815
L82171 75759
L82199 75731
L82256 75703
" />
<path d="M83015 76293
L82678 76293
" />
<path d="M82846 76293
L82846 75703
L82790 75787
L82734 75843
L82678 75871
" />
<path d="M83352 75956
L83296 75928
L83268 75899
L83240 75843
L83240 75815
L83268 75759
L83296 75731
L83352 75703
L83465 75703
L83521 75731
L83549 75759
L83577 75815
L83577 75843
L83549 75899
L83521 75928
L83465 75956
L83352 75956
L83296 75984
L83268 76012
L83240 76068
L83240 76181
L83268 76237
L83296 76265
L83352 76293
L83465 76293
L83521 76265
L83549 76237
L83577 76181
L83577 76068
L83549 76012
L83521 75984
L83465 75956
" />
<path d="M83831 76068
L84280 76068
" />
<path d="M84674 75703
L84730 75703
L84787 75731
L84815 75759
L84843 75815
L84871 75928
L84871 76068
L84843 76181
L84815 76237
L84787 76265
L84730 76293
L84674 76293
L84618 76265
L84590 76237
L84562 76181
L84534 76068
L84534 75928
L84562 75815
L84590 75759
L84618 75731
L84674 75703
" />
<path d="M85377 75899
L85377 76293
" />
<path d="M85237 75674
L85096 76096
L85462 76096
" />
<path d="M85687 76068
L86136 76068
" />
<path d="M86727 76293
L86390 76293
" />
<path d="M86558 76293
L86558 75703
L86502 75787
L86446 75843
L86390 75871
" />
<path d="M87064 75956
L87008 75928
L86980 75899
L86952 75843
L86952 75815
L86980 75759
L87008 75731
L87064 75703
L87177 75703
L87233 75731
L87261 75759
L87289 75815
L87289 75843
L87261 75899
L87233 75928
L87177 75956
L87064 75956
L87008 75984
L86980 76012
L86952 76068
L86952 76181
L86980 76237
L87008 76265
L87064 76293
L87177 76293
L87233 76265
L87261 76237
L87289 76181
L87289 76068
L87261 76012
L87233 75984
L87177 75956
" />
</g>
<g style="fill:#000000; fill-opacity:0.0; 
stroke:#000000; stroke-width:39.3701; stroke-opacity:1; 
stroke-linecap:round; stroke-linejoin:round;">
</g>
<g style="fill:#000000; fill-opacity:0.0; 
stroke:#000000; stroke-width:59.0551; stroke-opacity:1; 
stroke-linecap:round; stroke-linejoin:round;">
<path d="M69685 76577
L112205 76577
" />
</g>
<g style="fill:#000000; fill-opacity:0.0; 
stroke:#000000; stroke-width:39.3701; stroke-opacity:1; 
stroke-linecap:round; stroke-linejoin:round;">
</g>
<g style="fill:#000000; fill-opacity:0.0; 
stroke:#000000; stroke-width:59.0551; stroke-opacity:1; 
stroke-linecap:round; stroke-linejoin:round;">
<path d="M70220 77395
L70220 76805
" />
<path d="M70557 77395
L70304 77058
" />
<path d="M70557 76805
L70220 77142
" />
<path d="M70810 77395
L70810 77002
" />
<path d="M70810 76805
L70782 76833
L70810 76861
L70838 76833
L70810 76805
L70810 76861
" />
<path d="M71429 77339
L71401 77367
L71316 77395
L71260 77395
L71176 77367
L71120 77311
L71091 77255
L71063 77142
L71063 77058
L71091 76946
L71120 76889
L71176 76833
L71260 76805
L71316 76805
L71401 76833
L71429 76861
" />
<path d="M71935 77395
L71935 77086
L71907 77030
L71851 77002
L71738 77002
L71682 77030
" />
<path d="M71935 77367
L71879 77395
L71738 77395
L71682 77367
L71654 77311
L71654 77255
L71682 77199
L71738 77171
L71879 77171
L71935 77142
" />
<path d="M72469 77395
L72469 76805
" />
<path d="M72469 77367
L72413 77395
L72301 77395
L72244 77367
L72216 77339
L72188 77283
L72188 77114
L72216 77058
L72244 77030
L72301 77002
L72413 77002
L72469 77030
" />
<path d="M73201 77086
L73397 77086
" />
<path d="M73482 77395
L73201 77395
L73201 76805
L73482 76805
" />
<path d="M73735 77339
L73763 77367
L73735 77395
L73707 77367
L73735 77339
L73735 77395
" />
<path d="M74016 77395
L74016 76805
L74157 76805
L74241 76833
L74297 76889
L74325 76946
L74354 77058
L74354 77142
L74325 77255
L74297 77311
L74241 77367
L74157 77395
L74016 77395
" />
<path d="M74607 77339
L74635 77367
L74607 77395
L74579 77367
L74607 77339
L74607 77395
" />
<path d="M74860 77227
L75141 77227
" />
<path d="M74804 77395
L75000 76805
L75197 77395
" />
<path d="M75394 77339
L75422 77367
L75394 77395
L75366 77367
L75394 77339
L75394 77395
" />
<path d="M76575 77395
L76575 76805
" />
<path d="M76631 77171
L76800 77395
" />
<path d="M76800 77002
L76575 77227
" />
<path d="M77053 77395
L77053 77002
" />
<path d="M77053 76805
L77025 76833
L77053 76861
L77081 76833
L77053 76805
L77053 76861
" />
<path d="M77588 77367
L77531 77395
L77419 77395
L77363 77367
L77334 77339
L77306 77283
L77306 77114
L77334 77058
L77363 77030
L77419 77002
L77531 77002
L77588 77030
" />
<path d="M78094 77395
L78094 77086
L78066 77030
L78009 77002
L77897 77002
L77841 77030
" />
<path d="M78094 77367
L78037 77395
L77897 77395
L77841 77367
L77813 77311
L77813 77255
L77841 77199
L77897 77171
L78037 77171
L78094 77142
" />
<path d="M78628 77395
L78628 76805
" />
<path d="M78628 77367
L78572 77395
L78459 77395
L78403 77367
L78375 77339
L78347 77283
L78347 77114
L78375 77058
L78403 77030
L78459 77002
L78572 77002
L78628 77030
" />
<path d="M79612 77002
L79612 77395
" />
<path d="M79472 76777
L79331 77199
L79697 77199
" />
<path d="M79922 77339
L79950 77367
L79922 77395
L79894 77367
L79922 77339
L79922 77395
" />
<path d="M80315 76805
L80372 76805
L80428 76833
L80456 76861
L80484 76917
L80512 77030
L80512 77171
L80484 77283
L80456 77339
L80428 77367
L80372 77395
L80315 77395
L80259 77367
L80231 77339
L80203 77283
L80175 77171
L80175 77030
L80203 76917
L80231 76861
L80259 76833
L80315 76805
" />
<path d="M80765 77339
L80793 77367
L80765 77395
L80737 77367
L80765 77339
L80765 77395
" />
<path d="M80990 76805
L81384 76805
L81131 77395
" />
</g>
<g style="fill:#000000; fill-opacity:0.0; 
stroke:#000000; stroke-width:39.3701; stroke-opacity:1; 
stroke-linecap:round; stroke-linejoin:round;">
</g>
<g style="fill:#000000; fill-opacity:0.0; 
stroke:#000000; stroke-width:59.0551; stroke-opacity:1; 
stroke-linecap:round; stroke-linejoin:round;">
<path d="M69685 75396
L112205 75396
" />
</g>
<g style="fill:#000000; fill-opacity:0.0; 
stroke:#000000; stroke-width:39.3701; stroke-opacity:1; 
stroke-linecap:round; stroke-linejoin:round;">
</g>
<g style="fill:#000000; fill-opacity:0.0; 
stroke:#000000; stroke-width:118.11; stroke-opacity:1; 
stroke-linecap:round; stroke-linejoin:round;">
<path d="M104022 76293
L103825 76012
" />
<path d="M103684 76293
L103684 75703
L103909 75703
L103965 75731
L103994 75759
L104022 75815
L104022 75899
L103994 75956
L103965 75984
L103909 76012
L103684 76012
" />
<path d="M104500 76265
L104444 76293
L104331 76293
L104275 76265
L104247 76209
L104247 75984
L104275 75928
L104331 75899
L104444 75899
L104500 75928
L104528 75984
L104528 76040
L104247 76096
" />
<path d="M104725 75899
L104865 76293
L105006 75899
" />
<path d="M105231 76237
L105259 76265
L105231 76293
L105203 76265
L105231 76237
L105231 76293
" />
<path d="M105231 75928
L105259 75956
L105231 75984
L105203 75956
L105231 75928
L105231 75984
" />
</g>
<g style="fill:#000000; fill-opacity:0.0; 
stroke:#000000; stroke-width:39.3701; stroke-opacity:1; 
stroke-linecap:round; stroke-linejoin:round;">
</g>
<g style="fill:#000000; fill-opacity:0.0; 
stroke:#000000; stroke-width:59.0551; stroke-opacity:1; 
stroke-linecap:round; stroke-linejoin:round;">
<path d="M70192 76265
L70276 76293
L70417 76293
L70473 76265
L70501 76237
L70529 76181
L70529 76124
L70501 76068
L70473 76040
L70417 76012
L70304 75984
L70248 75956
L70220 75928
L70192 75871
L70192 75815
L70220 75759
L70248 75731
L70304 75703
L70445 75703
L70529 75731
" />
<path d="M70782 76293
L70782 75899
" />
<path d="M70782 75703
L70754 75731
L70782 75759
L70810 75731
L70782 75703
L70782 75759
" />
<path d="M71007 75899
L71316 75899
L71007 76293
L71316 76293
" />
<path d="M71766 76265
L71710 76293
L71598 76293
L71541 76265
L71513 76209
L71513 75984
L71541 75928
L71598 75899
L71710 75899
L71766 75928
L71795 75984
L71795 76040
L71513 76096
" />
<path d="M72048 76237
L72076 76265
L72048 76293
L72019 76265
L72048 76237
L72048 76293
" />
<path d="M72048 75928
L72076 75956
L72048 75984
L72019 75956
L72048 75928
L72048 75984
" />
<path d="M72751 76124
L73032 76124
" />
<path d="M72694 76293
L72891 75703
L73088 76293
" />
<path d="M73538 75899
L73538 76293
" />
<path d="M73397 75674
L73257 76096
L73622 76096
" />
</g>
<g style="fill:#000000; fill-opacity:0.0; 
stroke:#000000; stroke-width:39.3701; stroke-opacity:1; 
stroke-linecap:round; stroke-linejoin:round;">
</g>
<g style="fill:#000000; fill-opacity:0.0; 
stroke:#000000; stroke-width:59.0551; stroke-opacity:1; 
stroke-linecap:round; stroke-linejoin:round;">
<path d="M103684 77395
L103684 76805
" />
<path d="M104219 77395
L104219 76805
" />
<path d="M104219 77367
L104162 77395
L104050 77395
L103994 77367
L103965 77339
L103937 77283
L103937 77114
L103965 77058
L103994 77030
L104050 77002
L104162 77002
L104219 77030
" />
<path d="M104500 77339
L104528 77367
L104500 77395
L104472 77367
L104500 77339
L104500 77395
" />
<path d="M104500 77030
L104528 77058
L104500 77086
L104472 77058
L104500 77030
L104500 77086
" />
<path d="M105540 77395
L105203 77395
" />
<path d="M105372 77395
L105372 76805
L105315 76889
L105259 76946
L105203 76974
" />
<path d="M106215 76777
L105709 77536
" />
<path d="M106721 77395
L106384 77395
" />
<path d="M106553 77395
L106553 76805
L106496 76889
L106440 76946
L106384 76974
" />
</g>
<g style="fill:#000000; fill-opacity:0.0; 
stroke:#000000; stroke-width:39.3701; stroke-opacity:1; 
stroke-linecap:round; stroke-linejoin:round;">
</g>
<g style="fill:#000000; fill-opacity:0.0; 
stroke:#000000; stroke-width:59.0551; stroke-opacity:1; 
stroke-linecap:round; stroke-linejoin:round;">
<path d="M69685 73821
L112205 73821
" />
</g>
<g style="fill:#000000; fill-opacity:0.0; 
stroke:#000000; stroke-width:39.3701; stroke-opacity:1; 
stroke-linecap:round; stroke-linejoin:round;">
</g>
<g style="fill:#000000; fill-opacity:0.0; 
stroke:#000000; stroke-width:157.48; stroke-opacity:1; 
stroke-linecap:round; stroke-linejoin:round;">
<path d="M70257 74099
L70707 74099
" />
<path d="M70384 74886
L70482 74099
" />
<path d="M70871 74886
L70937 74361
" />
<path d="M70970 74099
L70927 74136
L70960 74174
L71002 74136
L70970 74099
L70960 74174
" />
<path d="M71199 74361
L71499 74361
" />
<path d="M71345 74099
L71260 74774
L71288 74849
L71359 74886
L71434 74886
" />
<path d="M71809 74886
L71738 74849
L71710 74774
L71795 74099
" />
<path d="M72413 74849
L72334 74886
L72184 74886
L72113 74849
L72085 74774
L72123 74474
L72169 74399
L72249 74361
L72399 74361
L72469 74399
L72498 74474
L72488 74549
L72104 74624
" />
<path d="M72793 74811
L72826 74849
L72783 74886
L72751 74849
L72793 74811
L72783 74886
" />
<path d="M72844 74399
L72877 74436
L72835 74474
L72802 74436
L72844 74399
L72835 74474
" />
<path d="M74218 74811
L74175 74849
L74058 74886
L73983 74886
L73876 74849
L73810 74774
L73782 74699
L73763 74549
L73777 74436
L73833 74286
L73880 74211
L73965 74136
L74082 74099
L74157 74099
L74265 74136
L74297 74174
" />
<path d="M74546 74886
L74611 74361
" />
<path d="M74644 74099
L74602 74136
L74635 74174
L74677 74136
L74644 74099
L74635 74174
" />
<path d="M74921 74886
L74986 74361
" />
<path d="M74968 74511
L75014 74436
L75057 74399
L75136 74361
L75211 74361
" />
<path d="M75750 74849
L75671 74886
L75521 74886
L75450 74849
L75418 74811
L75389 74736
L75418 74511
L75464 74436
L75507 74399
L75586 74361
L75736 74361
L75807 74399
" />
<path d="M76486 74361
L76421 74886
" />
<path d="M76149 74361
L76097 74774
L76125 74849
L76196 74886
L76308 74886
L76388 74849
L76430 74811
" />
<path d="M76795 74886
L76861 74361
" />
<path d="M76894 74099
L76852 74136
L76885 74174
L76927 74136
L76894 74099
L76885 74174
" />
<path d="M77124 74361
L77424 74361
" />
<path d="M77269 74099
L77184 74774
L77213 74849
L77283 74886
L77358 74886
" />
<path d="M78187 74849
L78295 74886
L78483 74886
L78562 74849
L78605 74811
L78651 74736
L78661 74661
L78633 74586
L78600 74549
L78530 74511
L78384 74474
L78314 74436
L78281 74399
L78253 74324
L78262 74249
L78309 74174
L78352 74136
L78431 74099
L78619 74099
L78726 74136
" />
<path d="M79373 74361
L79308 74886
" />
<path d="M79036 74361
L78984 74774
L79012 74849
L79083 74886
L79195 74886
L79275 74849
L79317 74811
" />
<path d="M79683 74886
L79748 74361
" />
<path d="M79781 74099
L79739 74136
L79772 74174
L79814 74136
L79781 74099
L79772 74174
" />
<path d="M80048 74361
L80170 74886
L80423 74361
" />
<path d="M80657 74886
L80723 74361
" />
<path d="M80756 74099
L80714 74136
L80747 74174
L80789 74136
L80756 74099
L80747 74174
" />
</g>
<g style="fill:#000000; fill-opacity:0.0; 
stroke:#000000; stroke-width:39.3701; stroke-opacity:1; 
stroke-linecap:round; stroke-linejoin:round;">
</g>
<g style="fill:#000000; fill-opacity:0.0; 
stroke:#000000; stroke-width:59.0551; stroke-opacity:1; 
stroke-linecap:round; stroke-linejoin:round;">
<path d="M70417 73070
L70220 73070
" />
<path d="M70220 73380
L70220 72789
L70501 72789
" />
<path d="M70726 73380
L70726 72986
" />
<path d="M70726 72789
L70698 72817
L70726 72845
L70754 72817
L70726 72789
L70726 72845
" />
<path d="M71091 73380
L71035 73352
L71007 73295
L71007 72789
" />
<path d="M71541 73352
L71485 73380
L71373 73380
L71316 73352
L71288 73295
L71288 73070
L71316 73014
L71373 72986
L71485 72986
L71541 73014
L71570 73070
L71570 73127
L71288 73183
" />
<path d="M71823 73323
L71851 73352
L71823 73380
L71795 73352
L71823 73323
L71823 73380
" />
<path d="M71823 73014
L71851 73042
L71823 73070
L71795 73042
L71823 73014
L71823 73070
" />
<path d="M72469 72986
L72694 72986
" />
<path d="M72554 72789
L72554 73295
L72582 73352
L72638 73380
L72694 73380
" />
<path d="M72891 73380
L72891 72986
" />
<path d="M72891 73099
L72919 73042
L72947 73014
L73004 72986
L73060 72986
" />
<path d="M73510 73380
L73510 73070
L73482 73014
L73426 72986
L73313 72986
L73257 73014
" />
<path d="M73510 73352
L73454 73380
L73313 73380
L73257 73352
L73229 73295
L73229 73239
L73257 73183
L73313 73155
L73454 73155
L73510 73127
" />
<path d="M74044 73352
L73988 73380
L73876 73380
L73819 73352
L73791 73323
L73763 73267
L73763 73099
L73791 73042
L73819 73014
L73876 72986
L73988 72986
L74044 73014
" />
<path d="M74297 73380
L74297 72789
" />
<path d="M74354 73155
L74522 73380
" />
<path d="M74522 72986
L74297 73211
" />
<path d="M74775 73380
L74775 72986
" />
<path d="M74775 72789
L74747 72817
L74775 72845
L74804 72817
L74775 72789
L74775 72845
" />
<path d="M75057 72986
L75057 73380
" />
<path d="M75057 73042
L75085 73014
L75141 72986
L75225 72986
L75282 73014
L75310 73070
L75310 73380
" />
<path d="M75844 72986
L75844 73464
L75816 73520
L75788 73548
L75732 73577
L75647 73577
L75591 73548
" />
<path d="M75844 73352
L75788 73380
L75675 73380
L75619 73352
L75591 73323
L75563 73267
L75563 73099
L75591 73042
L75619 73014
L75675 72986
L75788 72986
L75844 73014
" />
<path d="M75985 73436
L76435 73436
" />
<path d="M76547 73352
L76603 73380
L76716 73380
L76772 73352
L76800 73295
L76800 73267
L76772 73211
L76716 73183
L76631 73183
L76575 73155
L76547 73099
L76547 73070
L76575 73014
L76631 72986
L76716 72986
L76772 73014
" />
<path d="M76997 72986
L77138 73380
" />
<path d="M77278 72986
L77138 73380
L77081 73520
L77053 73548
L76997 73577
" />
<path d="M77475 73352
L77531 73380
L77644 73380
L77700 73352
L77728 73295
L77728 73267
L77700 73211
L77644 73183
L77559 73183
L77503 73155
L77475 73099
L77475 73070
L77503 73014
L77559 72986
L77644 72986
L77700 73014
" />
<path d="M77897 72986
L78122 72986
" />
<path d="M77981 72789
L77981 73295
L78009 73352
L78066 73380
L78122 73380
" />
<path d="M78544 73352
L78487 73380
L78375 73380
L78319 73352
L78291 73295
L78291 73070
L78319 73014
L78375 72986
L78487 72986
L78544 73014
L78572 73070
L78572 73127
L78291 73183
" />
<path d="M78825 73380
L78825 72986
" />
<path d="M78825 73042
L78853 73014
L78909 72986
L78994 72986
L79050 73014
L79078 73070
L79078 73380
" />
<path d="M79078 73070
L79106 73014
L79162 72986
L79247 72986
L79303 73014
L79331 73070
L79331 73380
" />
<path d="M79612 73323
L79640 73352
L79612 73380
L79584 73352
L79612 73323
L79612 73380
" />
<path d="M79894 73380
L79894 72789
" />
<path d="M79950 73155
L80118 73380
" />
<path d="M80118 72986
L79894 73211
" />
<path d="M80372 73380
L80372 72986
" />
<path d="M80372 72789
L80343 72817
L80372 72845
L80400 72817
L80372 72789
L80372 72845
" />
<path d="M80906 73352
L80850 73380
L80737 73380
L80681 73352
L80653 73323
L80625 73267
L80625 73099
L80653 73042
L80681 73014
L80737 72986
L80850 72986
L80906 73014
" />
<path d="M81412 73380
L81412 73070
L81384 73014
L81328 72986
L81215 72986
L81159 73014
" />
<path d="M81412 73352
L81356 73380
L81215 73380
L81159 73352
L81131 73295
L81131 73239
L81159 73183
L81215 73155
L81356 73155
L81412 73127
" />
<path d="M81946 73380
L81946 72789
" />
<path d="M81946 73352
L81890 73380
L81778 73380
L81721 73352
L81693 73323
L81665 73267
L81665 73099
L81693 73042
L81721 73014
L81778 72986
L81890 72986
L81946 73014
" />
<path d="M82087 73436
L82537 73436
" />
<path d="M82678 72986
L82678 73577
" />
<path d="M82678 73014
L82734 72986
L82846 72986
L82903 73014
L82931 73042
L82959 73099
L82959 73267
L82931 73323
L82903 73352
L82846 73380
L82734 73380
L82678 73352
" />
<path d="M83465 73352
L83409 73380
L83296 73380
L83240 73352
L83212 73323
L83184 73267
L83184 73099
L83212 73042
L83240 73014
L83296 72986
L83409 72986
L83465 73014
" />
<path d="M83718 73380
L83718 72789
" />
<path d="M83718 73014
L83774 72986
L83887 72986
L83943 73014
L83971 73042
L83999 73099
L83999 73267
L83971 73323
L83943 73352
L83887 73380
L83774 73380
L83718 73352
" />
</g>
<g style="fill:#000000; fill-opacity:0.0; 
stroke:#000000; stroke-width:39.3701; stroke-opacity:1; 
stroke-linecap:round; stroke-linejoin:round;">
</g>
<g style="fill:#000000; fill-opacity:0.0; 
stroke:#000000; stroke-width:59.0551; stroke-opacity:1; 
stroke-linecap:round; stroke-linejoin:round;">
<path d="M69685 71459
L112205 71459
" />
</g>
<g style="fill:#000000; fill-opacity:0.0; 
stroke:#000000; stroke-width:39.3701; stroke-opacity:1; 
stroke-linecap:round; stroke-linejoin:round;">
</g>
<g style="fill:#000000; fill-opacity:0.0; 
stroke:#000000; stroke-width:59.0551; stroke-opacity:1; 
stroke-linecap:round; stroke-linejoin:round;">
<path d="M70192 72289
L70276 72317
L70417 72317
L70473 72289
L70501 72260
L70529 72204
L70529 72148
L70501 72092
L70473 72064
L70417 72036
L70304 72007
L70248 71979
L70220 71951
L70192 71895
L70192 71839
L70220 71782
L70248 71754
L70304 71726
L70445 71726
L70529 71754
" />
<path d="M70782 72317
L70782 71726
" />
<path d="M71035 72317
L71035 72007
L71007 71951
L70951 71923
L70867 71923
L70810 71951
L70782 71979
" />
<path d="M71541 72289
L71485 72317
L71373 72317
L71316 72289
L71288 72232
L71288 72007
L71316 71951
L71373 71923
L71485 71923
L71541 71951
L71570 72007
L71570 72064
L71288 72120
" />
<path d="M72048 72289
L71991 72317
L71879 72317
L71823 72289
L71795 72232
L71795 72007
L71823 71951
L71879 71923
L71991 71923
L72048 71951
L72076 72007
L72076 72064
L71795 72120
" />
<path d="M72244 71923
L72469 71923
" />
<path d="M72329 71726
L72329 72232
L72357 72289
L72413 72317
L72469 72317
" />
<path d="M72666 72260
L72694 72289
L72666 72317
L72638 72289
L72666 72260
L72666 72317
" />
<path d="M72666 71951
L72694 71979
L72666 72007
L72638 71979
L72666 71951
L72666 72007
" />
</g>
<g style="fill:#000000; fill-opacity:0.0; 
stroke:#000000; stroke-width:39.3701; stroke-opacity:1; 
stroke-linecap:round; stroke-linejoin:round;">
</g>
<g style="fill:#000000; fill-opacity:0.0; 
stroke:#000000; stroke-width:118.11; stroke-opacity:1; 
stroke-linecap:round; stroke-linejoin:round;">
<path d="M70192 71108
L70276 71136
L70417 71136
L70473 71108
L70501 71079
L70529 71023
L70529 70967
L70501 70911
L70473 70883
L70417 70854
L70304 70826
L70248 70798
L70220 70770
L70192 70714
L70192 70658
L70220 70601
L70248 70573
L70304 70545
L70445 70545
L70529 70573
" />
<path d="M70698 70742
L70923 70742
" />
<path d="M70782 70545
L70782 71051
L70810 71108
L70867 71136
L70923 71136
" />
<path d="M71373 71136
L71373 70826
L71345 70770
L71288 70742
L71176 70742
L71120 70770
" />
<path d="M71373 71108
L71316 71136
L71176 71136
L71120 71108
L71091 71051
L71091 70995
L71120 70939
L71176 70911
L71316 70911
L71373 70883
" />
<path d="M71570 70742
L71795 70742
" />
<path d="M71654 70545
L71654 71051
L71682 71108
L71738 71136
L71795 71136
" />
<path d="M71991 71136
L71991 70742
" />
<path d="M71991 70545
L71963 70573
L71991 70601
L72019 70573
L71991 70545
L71991 70601
" />
<path d="M72357 71136
L72301 71108
L72273 71079
L72244 71023
L72244 70854
L72273 70798
L72301 70770
L72357 70742
L72441 70742
L72498 70770
L72526 70798
L72554 70854
L72554 71023
L72526 71079
L72498 71108
L72441 71136
L72357 71136
" />
<path d="M72807 70742
L72807 71136
" />
<path d="M72807 70798
L72835 70770
L72891 70742
L72976 70742
L73032 70770
L73060 70826
L73060 71136
" />
<path d="M73763 71108
L73847 71136
L73988 71136
L74044 71108
L74072 71079
L74100 71023
L74100 70967
L74072 70911
L74044 70883
L73988 70854
L73876 70826
L73819 70798
L73791 70770
L73763 70714
L73763 70658
L73791 70601
L73819 70573
L73876 70545
L74016 70545
L74100 70573
" />
<path d="M74438 71136
L74382 71108
L74354 71079
L74325 71023
L74325 70854
L74354 70798
L74382 70770
L74438 70742
L74522 70742
L74579 70770
L74607 70798
L74635 70854
L74635 71023
L74607 71079
L74579 71108
L74522 71136
L74438 71136
" />
<path d="M74972 71136
L74916 71108
L74888 71051
L74888 70545
" />
<path d="M75619 71108
L75703 71136
L75844 71136
L75900 71108
L75928 71079
L75956 71023
L75956 70967
L75928 70911
L75900 70883
L75844 70854
L75732 70826
L75675 70798
L75647 70770
L75619 70714
L75619 70658
L75647 70601
L75675 70573
L75732 70545
L75872 70545
L75956 70573
" />
<path d="M76463 70742
L76463 71136
" />
<path d="M76210 70742
L76210 71051
L76238 71108
L76294 71136
L76378 71136
L76435 71108
L76463 71079
" />
<path d="M76744 70742
L76744 71332
" />
<path d="M76744 70770
L76800 70742
L76913 70742
L76969 70770
L76997 70798
L77025 70854
L77025 71023
L76997 71079
L76969 71108
L76913 71136
L76800 71136
L76744 71108
" />
<path d="M77250 71108
L77306 71136
L77419 71136
L77475 71108
L77503 71051
L77503 71023
L77475 70967
L77419 70939
L77334 70939
L77278 70911
L77250 70854
L77250 70826
L77278 70770
L77334 70742
L77419 70742
L77475 70770
" />
<path d="M78009 71136
L78009 70826
L77981 70770
L77925 70742
L77813 70742
L77756 70770
" />
<path d="M78009 71108
L77953 71136
L77813 71136
L77756 71108
L77728 71051
L77728 70995
L77756 70939
L77813 70911
L77953 70911
L78009 70883
" />
<path d="M78206 70742
L78431 70742
" />
<path d="M78291 70545
L78291 71051
L78319 71108
L78375 71136
L78431 71136
" />
</g>
<g style="fill:#000000; fill-opacity:0.0; 
stroke:#000000; stroke-width:39.3701; stroke-opacity:1; 
stroke-linecap:round; stroke-linejoin:round;">
</g>
<g style="fill:#000000; fill-opacity:0.0; 
stroke:#000000; stroke-width:59.0551; stroke-opacity:1; 
stroke-linecap:round; stroke-linejoin:round;">
<path d="M77559 75396
L77559 76577
" />
</g>
<g style="fill:#000000; fill-opacity:0.0; 
stroke:#000000; stroke-width:39.3701; stroke-opacity:1; 
stroke-linecap:round; stroke-linejoin:round;">
</g>
<g style="fill:#000000; fill-opacity:0.0; 
stroke:#000000; stroke-width:59.0551; stroke-opacity:1; 
stroke-linecap:round; stroke-linejoin:round;">
<path d="M102756 75396
L102756 77955
" />
</g>
<g style="fill:#008484; fill-opacity:0.0; 
stroke:#008484; stroke-width:59.0551; stroke-opacity:1; 
stroke-linecap:round; stroke-linejoin:round;">
</g>
<g style="fill:#008484; fill-opacity:0.0; 
stroke:#008484; stroke-width:78.7402; stroke-opacity:1; 
stroke-linecap:round; stroke-linejoin:round;">
<path d="M12000 69000
L32000 69000
" />
<path d="M12000 11000
L12000 69000
" />
<path d="M12500 11000
L12000 11000
" />
<path d="M54000 11000
L12500 11000
" />
<path d="M54000 69000
L54000 11000
" />
<path d="M32000 69000
L54000 69000
" />
</g>
<g style="fill:#C2C200; fill-opacity:0.0; 
stroke:#C2C200; stroke-width:78.7402; stroke-opacity:1; 
stroke-linecap:round; stroke-linejoin:round;">
</g>
<g style="fill:#C2C200; fill-opacity:0.0; 
stroke:#C2C200; stroke-width:59.0551; stroke-opacity:1; 
stroke-linecap:round; stroke-linejoin:round;">
<path d="M46731 14557
L46749 14576
L46768 14632
L46768 14670
L46749 14726
L46712 14763
L46674 14782
L46599 14801
L46543 14801
L46468 14782
L46431 14763
L46393 14726
L46374 14670
L46374 14632
L46393 14576
L46412 14557
" />
<path d="M46768 14182
L46768 14407
" />
<path d="M46768 14295
L46374 14295
L46431 14332
L46468 14370
L46487 14407
" />
<path d="M15843 64790
L15449 64790
L15449 64696
L15468 64640
L15505 64603
L15543 64584
L15618 64565
L15674 64565
L15749 64584
L15787 64603
L15824 64640
L15843 64696
L15843 64790
" />
<path d="M15843 64190
L15843 64415
" />
<path d="M15843 64303
L15449 64303
L15505 64340
L15543 64378
L15562 64415
" />
<path d="M24843 64790
L24449 64790
L24449 64696
L24468 64640
L24505 64603
L24543 64584
L24618 64565
L24674 64565
L24749 64584
L24787 64603
L24824 64640
L24843 64696
L24843 64790
" />
<path d="M24487 64415
L24468 64396
L24449 64359
L24449 64265
L24468 64228
L24487 64209
L24524 64190
L24562 64190
L24618 64209
L24843 64434
L24843 64190
" />
<path d="M36867 13131
L37148 13131
L37204 13149
L37242 13187
L37260 13243
L37260 13281
" />
<path d="M37260 12737
L37260 12962
" />
<path d="M37260 12850
L36867 12850
L36923 12887
L36960 12925
L36979 12962
" />
<path d="M51368 29201
L51368 29482
L51350 29539
L51312 29576
L51256 29595
L51218 29595
" />
<path d="M51537 29239
L51556 29220
L51593 29201
L51687 29201
L51724 29220
L51743 29239
L51762 29276
L51762 29314
L51743 29370
L51518 29595
L51762 29595
" />
<path d="M14368 21367
L14368 21648
L14350 21704
L14312 21742
L14256 21760
L14218 21760
" />
<path d="M14518 21367
L14762 21367
L14631 21517
L14687 21517
L14724 21535
L14743 21554
L14762 21592
L14762 21685
L14743 21723
L14724 21742
L14687 21760
L14574 21760
L14537 21742
L14518 21723
" />
<path d="M16868 60701
L16868 60982
L16850 61039
L16812 61076
L16756 61095
L16718 61095
" />
<path d="M17224 60832
L17224 61095
" />
<path d="M17131 60682
L17037 60964
L17281 60964
" />
<path d="M20868 60701
L20868 60982
L20850 61039
L20812 61076
L20756 61095
L20718 61095
" />
<path d="M21243 60701
L21056 60701
L21037 60889
L21056 60870
L21093 60851
L21187 60851
L21224 60870
L21243 60889
L21262 60926
L21262 61020
L21243 61057
L21224 61076
L21187 61095
L21093 61095
L21056 61076
L21037 61057
" />
<path d="M15587 60065
L15400 60196
" />
<path d="M15587 60290
L15193 60290
L15193 60140
L15212 60103
L15231 60084
L15268 60065
L15325 60065
L15362 60084
L15381 60103
L15400 60140
L15400 60290
" />
<path d="M15587 59690
L15587 59915
" />
<path d="M15587 59803
L15193 59803
L15250 59840
L15287 59878
L15306 59915
" />
<path d="M24587 60065
L24400 60196
" />
<path d="M24587 60290
L24193 60290
L24193 60140
L24212 60103
L24231 60084
L24268 60065
L24325 60065
L24362 60084
L24381 60103
L24400 60140
L24400 60290
" />
<path d="M24231 59915
L24212 59896
L24193 59859
L24193 59765
L24212 59728
L24231 59709
L24268 59690
L24306 59690
L24362 59709
L24587 59934
L24587 59690
" />
<path d="M33725 27874
L33725 27481
L33818 27481
L33875 27500
L33912 27537
L33931 27574
L33950 27649
L33950 27706
L33931 27781
L33912 27818
L33875 27856
L33818 27874
L33725 27874
" />
<path d="M34343 27874
L34212 27687
" />
<path d="M34118 27874
L34118 27481
L34268 27481
L34306 27500
L34325 27518
L34343 27556
L34343 27612
L34325 27649
L34306 27668
L34268 27687
L34118 27687
" />
<path d="M34512 27874
L34512 27481
" />
<path d="M34643 27481
L34775 27874
L34906 27481
" />
<path d="M35037 27668
L35168 27668
" />
<path d="M35224 27874
L35037 27874
L35037 27481
L35224 27481
" />
<path d="M35618 27874
L35487 27687
" />
<path d="M35393 27874
L35393 27481
L35543 27481
L35581 27500
L35599 27518
L35618 27556
L35618 27612
L35599 27649
L35581 27668
L35543 27687
L35393 27687
" />
<path d="M35693 27912
L35993 27912
" />
<path d="M36293 27874
L36068 27874
" />
<path d="M36181 27874
L36181 27481
L36143 27537
L36106 27574
L36068 27593
" />
<path d="M32818 46971
L32950 46971
" />
<path d="M33006 47178
L32818 47178
L32818 46784
L33006 46784
" />
<path d="M33156 47159
L33212 47178
L33306 47178
L33343 47159
L33362 47140
L33381 47103
L33381 47065
L33362 47028
L33343 47009
L33306 46990
L33231 46971
L33193 46953
L33175 46934
L33156 46896
L33156 46859
L33175 46821
L33193 46803
L33231 46784
L33325 46784
L33381 46803
" />
<path d="M33550 47178
L33550 46784
L33700 46784
L33737 46803
L33756 46821
L33775 46859
L33775 46915
L33756 46953
L33737 46971
L33700 46990
L33550 46990
" />
<path d="M33906 46784
L34149 46784
L34018 46934
L34074 46934
L34112 46953
L34131 46971
L34149 47009
L34149 47103
L34131 47140
L34112 47159
L34074 47178
L33962 47178
L33925 47159
L33906 47140
" />
<path d="M34299 46821
L34318 46803
L34356 46784
L34449 46784
L34487 46803
L34506 46821
L34524 46859
L34524 46896
L34506 46953
L34281 47178
L34524 47178
" />
<path d="M34599 47215
L34899 47215
" />
<path d="M35199 47178
L34974 47178
" />
<path d="M35087 47178
L35087 46784
L35049 46840
L35012 46878
L34974 46896
" />
<path d="M30415 67159
L30472 67178
L30565 67178
L30603 67159
L30622 67140
L30640 67103
L30640 67065
L30622 67028
L30603 67009
L30565 66990
L30490 66971
L30453 66953
L30434 66934
L30415 66896
L30415 66859
L30434 66821
L30453 66803
L30490 66784
L30584 66784
L30640 66803
" />
<path d="M30790 67159
L30847 67178
L30940 67178
L30978 67159
L30997 67140
L31015 67103
L31015 67065
L30997 67028
L30978 67009
L30940 66990
L30865 66971
L30828 66953
L30809 66934
L30790 66896
L30790 66859
L30809 66821
L30828 66803
L30865 66784
L30959 66784
L31015 66803
" />
<path d="M31184 67178
L31184 66784
L31278 66784
L31334 66803
L31371 66840
L31390 66878
L31409 66953
L31409 67009
L31390 67084
L31371 67121
L31334 67159
L31278 67178
L31184 67178
" />
<path d="M31784 67178
L31559 67178
" />
<path d="M31671 67178
L31671 66784
L31634 66840
L31596 66878
L31559 66896
" />
<path d="M31915 66784
L32159 66784
L32028 66934
L32084 66934
L32121 66953
L32140 66971
L32159 67009
L32159 67103
L32140 67140
L32121 67159
L32084 67178
L31971 67178
L31934 67159
L31915 67140
" />
<path d="M32403 66784
L32440 66784
L32478 66803
L32496 66821
L32515 66859
L32534 66934
L32534 67028
L32515 67103
L32496 67140
L32478 67159
L32440 67178
L32403 67178
L32365 67159
L32346 67140
L32328 67103
L32309 67028
L32309 66934
L32328 66859
L32346 66821
L32365 66803
L32403 66784
" />
<path d="M32871 66784
L32796 66784
L32759 66803
L32740 66821
L32703 66878
L32684 66953
L32684 67103
L32703 67140
L32721 67159
L32759 67178
L32834 67178
L32871 67159
L32890 67140
L32909 67103
L32909 67009
L32890 66971
L32871 66953
L32834 66934
L32759 66934
L32721 66953
L32703 66971
L32684 67009
" />
<path d="M32984 67215
L33284 67215
" />
<path d="M33584 67178
L33359 67178
" />
<path d="M33471 67178
L33471 66784
L33434 66840
L33396 66878
L33359 66896
" />
<path d="M47368 64201
L47368 64482
L47350 64539
L47312 64576
L47256 64595
L47218 64595
" />
<path d="M47724 64201
L47649 64201
L47612 64220
L47593 64239
L47556 64295
L47537 64370
L47537 64520
L47556 64557
L47574 64576
L47612 64595
L47687 64595
L47724 64576
L47743 64557
L47762 64520
L47762 64426
L47743 64389
L47724 64370
L47687 64351
L47612 64351
L47574 64370
L47556 64389
L47537 64426
" />
</g>
<g style="fill:#008484; fill-opacity:0.0; 
stroke:#008484; stroke-width:59.0551; stroke-opacity:1; 
stroke-linecap:round; stroke-linejoin:round;">
</g>
<g style="fill:#008484; fill-opacity:0.0; 
stroke:#008484; stroke-width:47.2441; stroke-opacity:1; 
stroke-linecap:round; stroke-linejoin:round;">
<circle cx="44500" cy="14492.1" r="1610.24" /> 
<path d="M46094 14492
L42905 14492
" />
<path d="M46094 14507
L42905 14507
" />
<path d="M46094 14523
L42905 14523
" />
<path d="M46094 14539
L42905 14539
" />
<path d="M46093 14555
L42906 14555
" />
<path d="M46092 14570
L42907 14570
" />
<path d="M46091 14586
L42908 14586
" />
<path d="M46090 14602
L44885 14602
" />
<path d="M44114 14602
L42909 14602
" />
<path d="M46089 14618
L44885 14618
" />
<path d="M44114 14618
L42910 14618
" />
<path d="M46088 14633
L44885 14633
" />
<path d="M44114 14633
L42911 14633
" />
<path d="M46087 14649
L44885 14649
" />
<path d="M44114 14649
L42912 14649
" />
<path d="M46085 14665
L44885 14665
" />
<path d="M44114 14665
L42914 14665
" />
<path d="M46083 14681
L44885 14681
" />
<path d="M44114 14681
L42916 14681
" />
<path d="M46081 14696
L44885 14696
" />
<path d="M44114 14696
L42918 14696
" />
<path d="M46079 14712
L44885 14712
" />
<path d="M44114 14712
L42920 14712
" />
<path d="M46077 14728
L44885 14728
" />
<path d="M44114 14728
L42922 14728
" />
<path d="M46074 14744
L44885 14744
" />
<path d="M44114 14744
L42925 14744
" />
<path d="M46072 14759
L44885 14759
" />
<path d="M44114 14759
L42927 14759
" />
<path d="M46069 14775
L44885 14775
" />
<path d="M44114 14775
L42930 14775
" />
<path d="M46066 14791
L44885 14791
" />
<path d="M44114 14791
L42933 14791
" />
<path d="M46063 14807
L44885 14807
" />
<path d="M44114 14807
L42936 14807
" />
<path d="M46060 14823
L44885 14823
" />
<path d="M44114 14823
L42939 14823
" />
<path d="M46057 14838
L44885 14838
" />
<path d="M44114 14838
L42942 14838
" />
<path d="M46053 14854
L44885 14854
" />
<path d="M44114 14854
L42946 14854
" />
<path d="M46049 14870
L44885 14870
" />
<path d="M44114 14870
L42950 14870
" />
<path d="M46045 14886
L44885 14886
" />
<path d="M44114 14886
L42954 14886
" />
<path d="M46041 14901
L44885 14901
" />
<path d="M44114 14901
L42958 14901
" />
<path d="M46037 14917
L44885 14917
" />
<path d="M44114 14917
L42962 14917
" />
<path d="M46033 14933
L44885 14933
" />
<path d="M44114 14933
L42966 14933
" />
<path d="M46028 14949
L44885 14949
" />
<path d="M44114 14949
L42971 14949
" />
<path d="M46023 14964
L44885 14964
" />
<path d="M44114 14964
L42976 14964
" />
<path d="M46018 14980
L44885 14980
" />
<path d="M44114 14980
L42981 14980
" />
<path d="M46013 14996
L44885 14996
" />
<path d="M44114 14996
L42986 14996
" />
<path d="M46008 15012
L44885 15012
" />
<path d="M44114 15012
L42991 15012
" />
<path d="M46003 15027
L44885 15027
" />
<path d="M44114 15027
L42996 15027
" />
<path d="M45997 15043
L44885 15043
" />
<path d="M44114 15043
L43002 15043
" />
<path d="M45991 15059
L44885 15059
" />
<path d="M44114 15059
L43008 15059
" />
<path d="M45985 15075
L44885 15075
" />
<path d="M44114 15075
L43014 15075
" />
<path d="M45979 15090
L44885 15090
" />
<path d="M44114 15090
L43020 15090
" />
<path d="M45972 15106
L44885 15106
" />
<path d="M44114 15106
L43027 15106
" />
<path d="M45966 15122
L44885 15122
" />
<path d="M44114 15122
L43033 15122
" />
<path d="M45959 15138
L44885 15138
" />
<path d="M44114 15138
L43040 15138
" />
<path d="M45952 15153
L44885 15153
" />
<path d="M44114 15153
L43047 15153
" />
<path d="M45945 15169
L44885 15169
" />
<path d="M44114 15169
L43054 15169
" />
<path d="M45937 15185
L44885 15185
" />
<path d="M44114 15185
L43062 15185
" />
<path d="M45930 15201
L44885 15201
" />
<path d="M44114 15201
L43069 15201
" />
<path d="M45922 15216
L44885 15216
" />
<path d="M44114 15216
L43077 15216
" />
<path d="M45914 15232
L44885 15232
" />
<path d="M44114 15232
L43085 15232
" />
<path d="M45906 15248
L44885 15248
" />
<path d="M44114 15248
L43093 15248
" />
<path d="M45897 15264
L44885 15264
" />
<path d="M44114 15264
L43102 15264
" />
<path d="M45888 15279
L44885 15279
" />
<path d="M44114 15279
L43111 15279
" />
<path d="M45879 15295
L44885 15295
" />
<path d="M44114 15295
L43120 15295
" />
<path d="M45870 15311
L44885 15311
" />
<path d="M44114 15311
L43129 15311
" />
<path d="M45861 15327
L44885 15327
" />
<path d="M44114 15327
L43138 15327
" />
<path d="M45851 15342
L44885 15342
" />
<path d="M44114 15342
L43148 15342
" />
<path d="M45841 15358
L44885 15358
" />
<path d="M44114 15358
L43158 15358
" />
<path d="M45831 15374
L43168 15374
" />
<path d="M45821 15390
L43178 15390
" />
<path d="M45810 15405
L43189 15405
" />
<path d="M45799 15421
L43200 15421
" />
<path d="M45788 15437
L43211 15437
" />
<path d="M45776 15453
L43223 15453
" />
<path d="M45764 15468
L43235 15468
" />
<path d="M45752 15484
L43247 15484
" />
<path d="M45740 15500
L43259 15500
" />
<path d="M45727 15516
L43272 15516
" />
<path d="M45714 15531
L43285 15531
" />
<path d="M45700 15547
L43299 15547
" />
<path d="M45687 15563
L43312 15563
" />
<path d="M45672 15579
L43327 15579
" />
<path d="M45658 15594
L43341 15594
" />
<path d="M45643 15610
L43356 15610
" />
<path d="M45627 15626
L43372 15626
" />
<path d="M45611 15642
L43388 15642
" />
<path d="M45595 15657
L43404 15657
" />
<path d="M45578 15673
L43421 15673
" />
<path d="M45561 15689
L43438 15689
" />
<path d="M45544 15705
L43455 15705
" />
<path d="M45525 15720
L43474 15720
" />
<path d="M45506 15736
L43493 15736
" />
<path d="M45487 15752
L43512 15752
" />
<path d="M45467 15768
L43532 15768
" />
<path d="M45446 15783
L43553 15783
" />
<path d="M45424 15799
L43575 15799
" />
<path d="M45402 15815
L43597 15815
" />
<path d="M45379 15831
L43620 15831
" />
<path d="M45355 15846
L43644 15846
" />
<path d="M45330 15862
L43669 15862
" />
<path d="M45304 15878
L43695 15878
" />
<path d="M45277 15894
L43722 15894
" />
<path d="M45248 15909
L43751 15909
" />
<path d="M45218 15925
L43781 15925
" />
<path d="M45187 15941
L43812 15941
" />
<path d="M45153 15957
L43846 15957
" />
<path d="M45118 15972
L43881 15972
" />
<path d="M45079 15988
L43920 15988
" />
<path d="M45038 16004
L43961 16004
" />
<path d="M44993 16020
L44006 16020
" />
<path d="M44943 16035
L44056 16035
" />
<path d="M44887 16051
L44112 16051
" />
<path d="M44820 16067
L44179 16067
" />
<path d="M44735 16083
L44264 16083
" />
<path d="M44596 16098
L44403 16098
" />
<path d="M44500 13133
L44500 13606
" />
<path d="M44755 13370
L44244 13370
" />
<path d="M14924.6 65158.4 A783.465 783.465 0.0 0 0 14986.4 63885.8 " />
<path d="M14013.6 63885.8 A783.465 783.465 0.0 0 0 14075.4 65158.4 " />
<path d="M14925.1 64909.9 A590.551 590.551 0.0 0 0 14925.2 64090.2 " />
<path d="M14074.8 64090.2 A590.551 590.551 0.0 0 0 14074.9 64909.9 " />
<path d="M14986 63885
L14925 63885
" />
<path d="M14074 63885
L14013 63885
" />
<path d="M23924.6 65158.4 A783.465 783.465 0.0 0 0 23986.4 63885.8 " />
<path d="M23013.6 63885.8 A783.465 783.465 0.0 0 0 23075.4 65158.4 " />
<path d="M23925.1 64909.9 A590.551 590.551 0.0 0 0 23925.2 64090.2 " />
<path d="M23074.8 64090.2 A590.551 590.551 0.0 0 0 23074.9 64909.9 " />
<path d="M23986 63885
L23925 63885
" />
<path d="M23074 63885
L23013 63885
" />
<path d="M39523 13523
L39523 12476
" />
<path d="M38500 13523
L39523 13523
" />
<path d="M38500 12476
L39523 12476
" />
<path d="M38500 13523
L38500 12476
" />
<path d="M38000 13523
L37476 13523
" />
<path d="M37476 13523
L37476 13000
" />
<path d="M52023 24976
L50976 24976
" />
<path d="M52023 28000
L52023 24976
" />
<path d="M50976 28000
L50976 24976
" />
<path d="M52023 28000
L50976 28000
" />
<path d="M52023 28500
L52023 29023
" />
<path d="M52023 29023
L51500 29023
" />
<path d="M13976 26023
L15023 26023
" />
<path d="M13976 23000
L13976 26023
" />
<path d="M15023 23000
L15023 26023
" />
<path d="M13976 23000
L15023 23000
" />
<path d="M13976 22500
L13976 21976
" />
<path d="M13976 21976
L14500 21976
" />
<path d="M17523 57476
L16476 57476
" />
<path d="M17523 59500
L17523 57476
" />
<path d="M16476 59500
L16476 57476
" />
<path d="M17523 59500
L16476 59500
" />
<path d="M17523 60000
L17523 60523
" />
<path d="M17523 60523
L17000 60523
" />
<path d="M21523 57476
L20476 57476
" />
<path d="M21523 59500
L21523 57476
" />
<path d="M20476 59500
L20476 57476
" />
<path d="M21523 59500
L20476 59500
" />
<path d="M21523 60000
L21523 60523
" />
<path d="M21523 60523
L21000 60523
" />
<path d="M15015 58736
L13984 58736
" />
<path d="M13984 58736
L13984 61263
" />
<path d="M13984 61263
L15015 61263
" />
<path d="M15015 61263
L15015 58736
" />
<path d="M14500 58385
L14500 58736
" />
<path d="M14500 61614
L14500 61263
" />
<path d="M24015 58736
L22984 58736
" />
<path d="M22984 58736
L22984 61263
" />
<path d="M22984 61263
L24015 61263
" />
<path d="M24015 61263
L24015 58736
" />
<path d="M23500 58385
L23500 58736
" />
<path d="M23500 61614
L23500 61263
" />
</g>
<g style="fill:#008484; fill-opacity:0.0; 
stroke:#008484; stroke-width:59.0551; stroke-opacity:1; 
stroke-linecap:round; stroke-linejoin:round;">
<path d="M19500 25500
L18500 25500
" />
<path d="M19500 27000
L18500 27000
" />
<path d="M19500 22500
L18500 22500
" />
<path d="M19500 21000
L18500 21000
" />
<path d="M46500 30000
L47500 30000
" />
<path d="M46500 28500
L47500 28500
" />
<path d="M46500 25500
L47500 25500
" />
<path d="M46500 24000
L47500 24000
" />
<path d="M39500 18000
L39500 17000
" />
<path d="M37500 18000
L37500 17000
" />
<circle cx="40500" cy="38000" r="500" /> 
<circle cx="41000" cy="19000" r="500" /> 
<circle cx="20500" cy="32000" r="500" /> 
<path d="M36000 18000
L46500 18000
" />
<path d="M46500 18000
L46500 39000
" />
<path d="M46500 39000
L40000 39000
" />
<path d="M21000 18000
L20500 18000
" />
<path d="M20500 18000
L20500 19000
" />
<path d="M20500 19000
L19500 20000
" />
<path d="M19500 20000
L19500 32500
" />
<path d="M19500 32500
L20500 33500
" />
<path d="M20500 33500
L20500 39000
" />
<path d="M20500 39000
L40000 39000
" />
<path d="M21000 18000
L36000 18000
" />
<path d="M45500 53000
L45500 52000
" />
<path d="M24500 48000
L24500 47000
" />
<path d="M25000 49500
L25000 48500
" />
<circle cx="45000" cy="42500" r="500" /> 
<circle cx="45000" cy="52500" r="500" /> 
<path d="M24500 45000
L24500 43000
" />
<path d="M24500 49000
L24500 48000
" />
<path d="M24500 53000
L24500 50000
" />
<path d="M25000 46000
L24500 46000
" />
<path d="M25000 49000
L24500 49000
" />
<path d="M24500 45000
L25000 45500
" />
<path d="M25000 45500
L25000 48500
" />
<path d="M25000 49500
L24500 50000
" />
<path d="M24500 46000
L24500 47000
" />
<path d="M24500 42000
L24500 43000
" />
<path d="M24500 53000
L45500 53000
" />
<path d="M45500 52000
L45500 42000
" />
<path d="M45500 42000
L24500 42000
" />
<path d="M24500 42000
L24500 43000
" />
<path d="M36750 64750
L37250 64750
" />
<path d="M37250 64750
L37250 58750
" />
<path d="M37250 58750
L27250 58750
" />
<path d="M27250 58750
L27250 64750
" />
<path d="M27250 64750
L36750 64750
" />
<path d="M36750 64750
L37250 64750
" />
<path d="M37250 64750
L37250 65750
" />
<path d="M37250 65750
L27250 65750
" />
<path d="M27250 65750
L27250 64750
" />
<circle cx="27750" cy="66750" r="500" /> 
<circle cx="36750" cy="66750" r="500" /> 
<circle cx="36750" cy="57750" r="500" /> 
<circle cx="27750" cy="57750" r="500" /> 
<path d="M35750 56750
L37750 56750
" />
<path d="M37750 56750
L37750 67750
" />
<path d="M37750 67750
L26750 67750
" />
<path d="M35750 56750
L26750 56750
" />
<path d="M26750 56750
L26750 67750
" />
</g>
<g style="fill:#008484; fill-opacity:0.0; 
stroke:#008484; stroke-width:47.2441; stroke-opacity:1; 
stroke-linecap:round; stroke-linejoin:round;">
<path d="M48023 55976
L46976 55976
" />
<path d="M48023 63000
L48023 55976
" />
<path d="M46976 63000
L46976 55976
" />
<path d="M48023 63000
L46976 63000
" />
<path d="M48023 63500
L48023 64023
" />
<path d="M48023 64023
L47500 64023
" />
</g> 
</svg>
