  0
SECTION
  2
HEADER
  9
$ANGBASE
  50
0.0
  9
$ANGDIR
  70
  1
  9
$MEASUREMENT
  70
0
  0
ENDSEC
  0
SECTION
  2
TABLES
  0
TABLE
  2
LTYPE
  70
1
  0
LTYPE
  2
CONTINUOUS
  70
0
  3
Solid line
  72
65
  73
0
  40
0.0
  0
ENDTAB
  0
TABLE
  2
STYLE
  70
4
  0
STYLE
  2
KICAD
  70
0
  40
0
  41
1
  42
1
  50
0
  71
0
  3
isocp.shx
  0
STYLE
  2
KICADB
  70
0
  40
0
  41
1
  42
1
  50
0
  71
0
  3
isocp.shx
  0
STYLE
  2
KICADI
  70
0
  40
0
  41
1
  42
1
  50
15
  71
0
  3
isocp.shx
  0
STYLE
  2
KICADBI
  70
0
  40
0
  41
1
  42
1
  50
15
  71
0
  3
isocp.shx
  0
ENDTAB
  0
TABLE
  2
LAYER
  70
30
  0
LAYER
  2
BLACK
  70
0
  62
7
  6
CONTINUOUS
  0
LAYER
  2
GRAY1
  70
0
  62
251
  6
CONTINUOUS
  0
LAYER
  2
GRAY2
  70
0
  62
8
  6
CONTINUOUS
  0
LAYER
  2
GRAY3
  70
0
  62
9
  6
CONTINUOUS
  0
LAYER
  2
WHITE
  70
0
  62
7
  6
CONTINUOUS
  0
LAYER
  2
LYELLOW
  70
0
  62
51
  6
CONTINUOUS
  0
LAYER
  2
BLUE1
  70
0
  62
178
  6
CONTINUOUS
  0
LAYER
  2
GREEN1
  70
0
  62
98
  6
CONTINUOUS
  0
LAYER
  2
CYAN1
  70
0
  62
138
  6
CONTINUOUS
  0
LAYER
  2
RED1
  70
0
  62
18
  6
CONTINUOUS
  0
LAYER
  2
MAGENTA1
  70
0
  62
228
  6
CONTINUOUS
  0
LAYER
  2
BROWN1
  70
0
  62
58
  6
CONTINUOUS
  0
LAYER
  2
BLUE2
  70
0
  62
5
  6
CONTINUOUS
  0
LAYER
  2
GREEN2
  70
0
  62
3
  6
CONTINUOUS
  0
LAYER
  2
CYAN2
  70
0
  62
4
  6
CONTINUOUS
  0
LAYER
  2
RED2
  70
0
  62
1
  6
CONTINUOUS
  0
LAYER
  2
MAGENTA2
  70
0
  62
6
  6
CONTINUOUS
  0
LAYER
  2
BROWN2
  70
0
  62
54
  6
CONTINUOUS
  0
LAYER
  2
BLUE3
  70
0
  62
171
  6
CONTINUOUS
  0
LAYER
  2
GREEN3
  70
0
  62
91
  6
CONTINUOUS
  0
LAYER
  2
CYAN3
  70
0
  62
131
  6
CONTINUOUS
  0
LAYER
  2
RED3
  70
0
  62
11
  6
CONTINUOUS
  0
LAYER
  2
MAGENTA3
  70
0
  62
221
  6
CONTINUOUS
  0
LAYER
  2
YELLOW3
  70
0
  62
2
  6
CONTINUOUS
  0
LAYER
  2
BLUE4
  70
0
  62
5
  6
CONTINUOUS
  0
LAYER
  2
GREEN4
  70
0
  62
3
  6
CONTINUOUS
  0
LAYER
  2
CYAN4
  70
0
  62
4
  6
CONTINUOUS
  0
LAYER
  2
RED4
  70
0
  62
1
  6
CONTINUOUS
  0
LAYER
  2
MAGENTA4
  70
0
  62
6
  6
CONTINUOUS
  0
LAYER
  2
YELLOW4
  70
0
  62
2
  6
CONTINUOUS
  0
ENDTAB
  0
ENDSEC
  0
SECTION
  2
ENTITIES
0
LINE
8
Black
10
131.685
20
-109.35
11
131.235
21
-109.35
0
LINE
8
Black
10
131.235
20
-109.35
11
131.235
21
-108.55
0
LINE
8
Black
10
131.235
20
-108.55
11
131.685
21
-108.55
0
LINE
8
Black
10
131.685
20
-108.55
11
131.685
21
-109.35
0
LINE
8
Black
10
131.035
20
-109.35
11
130.585
21
-109.35
0
LINE
8
Black
10
130.585
20
-109.35
11
130.585
21
-108.55
0
LINE
8
Black
10
130.585
20
-108.55
11
131.035
21
-108.55
0
LINE
8
Black
10
131.035
20
-108.55
11
131.035
21
-109.35
0
LINE
8
Black
10
130.385
20
-109.35
11
129.935
21
-109.35
0
LINE
8
Black
10
129.935
20
-109.35
11
129.935
21
-108.55
0
LINE
8
Black
10
129.935
20
-108.55
11
130.385
21
-108.55
0
LINE
8
Black
10
130.385
20
-108.55
11
130.385
21
-109.35
0
LINE
8
Black
10
130.385
20
-107.35
11
129.935
21
-107.35
0
LINE
8
Black
10
129.935
20
-107.35
11
129.935
21
-106.55
0
LINE
8
Black
10
129.935
20
-106.55
11
130.385
21
-106.55
0
LINE
8
Black
10
130.385
20
-106.55
11
130.385
21
-107.35
0
LINE
8
Black
10
131.035
20
-107.35
11
130.585
21
-107.35
0
LINE
8
Black
10
130.585
20
-107.35
11
130.585
21
-106.55
0
LINE
8
Black
10
130.585
20
-106.55
11
131.035
21
-106.55
0
LINE
8
Black
10
131.035
20
-106.55
11
131.035
21
-107.35
0
LINE
8
Black
10
131.685
20
-107.35
11
131.235
21
-107.35
0
LINE
8
Black
10
131.235
20
-107.35
11
131.235
21
-106.55
0
LINE
8
Black
10
131.235
20
-106.55
11
131.685
21
-106.55
0
LINE
8
Black
10
131.685
20
-106.55
11
131.685
21
-107.35
0
LINE
8
Black
10
160.955
20
-106.345
11
159.405
21
-106.345
0
LINE
8
Black
10
159.405
20
-106.345
11
159.405
21
-105.745
0
LINE
8
Black
10
159.405
20
-105.745
11
160.955
21
-105.745
0
LINE
8
Black
10
160.955
20
-105.745
11
160.955
21
-106.345
0
LINE
8
Black
10
155.555
20
-106.345
11
154.005
21
-106.345
0
LINE
8
Black
10
154.005
20
-106.345
11
154.005
21
-105.745
0
LINE
8
Black
10
154.005
20
-105.745
11
155.555
21
-105.745
0
LINE
8
Black
10
155.555
20
-105.745
11
155.555
21
-106.345
0
LINE
8
Black
10
160.955
20
-105.075
11
159.405
21
-105.075
0
LINE
8
Black
10
159.405
20
-105.075
11
159.405
21
-104.475
0
LINE
8
Black
10
159.405
20
-104.475
11
160.955
21
-104.475
0
LINE
8
Black
10
160.955
20
-104.475
11
160.955
21
-105.075
0
LINE
8
Black
10
155.555
20
-105.075
11
154.005
21
-105.075
0
LINE
8
Black
10
154.005
20
-105.075
11
154.005
21
-104.475
0
LINE
8
Black
10
154.005
20
-104.475
11
155.555
21
-104.475
0
LINE
8
Black
10
155.555
20
-104.475
11
155.555
21
-105.075
0
LINE
8
Black
10
160.955
20
-103.805
11
159.405
21
-103.805
0
LINE
8
Black
10
159.405
20
-103.805
11
159.405
21
-103.205
0
LINE
8
Black
10
159.405
20
-103.205
11
160.955
21
-103.205
0
LINE
8
Black
10
160.955
20
-103.205
11
160.955
21
-103.805
0
LINE
8
Black
10
155.555
20
-103.805
11
154.005
21
-103.805
0
LINE
8
Black
10
154.005
20
-103.805
11
154.005
21
-103.205
0
LINE
8
Black
10
154.005
20
-103.205
11
155.555
21
-103.205
0
LINE
8
Black
10
155.555
20
-103.205
11
155.555
21
-103.805
0
LINE
8
Black
10
155.555
20
-102.535
11
154.005
21
-102.535
0
LINE
8
Black
10
154.005
20
-102.535
11
154.005
21
-101.935
0
LINE
8
Black
10
154.005
20
-101.935
11
155.555
21
-101.935
0
LINE
8
Black
10
155.555
20
-101.935
11
155.555
21
-102.535
0
LINE
8
Black
10
160.955
20
-102.535
11
159.405
21
-102.535
0
LINE
8
Black
10
159.405
20
-102.535
11
159.405
21
-101.935
0
LINE
8
Black
10
159.405
20
-101.935
11
160.955
21
-101.935
0
LINE
8
Black
10
160.955
20
-101.935
11
160.955
21
-102.535
0
LINE
8
Black
10
133.735
20
-98.99
11
132.285
21
-98.99
0
LINE
8
Black
10
132.285
20
-98.99
11
132.285
21
-98.54
0
LINE
8
Black
10
132.285
20
-98.54
11
133.735
21
-98.54
0
LINE
8
Black
10
133.735
20
-98.54
11
133.735
21
-98.99
0
LINE
8
Black
10
129.335
20
-98.99
11
127.885
21
-98.99
0
LINE
8
Black
10
127.885
20
-98.99
11
127.885
21
-98.54
0
LINE
8
Black
10
127.885
20
-98.54
11
129.335
21
-98.54
0
LINE
8
Black
10
129.335
20
-98.54
11
129.335
21
-98.99
0
LINE
8
Black
10
133.735
20
-98.34
11
132.285
21
-98.34
0
LINE
8
Black
10
132.285
20
-98.34
11
132.285
21
-97.89
0
LINE
8
Black
10
132.285
20
-97.89
11
133.735
21
-97.89
0
LINE
8
Black
10
133.735
20
-97.89
11
133.735
21
-98.34
0
LINE
8
Black
10
129.335
20
-98.34
11
127.885
21
-98.34
0
LINE
8
Black
10
127.885
20
-98.34
11
127.885
21
-97.89
0
LINE
8
Black
10
127.885
20
-97.89
11
129.335
21
-97.89
0
LINE
8
Black
10
129.335
20
-97.89
11
129.335
21
-98.34
0
LINE
8
Black
10
133.735
20
-97.69
11
132.285
21
-97.69
0
LINE
8
Black
10
132.285
20
-97.69
11
132.285
21
-97.24
0
LINE
8
Black
10
132.285
20
-97.24
11
133.735
21
-97.24
0
LINE
8
Black
10
133.735
20
-97.24
11
133.735
21
-97.69
0
LINE
8
Black
10
129.335
20
-97.69
11
127.885
21
-97.69
0
LINE
8
Black
10
127.885
20
-97.69
11
127.885
21
-97.24
0
LINE
8
Black
10
127.885
20
-97.24
11
129.335
21
-97.24
0
LINE
8
Black
10
129.335
20
-97.24
11
129.335
21
-97.69
0
LINE
8
Black
10
133.735
20
-97.04
11
132.285
21
-97.04
0
LINE
8
Black
10
132.285
20
-97.04
11
132.285
21
-96.59
0
LINE
8
Black
10
132.285
20
-96.59
11
133.735
21
-96.59
0
LINE
8
Black
10
133.735
20
-96.59
11
133.735
21
-97.04
0
LINE
8
Black
10
129.335
20
-97.04
11
127.885
21
-97.04
0
LINE
8
Black
10
127.885
20
-97.04
11
127.885
21
-96.59
0
LINE
8
Black
10
127.885
20
-96.59
11
129.335
21
-96.59
0
LINE
8
Black
10
129.335
20
-96.59
11
129.335
21
-97.04
0
LINE
8
Black
10
142.611
20
-93.4911
11
142.011
21
-93.4911
0
LINE
8
Black
10
142.011
20
-93.4911
11
142.011
21
-91.4413
0
LINE
8
Black
10
142.011
20
-91.4413
11
142.611
21
-91.4413
0
LINE
8
Black
10
142.611
20
-91.4413
11
142.611
21
-93.4911
0
LINE
8
Black
10
145.009
20
-93.4911
11
144.409
21
-93.4911
0
LINE
8
Black
10
144.409
20
-93.4911
11
144.409
21
-92.3912
0
LINE
8
Black
10
144.409
20
-92.3912
11
145.009
21
-92.3912
0
LINE
8
Black
10
145.009
20
-92.3912
11
145.009
21
-93.4911
0
LINE
8
Black
10
143.81
20
-93.4911
11
143.21
21
-93.4911
0
LINE
8
Black
10
143.21
20
-93.4911
11
143.21
21
-92.3912
0
LINE
8
Black
10
143.21
20
-92.3912
11
143.81
21
-92.3912
0
LINE
8
Black
10
143.81
20
-92.3912
11
143.81
21
-93.4911
0
LINE
8
Black
10
142.611
20
-90.4888
11
142.011
21
-90.4888
0
LINE
8
Black
10
142.011
20
-90.4888
11
142.011
21
-89.3889
0
LINE
8
Black
10
142.011
20
-89.3889
11
142.611
21
-89.3889
0
LINE
8
Black
10
142.611
20
-89.3889
11
142.611
21
-90.4888
0
LINE
8
Black
10
143.81
20
-90.4888
11
143.21
21
-90.4888
0
LINE
8
Black
10
143.21
20
-90.4888
11
143.21
21
-89.3889
0
LINE
8
Black
10
143.21
20
-89.3889
11
143.81
21
-89.3889
0
LINE
8
Black
10
143.81
20
-89.3889
11
143.81
21
-90.4888
0
LINE
8
Black
10
145.009
20
-90.4888
11
144.409
21
-90.4888
0
LINE
8
Black
10
144.409
20
-90.4888
11
144.409
21
-89.3889
0
LINE
8
Black
10
144.409
20
-89.3889
11
145.009
21
-89.3889
0
LINE
8
Black
10
145.009
20
-89.3889
11
145.009
21
-90.4888
  0
ENDSEC
  0
EOF
