  0
SECTION
  2
HEADER
  9
$ANGBASE
  50
0.0
  9
$ANGDIR
  70
  1
  9
$MEASUREMENT
  70
0
  0
ENDSEC
  0
SECTION
  2
TABLES
  0
TABLE
  2
LTYPE
  70
1
  0
LTYPE
  2
CONTINUOUS
  70
0
  3
Solid line
  72
65
  73
0
  40
0.0
  0
ENDTAB
  0
TABLE
  2
STYLE
  70
4
  0
STYLE
  2
KICAD
  70
0
  40
0
  41
1
  42
1
  50
0
  71
0
  3
isocp.shx
  0
STYLE
  2
KICADB
  70
0
  40
0
  41
1
  42
1
  50
0
  71
0
  3
isocp.shx
  0
STYLE
  2
KICADI
  70
0
  40
0
  41
1
  42
1
  50
15
  71
0
  3
isocp.shx
  0
STYLE
  2
KICADBI
  70
0
  40
0
  41
1
  42
1
  50
15
  71
0
  3
isocp.shx
  0
ENDTAB
  0
TABLE
  2
LAYER
  70
30
  0
LAYER
  2
BLACK
  70
0
  62
7
  6
CONTINUOUS
  0
LAYER
  2
GRAY1
  70
0
  62
251
  6
CONTINUOUS
  0
LAYER
  2
GRAY2
  70
0
  62
8
  6
CONTINUOUS
  0
LAYER
  2
GRAY3
  70
0
  62
9
  6
CONTINUOUS
  0
LAYER
  2
WHITE
  70
0
  62
7
  6
CONTINUOUS
  0
LAYER
  2
LYELLOW
  70
0
  62
51
  6
CONTINUOUS
  0
LAYER
  2
BLUE1
  70
0
  62
178
  6
CONTINUOUS
  0
LAYER
  2
GREEN1
  70
0
  62
98
  6
CONTINUOUS
  0
LAYER
  2
CYAN1
  70
0
  62
138
  6
CONTINUOUS
  0
LAYER
  2
RED1
  70
0
  62
18
  6
CONTINUOUS
  0
LAYER
  2
MAGENTA1
  70
0
  62
228
  6
CONTINUOUS
  0
LAYER
  2
BROWN1
  70
0
  62
58
  6
CONTINUOUS
  0
LAYER
  2
BLUE2
  70
0
  62
5
  6
CONTINUOUS
  0
LAYER
  2
GREEN2
  70
0
  62
3
  6
CONTINUOUS
  0
LAYER
  2
CYAN2
  70
0
  62
4
  6
CONTINUOUS
  0
LAYER
  2
RED2
  70
0
  62
1
  6
CONTINUOUS
  0
LAYER
  2
MAGENTA2
  70
0
  62
6
  6
CONTINUOUS
  0
LAYER
  2
BROWN2
  70
0
  62
54
  6
CONTINUOUS
  0
LAYER
  2
BLUE3
  70
0
  62
171
  6
CONTINUOUS
  0
LAYER
  2
GREEN3
  70
0
  62
91
  6
CONTINUOUS
  0
LAYER
  2
CYAN3
  70
0
  62
131
  6
CONTINUOUS
  0
LAYER
  2
RED3
  70
0
  62
11
  6
CONTINUOUS
  0
LAYER
  2
MAGENTA3
  70
0
  62
221
  6
CONTINUOUS
  0
LAYER
  2
YELLOW3
  70
0
  62
2
  6
CONTINUOUS
  0
LAYER
  2
BLUE4
  70
0
  62
5
  6
CONTINUOUS
  0
LAYER
  2
GREEN4
  70
0
  62
3
  6
CONTINUOUS
  0
LAYER
  2
CYAN4
  70
0
  62
4
  6
CONTINUOUS
  0
LAYER
  2
RED4
  70
0
  62
1
  6
CONTINUOUS
  0
LAYER
  2
MAGENTA4
  70
0
  62
6
  6
CONTINUOUS
  0
LAYER
  2
YELLOW4
  70
0
  62
2
  6
CONTINUOUS
  0
ENDTAB
  0
ENDSEC
  0
SECTION
  2
ENTITIES
0
LINE
8
Black
10
129.51
20
-108.44
11
129.59
21
-108.507
0
LINE
8
Black
10
129.59
20
-108.507
11
129.642
21
-108.597
0
LINE
8
Black
10
129.642
20
-108.597
11
129.66
21
-108.7
0
LINE
8
Black
10
129.66
20
-108.7
11
129.642
21
-108.803
0
LINE
8
Black
10
129.642
20
-108.803
11
129.59
21
-108.893
0
LINE
8
Black
10
129.59
20
-108.893
11
129.51
21
-108.96
0
LINE
8
Black
10
129.51
20
-108.96
11
129.412
21
-108.995
0
LINE
8
Black
10
129.412
20
-108.995
11
129.308
21
-108.995
0
LINE
8
Black
10
129.308
20
-108.995
11
129.21
21
-108.96
0
LINE
8
Black
10
129.21
20
-108.96
11
129.13
21
-108.893
0
LINE
8
Black
10
129.13
20
-108.893
11
129.078
21
-108.803
0
LINE
8
Black
10
129.078
20
-108.803
11
129.06
21
-108.7
0
LINE
8
Black
10
129.06
20
-108.7
11
129.078
21
-108.597
0
LINE
8
Black
10
129.078
20
-108.597
11
129.13
21
-108.507
0
LINE
8
Black
10
129.13
20
-108.507
11
129.21
21
-108.44
0
LINE
8
Black
10
129.21
20
-108.44
11
129.308
21
-108.405
0
LINE
8
Black
10
129.308
20
-108.405
11
129.412
21
-108.405
0
LINE
8
Black
10
129.412
20
-108.405
11
129.51
21
-108.44
0
LINE
8
Black
10
131.81
20
-107.425
11
131.816
21
-107.426
0
LINE
8
Black
10
131.816
20
-107.426
11
131.823
21
-107.426
0
LINE
8
Black
10
131.823
20
-107.426
11
131.829
21
-107.428
0
LINE
8
Black
10
131.829
20
-107.428
11
131.836
21
-107.43
0
LINE
8
Black
10
131.836
20
-107.43
11
131.841
21
-107.433
0
LINE
8
Black
10
131.841
20
-107.433
11
131.847
21
-107.435
0
LINE
8
Black
10
131.847
20
-107.435
11
131.853
21
-107.439
0
LINE
8
Black
10
131.853
20
-107.439
11
131.858
21
-107.443
0
LINE
8
Black
10
131.858
20
-107.443
11
131.862
21
-107.448
0
LINE
8
Black
10
131.862
20
-107.448
11
131.867
21
-107.452
0
LINE
8
Black
10
131.867
20
-107.452
11
131.871
21
-107.457
0
LINE
8
Black
10
131.871
20
-107.457
11
131.875
21
-107.462
0
LINE
8
Black
10
131.875
20
-107.462
11
131.877
21
-107.469
0
LINE
8
Black
10
131.877
20
-107.469
11
131.88
21
-107.474
0
LINE
8
Black
10
131.88
20
-107.474
11
131.882
21
-107.481
0
LINE
8
Black
10
131.882
20
-107.481
11
131.884
21
-107.487
0
LINE
8
Black
10
131.884
20
-107.487
11
131.884
21
-107.494
0
LINE
8
Black
10
131.884
20
-107.494
11
131.885
21
-107.5
0
LINE
8
Black
10
131.885
20
-107.5
11
131.885
21
-108.4
0
LINE
8
Black
10
131.885
20
-108.4
11
131.884
21
-108.406
0
LINE
8
Black
10
131.884
20
-108.406
11
131.884
21
-108.413
0
LINE
8
Black
10
131.884
20
-108.413
11
131.882
21
-108.419
0
LINE
8
Black
10
131.882
20
-108.419
11
131.88
21
-108.426
0
LINE
8
Black
10
131.88
20
-108.426
11
131.877
21
-108.431
0
LINE
8
Black
10
131.877
20
-108.431
11
131.875
21
-108.438
0
LINE
8
Black
10
131.875
20
-108.438
11
131.871
21
-108.443
0
LINE
8
Black
10
131.871
20
-108.443
11
131.867
21
-108.448
0
LINE
8
Black
10
131.867
20
-108.448
11
131.862
21
-108.452
0
LINE
8
Black
10
131.862
20
-108.452
11
131.858
21
-108.457
0
LINE
8
Black
10
131.858
20
-108.457
11
131.853
21
-108.461
0
LINE
8
Black
10
131.853
20
-108.461
11
131.847
21
-108.465
0
LINE
8
Black
10
131.847
20
-108.465
11
131.841
21
-108.467
0
LINE
8
Black
10
131.841
20
-108.467
11
131.836
21
-108.47
0
LINE
8
Black
10
131.836
20
-108.47
11
131.829
21
-108.472
0
LINE
8
Black
10
131.829
20
-108.472
11
131.823
21
-108.474
0
LINE
8
Black
10
131.823
20
-108.474
11
131.816
21
-108.474
0
LINE
8
Black
10
131.816
20
-108.474
11
131.81
21
-108.475
0
LINE
8
Black
10
131.81
20
-108.475
11
129.81
21
-108.475
0
LINE
8
Black
10
129.81
20
-108.475
11
129.804
21
-108.474
0
LINE
8
Black
10
129.804
20
-108.474
11
129.797
21
-108.474
0
LINE
8
Black
10
129.797
20
-108.474
11
129.791
21
-108.472
0
LINE
8
Black
10
129.791
20
-108.472
11
129.784
21
-108.47
0
LINE
8
Black
10
129.784
20
-108.47
11
129.779
21
-108.467
0
LINE
8
Black
10
129.779
20
-108.467
11
129.773
21
-108.465
0
LINE
8
Black
10
129.773
20
-108.465
11
129.767
21
-108.461
0
LINE
8
Black
10
129.767
20
-108.461
11
129.762
21
-108.457
0
LINE
8
Black
10
129.762
20
-108.457
11
129.758
21
-108.452
0
LINE
8
Black
10
129.758
20
-108.452
11
129.753
21
-108.448
0
LINE
8
Black
10
129.753
20
-108.448
11
129.749
21
-108.443
0
LINE
8
Black
10
129.749
20
-108.443
11
129.745
21
-108.438
0
LINE
8
Black
10
129.745
20
-108.438
11
129.743
21
-108.431
0
LINE
8
Black
10
129.743
20
-108.431
11
129.74
21
-108.426
0
LINE
8
Black
10
129.74
20
-108.426
11
129.738
21
-108.419
0
LINE
8
Black
10
129.738
20
-108.419
11
129.736
21
-108.413
0
LINE
8
Black
10
129.736
20
-108.413
11
129.736
21
-108.406
0
LINE
8
Black
10
129.736
20
-108.406
11
129.735
21
-108.4
0
LINE
8
Black
10
129.735
20
-108.4
11
129.735
21
-107.5
0
LINE
8
Black
10
129.735
20
-107.5
11
129.736
21
-107.494
0
LINE
8
Black
10
129.736
20
-107.494
11
129.736
21
-107.487
0
LINE
8
Black
10
129.736
20
-107.487
11
129.738
21
-107.481
0
LINE
8
Black
10
129.738
20
-107.481
11
129.74
21
-107.474
0
LINE
8
Black
10
129.74
20
-107.474
11
129.743
21
-107.469
0
LINE
8
Black
10
129.743
20
-107.469
11
129.745
21
-107.462
0
LINE
8
Black
10
129.745
20
-107.462
11
129.749
21
-107.457
0
LINE
8
Black
10
129.749
20
-107.457
11
129.753
21
-107.452
0
LINE
8
Black
10
129.753
20
-107.452
11
129.758
21
-107.448
0
LINE
8
Black
10
129.758
20
-107.448
11
129.762
21
-107.443
0
LINE
8
Black
10
129.762
20
-107.443
11
129.767
21
-107.439
0
LINE
8
Black
10
129.767
20
-107.439
11
129.773
21
-107.435
0
LINE
8
Black
10
129.773
20
-107.435
11
129.779
21
-107.433
0
LINE
8
Black
10
129.779
20
-107.433
11
129.784
21
-107.43
0
LINE
8
Black
10
129.784
20
-107.43
11
129.791
21
-107.428
0
LINE
8
Black
10
129.791
20
-107.428
11
129.797
21
-107.426
0
LINE
8
Black
10
129.797
20
-107.426
11
129.804
21
-107.426
0
LINE
8
Black
10
129.804
20
-107.426
11
129.81
21
-107.425
0
LINE
8
Black
10
129.81
20
-107.425
11
130.81
21
-107.425
0
LINE
8
Black
10
130.81
20
-107.425
11
131.81
21
-107.425
0
LINE
8
Black
10
129.885
20
-108.325
11
131.735
21
-108.325
0
LINE
8
Black
10
131.735
20
-108.325
11
131.735
21
-107.575
0
LINE
8
Black
10
131.735
20
-107.575
11
130.81
21
-107.575
0
LINE
8
Black
10
130.81
20
-107.575
11
129.885
21
-107.575
0
LINE
8
Black
10
129.885
20
-107.575
11
129.885
21
-108.325
0
LINE
8
Black
10
130.156
20
-108.23
11
130.123
21
-108.258
0
LINE
8
Black
10
130.123
20
-108.258
11
130.082
21
-108.273
0
LINE
8
Black
10
130.082
20
-108.273
11
130.038
21
-108.273
0
LINE
8
Black
10
130.038
20
-108.273
11
129.998
21
-108.258
0
LINE
8
Black
10
129.998
20
-108.258
11
129.964
21
-108.23
0
LINE
8
Black
10
129.964
20
-108.23
11
129.943
21
-108.193
0
LINE
8
Black
10
129.943
20
-108.193
11
129.935
21
-108.15
0
LINE
8
Black
10
129.935
20
-108.15
11
129.943
21
-108.107
0
LINE
8
Black
10
129.943
20
-108.107
11
129.964
21
-108.07
0
LINE
8
Black
10
129.964
20
-108.07
11
129.998
21
-108.042
0
LINE
8
Black
10
129.998
20
-108.042
11
130.038
21
-108.027
0
LINE
8
Black
10
130.038
20
-108.027
11
130.082
21
-108.027
0
LINE
8
Black
10
130.082
20
-108.027
11
130.123
21
-108.042
0
LINE
8
Black
10
130.123
20
-108.042
11
130.156
21
-108.07
0
LINE
8
Black
10
130.156
20
-108.07
11
130.177
21
-108.107
0
LINE
8
Black
10
130.177
20
-108.107
11
130.185
21
-108.15
0
LINE
8
Black
10
130.185
20
-108.15
11
130.177
21
-108.193
0
LINE
8
Black
10
130.177
20
-108.193
11
130.156
21
-108.23
0
LINE
8
Black
10
130.079
20
-108.134
11
130.072
21
-108.128
0
LINE
8
Black
10
130.072
20
-108.128
11
130.064
21
-108.125
0
LINE
8
Black
10
130.064
20
-108.125
11
130.056
21
-108.125
0
LINE
8
Black
10
130.056
20
-108.125
11
130.047
21
-108.128
0
LINE
8
Black
10
130.047
20
-108.128
11
130.041
21
-108.134
0
LINE
8
Black
10
130.041
20
-108.134
11
130.037
21
-108.141
0
LINE
8
Black
10
130.037
20
-108.141
11
130.035
21
-108.15
0
LINE
8
Black
10
130.035
20
-108.15
11
130.037
21
-108.159
0
LINE
8
Black
10
130.037
20
-108.159
11
130.041
21
-108.166
0
LINE
8
Black
10
130.041
20
-108.166
11
130.047
21
-108.172
0
LINE
8
Black
10
130.047
20
-108.172
11
130.056
21
-108.175
0
LINE
8
Black
10
130.056
20
-108.175
11
130.064
21
-108.175
0
LINE
8
Black
10
130.064
20
-108.175
11
130.072
21
-108.172
0
LINE
8
Black
10
130.072
20
-108.172
11
130.079
21
-108.166
0
LINE
8
Black
10
130.079
20
-108.166
11
130.083
21
-108.159
0
LINE
8
Black
10
130.083
20
-108.159
11
130.085
21
-108.15
0
LINE
8
Black
10
130.085
20
-108.15
11
130.083
21
-108.141
0
LINE
8
Black
10
130.083
20
-108.141
11
130.079
21
-108.134
0
LINE
8
Black
10
155.442
20
-106.505
11
155.462
21
-106.522
0
LINE
8
Black
10
155.462
20
-106.522
11
155.475
21
-106.544
0
LINE
8
Black
10
155.475
20
-106.544
11
155.48
21
-106.57
0
LINE
8
Black
10
155.48
20
-106.57
11
155.48
21
-106.64
0
LINE
8
Black
10
155.48
20
-106.64
11
159.48
21
-106.64
0
LINE
8
Black
10
159.48
20
-106.64
11
159.48
21
-106.57
0
LINE
8
Black
10
159.48
20
-106.57
11
159.485
21
-106.544
0
LINE
8
Black
10
159.485
20
-106.544
11
159.498
21
-106.522
0
LINE
8
Black
10
159.498
20
-106.522
11
159.517
21
-106.505
0
LINE
8
Black
10
159.517
20
-106.505
11
159.542
21
-106.496
0
LINE
8
Black
10
159.542
20
-106.496
11
159.568
21
-106.496
0
LINE
8
Black
10
159.568
20
-106.496
11
159.593
21
-106.505
0
LINE
8
Black
10
159.593
20
-106.505
11
159.612
21
-106.522
0
LINE
8
Black
10
159.612
20
-106.522
11
159.625
21
-106.544
0
LINE
8
Black
10
159.625
20
-106.544
11
159.63
21
-106.57
0
LINE
8
Black
10
159.63
20
-106.57
11
159.63
21
-106.715
0
LINE
8
Black
10
159.63
20
-106.715
11
159.629
21
-106.721
0
LINE
8
Black
10
159.629
20
-106.721
11
159.629
21
-106.728
0
LINE
8
Black
10
159.629
20
-106.728
11
159.627
21
-106.734
0
LINE
8
Black
10
159.627
20
-106.734
11
159.625
21
-106.741
0
LINE
8
Black
10
159.625
20
-106.741
11
159.622
21
-106.746
0
LINE
8
Black
10
159.622
20
-106.746
11
159.62
21
-106.752
0
LINE
8
Black
10
159.62
20
-106.752
11
159.616
21
-106.758
0
LINE
8
Black
10
159.616
20
-106.758
11
159.612
21
-106.763
0
LINE
8
Black
10
159.612
20
-106.763
11
159.607
21
-106.767
0
LINE
8
Black
10
159.607
20
-106.767
11
159.603
21
-106.772
0
LINE
8
Black
10
159.603
20
-106.772
11
159.598
21
-106.776
0
LINE
8
Black
10
159.598
20
-106.776
11
159.593
21
-106.78
0
LINE
8
Black
10
159.593
20
-106.78
11
159.586
21
-106.782
0
LINE
8
Black
10
159.586
20
-106.782
11
159.581
21
-106.785
0
LINE
8
Black
10
159.581
20
-106.785
11
159.574
21
-106.787
0
LINE
8
Black
10
159.574
20
-106.787
11
159.568
21
-106.789
0
LINE
8
Black
10
159.568
20
-106.789
11
159.561
21
-106.789
0
LINE
8
Black
10
159.561
20
-106.789
11
159.555
21
-106.79
0
LINE
8
Black
10
159.555
20
-106.79
11
155.405
21
-106.79
0
LINE
8
Black
10
155.405
20
-106.79
11
155.399
21
-106.789
0
LINE
8
Black
10
155.399
20
-106.789
11
155.392
21
-106.789
0
LINE
8
Black
10
155.392
20
-106.789
11
155.386
21
-106.787
0
LINE
8
Black
10
155.386
20
-106.787
11
155.379
21
-106.785
0
LINE
8
Black
10
155.379
20
-106.785
11
155.374
21
-106.782
0
LINE
8
Black
10
155.374
20
-106.782
11
155.368
21
-106.78
0
LINE
8
Black
10
155.368
20
-106.78
11
155.362
21
-106.776
0
LINE
8
Black
10
155.362
20
-106.776
11
155.357
21
-106.772
0
LINE
8
Black
10
155.357
20
-106.772
11
155.353
21
-106.767
0
LINE
8
Black
10
155.353
20
-106.767
11
155.348
21
-106.763
0
LINE
8
Black
10
155.348
20
-106.763
11
155.344
21
-106.758
0
LINE
8
Black
10
155.344
20
-106.758
11
155.34
21
-106.752
0
LINE
8
Black
10
155.34
20
-106.752
11
155.338
21
-106.746
0
LINE
8
Black
10
155.338
20
-106.746
11
155.335
21
-106.741
0
LINE
8
Black
10
155.335
20
-106.741
11
155.333
21
-106.734
0
LINE
8
Black
10
155.333
20
-106.734
11
155.331
21
-106.728
0
LINE
8
Black
10
155.331
20
-106.728
11
155.331
21
-106.721
0
LINE
8
Black
10
155.331
20
-106.721
11
155.33
21
-106.715
0
LINE
8
Black
10
155.33
20
-106.715
11
155.33
21
-106.57
0
LINE
8
Black
10
155.33
20
-106.57
11
155.335
21
-106.544
0
LINE
8
Black
10
155.335
20
-106.544
11
155.348
21
-106.522
0
LINE
8
Black
10
155.348
20
-106.522
11
155.368
21
-106.505
0
LINE
8
Black
10
155.368
20
-106.505
11
155.392
21
-106.496
0
LINE
8
Black
10
155.392
20
-106.496
11
155.418
21
-106.496
0
LINE
8
Black
10
155.418
20
-106.496
11
155.442
21
-106.505
0
LINE
8
Black
10
130.086
20
-104.837
11
130.106
21
-104.854
0
LINE
8
Black
10
130.106
20
-104.854
11
130.119
21
-104.877
0
LINE
8
Black
10
130.119
20
-104.877
11
130.123
21
-104.902
0
LINE
8
Black
10
130.123
20
-104.902
11
130.123
21
-105.694
0
LINE
8
Black
10
130.123
20
-105.694
11
130.157
21
-105.763
0
LINE
8
Black
10
130.157
20
-105.763
11
130.188
21
-105.793
0
LINE
8
Black
10
130.188
20
-105.793
11
130.256
21
-105.827
0
LINE
8
Black
10
130.256
20
-105.827
11
130.411
21
-105.827
0
LINE
8
Black
10
130.411
20
-105.827
11
130.48
21
-105.793
0
LINE
8
Black
10
130.48
20
-105.793
11
130.51
21
-105.763
0
LINE
8
Black
10
130.51
20
-105.763
11
130.545
21
-105.694
0
LINE
8
Black
10
130.545
20
-105.694
11
130.545
21
-104.902
0
LINE
8
Black
10
130.545
20
-104.902
11
130.549
21
-104.877
0
LINE
8
Black
10
130.549
20
-104.877
11
130.562
21
-104.854
0
LINE
8
Black
10
130.562
20
-104.854
11
130.582
21
-104.837
0
LINE
8
Black
10
130.582
20
-104.837
11
130.606
21
-104.829
0
LINE
8
Black
10
130.606
20
-104.829
11
130.633
21
-104.829
0
LINE
8
Black
10
130.633
20
-104.829
11
130.657
21
-104.837
0
LINE
8
Black
10
130.657
20
-104.837
11
130.677
21
-104.854
0
LINE
8
Black
10
130.677
20
-104.854
11
130.69
21
-104.877
0
LINE
8
Black
10
130.69
20
-104.877
11
130.695
21
-104.902
0
LINE
8
Black
10
130.695
20
-104.902
11
130.695
21
-105.712
0
LINE
8
Black
10
130.695
20
-105.712
11
130.694
21
-105.716
0
LINE
8
Black
10
130.694
20
-105.716
11
130.694
21
-105.72
0
LINE
8
Black
10
130.694
20
-105.72
11
130.692
21
-105.729
0
LINE
8
Black
10
130.692
20
-105.729
11
130.69
21
-105.738
0
LINE
8
Black
10
130.69
20
-105.738
11
130.688
21
-105.741
0
LINE
8
Black
10
130.688
20
-105.741
11
130.687
21
-105.745
0
LINE
8
Black
10
130.687
20
-105.745
11
130.639
21
-105.841
0
LINE
8
Black
10
130.639
20
-105.841
11
130.632
21
-105.85
0
LINE
8
Black
10
130.632
20
-105.85
11
130.625
21
-105.86
0
LINE
8
Black
10
130.625
20
-105.86
11
130.577
21
-105.908
0
LINE
8
Black
10
130.577
20
-105.908
11
130.567
21
-105.915
0
LINE
8
Black
10
130.567
20
-105.915
11
130.558
21
-105.922
0
LINE
8
Black
10
130.558
20
-105.922
11
130.463
21
-105.969
0
LINE
8
Black
10
130.463
20
-105.969
11
130.458
21
-105.971
0
LINE
8
Black
10
130.458
20
-105.971
11
130.455
21
-105.973
0
LINE
8
Black
10
130.455
20
-105.973
11
130.446
21
-105.974
0
LINE
8
Black
10
130.446
20
-105.974
11
130.438
21
-105.977
0
LINE
8
Black
10
130.438
20
-105.977
11
130.433
21
-105.977
0
LINE
8
Black
10
130.433
20
-105.977
11
130.429
21
-105.977
0
LINE
8
Black
10
130.429
20
-105.977
11
130.239
21
-105.977
0
LINE
8
Black
10
130.239
20
-105.977
11
130.234
21
-105.977
0
LINE
8
Black
10
130.234
20
-105.977
11
130.23
21
-105.977
0
LINE
8
Black
10
130.23
20
-105.977
11
130.222
21
-105.974
0
LINE
8
Black
10
130.222
20
-105.974
11
130.213
21
-105.973
0
LINE
8
Black
10
130.213
20
-105.973
11
130.209
21
-105.971
0
LINE
8
Black
10
130.209
20
-105.971
11
130.205
21
-105.969
0
LINE
8
Black
10
130.205
20
-105.969
11
130.11
21
-105.922
0
LINE
8
Black
10
130.11
20
-105.922
11
130.1
21
-105.915
0
LINE
8
Black
10
130.1
20
-105.915
11
130.09
21
-105.908
0
LINE
8
Black
10
130.09
20
-105.908
11
130.043
21
-105.86
0
LINE
8
Black
10
130.043
20
-105.86
11
130.036
21
-105.85
0
LINE
8
Black
10
130.036
20
-105.85
11
130.029
21
-105.841
0
LINE
8
Black
10
130.029
20
-105.841
11
129.981
21
-105.745
0
LINE
8
Black
10
129.981
20
-105.745
11
129.98
21
-105.741
0
LINE
8
Black
10
129.98
20
-105.741
11
129.978
21
-105.738
0
LINE
8
Black
10
129.978
20
-105.738
11
129.976
21
-105.729
0
LINE
8
Black
10
129.976
20
-105.729
11
129.974
21
-105.72
0
LINE
8
Black
10
129.974
20
-105.72
11
129.974
21
-105.716
0
LINE
8
Black
10
129.974
20
-105.716
11
129.973
21
-105.712
0
LINE
8
Black
10
129.973
20
-105.712
11
129.973
21
-104.902
0
LINE
8
Black
10
129.973
20
-104.902
11
129.978
21
-104.877
0
LINE
8
Black
10
129.978
20
-104.877
11
129.991
21
-104.854
0
LINE
8
Black
10
129.991
20
-104.854
11
130.011
21
-104.837
0
LINE
8
Black
10
130.011
20
-104.837
11
130.035
21
-104.829
0
LINE
8
Black
10
130.035
20
-104.829
11
130.061
21
-104.829
0
LINE
8
Black
10
130.061
20
-104.829
11
130.086
21
-104.837
0
LINE
8
Black
10
131.322
20
-104.789
11
131.342
21
-104.805
0
LINE
8
Black
10
131.342
20
-104.805
11
131.356
21
-104.827
0
LINE
8
Black
10
131.356
20
-104.827
11
131.361
21
-104.853
0
LINE
8
Black
10
131.361
20
-104.853
11
131.357
21
-104.878
0
LINE
8
Black
10
131.357
20
-104.878
11
131.152
21
-105.494
0
LINE
8
Black
10
131.152
20
-105.494
11
131.449
21
-105.494
0
LINE
8
Black
10
131.449
20
-105.494
11
131.449
21
-105.236
0
LINE
8
Black
10
131.449
20
-105.236
11
131.454
21
-105.21
0
LINE
8
Black
10
131.454
20
-105.21
11
131.467
21
-105.188
0
LINE
8
Black
10
131.467
20
-105.188
11
131.487
21
-105.171
0
LINE
8
Black
10
131.487
20
-105.171
11
131.511
21
-105.162
0
LINE
8
Black
10
131.511
20
-105.162
11
131.537
21
-105.162
0
LINE
8
Black
10
131.537
20
-105.162
11
131.562
21
-105.171
0
LINE
8
Black
10
131.562
20
-105.171
11
131.582
21
-105.188
0
LINE
8
Black
10
131.582
20
-105.188
11
131.595
21
-105.21
0
LINE
8
Black
10
131.595
20
-105.21
11
131.599
21
-105.236
0
LINE
8
Black
10
131.599
20
-105.236
11
131.599
21
-105.494
0
LINE
8
Black
10
131.599
20
-105.494
11
131.667
21
-105.494
0
LINE
8
Black
10
131.667
20
-105.494
11
131.693
21
-105.499
0
LINE
8
Black
10
131.693
20
-105.499
11
131.715
21
-105.512
0
LINE
8
Black
10
131.715
20
-105.512
11
131.732
21
-105.532
0
LINE
8
Black
10
131.732
20
-105.532
11
131.741
21
-105.556
0
LINE
8
Black
10
131.741
20
-105.556
11
131.741
21
-105.582
0
LINE
8
Black
10
131.741
20
-105.582
11
131.732
21
-105.607
0
LINE
8
Black
10
131.732
20
-105.607
11
131.715
21
-105.627
0
LINE
8
Black
10
131.715
20
-105.627
11
131.693
21
-105.64
0
LINE
8
Black
10
131.693
20
-105.64
11
131.667
21
-105.644
0
LINE
8
Black
10
131.667
20
-105.644
11
131.599
21
-105.644
0
LINE
8
Black
10
131.599
20
-105.644
11
131.599
21
-105.902
0
LINE
8
Black
10
131.599
20
-105.902
11
131.595
21
-105.928
0
LINE
8
Black
10
131.595
20
-105.928
11
131.582
21
-105.951
0
LINE
8
Black
10
131.582
20
-105.951
11
131.562
21
-105.967
0
LINE
8
Black
10
131.562
20
-105.967
11
131.537
21
-105.976
0
LINE
8
Black
10
131.537
20
-105.976
11
131.511
21
-105.976
0
LINE
8
Black
10
131.511
20
-105.976
11
131.487
21
-105.967
0
LINE
8
Black
10
131.487
20
-105.967
11
131.467
21
-105.951
0
LINE
8
Black
10
131.467
20
-105.951
11
131.454
21
-105.928
0
LINE
8
Black
10
131.454
20
-105.928
11
131.449
21
-105.902
0
LINE
8
Black
10
131.449
20
-105.902
11
131.449
21
-105.644
0
LINE
8
Black
10
131.449
20
-105.644
11
131.048
21
-105.644
0
LINE
8
Black
10
131.048
20
-105.644
11
131.043
21
-105.643
0
LINE
8
Black
10
131.043
20
-105.643
11
131.037
21
-105.643
0
LINE
8
Black
10
131.037
20
-105.643
11
131.03
21
-105.641
0
LINE
8
Black
10
131.03
20
-105.641
11
131.022
21
-105.64
0
LINE
8
Black
10
131.022
20
-105.64
11
131.018
21
-105.637
0
LINE
8
Black
10
131.018
20
-105.637
11
131.012
21
-105.635
0
LINE
8
Black
10
131.012
20
-105.635
11
131.006
21
-105.63
0
LINE
8
Black
10
131.006
20
-105.63
11
131
21
-105.627
0
LINE
8
Black
10
131
20
-105.627
11
130.996
21
-105.622
0
LINE
8
Black
10
130.996
20
-105.622
11
130.992
21
-105.619
0
LINE
8
Black
10
130.992
20
-105.619
11
130.988
21
-105.612
0
LINE
8
Black
10
130.988
20
-105.612
11
130.983
21
-105.607
0
LINE
8
Black
10
130.983
20
-105.607
11
130.981
21
-105.601
0
LINE
8
Black
10
130.981
20
-105.601
11
130.978
21
-105.597
0
LINE
8
Black
10
130.978
20
-105.597
11
130.977
21
-105.589
0
LINE
8
Black
10
130.977
20
-105.589
11
130.974
21
-105.582
0
LINE
8
Black
10
130.974
20
-105.582
11
130.974
21
-105.577
0
LINE
8
Black
10
130.974
20
-105.577
11
130.973
21
-105.571
0
LINE
8
Black
10
130.973
20
-105.571
11
130.974
21
-105.564
0
LINE
8
Black
10
130.974
20
-105.564
11
130.974
21
-105.556
0
LINE
8
Black
10
130.974
20
-105.556
11
130.976
21
-105.551
0
LINE
8
Black
10
130.976
20
-105.551
11
130.977
21
-105.545
0
LINE
8
Black
10
130.977
20
-105.545
11
131.215
21
-104.831
0
LINE
8
Black
10
131.215
20
-104.831
11
131.227
21
-104.808
0
LINE
8
Black
10
131.227
20
-104.808
11
131.247
21
-104.791
0
LINE
8
Black
10
131.247
20
-104.791
11
131.271
21
-104.781
0
LINE
8
Black
10
131.271
20
-104.781
11
131.297
21
-104.781
0
LINE
8
Black
10
131.297
20
-104.781
11
131.322
21
-104.789
0
LINE
8
Black
10
159.561
20
-101.491
11
159.568
21
-101.491
0
LINE
8
Black
10
159.568
20
-101.491
11
159.574
21
-101.493
0
LINE
8
Black
10
159.574
20
-101.493
11
159.581
21
-101.495
0
LINE
8
Black
10
159.581
20
-101.495
11
159.586
21
-101.498
0
LINE
8
Black
10
159.586
20
-101.498
11
159.593
21
-101.5
0
LINE
8
Black
10
159.593
20
-101.5
11
159.598
21
-101.504
0
LINE
8
Black
10
159.598
20
-101.504
11
159.603
21
-101.508
0
LINE
8
Black
10
159.603
20
-101.508
11
159.607
21
-101.513
0
LINE
8
Black
10
159.607
20
-101.513
11
159.612
21
-101.517
0
LINE
8
Black
10
159.612
20
-101.517
11
159.616
21
-101.522
0
LINE
8
Black
10
159.616
20
-101.522
11
159.62
21
-101.527
0
LINE
8
Black
10
159.62
20
-101.527
11
159.622
21
-101.534
0
LINE
8
Black
10
159.622
20
-101.534
11
159.625
21
-101.539
0
LINE
8
Black
10
159.625
20
-101.539
11
159.627
21
-101.546
0
LINE
8
Black
10
159.627
20
-101.546
11
159.629
21
-101.552
0
LINE
8
Black
10
159.629
20
-101.552
11
159.629
21
-101.559
0
LINE
8
Black
10
159.629
20
-101.559
11
159.63
21
-101.565
0
LINE
8
Black
10
159.63
20
-101.565
11
159.63
21
-101.71
0
LINE
8
Black
10
159.63
20
-101.71
11
159.625
21
-101.736
0
LINE
8
Black
10
159.625
20
-101.736
11
159.612
21
-101.758
0
LINE
8
Black
10
159.612
20
-101.758
11
159.593
21
-101.775
0
LINE
8
Black
10
159.593
20
-101.775
11
159.568
21
-101.784
0
LINE
8
Black
10
159.568
20
-101.784
11
159.542
21
-101.784
0
LINE
8
Black
10
159.542
20
-101.784
11
159.517
21
-101.775
0
LINE
8
Black
10
159.517
20
-101.775
11
159.498
21
-101.758
0
LINE
8
Black
10
159.498
20
-101.758
11
159.485
21
-101.736
0
LINE
8
Black
10
159.485
20
-101.736
11
159.48
21
-101.71
0
LINE
8
Black
10
159.48
20
-101.71
11
159.48
21
-101.64
0
LINE
8
Black
10
159.48
20
-101.64
11
155.476
21
-101.64
0
LINE
8
Black
10
155.476
20
-101.64
11
155.475
21
-101.641
0
LINE
8
Black
10
155.475
20
-101.641
11
155.472
21
-101.646
0
LINE
8
Black
10
155.472
20
-101.646
11
155.47
21
-101.652
0
LINE
8
Black
10
155.47
20
-101.652
11
155.466
21
-101.658
0
LINE
8
Black
10
155.466
20
-101.658
11
155.462
21
-101.663
0
LINE
8
Black
10
155.462
20
-101.663
11
155.457
21
-101.667
0
LINE
8
Black
10
155.457
20
-101.667
11
155.453
21
-101.672
0
LINE
8
Black
10
155.453
20
-101.672
11
155.448
21
-101.676
0
LINE
8
Black
10
155.448
20
-101.676
11
155.442
21
-101.68
0
LINE
8
Black
10
155.442
20
-101.68
11
155.436
21
-101.682
0
LINE
8
Black
10
155.436
20
-101.682
11
155.431
21
-101.685
0
LINE
8
Black
10
155.431
20
-101.685
11
155.424
21
-101.687
0
LINE
8
Black
10
155.424
20
-101.687
11
155.418
21
-101.689
0
LINE
8
Black
10
155.418
20
-101.689
11
155.411
21
-101.689
0
LINE
8
Black
10
155.411
20
-101.689
11
155.405
21
-101.69
0
LINE
8
Black
10
155.405
20
-101.69
11
154.005
21
-101.69
0
LINE
8
Black
10
154.005
20
-101.69
11
153.979
21
-101.685
0
LINE
8
Black
10
153.979
20
-101.685
11
153.957
21
-101.672
0
LINE
8
Black
10
153.957
20
-101.672
11
153.94
21
-101.652
0
LINE
8
Black
10
153.94
20
-101.652
11
153.931
21
-101.628
0
LINE
8
Black
10
153.931
20
-101.628
11
153.931
21
-101.602
0
LINE
8
Black
10
153.931
20
-101.602
11
153.94
21
-101.578
0
LINE
8
Black
10
153.94
20
-101.578
11
153.957
21
-101.558
0
LINE
8
Black
10
153.957
20
-101.558
11
153.979
21
-101.545
0
LINE
8
Black
10
153.979
20
-101.545
11
154.005
21
-101.54
0
LINE
8
Black
10
154.005
20
-101.54
11
155.334
21
-101.54
0
LINE
8
Black
10
155.334
20
-101.54
11
155.335
21
-101.539
0
LINE
8
Black
10
155.335
20
-101.539
11
155.338
21
-101.534
0
LINE
8
Black
10
155.338
20
-101.534
11
155.34
21
-101.527
0
LINE
8
Black
10
155.34
20
-101.527
11
155.344
21
-101.522
0
LINE
8
Black
10
155.344
20
-101.522
11
155.348
21
-101.517
0
LINE
8
Black
10
155.348
20
-101.517
11
155.353
21
-101.513
0
LINE
8
Black
10
155.353
20
-101.513
11
155.357
21
-101.508
0
LINE
8
Black
10
155.357
20
-101.508
11
155.362
21
-101.504
0
LINE
8
Black
10
155.362
20
-101.504
11
155.368
21
-101.5
0
LINE
8
Black
10
155.368
20
-101.5
11
155.374
21
-101.498
0
LINE
8
Black
10
155.374
20
-101.498
11
155.379
21
-101.495
0
LINE
8
Black
10
155.379
20
-101.495
11
155.386
21
-101.493
0
LINE
8
Black
10
155.386
20
-101.493
11
155.392
21
-101.491
0
LINE
8
Black
10
155.392
20
-101.491
11
155.399
21
-101.491
0
LINE
8
Black
10
155.399
20
-101.491
11
155.405
21
-101.49
0
LINE
8
Black
10
155.405
20
-101.49
11
159.555
21
-101.49
0
LINE
8
Black
10
159.555
20
-101.49
11
159.561
21
-101.491
0
LINE
8
Black
10
156.756
20
-100.027
11
156.776
21
-100.044
0
LINE
8
Black
10
156.776
20
-100.044
11
156.789
21
-100.067
0
LINE
8
Black
10
156.789
20
-100.067
11
156.793
21
-100.092
0
LINE
8
Black
10
156.793
20
-100.092
11
156.793
21
-100.884
0
LINE
8
Black
10
156.793
20
-100.884
11
156.827
21
-100.953
0
LINE
8
Black
10
156.827
20
-100.953
11
156.858
21
-100.983
0
LINE
8
Black
10
156.858
20
-100.983
11
156.926
21
-101.017
0
LINE
8
Black
10
156.926
20
-101.017
11
157.081
21
-101.017
0
LINE
8
Black
10
157.081
20
-101.017
11
157.15
21
-100.983
0
LINE
8
Black
10
157.15
20
-100.983
11
157.18
21
-100.953
0
LINE
8
Black
10
157.18
20
-100.953
11
157.215
21
-100.884
0
LINE
8
Black
10
157.215
20
-100.884
11
157.215
21
-100.092
0
LINE
8
Black
10
157.215
20
-100.092
11
157.219
21
-100.067
0
LINE
8
Black
10
157.219
20
-100.067
11
157.232
21
-100.044
0
LINE
8
Black
10
157.232
20
-100.044
11
157.252
21
-100.027
0
LINE
8
Black
10
157.252
20
-100.027
11
157.276
21
-100.019
0
LINE
8
Black
10
157.276
20
-100.019
11
157.303
21
-100.019
0
LINE
8
Black
10
157.303
20
-100.019
11
157.327
21
-100.027
0
LINE
8
Black
10
157.327
20
-100.027
11
157.347
21
-100.044
0
LINE
8
Black
10
157.347
20
-100.044
11
157.36
21
-100.067
0
LINE
8
Black
10
157.36
20
-100.067
11
157.365
21
-100.092
0
LINE
8
Black
10
157.365
20
-100.092
11
157.365
21
-100.902
0
LINE
8
Black
10
157.365
20
-100.902
11
157.364
21
-100.906
0
LINE
8
Black
10
157.364
20
-100.906
11
157.364
21
-100.91
0
LINE
8
Black
10
157.364
20
-100.91
11
157.362
21
-100.919
0
LINE
8
Black
10
157.362
20
-100.919
11
157.36
21
-100.928
0
LINE
8
Black
10
157.36
20
-100.928
11
157.358
21
-100.931
0
LINE
8
Black
10
157.358
20
-100.931
11
157.357
21
-100.935
0
LINE
8
Black
10
157.357
20
-100.935
11
157.309
21
-101.031
0
LINE
8
Black
10
157.309
20
-101.031
11
157.302
21
-101.04
0
LINE
8
Black
10
157.302
20
-101.04
11
157.295
21
-101.05
0
LINE
8
Black
10
157.295
20
-101.05
11
157.247
21
-101.098
0
LINE
8
Black
10
157.247
20
-101.098
11
157.237
21
-101.105
0
LINE
8
Black
10
157.237
20
-101.105
11
157.228
21
-101.112
0
LINE
8
Black
10
157.228
20
-101.112
11
157.133
21
-101.159
0
LINE
8
Black
10
157.133
20
-101.159
11
157.128
21
-101.161
0
LINE
8
Black
10
157.128
20
-101.161
11
157.125
21
-101.163
0
LINE
8
Black
10
157.125
20
-101.163
11
157.116
21
-101.164
0
LINE
8
Black
10
157.116
20
-101.164
11
157.108
21
-101.167
0
LINE
8
Black
10
157.108
20
-101.167
11
157.103
21
-101.167
0
LINE
8
Black
10
157.103
20
-101.167
11
157.099
21
-101.167
0
LINE
8
Black
10
157.099
20
-101.167
11
156.909
21
-101.167
0
LINE
8
Black
10
156.909
20
-101.167
11
156.904
21
-101.167
0
LINE
8
Black
10
156.904
20
-101.167
11
156.9
21
-101.167
0
LINE
8
Black
10
156.9
20
-101.167
11
156.892
21
-101.164
0
LINE
8
Black
10
156.892
20
-101.164
11
156.883
21
-101.163
0
LINE
8
Black
10
156.883
20
-101.163
11
156.879
21
-101.161
0
LINE
8
Black
10
156.879
20
-101.161
11
156.875
21
-101.159
0
LINE
8
Black
10
156.875
20
-101.159
11
156.78
21
-101.112
0
LINE
8
Black
10
156.78
20
-101.112
11
156.77
21
-101.105
0
LINE
8
Black
10
156.77
20
-101.105
11
156.76
21
-101.098
0
LINE
8
Black
10
156.76
20
-101.098
11
156.713
21
-101.05
0
LINE
8
Black
10
156.713
20
-101.05
11
156.706
21
-101.04
0
LINE
8
Black
10
156.706
20
-101.04
11
156.699
21
-101.031
0
LINE
8
Black
10
156.699
20
-101.031
11
156.651
21
-100.935
0
LINE
8
Black
10
156.651
20
-100.935
11
156.65
21
-100.931
0
LINE
8
Black
10
156.65
20
-100.931
11
156.648
21
-100.928
0
LINE
8
Black
10
156.648
20
-100.928
11
156.646
21
-100.919
0
LINE
8
Black
10
156.646
20
-100.919
11
156.644
21
-100.91
0
LINE
8
Black
10
156.644
20
-100.91
11
156.644
21
-100.906
0
LINE
8
Black
10
156.644
20
-100.906
11
156.643
21
-100.902
0
LINE
8
Black
10
156.643
20
-100.902
11
156.643
21
-100.092
0
LINE
8
Black
10
156.643
20
-100.092
11
156.648
21
-100.067
0
LINE
8
Black
10
156.648
20
-100.067
11
156.661
21
-100.044
0
LINE
8
Black
10
156.661
20
-100.044
11
156.681
21
-100.027
0
LINE
8
Black
10
156.681
20
-100.027
11
156.705
21
-100.019
0
LINE
8
Black
10
156.705
20
-100.019
11
156.731
21
-100.019
0
LINE
8
Black
10
156.731
20
-100.019
11
156.756
21
-100.027
0
LINE
8
Black
10
158.297
20
-100.019
11
158.304
21
-100.019
0
LINE
8
Black
10
158.304
20
-100.019
11
158.309
21
-100.021
0
LINE
8
Black
10
158.309
20
-100.021
11
158.315
21
-100.022
0
LINE
8
Black
10
158.315
20
-100.022
11
158.322
21
-100.026
0
LINE
8
Black
10
158.322
20
-100.026
11
158.328
21
-100.028
0
LINE
8
Black
10
158.328
20
-100.028
11
158.333
21
-100.032
0
LINE
8
Black
10
158.333
20
-100.032
11
158.338
21
-100.035
0
LINE
8
Black
10
158.338
20
-100.035
11
158.342
21
-100.041
0
LINE
8
Black
10
158.342
20
-100.041
11
158.348
21
-100.045
0
LINE
8
Black
10
158.348
20
-100.045
11
158.351
21
-100.05
0
LINE
8
Black
10
158.351
20
-100.05
11
158.354
21
-100.055
0
LINE
8
Black
10
158.354
20
-100.055
11
158.357
21
-100.062
0
LINE
8
Black
10
158.357
20
-100.062
11
158.361
21
-100.068
0
LINE
8
Black
10
158.361
20
-100.068
11
158.361
21
-100.074
0
LINE
8
Black
10
158.361
20
-100.074
11
158.363
21
-100.079
0
LINE
8
Black
10
158.363
20
-100.079
11
158.363
21
-100.087
0
LINE
8
Black
10
158.363
20
-100.087
11
158.365
21
-100.094
0
LINE
8
Black
10
158.365
20
-100.094
11
158.363
21
-100.1
0
LINE
8
Black
10
158.363
20
-100.1
11
158.363
21
-100.105
0
LINE
8
Black
10
158.363
20
-100.105
11
158.361
21
-100.112
0
LINE
8
Black
10
158.361
20
-100.112
11
158.359
21
-100.119
0
LINE
8
Black
10
158.359
20
-100.119
11
158.356
21
-100.124
0
LINE
8
Black
10
158.356
20
-100.124
11
158.354
21
-100.13
0
LINE
8
Black
10
158.354
20
-100.13
11
158.35
21
-100.135
0
LINE
8
Black
10
158.35
20
-100.135
11
158.346
21
-100.142
0
LINE
8
Black
10
158.346
20
-100.142
11
158.118
21
-100.402
0
LINE
8
Black
10
158.118
20
-100.402
11
158.125
21
-100.403
0
LINE
8
Black
10
158.125
20
-100.403
11
158.128
21
-100.405
0
LINE
8
Black
10
158.128
20
-100.405
11
158.133
21
-100.406
0
LINE
8
Black
10
158.133
20
-100.406
11
158.228
21
-100.454
0
LINE
8
Black
10
158.228
20
-100.454
11
158.237
21
-100.461
0
LINE
8
Black
10
158.237
20
-100.461
11
158.247
21
-100.468
0
LINE
8
Black
10
158.247
20
-100.468
11
158.295
21
-100.516
0
LINE
8
Black
10
158.295
20
-100.516
11
158.302
21
-100.525
0
LINE
8
Black
10
158.302
20
-100.525
11
158.309
21
-100.535
0
LINE
8
Black
10
158.309
20
-100.535
11
158.357
21
-100.63
0
LINE
8
Black
10
158.357
20
-100.63
11
158.358
21
-100.634
0
LINE
8
Black
10
158.358
20
-100.634
11
158.36
21
-100.638
0
LINE
8
Black
10
158.36
20
-100.638
11
158.362
21
-100.647
0
LINE
8
Black
10
158.362
20
-100.647
11
158.364
21
-100.655
0
LINE
8
Black
10
158.364
20
-100.655
11
158.364
21
-100.66
0
LINE
8
Black
10
158.364
20
-100.66
11
158.365
21
-100.664
0
LINE
8
Black
10
158.365
20
-100.664
11
158.365
21
-100.902
0
LINE
8
Black
10
158.365
20
-100.902
11
158.364
21
-100.906
0
LINE
8
Black
10
158.364
20
-100.906
11
158.364
21
-100.91
0
LINE
8
Black
10
158.364
20
-100.91
11
158.362
21
-100.919
0
LINE
8
Black
10
158.362
20
-100.919
11
158.36
21
-100.928
0
LINE
8
Black
10
158.36
20
-100.928
11
158.358
21
-100.931
0
LINE
8
Black
10
158.358
20
-100.931
11
158.357
21
-100.935
0
LINE
8
Black
10
158.357
20
-100.935
11
158.309
21
-101.031
0
LINE
8
Black
10
158.309
20
-101.031
11
158.302
21
-101.04
0
LINE
8
Black
10
158.302
20
-101.04
11
158.295
21
-101.05
0
LINE
8
Black
10
158.295
20
-101.05
11
158.247
21
-101.098
0
LINE
8
Black
10
158.247
20
-101.098
11
158.237
21
-101.105
0
LINE
8
Black
10
158.237
20
-101.105
11
158.228
21
-101.112
0
LINE
8
Black
10
158.228
20
-101.112
11
158.133
21
-101.159
0
LINE
8
Black
10
158.133
20
-101.159
11
158.128
21
-101.161
0
LINE
8
Black
10
158.128
20
-101.161
11
158.125
21
-101.163
0
LINE
8
Black
10
158.125
20
-101.163
11
158.116
21
-101.164
0
LINE
8
Black
10
158.116
20
-101.164
11
158.108
21
-101.167
0
LINE
8
Black
10
158.108
20
-101.167
11
158.103
21
-101.167
0
LINE
8
Black
10
158.103
20
-101.167
11
158.099
21
-101.167
0
LINE
8
Black
10
158.099
20
-101.167
11
157.813
21
-101.167
0
LINE
8
Black
10
157.813
20
-101.167
11
157.809
21
-101.167
0
LINE
8
Black
10
157.809
20
-101.167
11
157.805
21
-101.167
0
LINE
8
Black
10
157.805
20
-101.167
11
157.796
21
-101.164
0
LINE
8
Black
10
157.796
20
-101.164
11
157.788
21
-101.163
0
LINE
8
Black
10
157.788
20
-101.163
11
157.784
21
-101.161
0
LINE
8
Black
10
157.784
20
-101.161
11
157.78
21
-101.159
0
LINE
8
Black
10
157.78
20
-101.159
11
157.685
21
-101.112
0
LINE
8
Black
10
157.685
20
-101.112
11
157.675
21
-101.105
0
LINE
8
Black
10
157.675
20
-101.105
11
157.665
21
-101.098
0
LINE
8
Black
10
157.665
20
-101.098
11
157.617
21
-101.05
0
LINE
8
Black
10
157.617
20
-101.05
11
157.603
21
-101.029
0
LINE
8
Black
10
157.603
20
-101.029
11
157.596
21
-101.004
0
LINE
8
Black
10
157.596
20
-101.004
11
157.598
21
-100.978
0
LINE
8
Black
10
157.598
20
-100.978
11
157.609
21
-100.954
0
LINE
8
Black
10
157.609
20
-100.954
11
157.627
21
-100.936
0
LINE
8
Black
10
157.627
20
-100.936
11
157.651
21
-100.925
0
LINE
8
Black
10
157.651
20
-100.925
11
157.677
21
-100.922
0
LINE
8
Black
10
157.677
20
-100.922
11
157.702
21
-100.929
0
LINE
8
Black
10
157.702
20
-100.929
11
157.724
21
-100.944
0
LINE
8
Black
10
157.724
20
-100.944
11
157.763
21
-100.983
0
LINE
8
Black
10
157.763
20
-100.983
11
157.831
21
-101.017
0
LINE
8
Black
10
157.831
20
-101.017
11
158.081
21
-101.017
0
LINE
8
Black
10
158.081
20
-101.017
11
158.15
21
-100.983
0
LINE
8
Black
10
158.15
20
-100.983
11
158.18
21
-100.953
0
LINE
8
Black
10
158.18
20
-100.953
11
158.215
21
-100.884
0
LINE
8
Black
10
158.215
20
-100.884
11
158.215
21
-100.682
0
LINE
8
Black
10
158.215
20
-100.682
11
158.18
21
-100.613
0
LINE
8
Black
10
158.18
20
-100.613
11
158.15
21
-100.583
0
LINE
8
Black
10
158.15
20
-100.583
11
158.081
21
-100.548
0
LINE
8
Black
10
158.081
20
-100.548
11
157.956
21
-100.548
0
LINE
8
Black
10
157.956
20
-100.548
11
157.949
21
-100.547
0
LINE
8
Black
10
157.949
20
-100.547
11
157.942
21
-100.547
0
LINE
8
Black
10
157.942
20
-100.547
11
157.936
21
-100.545
0
LINE
8
Black
10
157.936
20
-100.545
11
157.931
21
-100.544
0
LINE
8
Black
10
157.931
20
-100.544
11
157.924
21
-100.54
0
LINE
8
Black
10
157.924
20
-100.54
11
157.917
21
-100.537
0
LINE
8
Black
10
157.917
20
-100.537
11
157.913
21
-100.534
0
LINE
8
Black
10
157.913
20
-100.534
11
157.908
21
-100.531
0
LINE
8
Black
10
157.908
20
-100.531
11
157.903
21
-100.525
0
LINE
8
Black
10
157.903
20
-100.525
11
157.898
21
-100.52
0
LINE
8
Black
10
157.898
20
-100.52
11
157.895
21
-100.515
0
LINE
8
Black
10
157.895
20
-100.515
11
157.891
21
-100.511
0
LINE
8
Black
10
157.891
20
-100.511
11
157.889
21
-100.504
0
LINE
8
Black
10
157.889
20
-100.504
11
157.885
21
-100.498
0
LINE
8
Black
10
157.885
20
-100.498
11
157.884
21
-100.492
0
LINE
8
Black
10
157.884
20
-100.492
11
157.882
21
-100.486
0
LINE
8
Black
10
157.882
20
-100.486
11
157.882
21
-100.479
0
LINE
8
Black
10
157.882
20
-100.479
11
157.881
21
-100.472
0
LINE
8
Black
10
157.881
20
-100.472
11
157.882
21
-100.466
0
LINE
8
Black
10
157.882
20
-100.466
11
157.882
21
-100.46
0
LINE
8
Black
10
157.882
20
-100.46
11
157.885
21
-100.453
0
LINE
8
Black
10
157.885
20
-100.453
11
157.886
21
-100.446
0
LINE
8
Black
10
157.886
20
-100.446
11
157.889
21
-100.441
0
LINE
8
Black
10
157.889
20
-100.441
11
157.891
21
-100.436
0
LINE
8
Black
10
157.891
20
-100.436
11
157.896
21
-100.43
0
LINE
8
Black
10
157.896
20
-100.43
11
157.9
21
-100.424
0
LINE
8
Black
10
157.9
20
-100.424
11
158.124
21
-100.167
0
LINE
8
Black
10
158.124
20
-100.167
11
157.67
21
-100.167
0
LINE
8
Black
10
157.67
20
-100.167
11
157.645
21
-100.163
0
LINE
8
Black
10
157.645
20
-100.163
11
157.622
21
-100.15
0
LINE
8
Black
10
157.622
20
-100.15
11
157.606
21
-100.13
0
LINE
8
Black
10
157.606
20
-100.13
11
157.597
21
-100.105
0
LINE
8
Black
10
157.597
20
-100.105
11
157.597
21
-100.079
0
LINE
8
Black
10
157.597
20
-100.079
11
157.606
21
-100.055
0
LINE
8
Black
10
157.606
20
-100.055
11
157.622
21
-100.035
0
LINE
8
Black
10
157.622
20
-100.035
11
157.645
21
-100.022
0
LINE
8
Black
10
157.645
20
-100.022
11
157.67
21
-100.017
0
LINE
8
Black
10
157.67
20
-100.017
11
158.29
21
-100.017
0
LINE
8
Black
10
158.29
20
-100.017
11
158.297
21
-100.019
0
LINE
8
Black
10
129.172
20
-99.15
11
129.192
21
-99.1668
0
LINE
8
Black
10
129.192
20
-99.1668
11
129.205
21
-99.1893
0
LINE
8
Black
10
129.205
20
-99.1893
11
129.21
21
-99.215
0
LINE
8
Black
10
129.21
20
-99.215
11
129.21
21
-99.39
0
LINE
8
Black
10
129.21
20
-99.39
11
132.41
21
-99.39
0
LINE
8
Black
10
132.41
20
-99.39
11
132.41
21
-99.215
0
LINE
8
Black
10
132.41
20
-99.215
11
132.415
21
-99.1893
0
LINE
8
Black
10
132.415
20
-99.1893
11
132.428
21
-99.1668
0
LINE
8
Black
10
132.428
20
-99.1668
11
132.447
21
-99.15
0
LINE
8
Black
10
132.447
20
-99.15
11
132.472
21
-99.1411
0
LINE
8
Black
10
132.472
20
-99.1411
11
132.498
21
-99.1411
0
LINE
8
Black
10
132.498
20
-99.1411
11
132.523
21
-99.15
0
LINE
8
Black
10
132.523
20
-99.15
11
132.542
21
-99.1668
0
LINE
8
Black
10
132.542
20
-99.1668
11
132.555
21
-99.1893
0
LINE
8
Black
10
132.555
20
-99.1893
11
132.56
21
-99.215
0
LINE
8
Black
10
132.56
20
-99.215
11
132.56
21
-99.465
0
LINE
8
Black
10
132.56
20
-99.465
11
132.559
21
-99.4715
0
LINE
8
Black
10
132.559
20
-99.4715
11
132.559
21
-99.478
0
LINE
8
Black
10
132.559
20
-99.478
11
132.557
21
-99.4842
0
LINE
8
Black
10
132.557
20
-99.4842
11
132.555
21
-99.4907
0
LINE
8
Black
10
132.555
20
-99.4907
11
132.552
21
-99.4963
0
LINE
8
Black
10
132.552
20
-99.4963
11
132.55
21
-99.5025
0
LINE
8
Black
10
132.55
20
-99.5025
11
132.546
21
-99.5075
0
LINE
8
Black
10
132.546
20
-99.5075
11
132.542
21
-99.5132
0
LINE
8
Black
10
132.542
20
-99.5132
11
132.537
21
-99.5174
0
LINE
8
Black
10
132.537
20
-99.5174
11
132.533
21
-99.5225
0
LINE
8
Black
10
132.533
20
-99.5225
11
132.528
21
-99.5257
0
LINE
8
Black
10
132.528
20
-99.5257
11
132.523
21
-99.53
0
LINE
8
Black
10
132.523
20
-99.53
11
132.516
21
-99.5322
0
LINE
8
Black
10
132.516
20
-99.5322
11
132.511
21
-99.5355
0
LINE
8
Black
10
132.511
20
-99.5355
11
132.504
21
-99.5366
0
LINE
8
Black
10
132.504
20
-99.5366
11
132.498
21
-99.5389
0
LINE
8
Black
10
132.498
20
-99.5389
11
132.491
21
-99.5389
0
LINE
8
Black
10
132.491
20
-99.5389
11
132.485
21
-99.54
0
LINE
8
Black
10
132.485
20
-99.54
11
129.135
21
-99.54
0
LINE
8
Black
10
129.135
20
-99.54
11
129.129
21
-99.5389
0
LINE
8
Black
10
129.129
20
-99.5389
11
129.122
21
-99.5389
0
LINE
8
Black
10
129.122
20
-99.5389
11
129.116
21
-99.5366
0
LINE
8
Black
10
129.116
20
-99.5366
11
129.109
21
-99.5355
0
LINE
8
Black
10
129.109
20
-99.5355
11
129.104
21
-99.5322
0
LINE
8
Black
10
129.104
20
-99.5322
11
129.097
21
-99.53
0
LINE
8
Black
10
129.097
20
-99.53
11
129.092
21
-99.5257
0
LINE
8
Black
10
129.092
20
-99.5257
11
129.087
21
-99.5225
0
LINE
8
Black
10
129.087
20
-99.5225
11
129.083
21
-99.5174
0
LINE
8
Black
10
129.083
20
-99.5174
11
129.078
21
-99.5132
0
LINE
8
Black
10
129.078
20
-99.5132
11
129.074
21
-99.5075
0
LINE
8
Black
10
129.074
20
-99.5075
11
129.07
21
-99.5025
0
LINE
8
Black
10
129.07
20
-99.5025
11
129.068
21
-99.4963
0
LINE
8
Black
10
129.068
20
-99.4963
11
129.065
21
-99.4907
0
LINE
8
Black
10
129.065
20
-99.4907
11
129.063
21
-99.4842
0
LINE
8
Black
10
129.063
20
-99.4842
11
129.061
21
-99.478
0
LINE
8
Black
10
129.061
20
-99.478
11
129.061
21
-99.4715
0
LINE
8
Black
10
129.061
20
-99.4715
11
129.06
21
-99.465
0
LINE
8
Black
10
129.06
20
-99.465
11
129.06
21
-99.215
0
LINE
8
Black
10
129.06
20
-99.215
11
129.065
21
-99.1893
0
LINE
8
Black
10
129.065
20
-99.1893
11
129.078
21
-99.1668
0
LINE
8
Black
10
129.078
20
-99.1668
11
129.097
21
-99.15
0
LINE
8
Black
10
129.097
20
-99.15
11
129.122
21
-99.1411
0
LINE
8
Black
10
129.122
20
-99.1411
11
129.148
21
-99.1411
0
LINE
8
Black
10
129.148
20
-99.1411
11
129.172
21
-99.15
0
LINE
8
Black
10
132.491
20
-96.0411
11
132.498
21
-96.0411
0
LINE
8
Black
10
132.498
20
-96.0411
11
132.504
21
-96.0434
0
LINE
8
Black
10
132.504
20
-96.0434
11
132.511
21
-96.0445
0
LINE
8
Black
10
132.511
20
-96.0445
11
132.516
21
-96.0478
0
LINE
8
Black
10
132.516
20
-96.0478
11
132.523
21
-96.05
0
LINE
8
Black
10
132.523
20
-96.05
11
132.528
21
-96.0543
0
LINE
8
Black
10
132.528
20
-96.0543
11
132.533
21
-96.0575
0
LINE
8
Black
10
132.533
20
-96.0575
11
132.537
21
-96.0626
0
LINE
8
Black
10
132.537
20
-96.0626
11
132.542
21
-96.0668
0
LINE
8
Black
10
132.542
20
-96.0668
11
132.546
21
-96.0725
0
LINE
8
Black
10
132.546
20
-96.0725
11
132.55
21
-96.0775
0
LINE
8
Black
10
132.55
20
-96.0775
11
132.552
21
-96.0837
0
LINE
8
Black
10
132.552
20
-96.0837
11
132.555
21
-96.0893
0
LINE
8
Black
10
132.555
20
-96.0893
11
132.557
21
-96.0958
0
LINE
8
Black
10
132.557
20
-96.0958
11
132.559
21
-96.102
0
LINE
8
Black
10
132.559
20
-96.102
11
132.559
21
-96.1085
0
LINE
8
Black
10
132.559
20
-96.1085
11
132.56
21
-96.115
0
LINE
8
Black
10
132.56
20
-96.115
11
132.56
21
-96.365
0
LINE
8
Black
10
132.56
20
-96.365
11
132.555
21
-96.3907
0
LINE
8
Black
10
132.555
20
-96.3907
11
132.542
21
-96.4132
0
LINE
8
Black
10
132.542
20
-96.4132
11
132.523
21
-96.43
0
LINE
8
Black
10
132.523
20
-96.43
11
132.498
21
-96.4389
0
LINE
8
Black
10
132.498
20
-96.4389
11
132.472
21
-96.4389
0
LINE
8
Black
10
132.472
20
-96.4389
11
132.447
21
-96.43
0
LINE
8
Black
10
132.447
20
-96.43
11
132.428
21
-96.4132
0
LINE
8
Black
10
132.428
20
-96.4132
11
132.415
21
-96.3907
0
LINE
8
Black
10
132.415
20
-96.3907
11
132.41
21
-96.365
0
LINE
8
Black
10
132.41
20
-96.365
11
132.41
21
-96.19
0
LINE
8
Black
10
132.41
20
-96.19
11
129.21
21
-96.19
0
LINE
8
Black
10
129.21
20
-96.19
11
129.21
21
-96.29
0
LINE
8
Black
10
129.21
20
-96.29
11
129.209
21
-96.2965
0
LINE
8
Black
10
129.209
20
-96.2965
11
129.209
21
-96.303
0
LINE
8
Black
10
129.209
20
-96.303
11
129.207
21
-96.3092
0
LINE
8
Black
10
129.207
20
-96.3092
11
129.205
21
-96.3157
0
LINE
8
Black
10
129.205
20
-96.3157
11
129.202
21
-96.3213
0
LINE
8
Black
10
129.202
20
-96.3213
11
129.2
21
-96.3275
0
LINE
8
Black
10
129.2
20
-96.3275
11
129.196
21
-96.3325
0
LINE
8
Black
10
129.196
20
-96.3325
11
129.192
21
-96.3382
0
LINE
8
Black
10
129.192
20
-96.3382
11
129.187
21
-96.3424
0
LINE
8
Black
10
129.187
20
-96.3424
11
129.183
21
-96.3475
0
LINE
8
Black
10
129.183
20
-96.3475
11
129.178
21
-96.3507
0
LINE
8
Black
10
129.178
20
-96.3507
11
129.172
21
-96.355
0
LINE
8
Black
10
129.172
20
-96.355
11
129.166
21
-96.3572
0
LINE
8
Black
10
129.166
20
-96.3572
11
129.161
21
-96.3605
0
LINE
8
Black
10
129.161
20
-96.3605
11
129.154
21
-96.3616
0
LINE
8
Black
10
129.154
20
-96.3616
11
129.148
21
-96.3639
0
LINE
8
Black
10
129.148
20
-96.3639
11
129.141
21
-96.3639
0
LINE
8
Black
10
129.141
20
-96.3639
11
129.135
21
-96.365
0
LINE
8
Black
10
129.135
20
-96.365
11
127.885
21
-96.365
0
LINE
8
Black
10
127.885
20
-96.365
11
127.859
21
-96.3605
0
LINE
8
Black
10
127.859
20
-96.3605
11
127.837
21
-96.3475
0
LINE
8
Black
10
127.837
20
-96.3475
11
127.82
21
-96.3275
0
LINE
8
Black
10
127.82
20
-96.3275
11
127.811
21
-96.303
0
LINE
8
Black
10
127.811
20
-96.303
11
127.811
21
-96.277
0
LINE
8
Black
10
127.811
20
-96.277
11
127.82
21
-96.2525
0
LINE
8
Black
10
127.82
20
-96.2525
11
127.837
21
-96.2325
0
LINE
8
Black
10
127.837
20
-96.2325
11
127.859
21
-96.2195
0
LINE
8
Black
10
127.859
20
-96.2195
11
127.885
21
-96.215
0
LINE
8
Black
10
127.885
20
-96.215
11
129.06
21
-96.215
0
LINE
8
Black
10
129.06
20
-96.215
11
129.06
21
-96.115
0
LINE
8
Black
10
129.06
20
-96.115
11
129.061
21
-96.1085
0
LINE
8
Black
10
129.061
20
-96.1085
11
129.061
21
-96.102
0
LINE
8
Black
10
129.061
20
-96.102
11
129.063
21
-96.0958
0
LINE
8
Black
10
129.063
20
-96.0958
11
129.065
21
-96.0893
0
LINE
8
Black
10
129.065
20
-96.0893
11
129.068
21
-96.0837
0
LINE
8
Black
10
129.068
20
-96.0837
11
129.07
21
-96.0775
0
LINE
8
Black
10
129.07
20
-96.0775
11
129.074
21
-96.0725
0
LINE
8
Black
10
129.074
20
-96.0725
11
129.078
21
-96.0668
0
LINE
8
Black
10
129.078
20
-96.0668
11
129.083
21
-96.0626
0
LINE
8
Black
10
129.083
20
-96.0626
11
129.087
21
-96.0575
0
LINE
8
Black
10
129.087
20
-96.0575
11
129.092
21
-96.0543
0
LINE
8
Black
10
129.092
20
-96.0543
11
129.097
21
-96.05
0
LINE
8
Black
10
129.097
20
-96.05
11
129.104
21
-96.0478
0
LINE
8
Black
10
129.104
20
-96.0478
11
129.109
21
-96.0445
0
LINE
8
Black
10
129.109
20
-96.0445
11
129.116
21
-96.0434
0
LINE
8
Black
10
129.116
20
-96.0434
11
129.122
21
-96.0411
0
LINE
8
Black
10
129.122
20
-96.0411
11
129.129
21
-96.0411
0
LINE
8
Black
10
129.129
20
-96.0411
11
129.135
21
-96.04
0
LINE
8
Black
10
129.135
20
-96.04
11
132.485
21
-96.04
0
LINE
8
Black
10
132.485
20
-96.04
11
132.491
21
-96.0411
0
LINE
8
Black
10
142.425
20
-94.0726
11
142.466
21
-94.1066
0
LINE
8
Black
10
142.466
20
-94.1066
11
142.492
21
-94.1525
0
LINE
8
Black
10
142.492
20
-94.1525
11
142.501
21
-94.2046
0
LINE
8
Black
10
142.501
20
-94.2046
11
142.501
21
-95.4023
0
LINE
8
Black
10
142.501
20
-95.4023
11
142.547
21
-95.4932
0
LINE
8
Black
10
142.547
20
-95.4932
11
142.584
21
-95.5308
0
LINE
8
Black
10
142.584
20
-95.5308
11
142.675
21
-95.5762
0
LINE
8
Black
10
142.675
20
-95.5762
11
142.893
21
-95.5762
0
LINE
8
Black
10
142.893
20
-95.5762
11
142.984
21
-95.5308
0
LINE
8
Black
10
142.984
20
-95.5308
11
143.022
21
-95.4932
0
LINE
8
Black
10
143.022
20
-95.4932
11
143.067
21
-95.4023
0
LINE
8
Black
10
143.067
20
-95.4023
11
143.067
21
-94.2046
0
LINE
8
Black
10
143.067
20
-94.2046
11
143.077
21
-94.1525
0
LINE
8
Black
10
143.077
20
-94.1525
11
143.103
21
-94.1066
0
LINE
8
Black
10
143.103
20
-94.1066
11
143.144
21
-94.0726
0
LINE
8
Black
10
143.144
20
-94.0726
11
143.193
21
-94.0545
0
LINE
8
Black
10
143.193
20
-94.0545
11
143.246
21
-94.0545
0
LINE
8
Black
10
143.246
20
-94.0545
11
143.296
21
-94.0726
0
LINE
8
Black
10
143.296
20
-94.0726
11
143.336
21
-94.1066
0
LINE
8
Black
10
143.336
20
-94.1066
11
143.363
21
-94.1525
0
LINE
8
Black
10
143.363
20
-94.1525
11
143.372
21
-94.2046
0
LINE
8
Black
10
143.372
20
-94.2046
11
143.372
21
-95.4383
0
LINE
8
Black
10
143.372
20
-95.4383
11
143.371
21
-95.447
0
LINE
8
Black
10
143.371
20
-95.447
11
143.371
21
-95.4557
0
LINE
8
Black
10
143.371
20
-95.4557
11
143.366
21
-95.4729
0
LINE
8
Black
10
143.366
20
-95.4729
11
143.363
21
-95.4904
0
LINE
8
Black
10
143.363
20
-95.4904
11
143.359
21
-95.4981
0
LINE
8
Black
10
143.359
20
-95.4981
11
143.356
21
-95.5065
0
LINE
8
Black
10
143.356
20
-95.5065
11
143.283
21
-95.6516
0
LINE
8
Black
10
143.283
20
-95.6516
11
143.269
21
-95.6712
0
LINE
8
Black
10
143.269
20
-95.6712
11
143.255
21
-95.6912
0
LINE
8
Black
10
143.255
20
-95.6912
11
143.182
21
-95.7638
0
LINE
8
Black
10
143.182
20
-95.7638
11
143.162
21
-95.7778
0
LINE
8
Black
10
143.162
20
-95.7778
11
143.143
21
-95.7923
0
LINE
8
Black
10
143.143
20
-95.7923
11
142.998
21
-95.8649
0
LINE
8
Black
10
142.998
20
-95.8649
11
142.989
21
-95.8674
0
LINE
8
Black
10
142.989
20
-95.8674
11
142.982
21
-95.8718
0
LINE
8
Black
10
142.982
20
-95.8718
11
142.964
21
-95.8749
0
LINE
8
Black
10
142.964
20
-95.8749
11
142.947
21
-95.88
0
LINE
8
Black
10
142.947
20
-95.88
11
142.938
21
-95.8795
0
LINE
8
Black
10
142.938
20
-95.8795
11
142.929
21
-95.881
0
LINE
8
Black
10
142.929
20
-95.881
11
142.639
21
-95.881
0
LINE
8
Black
10
142.639
20
-95.881
11
142.63
21
-95.8795
0
LINE
8
Black
10
142.63
20
-95.8795
11
142.622
21
-95.88
0
LINE
8
Black
10
142.622
20
-95.88
11
142.605
21
-95.8749
0
LINE
8
Black
10
142.605
20
-95.8749
11
142.587
21
-95.8718
0
LINE
8
Black
10
142.587
20
-95.8718
11
142.579
21
-95.8674
0
LINE
8
Black
10
142.579
20
-95.8674
11
142.571
21
-95.8649
0
LINE
8
Black
10
142.571
20
-95.8649
11
142.426
21
-95.7923
0
LINE
8
Black
10
142.426
20
-95.7923
11
142.406
21
-95.7778
0
LINE
8
Black
10
142.406
20
-95.7778
11
142.386
21
-95.7638
0
LINE
8
Black
10
142.386
20
-95.7638
11
142.314
21
-95.6912
0
LINE
8
Black
10
142.314
20
-95.6912
11
142.3
21
-95.6712
0
LINE
8
Black
10
142.3
20
-95.6712
11
142.285
21
-95.6516
0
LINE
8
Black
10
142.285
20
-95.6516
11
142.213
21
-95.5065
0
LINE
8
Black
10
142.213
20
-95.5065
11
142.21
21
-95.4981
0
LINE
8
Black
10
142.21
20
-95.4981
11
142.206
21
-95.4904
0
LINE
8
Black
10
142.206
20
-95.4904
11
142.203
21
-95.4729
0
LINE
8
Black
10
142.203
20
-95.4729
11
142.197
21
-95.4557
0
LINE
8
Black
10
142.197
20
-95.4557
11
142.198
21
-95.447
0
LINE
8
Black
10
142.198
20
-95.447
11
142.196
21
-95.4383
0
LINE
8
Black
10
142.196
20
-95.4383
11
142.196
21
-94.2046
0
LINE
8
Black
10
142.196
20
-94.2046
11
142.206
21
-94.1525
0
LINE
8
Black
10
142.206
20
-94.1525
11
142.232
21
-94.1066
0
LINE
8
Black
10
142.232
20
-94.1066
11
142.273
21
-94.0726
0
LINE
8
Black
10
142.273
20
-94.0726
11
142.322
21
-94.0545
0
LINE
8
Black
10
142.322
20
-94.0545
11
142.375
21
-94.0545
0
LINE
8
Black
10
142.375
20
-94.0545
11
142.425
21
-94.0726
0
LINE
8
Black
10
144.326
20
-94.0545
11
144.335
21
-94.0545
0
LINE
8
Black
10
144.335
20
-94.0545
11
144.352
21
-94.0607
0
LINE
8
Black
10
144.352
20
-94.0607
11
144.37
21
-94.0651
0
LINE
8
Black
10
144.37
20
-94.0651
11
144.377
21
-94.0697
0
LINE
8
Black
10
144.377
20
-94.0697
11
144.384
21
-94.0726
0
LINE
8
Black
10
144.384
20
-94.0726
11
144.398
21
-94.0843
0
LINE
8
Black
10
144.398
20
-94.0843
11
144.414
21
-94.0944
0
LINE
8
Black
10
144.414
20
-94.0944
11
144.419
21
-94.1012
0
LINE
8
Black
10
144.419
20
-94.1012
11
144.425
21
-94.1066
0
LINE
8
Black
10
144.425
20
-94.1066
11
144.434
21
-94.1224
0
LINE
8
Black
10
144.434
20
-94.1224
11
144.445
21
-94.1371
0
LINE
8
Black
10
144.445
20
-94.1371
11
144.447
21
-94.1452
0
LINE
8
Black
10
144.447
20
-94.1452
11
144.451
21
-94.1525
0
LINE
8
Black
10
144.451
20
-94.1525
11
144.455
21
-94.1704
0
LINE
8
Black
10
144.455
20
-94.1704
11
144.46
21
-94.1879
0
LINE
8
Black
10
144.46
20
-94.1879
11
144.459
21
-94.1963
0
LINE
8
Black
10
144.459
20
-94.1963
11
144.461
21
-94.2046
0
LINE
8
Black
10
144.461
20
-94.2046
11
144.461
21
-95.5762
0
LINE
8
Black
10
144.461
20
-95.5762
11
144.744
21
-95.5762
0
LINE
8
Black
10
144.744
20
-95.5762
11
144.796
21
-95.5854
0
LINE
8
Black
10
144.796
20
-95.5854
11
144.842
21
-95.6119
0
LINE
8
Black
10
144.842
20
-95.6119
11
144.876
21
-95.6524
0
LINE
8
Black
10
144.876
20
-95.6524
11
144.894
21
-95.7021
0
LINE
8
Black
10
144.894
20
-95.7021
11
144.894
21
-95.7551
0
LINE
8
Black
10
144.894
20
-95.7551
11
144.876
21
-95.8048
0
LINE
8
Black
10
144.876
20
-95.8048
11
144.842
21
-95.8454
0
LINE
8
Black
10
144.842
20
-95.8454
11
144.796
21
-95.8718
0
LINE
8
Black
10
144.796
20
-95.8718
11
144.744
21
-95.881
0
LINE
8
Black
10
144.744
20
-95.881
11
143.873
21
-95.881
0
LINE
8
Black
10
143.873
20
-95.881
11
143.821
21
-95.8718
0
LINE
8
Black
10
143.821
20
-95.8718
11
143.775
21
-95.8454
0
LINE
8
Black
10
143.775
20
-95.8454
11
143.741
21
-95.8048
0
LINE
8
Black
10
143.741
20
-95.8048
11
143.723
21
-95.7551
0
LINE
8
Black
10
143.723
20
-95.7551
11
143.723
21
-95.7021
0
LINE
8
Black
10
143.723
20
-95.7021
11
143.741
21
-95.6524
0
LINE
8
Black
10
143.741
20
-95.6524
11
143.775
21
-95.6119
0
LINE
8
Black
10
143.775
20
-95.6119
11
143.821
21
-95.5854
0
LINE
8
Black
10
143.821
20
-95.5854
11
143.873
21
-95.5762
0
LINE
8
Black
10
143.873
20
-95.5762
11
144.156
21
-95.5762
0
LINE
8
Black
10
144.156
20
-95.5762
11
144.156
21
-94.6451
0
LINE
8
Black
10
144.156
20
-94.6451
11
144.126
21
-94.6752
0
LINE
8
Black
10
144.126
20
-94.6752
11
144.106
21
-94.6892
0
LINE
8
Black
10
144.106
20
-94.6892
11
144.086
21
-94.7038
0
LINE
8
Black
10
144.086
20
-94.7038
11
143.941
21
-94.7763
0
LINE
8
Black
10
143.941
20
-94.7763
11
143.89
21
-94.7914
0
LINE
8
Black
10
143.89
20
-94.7914
11
143.837
21
-94.7883
0
LINE
8
Black
10
143.837
20
-94.7883
11
143.789
21
-94.7672
0
LINE
8
Black
10
143.789
20
-94.7672
11
143.75
21
-94.7308
0
LINE
8
Black
10
143.75
20
-94.7308
11
143.727
21
-94.6835
0
LINE
8
Black
10
143.727
20
-94.6835
11
143.721
21
-94.6309
0
LINE
8
Black
10
143.721
20
-94.6309
11
143.733
21
-94.5794
0
LINE
8
Black
10
143.733
20
-94.5794
11
143.762
21
-94.5353
0
LINE
8
Black
10
143.762
20
-94.5353
11
143.805
21
-94.5037
0
LINE
8
Black
10
143.805
20
-94.5037
11
143.928
21
-94.4422
0
LINE
8
Black
10
143.928
20
-94.4422
11
144.045
21
-94.3252
0
LINE
8
Black
10
144.045
20
-94.3252
11
144.181
21
-94.1201
0
LINE
8
Black
10
144.181
20
-94.1201
11
144.187
21
-94.114
0
LINE
8
Black
10
144.187
20
-94.114
11
144.192
21
-94.1066
0
LINE
8
Black
10
144.192
20
-94.1066
11
144.205
21
-94.095
0
LINE
8
Black
10
144.205
20
-94.095
11
144.218
21
-94.0818
0
LINE
8
Black
10
144.218
20
-94.0818
11
144.226
21
-94.0781
0
LINE
8
Black
10
144.226
20
-94.0781
11
144.232
21
-94.0726
0
LINE
8
Black
10
144.232
20
-94.0726
11
144.249
21
-94.0664
0
LINE
8
Black
10
144.249
20
-94.0664
11
144.265
21
-94.0583
0
LINE
8
Black
10
144.265
20
-94.0583
11
144.274
21
-94.0574
0
LINE
8
Black
10
144.274
20
-94.0574
11
144.282
21
-94.0545
0
LINE
8
Black
10
144.282
20
-94.0545
11
144.3
21
-94.0545
0
LINE
8
Black
10
144.3
20
-94.0545
11
144.318
21
-94.0525
0
LINE
8
Black
10
144.318
20
-94.0525
11
144.326
21
-94.0545
0
LINE
8
Black
10
130.086
20
-94.5774
11
130.106
21
-94.5942
0
LINE
8
Black
10
130.106
20
-94.5942
11
130.119
21
-94.6167
0
LINE
8
Black
10
130.119
20
-94.6167
11
130.123
21
-94.6424
0
LINE
8
Black
10
130.123
20
-94.6424
11
130.123
21
-95.4342
0
LINE
8
Black
10
130.123
20
-95.4342
11
130.157
21
-95.5027
0
LINE
8
Black
10
130.157
20
-95.5027
11
130.188
21
-95.5331
0
LINE
8
Black
10
130.188
20
-95.5331
11
130.256
21
-95.5674
0
LINE
8
Black
10
130.256
20
-95.5674
11
130.411
21
-95.5674
0
LINE
8
Black
10
130.411
20
-95.5674
11
130.48
21
-95.5331
0
LINE
8
Black
10
130.48
20
-95.5331
11
130.51
21
-95.5027
0
LINE
8
Black
10
130.51
20
-95.5027
11
130.545
21
-95.4342
0
LINE
8
Black
10
130.545
20
-95.4342
11
130.545
21
-94.6424
0
LINE
8
Black
10
130.545
20
-94.6424
11
130.549
21
-94.6167
0
LINE
8
Black
10
130.549
20
-94.6167
11
130.562
21
-94.5942
0
LINE
8
Black
10
130.562
20
-94.5942
11
130.582
21
-94.5774
0
LINE
8
Black
10
130.582
20
-94.5774
11
130.606
21
-94.5685
0
LINE
8
Black
10
130.606
20
-94.5685
11
130.633
21
-94.5685
0
LINE
8
Black
10
130.633
20
-94.5685
11
130.657
21
-94.5774
0
LINE
8
Black
10
130.657
20
-94.5774
11
130.677
21
-94.5942
0
LINE
8
Black
10
130.677
20
-94.5942
11
130.69
21
-94.6167
0
LINE
8
Black
10
130.69
20
-94.6167
11
130.695
21
-94.6424
0
LINE
8
Black
10
130.695
20
-94.6424
11
130.695
21
-95.4519
0
LINE
8
Black
10
130.695
20
-95.4519
11
130.694
21
-95.4562
0
LINE
8
Black
10
130.694
20
-95.4562
11
130.694
21
-95.4605
0
LINE
8
Black
10
130.694
20
-95.4605
11
130.692
21
-95.4689
0
LINE
8
Black
10
130.692
20
-95.4689
11
130.69
21
-95.4776
0
LINE
8
Black
10
130.69
20
-95.4776
11
130.688
21
-95.4813
0
LINE
8
Black
10
130.688
20
-95.4813
11
130.687
21
-95.4854
0
LINE
8
Black
10
130.687
20
-95.4854
11
130.639
21
-95.5807
0
LINE
8
Black
10
130.639
20
-95.5807
11
130.632
21
-95.5903
0
LINE
8
Black
10
130.632
20
-95.5903
11
130.625
21
-95.6002
0
LINE
8
Black
10
130.625
20
-95.6002
11
130.577
21
-95.6478
0
LINE
8
Black
10
130.577
20
-95.6478
11
130.567
21
-95.6547
0
LINE
8
Black
10
130.567
20
-95.6547
11
130.558
21
-95.6618
0
LINE
8
Black
10
130.558
20
-95.6618
11
130.463
21
-95.7095
0
LINE
8
Black
10
130.463
20
-95.7095
11
130.458
21
-95.7107
0
LINE
8
Black
10
130.458
20
-95.7107
11
130.455
21
-95.7129
0
LINE
8
Black
10
130.455
20
-95.7129
11
130.446
21
-95.7144
0
LINE
8
Black
10
130.446
20
-95.7144
11
130.438
21
-95.7169
0
LINE
8
Black
10
130.438
20
-95.7169
11
130.433
21
-95.7166
0
LINE
8
Black
10
130.433
20
-95.7166
11
130.429
21
-95.7174
0
LINE
8
Black
10
130.429
20
-95.7174
11
130.239
21
-95.7174
0
LINE
8
Black
10
130.239
20
-95.7174
11
130.234
21
-95.7166
0
LINE
8
Black
10
130.234
20
-95.7166
11
130.23
21
-95.7169
0
LINE
8
Black
10
130.23
20
-95.7169
11
130.222
21
-95.7144
0
LINE
8
Black
10
130.222
20
-95.7144
11
130.213
21
-95.7129
0
LINE
8
Black
10
130.213
20
-95.7129
11
130.209
21
-95.7107
0
LINE
8
Black
10
130.209
20
-95.7107
11
130.205
21
-95.7095
0
LINE
8
Black
10
130.205
20
-95.7095
11
130.11
21
-95.6618
0
LINE
8
Black
10
130.11
20
-95.6618
11
130.1
21
-95.6547
0
LINE
8
Black
10
130.1
20
-95.6547
11
130.09
21
-95.6478
0
LINE
8
Black
10
130.09
20
-95.6478
11
130.043
21
-95.6002
0
LINE
8
Black
10
130.043
20
-95.6002
11
130.036
21
-95.5903
0
LINE
8
Black
10
130.036
20
-95.5903
11
130.029
21
-95.5807
0
LINE
8
Black
10
130.029
20
-95.5807
11
129.981
21
-95.4854
0
LINE
8
Black
10
129.981
20
-95.4854
11
129.98
21
-95.4813
0
LINE
8
Black
10
129.98
20
-95.4813
11
129.978
21
-95.4776
0
LINE
8
Black
10
129.978
20
-95.4776
11
129.976
21
-95.4689
0
LINE
8
Black
10
129.976
20
-95.4689
11
129.974
21
-95.4605
0
LINE
8
Black
10
129.974
20
-95.4605
11
129.974
21
-95.4562
0
LINE
8
Black
10
129.974
20
-95.4562
11
129.973
21
-95.4519
0
LINE
8
Black
10
129.973
20
-95.4519
11
129.973
21
-94.6424
0
LINE
8
Black
10
129.973
20
-94.6424
11
129.978
21
-94.6167
0
LINE
8
Black
10
129.978
20
-94.6167
11
129.991
21
-94.5942
0
LINE
8
Black
10
129.991
20
-94.5942
11
130.011
21
-94.5774
0
LINE
8
Black
10
130.011
20
-94.5774
11
130.035
21
-94.5685
0
LINE
8
Black
10
130.035
20
-94.5685
11
130.061
21
-94.5685
0
LINE
8
Black
10
130.061
20
-94.5685
11
130.086
21
-94.5774
0
LINE
8
Black
10
131.433
20
-94.5681
11
131.438
21
-94.5679
0
LINE
8
Black
10
131.438
20
-94.5679
11
131.446
21
-94.5704
0
LINE
8
Black
10
131.446
20
-94.5704
11
131.455
21
-94.5719
0
LINE
8
Black
10
131.455
20
-94.5719
11
131.458
21
-94.5741
0
LINE
8
Black
10
131.458
20
-94.5741
11
131.463
21
-94.5753
0
LINE
8
Black
10
131.463
20
-94.5753
11
131.558
21
-94.6229
0
LINE
8
Black
10
131.558
20
-94.6229
11
131.567
21
-94.6301
0
LINE
8
Black
10
131.567
20
-94.6301
11
131.577
21
-94.637
0
LINE
8
Black
10
131.577
20
-94.637
11
131.625
21
-94.6846
0
LINE
8
Black
10
131.625
20
-94.6846
11
131.632
21
-94.6944
0
LINE
8
Black
10
131.632
20
-94.6944
11
131.639
21
-94.7041
0
LINE
8
Black
10
131.639
20
-94.7041
11
131.687
21
-94.7993
0
LINE
8
Black
10
131.687
20
-94.7993
11
131.688
21
-94.8035
0
LINE
8
Black
10
131.688
20
-94.8035
11
131.69
21
-94.8072
0
LINE
8
Black
10
131.69
20
-94.8072
11
131.692
21
-94.8159
0
LINE
8
Black
10
131.692
20
-94.8159
11
131.694
21
-94.8243
0
LINE
8
Black
10
131.694
20
-94.8243
11
131.694
21
-94.8286
0
LINE
8
Black
10
131.694
20
-94.8286
11
131.695
21
-94.8329
0
LINE
8
Black
10
131.695
20
-94.8329
11
131.695
21
-94.9281
0
LINE
8
Black
10
131.695
20
-94.9281
11
131.692
21
-94.9399
0
LINE
8
Black
10
131.692
20
-94.9399
11
131.691
21
-94.9518
0
LINE
8
Black
10
131.691
20
-94.9518
11
131.643
21
-95.0947
0
LINE
8
Black
10
131.643
20
-95.0947
11
131.641
21
-95.0985
0
LINE
8
Black
10
131.641
20
-95.0985
11
131.64
21
-95.1026
0
LINE
8
Black
10
131.64
20
-95.1026
11
131.635
21
-95.1099
0
LINE
8
Black
10
131.635
20
-95.1099
11
131.631
21
-95.1176
0
LINE
8
Black
10
131.631
20
-95.1176
11
131.627
21
-95.1204
0
LINE
8
Black
10
131.627
20
-95.1204
11
131.625
21
-95.124
0
LINE
8
Black
10
131.625
20
-95.124
11
131.182
21
-95.5674
0
LINE
8
Black
10
131.182
20
-95.5674
11
131.62
21
-95.5674
0
LINE
8
Black
10
131.62
20
-95.5674
11
131.645
21
-95.5719
0
LINE
8
Black
10
131.645
20
-95.5719
11
131.668
21
-95.5849
0
LINE
8
Black
10
131.668
20
-95.5849
11
131.684
21
-95.6049
0
LINE
8
Black
10
131.684
20
-95.6049
11
131.693
21
-95.6294
0
LINE
8
Black
10
131.693
20
-95.6294
11
131.693
21
-95.6554
0
LINE
8
Black
10
131.693
20
-95.6554
11
131.684
21
-95.6799
0
LINE
8
Black
10
131.684
20
-95.6799
11
131.668
21
-95.6998
0
LINE
8
Black
10
131.668
20
-95.6998
11
131.645
21
-95.7129
0
LINE
8
Black
10
131.645
20
-95.7129
11
131.62
21
-95.7174
0
LINE
8
Black
10
131.62
20
-95.7174
11
131
21
-95.7174
0
LINE
8
Black
10
131
20
-95.7174
11
130.991
21
-95.7157
0
LINE
8
Black
10
130.991
20
-95.7157
11
130.981
21
-95.7148
0
LINE
8
Black
10
130.981
20
-95.7148
11
130.978
21
-95.7134
0
LINE
8
Black
10
130.978
20
-95.7134
11
130.975
21
-95.7129
0
LINE
8
Black
10
130.975
20
-95.7129
11
130.966
21
-95.708
0
LINE
8
Black
10
130.966
20
-95.708
11
130.957
21
-95.7038
0
LINE
8
Black
10
130.957
20
-95.7038
11
130.955
21
-95.7015
0
LINE
8
Black
10
130.955
20
-95.7015
11
130.952
21
-95.6998
0
LINE
8
Black
10
130.952
20
-95.6998
11
130.946
21
-95.6923
0
LINE
8
Black
10
130.946
20
-95.6923
11
130.939
21
-95.6854
0
LINE
8
Black
10
130.939
20
-95.6854
11
130.938
21
-95.6824
0
LINE
8
Black
10
130.938
20
-95.6824
11
130.936
21
-95.6799
0
LINE
8
Black
10
130.936
20
-95.6799
11
130.932
21
-95.6707
0
LINE
8
Black
10
130.932
20
-95.6707
11
130.928
21
-95.6618
0
LINE
8
Black
10
130.928
20
-95.6618
11
130.928
21
-95.6585
0
LINE
8
Black
10
130.928
20
-95.6585
11
130.927
21
-95.6554
0
LINE
8
Black
10
130.927
20
-95.6554
11
130.927
21
-95.6456
0
LINE
8
Black
10
130.927
20
-95.6456
11
130.926
21
-95.6358
0
LINE
8
Black
10
130.926
20
-95.6358
11
130.927
21
-95.6327
0
LINE
8
Black
10
130.927
20
-95.6327
11
130.927
21
-95.6294
0
LINE
8
Black
10
130.927
20
-95.6294
11
130.93
21
-95.6201
0
LINE
8
Black
10
130.93
20
-95.6201
11
130.933
21
-95.6107
0
LINE
8
Black
10
130.933
20
-95.6107
11
130.934
21
-95.608
0
LINE
8
Black
10
130.934
20
-95.608
11
130.936
21
-95.6049
0
LINE
8
Black
10
130.936
20
-95.6049
11
130.942
21
-95.5974
0
LINE
8
Black
10
130.942
20
-95.5974
11
130.947
21
-95.5893
0
LINE
8
Black
10
130.947
20
-95.5893
11
131.506
21
-95.0304
0
LINE
8
Black
10
131.506
20
-95.0304
11
131.545
21
-94.9159
0
LINE
8
Black
10
131.545
20
-94.9159
11
131.545
21
-94.8506
0
LINE
8
Black
10
131.545
20
-94.8506
11
131.51
21
-94.782
0
LINE
8
Black
10
131.51
20
-94.782
11
131.48
21
-94.7516
0
LINE
8
Black
10
131.48
20
-94.7516
11
131.411
21
-94.7174
0
LINE
8
Black
10
131.411
20
-94.7174
11
131.209
21
-94.7174
0
LINE
8
Black
10
131.209
20
-94.7174
11
131.14
21
-94.7516
0
LINE
8
Black
10
131.14
20
-94.7516
11
131.101
21
-94.7907
0
LINE
8
Black
10
131.101
20
-94.7907
11
131.08
21
-94.8056
0
LINE
8
Black
10
131.08
20
-94.8056
11
131.055
21
-94.8123
0
LINE
8
Black
10
131.055
20
-94.8123
11
131.029
21
-94.8101
0
LINE
8
Black
10
131.029
20
-94.8101
11
131.005
21
-94.7991
0
LINE
8
Black
10
131.005
20
-94.7991
11
130.987
21
-94.7806
0
LINE
8
Black
10
130.987
20
-94.7806
11
130.976
21
-94.757
0
LINE
8
Black
10
130.976
20
-94.757
11
130.973
21
-94.7311
0
LINE
8
Black
10
130.973
20
-94.7311
11
130.98
21
-94.7059
0
LINE
8
Black
10
130.98
20
-94.7059
11
130.995
21
-94.6846
0
LINE
8
Black
10
130.995
20
-94.6846
11
131.043
21
-94.637
0
LINE
8
Black
10
131.043
20
-94.637
11
131.053
21
-94.6301
0
LINE
8
Black
10
131.053
20
-94.6301
11
131.062
21
-94.6229
0
LINE
8
Black
10
131.062
20
-94.6229
11
131.157
21
-94.5753
0
LINE
8
Black
10
131.157
20
-94.5753
11
131.162
21
-94.5741
0
LINE
8
Black
10
131.162
20
-94.5741
11
131.165
21
-94.5719
0
LINE
8
Black
10
131.165
20
-94.5719
11
131.174
21
-94.5704
0
LINE
8
Black
10
131.174
20
-94.5704
11
131.182
21
-94.5679
0
LINE
8
Black
10
131.182
20
-94.5679
11
131.187
21
-94.5681
0
LINE
8
Black
10
131.187
20
-94.5681
11
131.191
21
-94.5674
0
LINE
8
Black
10
131.191
20
-94.5674
11
131.429
21
-94.5674
0
LINE
8
Black
10
131.429
20
-94.5674
11
131.433
21
-94.5681
0
LINE
8
Black
10
145.016
20
-87.0543
11
145.024
21
-87.0543
0
LINE
8
Black
10
145.024
20
-87.0543
11
145.041
21
-87.0605
0
LINE
8
Black
10
145.041
20
-87.0605
11
145.059
21
-87.0648
0
LINE
8
Black
10
145.059
20
-87.0648
11
145.066
21
-87.0695
0
LINE
8
Black
10
145.066
20
-87.0695
11
145.074
21
-87.0724
0
LINE
8
Black
10
145.074
20
-87.0724
11
145.088
21
-87.0841
0
LINE
8
Black
10
145.088
20
-87.0841
11
145.103
21
-87.0942
0
LINE
8
Black
10
145.103
20
-87.0942
11
145.108
21
-87.101
0
LINE
8
Black
10
145.108
20
-87.101
11
145.114
21
-87.1064
0
LINE
8
Black
10
145.114
20
-87.1064
11
145.124
21
-87.1222
0
LINE
8
Black
10
145.124
20
-87.1222
11
145.134
21
-87.1368
0
LINE
8
Black
10
145.134
20
-87.1368
11
145.137
21
-87.1449
0
LINE
8
Black
10
145.137
20
-87.1449
11
145.141
21
-87.1522
0
LINE
8
Black
10
145.141
20
-87.1522
11
145.144
21
-87.1702
0
LINE
8
Black
10
145.144
20
-87.1702
11
145.149
21
-87.1876
0
LINE
8
Black
10
145.149
20
-87.1876
11
145.149
21
-87.196
0
LINE
8
Black
10
145.149
20
-87.196
11
145.15
21
-87.2044
0
LINE
8
Black
10
145.15
20
-87.2044
11
145.15
21
-88.576
0
LINE
8
Black
10
145.15
20
-88.576
11
145.433
21
-88.576
0
LINE
8
Black
10
145.433
20
-88.576
11
145.485
21
-88.5852
0
LINE
8
Black
10
145.485
20
-88.5852
11
145.531
21
-88.6116
0
LINE
8
Black
10
145.531
20
-88.6116
11
145.565
21
-88.6522
0
LINE
8
Black
10
145.565
20
-88.6522
11
145.583
21
-88.7019
0
LINE
8
Black
10
145.583
20
-88.7019
11
145.583
21
-88.7548
0
LINE
8
Black
10
145.583
20
-88.7548
11
145.565
21
-88.8046
0
LINE
8
Black
10
145.565
20
-88.8046
11
145.531
21
-88.8451
0
LINE
8
Black
10
145.531
20
-88.8451
11
145.485
21
-88.8716
0
LINE
8
Black
10
145.485
20
-88.8716
11
145.433
21
-88.8808
0
LINE
8
Black
10
145.433
20
-88.8808
11
144.562
21
-88.8808
0
LINE
8
Black
10
144.562
20
-88.8808
11
144.51
21
-88.8716
0
LINE
8
Black
10
144.51
20
-88.8716
11
144.464
21
-88.8451
0
LINE
8
Black
10
144.464
20
-88.8451
11
144.43
21
-88.8046
0
LINE
8
Black
10
144.43
20
-88.8046
11
144.412
21
-88.7548
0
LINE
8
Black
10
144.412
20
-88.7548
11
144.412
21
-88.7019
0
LINE
8
Black
10
144.412
20
-88.7019
11
144.43
21
-88.6522
0
LINE
8
Black
10
144.43
20
-88.6522
11
144.464
21
-88.6116
0
LINE
8
Black
10
144.464
20
-88.6116
11
144.51
21
-88.5852
0
LINE
8
Black
10
144.51
20
-88.5852
11
144.562
21
-88.576
0
LINE
8
Black
10
144.562
20
-88.576
11
144.845
21
-88.576
0
LINE
8
Black
10
144.845
20
-88.576
11
144.845
21
-87.6449
0
LINE
8
Black
10
144.845
20
-87.6449
11
144.815
21
-87.675
0
LINE
8
Black
10
144.815
20
-87.675
11
144.795
21
-87.689
0
LINE
8
Black
10
144.795
20
-87.689
11
144.776
21
-87.7035
0
LINE
8
Black
10
144.776
20
-87.7035
11
144.63
21
-87.7761
0
LINE
8
Black
10
144.63
20
-87.7761
11
144.58
21
-87.7912
0
LINE
8
Black
10
144.58
20
-87.7912
11
144.527
21
-87.788
0
LINE
8
Black
10
144.527
20
-87.788
11
144.478
21
-87.767
0
LINE
8
Black
10
144.478
20
-87.767
11
144.44
21
-87.7306
0
LINE
8
Black
10
144.44
20
-87.7306
11
144.416
21
-87.6832
0
LINE
8
Black
10
144.416
20
-87.6832
11
144.41
21
-87.6307
0
LINE
8
Black
10
144.41
20
-87.6307
11
144.422
21
-87.5792
0
LINE
8
Black
10
144.422
20
-87.5792
11
144.452
21
-87.535
0
LINE
8
Black
10
144.452
20
-87.535
11
144.494
21
-87.5035
0
LINE
8
Black
10
144.494
20
-87.5035
11
144.617
21
-87.442
0
LINE
8
Black
10
144.617
20
-87.442
11
144.734
21
-87.325
0
LINE
8
Black
10
144.734
20
-87.325
11
144.871
21
-87.1198
0
LINE
8
Black
10
144.871
20
-87.1198
11
144.877
21
-87.1137
0
LINE
8
Black
10
144.877
20
-87.1137
11
144.881
21
-87.1064
0
LINE
8
Black
10
144.881
20
-87.1064
11
144.895
21
-87.0947
0
LINE
8
Black
10
144.895
20
-87.0947
11
144.907
21
-87.0816
0
LINE
8
Black
10
144.907
20
-87.0816
11
144.915
21
-87.0778
0
LINE
8
Black
10
144.915
20
-87.0778
11
144.922
21
-87.0724
0
LINE
8
Black
10
144.922
20
-87.0724
11
144.939
21
-87.0662
0
LINE
8
Black
10
144.939
20
-87.0662
11
144.955
21
-87.0581
0
LINE
8
Black
10
144.955
20
-87.0581
11
144.963
21
-87.0572
0
LINE
8
Black
10
144.963
20
-87.0572
11
144.971
21
-87.0543
0
LINE
8
Black
10
144.971
20
-87.0543
11
144.989
21
-87.0543
0
LINE
8
Black
10
144.989
20
-87.0543
11
145.008
21
-87.0523
0
LINE
8
Black
10
145.008
20
-87.0523
11
145.016
21
-87.0543
0
LINE
8
Black
10
142.545
20
-87.0546
11
142.56
21
-87.0549
0
LINE
8
Black
10
142.56
20
-87.0549
11
142.571
21
-87.0591
0
LINE
8
Black
10
142.571
20
-87.0591
11
142.582
21
-87.0612
0
LINE
8
Black
10
142.582
20
-87.0612
11
142.595
21
-87.0686
0
LINE
8
Black
10
142.595
20
-87.0686
11
142.609
21
-87.074
0
LINE
8
Black
10
142.609
20
-87.074
11
142.618
21
-87.0817
0
LINE
8
Black
10
142.618
20
-87.0817
11
142.628
21
-87.0876
0
LINE
8
Black
10
142.628
20
-87.0876
11
142.638
21
-87.099
0
LINE
8
Black
10
142.638
20
-87.099
11
142.649
21
-87.1088
0
LINE
8
Black
10
142.649
20
-87.1088
11
142.655
21
-87.1192
0
LINE
8
Black
10
142.655
20
-87.1192
11
142.662
21
-87.1282
0
LINE
8
Black
10
142.662
20
-87.1282
11
142.667
21
-87.1422
0
LINE
8
Black
10
142.667
20
-87.1422
11
142.675
21
-87.1552
0
LINE
8
Black
10
142.675
20
-87.1552
11
142.676
21
-87.1668
0
LINE
8
Black
10
142.676
20
-87.1668
11
142.68
21
-87.1779
0
LINE
8
Black
10
142.68
20
-87.1779
11
142.68
21
-87.1928
0
LINE
8
Black
10
142.68
20
-87.1928
11
142.683
21
-87.2075
0
LINE
8
Black
10
142.683
20
-87.2075
11
142.68
21
-87.2191
0
LINE
8
Black
10
142.68
20
-87.2191
11
142.68
21
-87.2308
0
LINE
8
Black
10
142.68
20
-87.2308
11
142.675
21
-87.2448
0
LINE
8
Black
10
142.675
20
-87.2448
11
142.672
21
-87.2594
0
LINE
8
Black
10
142.672
20
-87.2594
11
142.666
21
-87.2695
0
LINE
8
Black
10
142.666
20
-87.2695
11
142.662
21
-87.2806
0
LINE
8
Black
10
142.662
20
-87.2806
11
142.653
21
-87.292
0
LINE
8
Black
10
142.653
20
-87.292
11
142.645
21
-87.3047
0
LINE
8
Black
10
142.645
20
-87.3047
11
142.333
21
-87.6611
0
LINE
8
Black
10
142.333
20
-87.6611
11
142.453
21
-87.7212
0
LINE
8
Black
10
142.453
20
-87.7212
11
142.473
21
-87.7357
0
LINE
8
Black
10
142.473
20
-87.7357
11
142.493
21
-87.7497
0
LINE
8
Black
10
142.493
20
-87.7497
11
142.565
21
-87.8223
0
LINE
8
Black
10
142.565
20
-87.8223
11
142.579
21
-87.8423
0
LINE
8
Black
10
142.579
20
-87.8423
11
142.594
21
-87.8619
0
LINE
8
Black
10
142.594
20
-87.8619
11
142.667
21
-88.0071
0
LINE
8
Black
10
142.667
20
-88.0071
11
142.669
21
-88.0155
0
LINE
8
Black
10
142.669
20
-88.0155
11
142.673
21
-88.0231
0
LINE
8
Black
10
142.673
20
-88.0231
11
142.677
21
-88.0407
0
LINE
8
Black
10
142.677
20
-88.0407
11
142.682
21
-88.0578
0
LINE
8
Black
10
142.682
20
-88.0578
11
142.681
21
-88.0666
0
LINE
8
Black
10
142.681
20
-88.0666
11
142.683
21
-88.0752
0
LINE
8
Black
10
142.683
20
-88.0752
11
142.683
21
-88.4381
0
LINE
8
Black
10
142.683
20
-88.4381
11
142.681
21
-88.4467
0
LINE
8
Black
10
142.681
20
-88.4467
11
142.682
21
-88.4555
0
LINE
8
Black
10
142.682
20
-88.4555
11
142.677
21
-88.4726
0
LINE
8
Black
10
142.677
20
-88.4726
11
142.673
21
-88.4902
0
LINE
8
Black
10
142.673
20
-88.4902
11
142.669
21
-88.4978
0
LINE
8
Black
10
142.669
20
-88.4978
11
142.667
21
-88.5062
0
LINE
8
Black
10
142.667
20
-88.5062
11
142.594
21
-88.6514
0
LINE
8
Black
10
142.594
20
-88.6514
11
142.579
21
-88.671
0
LINE
8
Black
10
142.579
20
-88.671
11
142.565
21
-88.691
0
LINE
8
Black
10
142.565
20
-88.691
11
142.493
21
-88.7636
0
LINE
8
Black
10
142.493
20
-88.7636
11
142.473
21
-88.7776
0
LINE
8
Black
10
142.473
20
-88.7776
11
142.453
21
-88.7921
0
LINE
8
Black
10
142.453
20
-88.7921
11
142.308
21
-88.8647
0
LINE
8
Black
10
142.308
20
-88.8647
11
142.3
21
-88.8672
0
LINE
8
Black
10
142.3
20
-88.8672
11
142.292
21
-88.8716
0
LINE
8
Black
10
142.292
20
-88.8716
11
142.275
21
-88.8747
0
LINE
8
Black
10
142.275
20
-88.8747
11
142.257
21
-88.8798
0
LINE
8
Black
10
142.257
20
-88.8798
11
142.249
21
-88.8792
0
LINE
8
Black
10
142.249
20
-88.8792
11
142.24
21
-88.8808
0
LINE
8
Black
10
142.24
20
-88.8808
11
141.805
21
-88.8808
0
LINE
8
Black
10
141.805
20
-88.8808
11
141.796
21
-88.8792
0
LINE
8
Black
10
141.796
20
-88.8792
11
141.787
21
-88.8798
0
LINE
8
Black
10
141.787
20
-88.8798
11
141.77
21
-88.8747
0
LINE
8
Black
10
141.77
20
-88.8747
11
141.752
21
-88.8716
0
LINE
8
Black
10
141.752
20
-88.8716
11
141.745
21
-88.8672
0
LINE
8
Black
10
141.745
20
-88.8672
11
141.736
21
-88.8647
0
LINE
8
Black
10
141.736
20
-88.8647
11
141.591
21
-88.7921
0
LINE
8
Black
10
141.591
20
-88.7921
11
141.572
21
-88.7776
0
LINE
8
Black
10
141.572
20
-88.7776
11
141.552
21
-88.7636
0
LINE
8
Black
10
141.552
20
-88.7636
11
141.479
21
-88.691
0
LINE
8
Black
10
141.479
20
-88.691
11
141.449
21
-88.6476
0
LINE
8
Black
10
141.449
20
-88.6476
11
141.435
21
-88.5965
0
LINE
8
Black
10
141.435
20
-88.5965
11
141.44
21
-88.5438
0
LINE
8
Black
10
141.44
20
-88.5438
11
141.462
21
-88.4958
0
LINE
8
Black
10
141.462
20
-88.4958
11
141.499
21
-88.4584
0
LINE
8
Black
10
141.499
20
-88.4584
11
141.547
21
-88.436
0
LINE
8
Black
10
141.547
20
-88.436
11
141.6
21
-88.4314
0
LINE
8
Black
10
141.6
20
-88.4314
11
141.651
21
-88.4451
0
LINE
8
Black
10
141.651
20
-88.4451
11
141.695
21
-88.4755
0
LINE
8
Black
10
141.695
20
-88.4755
11
141.75
21
-88.5305
0
LINE
8
Black
10
141.75
20
-88.5305
11
141.841
21
-88.576
0
LINE
8
Black
10
141.841
20
-88.576
11
142.204
21
-88.576
0
LINE
8
Black
10
142.204
20
-88.576
11
142.295
21
-88.5305
0
LINE
8
Black
10
142.295
20
-88.5305
11
142.332
21
-88.493
0
LINE
8
Black
10
142.332
20
-88.493
11
142.378
21
-88.4021
0
LINE
8
Black
10
142.378
20
-88.4021
11
142.378
21
-88.1112
0
LINE
8
Black
10
142.378
20
-88.1112
11
142.332
21
-88.0204
0
LINE
8
Black
10
142.332
20
-88.0204
11
142.295
21
-87.9828
0
LINE
8
Black
10
142.295
20
-87.9828
11
142.204
21
-87.9373
0
LINE
8
Black
10
142.204
20
-87.9373
11
142.022
21
-87.9373
0
LINE
8
Black
10
142.022
20
-87.9373
11
142.008
21
-87.9348
0
LINE
8
Black
10
142.008
20
-87.9348
11
141.993
21
-87.9344
0
LINE
8
Black
10
141.993
20
-87.9344
11
141.982
21
-87.9302
0
LINE
8
Black
10
141.982
20
-87.9302
11
141.97
21
-87.9281
0
LINE
8
Black
10
141.97
20
-87.9281
11
141.957
21
-87.9207
0
LINE
8
Black
10
141.957
20
-87.9207
11
141.943
21
-87.9153
0
LINE
8
Black
10
141.943
20
-87.9153
11
141.935
21
-87.9076
0
LINE
8
Black
10
141.935
20
-87.9076
11
141.924
21
-87.9017
0
LINE
8
Black
10
141.924
20
-87.9017
11
141.915
21
-87.8903
0
LINE
8
Black
10
141.915
20
-87.8903
11
141.904
21
-87.8805
0
LINE
8
Black
10
141.904
20
-87.8805
11
141.898
21
-87.8702
0
LINE
8
Black
10
141.898
20
-87.8702
11
141.89
21
-87.8611
0
LINE
8
Black
10
141.89
20
-87.8611
11
141.885
21
-87.8471
0
LINE
8
Black
10
141.885
20
-87.8471
11
141.878
21
-87.8341
0
LINE
8
Black
10
141.878
20
-87.8341
11
141.876
21
-87.8225
0
LINE
8
Black
10
141.876
20
-87.8225
11
141.872
21
-87.8114
0
LINE
8
Black
10
141.872
20
-87.8114
11
141.872
21
-87.7965
0
LINE
8
Black
10
141.872
20
-87.7965
11
141.87
21
-87.7818
0
LINE
8
Black
10
141.87
20
-87.7818
11
141.872
21
-87.7702
0
LINE
8
Black
10
141.872
20
-87.7702
11
141.872
21
-87.7585
0
LINE
8
Black
10
141.872
20
-87.7585
11
141.877
21
-87.7445
0
LINE
8
Black
10
141.877
20
-87.7445
11
141.88
21
-87.7299
0
LINE
8
Black
10
141.88
20
-87.7299
11
141.886
21
-87.7198
0
LINE
8
Black
10
141.886
20
-87.7198
11
141.89
21
-87.7087
0
LINE
8
Black
10
141.89
20
-87.7087
11
141.9
21
-87.6973
0
LINE
8
Black
10
141.9
20
-87.6973
11
141.908
21
-87.6846
0
LINE
8
Black
10
141.908
20
-87.6846
11
142.194
21
-87.3568
0
LINE
8
Black
10
142.194
20
-87.3568
11
141.587
21
-87.3568
0
LINE
8
Black
10
141.587
20
-87.3568
11
141.535
21
-87.3476
0
LINE
8
Black
10
141.535
20
-87.3476
11
141.489
21
-87.3211
0
LINE
8
Black
10
141.489
20
-87.3211
11
141.455
21
-87.2806
0
LINE
8
Black
10
141.455
20
-87.2806
11
141.437
21
-87.2308
0
LINE
8
Black
10
141.437
20
-87.2308
11
141.437
21
-87.1779
0
LINE
8
Black
10
141.437
20
-87.1779
11
141.455
21
-87.1282
0
LINE
8
Black
10
141.455
20
-87.1282
11
141.489
21
-87.0876
0
LINE
8
Black
10
141.489
20
-87.0876
11
141.535
21
-87.0612
0
LINE
8
Black
10
141.535
20
-87.0612
11
141.587
21
-87.052
0
LINE
8
Black
10
141.587
20
-87.052
11
142.53
21
-87.052
0
LINE
8
Black
10
142.53
20
-87.052
11
142.545
21
-87.0546
0
LINE
8
Black
10
140.725
20
-87.0535
11
140.733
21
-87.053
0
LINE
8
Black
10
140.733
20
-87.053
11
140.751
21
-87.0581
0
LINE
8
Black
10
140.751
20
-87.0581
11
140.768
21
-87.0612
0
LINE
8
Black
10
140.768
20
-87.0612
11
140.776
21
-87.0656
0
LINE
8
Black
10
140.776
20
-87.0656
11
140.784
21
-87.0681
0
LINE
8
Black
10
140.784
20
-87.0681
11
140.929
21
-87.1406
0
LINE
8
Black
10
140.929
20
-87.1406
11
140.949
21
-87.1552
0
LINE
8
Black
10
140.949
20
-87.1552
11
140.969
21
-87.1692
0
LINE
8
Black
10
140.969
20
-87.1692
11
141.041
21
-87.2417
0
LINE
8
Black
10
141.041
20
-87.2417
11
141.055
21
-87.2617
0
LINE
8
Black
10
141.055
20
-87.2617
11
141.07
21
-87.2814
0
LINE
8
Black
10
141.07
20
-87.2814
11
141.143
21
-87.4265
0
LINE
8
Black
10
141.143
20
-87.4265
11
141.145
21
-87.4349
0
LINE
8
Black
10
141.145
20
-87.4349
11
141.149
21
-87.4425
0
LINE
8
Black
10
141.149
20
-87.4425
11
141.153
21
-87.4601
0
LINE
8
Black
10
141.153
20
-87.4601
11
141.158
21
-87.4772
0
LINE
8
Black
10
141.158
20
-87.4772
11
141.157
21
-87.486
0
LINE
8
Black
10
141.157
20
-87.486
11
141.159
21
-87.4947
0
LINE
8
Black
10
141.159
20
-87.4947
11
141.159
21
-87.6398
0
LINE
8
Black
10
141.159
20
-87.6398
11
141.157
21
-87.6484
0
LINE
8
Black
10
141.157
20
-87.6484
11
141.158
21
-87.6572
0
LINE
8
Black
10
141.158
20
-87.6572
11
141.153
21
-87.6743
0
LINE
8
Black
10
141.153
20
-87.6743
11
141.149
21
-87.6919
0
LINE
8
Black
10
141.149
20
-87.6919
11
141.145
21
-87.6995
0
LINE
8
Black
10
141.145
20
-87.6995
11
141.143
21
-87.708
0
LINE
8
Black
10
141.143
20
-87.708
11
141.07
21
-87.8531
0
LINE
8
Black
10
141.07
20
-87.8531
11
141.055
21
-87.8727
0
LINE
8
Black
10
141.055
20
-87.8727
11
141.041
21
-87.8927
0
LINE
8
Black
10
141.041
20
-87.8927
11
141.04
21
-87.894
0
LINE
8
Black
10
141.04
20
-87.894
11
141.041
21
-87.8949
0
LINE
8
Black
10
141.041
20
-87.8949
11
141.114
21
-87.9675
0
LINE
8
Black
10
141.114
20
-87.9675
11
141.128
21
-87.9875
0
LINE
8
Black
10
141.128
20
-87.9875
11
141.143
21
-88.0071
0
LINE
8
Black
10
141.143
20
-88.0071
11
141.215
21
-88.1522
0
LINE
8
Black
10
141.215
20
-88.1522
11
141.218
21
-88.1606
0
LINE
8
Black
10
141.218
20
-88.1606
11
141.222
21
-88.1682
0
LINE
8
Black
10
141.222
20
-88.1682
11
141.225
21
-88.1858
0
LINE
8
Black
10
141.225
20
-88.1858
11
141.23
21
-88.2029
0
LINE
8
Black
10
141.23
20
-88.2029
11
141.23
21
-88.2117
0
LINE
8
Black
10
141.23
20
-88.2117
11
141.231
21
-88.2204
0
LINE
8
Black
10
141.231
20
-88.2204
11
141.231
21
-88.4381
0
LINE
8
Black
10
141.231
20
-88.4381
11
141.23
21
-88.4467
0
LINE
8
Black
10
141.23
20
-88.4467
11
141.23
21
-88.4555
0
LINE
8
Black
10
141.23
20
-88.4555
11
141.225
21
-88.4726
0
LINE
8
Black
10
141.225
20
-88.4726
11
141.222
21
-88.4902
0
LINE
8
Black
10
141.222
20
-88.4902
11
141.218
21
-88.4978
0
LINE
8
Black
10
141.218
20
-88.4978
11
141.215
21
-88.5062
0
LINE
8
Black
10
141.215
20
-88.5062
11
141.143
21
-88.6514
0
LINE
8
Black
10
141.143
20
-88.6514
11
141.128
21
-88.671
0
LINE
8
Black
10
141.128
20
-88.671
11
141.114
21
-88.691
0
LINE
8
Black
10
141.114
20
-88.691
11
141.041
21
-88.7636
0
LINE
8
Black
10
141.041
20
-88.7636
11
141.021
21
-88.7776
0
LINE
8
Black
10
141.021
20
-88.7776
11
141.002
21
-88.7921
0
LINE
8
Black
10
141.002
20
-88.7921
11
140.857
21
-88.8647
0
LINE
8
Black
10
140.857
20
-88.8647
11
140.848
21
-88.8672
0
LINE
8
Black
10
140.848
20
-88.8672
11
140.841
21
-88.8716
0
LINE
8
Black
10
140.841
20
-88.8716
11
140.823
21
-88.8747
0
LINE
8
Black
10
140.823
20
-88.8747
11
140.806
21
-88.8798
0
LINE
8
Black
10
140.806
20
-88.8798
11
140.797
21
-88.8792
0
LINE
8
Black
10
140.797
20
-88.8792
11
140.789
21
-88.8808
0
LINE
8
Black
10
140.789
20
-88.8808
11
140.208
21
-88.8808
0
LINE
8
Black
10
140.208
20
-88.8808
11
140.195
21
-88.8785
0
LINE
8
Black
10
140.195
20
-88.8785
11
140.182
21
-88.8785
0
LINE
8
Black
10
140.182
20
-88.8785
11
140.169
21
-88.8739
0
LINE
8
Black
10
140.169
20
-88.8739
11
140.156
21
-88.8716
0
LINE
8
Black
10
140.156
20
-88.8716
11
140.144
21
-88.8649
0
LINE
8
Black
10
140.144
20
-88.8649
11
140.132
21
-88.8604
0
LINE
8
Black
10
140.132
20
-88.8604
11
140.122
21
-88.8518
0
LINE
8
Black
10
140.122
20
-88.8518
11
140.11
21
-88.8451
0
LINE
8
Black
10
140.11
20
-88.8451
11
140.101
21
-88.8349
0
LINE
8
Black
10
140.101
20
-88.8349
11
140.091
21
-88.8263
0
LINE
8
Black
10
140.091
20
-88.8263
11
140.085
21
-88.8148
0
LINE
8
Black
10
140.085
20
-88.8148
11
140.076
21
-88.8046
0
LINE
8
Black
10
140.076
20
-88.8046
11
140.071
21
-88.792
0
LINE
8
Black
10
140.071
20
-88.792
11
140.065
21
-88.7805
0
LINE
8
Black
10
140.065
20
-88.7805
11
140.062
21
-88.7674
0
LINE
8
Black
10
140.062
20
-88.7674
11
140.058
21
-88.7548
0
LINE
8
Black
10
140.058
20
-88.7548
11
140.058
21
-88.7415
0
LINE
8
Black
10
140.058
20
-88.7415
11
140.056
21
-88.7284
0
LINE
8
Black
10
140.056
20
-88.7284
11
140.056
21
-87.2044
0
LINE
8
Black
10
140.056
20
-87.2044
11
140.058
21
-87.1912
0
LINE
8
Black
10
140.058
20
-87.1912
11
140.058
21
-87.1779
0
LINE
8
Black
10
140.058
20
-87.1779
11
140.062
21
-87.1654
0
LINE
8
Black
10
140.062
20
-87.1654
11
140.065
21
-87.1522
0
LINE
8
Black
10
140.065
20
-87.1522
11
140.071
21
-87.1407
0
LINE
8
Black
10
140.071
20
-87.1407
11
140.076
21
-87.1282
0
LINE
8
Black
10
140.076
20
-87.1282
11
140.085
21
-87.118
0
LINE
8
Black
10
140.085
20
-87.118
11
140.091
21
-87.1064
0
LINE
8
Black
10
140.091
20
-87.1064
11
140.101
21
-87.0978
0
LINE
8
Black
10
140.101
20
-87.0978
11
140.11
21
-87.0876
0
LINE
8
Black
10
140.11
20
-87.0876
11
140.122
21
-87.081
0
LINE
8
Black
10
140.122
20
-87.081
11
140.132
21
-87.0724
0
LINE
8
Black
10
140.132
20
-87.0724
11
140.144
21
-87.0678
0
LINE
8
Black
10
140.144
20
-87.0678
11
140.156
21
-87.0612
0
LINE
8
Black
10
140.156
20
-87.0612
11
140.169
21
-87.0588
0
LINE
8
Black
10
140.169
20
-87.0588
11
140.182
21
-87.0543
0
LINE
8
Black
10
140.182
20
-87.0543
11
140.195
21
-87.0543
0
LINE
8
Black
10
140.195
20
-87.0543
11
140.208
21
-87.052
0
LINE
8
Black
10
140.208
20
-87.052
11
140.716
21
-87.052
0
LINE
8
Black
10
140.716
20
-87.052
11
140.725
21
-87.0535
0
LINE
8
Black
10
140.36
20
-88.0825
11
140.36
21
-88.576
0
LINE
8
Black
10
140.36
20
-88.576
11
140.753
21
-88.576
0
LINE
8
Black
10
140.753
20
-88.576
11
140.843
21
-88.5305
0
LINE
8
Black
10
140.843
20
-88.5305
11
140.881
21
-88.493
0
LINE
8
Black
10
140.881
20
-88.493
11
140.926
21
-88.4021
0
LINE
8
Black
10
140.926
20
-88.4021
11
140.926
21
-88.2563
0
LINE
8
Black
10
140.926
20
-88.2563
11
140.881
21
-88.1655
0
LINE
8
Black
10
140.881
20
-88.1655
11
140.851
21
-88.1359
0
LINE
8
Black
10
140.851
20
-88.1359
11
140.691
21
-88.0825
0
LINE
8
Black
10
140.691
20
-88.0825
11
140.36
21
-88.0825
0
LINE
8
Black
10
140.36
20
-87.3568
11
140.36
21
-87.7777
0
LINE
8
Black
10
140.36
20
-87.7777
11
140.68
21
-87.7777
0
LINE
8
Black
10
140.68
20
-87.7777
11
140.771
21
-87.7323
0
LINE
8
Black
10
140.771
20
-87.7323
11
140.808
21
-87.6947
0
LINE
8
Black
10
140.808
20
-87.6947
11
140.854
21
-87.6038
0
LINE
8
Black
10
140.854
20
-87.6038
11
140.854
21
-87.5306
0
LINE
8
Black
10
140.854
20
-87.5306
11
140.808
21
-87.4398
0
LINE
8
Black
10
140.808
20
-87.4398
11
140.771
21
-87.4022
0
LINE
8
Black
10
140.771
20
-87.4022
11
140.68
21
-87.3568
0
LINE
8
Black
10
140.68
20
-87.3568
11
140.36
21
-87.3568
0
LINE
8
Black
10
146.53
20
-87.0535
11
146.539
21
-87.053
0
LINE
8
Black
10
146.539
20
-87.053
11
146.556
21
-87.0581
0
LINE
8
Black
10
146.556
20
-87.0581
11
146.574
21
-87.0612
0
LINE
8
Black
10
146.574
20
-87.0612
11
146.581
21
-87.0656
0
LINE
8
Black
10
146.581
20
-87.0656
11
146.59
21
-87.0681
0
LINE
8
Black
10
146.59
20
-87.0681
11
146.735
21
-87.1406
0
LINE
8
Black
10
146.735
20
-87.1406
11
146.755
21
-87.1552
0
LINE
8
Black
10
146.755
20
-87.1552
11
146.775
21
-87.1692
0
LINE
8
Black
10
146.775
20
-87.1692
11
146.847
21
-87.2417
0
LINE
8
Black
10
146.847
20
-87.2417
11
146.861
21
-87.2617
0
LINE
8
Black
10
146.861
20
-87.2617
11
146.876
21
-87.2814
0
LINE
8
Black
10
146.876
20
-87.2814
11
146.948
21
-87.4265
0
LINE
8
Black
10
146.948
20
-87.4265
11
146.953
21
-87.4425
0
LINE
8
Black
10
146.953
20
-87.4425
11
146.96
21
-87.4577
0
LINE
8
Black
10
146.96
20
-87.4577
11
147.032
21
-87.748
0
LINE
8
Black
10
147.032
20
-87.748
11
147.034
21
-87.7666
0
LINE
8
Black
10
147.034
20
-87.7666
11
147.037
21
-87.7849
0
LINE
8
Black
10
147.037
20
-87.7849
11
147.037
21
-88.1478
0
LINE
8
Black
10
147.037
20
-88.1478
11
147.034
21
-88.1662
0
LINE
8
Black
10
147.034
20
-88.1662
11
147.032
21
-88.1848
0
LINE
8
Black
10
147.032
20
-88.1848
11
146.96
21
-88.475
0
LINE
8
Black
10
146.96
20
-88.475
11
146.953
21
-88.4903
0
LINE
8
Black
10
146.953
20
-88.4903
11
146.948
21
-88.5062
0
LINE
8
Black
10
146.948
20
-88.5062
11
146.876
21
-88.6514
0
LINE
8
Black
10
146.876
20
-88.6514
11
146.861
21
-88.671
0
LINE
8
Black
10
146.861
20
-88.671
11
146.847
21
-88.691
0
LINE
8
Black
10
146.847
20
-88.691
11
146.775
21
-88.7636
0
LINE
8
Black
10
146.775
20
-88.7636
11
146.755
21
-88.7776
0
LINE
8
Black
10
146.755
20
-88.7776
11
146.735
21
-88.7921
0
LINE
8
Black
10
146.735
20
-88.7921
11
146.59
21
-88.8647
0
LINE
8
Black
10
146.59
20
-88.8647
11
146.581
21
-88.8672
0
LINE
8
Black
10
146.581
20
-88.8672
11
146.574
21
-88.8716
0
LINE
8
Black
10
146.574
20
-88.8716
11
146.556
21
-88.8747
0
LINE
8
Black
10
146.556
20
-88.8747
11
146.539
21
-88.8798
0
LINE
8
Black
10
146.539
20
-88.8798
11
146.53
21
-88.8792
0
LINE
8
Black
10
146.53
20
-88.8792
11
146.522
21
-88.8808
0
LINE
8
Black
10
146.522
20
-88.8808
11
146.377
21
-88.8808
0
LINE
8
Black
10
146.377
20
-88.8808
11
146.368
21
-88.8792
0
LINE
8
Black
10
146.368
20
-88.8792
11
146.359
21
-88.8798
0
LINE
8
Black
10
146.359
20
-88.8798
11
146.342
21
-88.8747
0
LINE
8
Black
10
146.342
20
-88.8747
11
146.324
21
-88.8716
0
LINE
8
Black
10
146.324
20
-88.8716
11
146.317
21
-88.8672
0
LINE
8
Black
10
146.317
20
-88.8672
11
146.308
21
-88.8647
0
LINE
8
Black
10
146.308
20
-88.8647
11
146.163
21
-88.7921
0
LINE
8
Black
10
146.163
20
-88.7921
11
146.144
21
-88.7776
0
LINE
8
Black
10
146.144
20
-88.7776
11
146.124
21
-88.7636
0
LINE
8
Black
10
146.124
20
-88.7636
11
146.051
21
-88.691
0
LINE
8
Black
10
146.051
20
-88.691
11
146.037
21
-88.671
0
LINE
8
Black
10
146.037
20
-88.671
11
146.023
21
-88.6514
0
LINE
8
Black
10
146.023
20
-88.6514
11
145.95
21
-88.5062
0
LINE
8
Black
10
145.95
20
-88.5062
11
145.945
21
-88.4903
0
LINE
8
Black
10
145.945
20
-88.4903
11
145.938
21
-88.475
0
LINE
8
Black
10
145.938
20
-88.475
11
145.866
21
-88.1848
0
LINE
8
Black
10
145.866
20
-88.1848
11
145.865
21
-88.1662
0
LINE
8
Black
10
145.865
20
-88.1662
11
145.861
21
-88.1478
0
LINE
8
Black
10
145.861
20
-88.1478
11
145.861
21
-87.7849
0
LINE
8
Black
10
145.861
20
-87.7849
11
145.865
21
-87.7666
0
LINE
8
Black
10
145.865
20
-87.7666
11
145.866
21
-87.748
0
LINE
8
Black
10
145.866
20
-87.748
11
145.938
21
-87.4577
0
LINE
8
Black
10
145.938
20
-87.4577
11
145.945
21
-87.4425
0
LINE
8
Black
10
145.945
20
-87.4425
11
145.95
21
-87.4265
0
LINE
8
Black
10
145.95
20
-87.4265
11
146.023
21
-87.2814
0
LINE
8
Black
10
146.023
20
-87.2814
11
146.037
21
-87.2617
0
LINE
8
Black
10
146.037
20
-87.2617
11
146.051
21
-87.2417
0
LINE
8
Black
10
146.051
20
-87.2417
11
146.124
21
-87.1692
0
LINE
8
Black
10
146.124
20
-87.1692
11
146.144
21
-87.1552
0
LINE
8
Black
10
146.144
20
-87.1552
11
146.163
21
-87.1406
0
LINE
8
Black
10
146.163
20
-87.1406
11
146.308
21
-87.0681
0
LINE
8
Black
10
146.308
20
-87.0681
11
146.317
21
-87.0656
0
LINE
8
Black
10
146.317
20
-87.0656
11
146.324
21
-87.0612
0
LINE
8
Black
10
146.324
20
-87.0612
11
146.342
21
-87.0581
0
LINE
8
Black
10
146.342
20
-87.0581
11
146.359
21
-87.053
0
LINE
8
Black
10
146.359
20
-87.053
11
146.368
21
-87.0535
0
LINE
8
Black
10
146.368
20
-87.0535
11
146.377
21
-87.052
0
LINE
8
Black
10
146.377
20
-87.052
11
146.522
21
-87.052
0
LINE
8
Black
10
146.522
20
-87.052
11
146.53
21
-87.0535
0
LINE
8
Black
10
146.413
20
-87.3568
11
146.322
21
-87.4022
0
LINE
8
Black
10
146.322
20
-87.4022
11
146.284
21
-87.4398
0
LINE
8
Black
10
146.284
20
-87.4398
11
146.23
21
-87.5478
0
LINE
8
Black
10
146.23
20
-87.5478
11
146.166
21
-87.8037
0
LINE
8
Black
10
146.166
20
-87.8037
11
146.166
21
-88.129
0
LINE
8
Black
10
146.166
20
-88.129
11
146.23
21
-88.3849
0
LINE
8
Black
10
146.23
20
-88.3849
11
146.284
21
-88.493
0
LINE
8
Black
10
146.284
20
-88.493
11
146.322
21
-88.5305
0
LINE
8
Black
10
146.322
20
-88.5305
11
146.413
21
-88.576
0
LINE
8
Black
10
146.413
20
-88.576
11
146.486
21
-88.576
0
LINE
8
Black
10
146.486
20
-88.576
11
146.577
21
-88.5305
0
LINE
8
Black
10
146.577
20
-88.5305
11
146.614
21
-88.493
0
LINE
8
Black
10
146.614
20
-88.493
11
146.668
21
-88.3849
0
LINE
8
Black
10
146.668
20
-88.3849
11
146.732
21
-88.129
0
LINE
8
Black
10
146.732
20
-88.129
11
146.732
21
-87.8037
0
LINE
8
Black
10
146.732
20
-87.8037
11
146.668
21
-87.5478
0
LINE
8
Black
10
146.668
20
-87.5478
11
146.614
21
-87.4398
0
LINE
8
Black
10
146.614
20
-87.4398
11
146.577
21
-87.4022
0
LINE
8
Black
10
146.577
20
-87.4022
11
146.486
21
-87.3568
0
LINE
8
Black
10
146.486
20
-87.3568
11
146.413
21
-87.3568
0
LINE
8
Black
10
144.072
20
-87.055
11
144.089
21
-87.056
0
LINE
8
Black
10
144.089
20
-87.056
11
144.097
21
-87.0596
0
LINE
8
Black
10
144.097
20
-87.0596
11
144.106
21
-87.0612
0
LINE
8
Black
10
144.106
20
-87.0612
11
144.122
21
-87.0699
0
LINE
8
Black
10
144.122
20
-87.0699
11
144.138
21
-87.0768
0
LINE
8
Black
10
144.138
20
-87.0768
11
144.144
21
-87.0831
0
LINE
8
Black
10
144.144
20
-87.0831
11
144.152
21
-87.0876
0
LINE
8
Black
10
144.152
20
-87.0876
11
144.164
21
-87.1011
0
LINE
8
Black
10
144.164
20
-87.1011
11
144.176
21
-87.1131
0
LINE
8
Black
10
144.176
20
-87.1131
11
144.18
21
-87.1212
0
LINE
8
Black
10
144.18
20
-87.1212
11
144.186
21
-87.1282
0
LINE
8
Black
10
144.186
20
-87.1282
11
144.192
21
-87.1447
0
LINE
8
Black
10
144.192
20
-87.1447
11
144.2
21
-87.1603
0
LINE
8
Black
10
144.2
20
-87.1603
11
144.201
21
-87.1694
0
LINE
8
Black
10
144.201
20
-87.1694
11
144.204
21
-87.1779
0
LINE
8
Black
10
144.204
20
-87.1779
11
144.204
21
-87.1955
0
LINE
8
Black
10
144.204
20
-87.1955
11
144.206
21
-87.2129
0
LINE
8
Black
10
144.206
20
-87.2129
11
144.204
21
-87.2217
0
LINE
8
Black
10
144.204
20
-87.2217
11
144.204
21
-87.2308
0
LINE
8
Black
10
144.204
20
-87.2308
11
144.198
21
-87.2473
0
LINE
8
Black
10
144.198
20
-87.2473
11
144.194
21
-87.2644
0
LINE
8
Black
10
144.194
20
-87.2644
11
143.541
21
-88.7884
0
LINE
8
Black
10
143.541
20
-88.7884
11
143.512
21
-88.8327
0
LINE
8
Black
10
143.512
20
-88.8327
11
143.47
21
-88.8644
0
LINE
8
Black
10
143.47
20
-88.8644
11
143.419
21
-88.8797
0
LINE
8
Black
10
143.419
20
-88.8797
11
143.366
21
-88.8767
0
LINE
8
Black
10
143.366
20
-88.8767
11
143.318
21
-88.8559
0
LINE
8
Black
10
143.318
20
-88.8559
11
143.279
21
-88.8197
0
LINE
8
Black
10
143.279
20
-88.8197
11
143.255
21
-88.7724
0
LINE
8
Black
10
143.255
20
-88.7724
11
143.249
21
-88.7199
0
LINE
8
Black
10
143.249
20
-88.7199
11
143.261
21
-88.6683
0
LINE
8
Black
10
143.261
20
-88.6683
11
143.823
21
-87.3568
0
LINE
8
Black
10
143.823
20
-87.3568
11
143.038
21
-87.3568
0
LINE
8
Black
10
143.038
20
-87.3568
11
142.986
21
-87.3476
0
LINE
8
Black
10
142.986
20
-87.3476
11
142.94
21
-87.3211
0
LINE
8
Black
10
142.94
20
-87.3211
11
142.906
21
-87.2806
0
LINE
8
Black
10
142.906
20
-87.2806
11
142.888
21
-87.2308
0
LINE
8
Black
10
142.888
20
-87.2308
11
142.888
21
-87.1779
0
LINE
8
Black
10
142.888
20
-87.1779
11
142.906
21
-87.1282
0
LINE
8
Black
10
142.906
20
-87.1282
11
142.94
21
-87.0876
0
LINE
8
Black
10
142.94
20
-87.0876
11
142.986
21
-87.0612
0
LINE
8
Black
10
142.986
20
-87.0612
11
143.038
21
-87.052
0
LINE
8
Black
10
143.038
20
-87.052
11
144.054
21
-87.052
0
LINE
8
Black
10
144.054
20
-87.052
11
144.072
21
-87.055
  0
ENDSEC
  0
EOF
