  0
SECTION
  2
HEADER
  9
$ANGBASE
  50
0.0
  9
$ANGDIR
  70
  1
  9
$MEASUREMENT
  70
0
  0
ENDSEC
  0
SECTION
  2
TABLES
  0
TABLE
  2
LTYPE
  70
1
  0
LTYPE
  2
CONTINUOUS
  70
0
  3
Solid line
  72
65
  73
0
  40
0.0
  0
ENDTAB
  0
TABLE
  2
STYLE
  70
4
  0
STYLE
  2
KICAD
  70
0
  40
0
  41
1
  42
1
  50
0
  71
0
  3
isocp.shx
  0
STYLE
  2
KICADB
  70
0
  40
0
  41
1
  42
1
  50
0
  71
0
  3
isocp.shx
  0
STYLE
  2
KICADI
  70
0
  40
0
  41
1
  42
1
  50
15
  71
0
  3
isocp.shx
  0
STYLE
  2
KICADBI
  70
0
  40
0
  41
1
  42
1
  50
15
  71
0
  3
isocp.shx
  0
ENDTAB
  0
TABLE
  2
LAYER
  70
30
  0
LAYER
  2
BLACK
  70
0
  62
7
  6
CONTINUOUS
  0
LAYER
  2
GRAY1
  70
0
  62
251
  6
CONTINUOUS
  0
LAYER
  2
GRAY2
  70
0
  62
8
  6
CONTINUOUS
  0
LAYER
  2
GRAY3
  70
0
  62
9
  6
CONTINUOUS
  0
LAYER
  2
WHITE
  70
0
  62
7
  6
CONTINUOUS
  0
LAYER
  2
LYELLOW
  70
0
  62
51
  6
CONTINUOUS
  0
LAYER
  2
BLUE1
  70
0
  62
178
  6
CONTINUOUS
  0
LAYER
  2
GREEN1
  70
0
  62
98
  6
CONTINUOUS
  0
LAYER
  2
CYAN1
  70
0
  62
138
  6
CONTINUOUS
  0
LAYER
  2
RED1
  70
0
  62
18
  6
CONTINUOUS
  0
LAYER
  2
MAGENTA1
  70
0
  62
228
  6
CONTINUOUS
  0
LAYER
  2
BROWN1
  70
0
  62
58
  6
CONTINUOUS
  0
LAYER
  2
BLUE2
  70
0
  62
5
  6
CONTINUOUS
  0
LAYER
  2
GREEN2
  70
0
  62
3
  6
CONTINUOUS
  0
LAYER
  2
CYAN2
  70
0
  62
4
  6
CONTINUOUS
  0
LAYER
  2
RED2
  70
0
  62
1
  6
CONTINUOUS
  0
LAYER
  2
MAGENTA2
  70
0
  62
6
  6
CONTINUOUS
  0
LAYER
  2
BROWN2
  70
0
  62
54
  6
CONTINUOUS
  0
LAYER
  2
BLUE3
  70
0
  62
171
  6
CONTINUOUS
  0
LAYER
  2
GREEN3
  70
0
  62
91
  6
CONTINUOUS
  0
LAYER
  2
CYAN3
  70
0
  62
131
  6
CONTINUOUS
  0
LAYER
  2
RED3
  70
0
  62
11
  6
CONTINUOUS
  0
LAYER
  2
MAGENTA3
  70
0
  62
221
  6
CONTINUOUS
  0
LAYER
  2
YELLOW3
  70
0
  62
2
  6
CONTINUOUS
  0
LAYER
  2
BLUE4
  70
0
  62
5
  6
CONTINUOUS
  0
LAYER
  2
GREEN4
  70
0
  62
3
  6
CONTINUOUS
  0
LAYER
  2
CYAN4
  70
0
  62
4
  6
CONTINUOUS
  0
LAYER
  2
RED4
  70
0
  62
1
  6
CONTINUOUS
  0
LAYER
  2
MAGENTA4
  70
0
  62
6
  6
CONTINUOUS
  0
LAYER
  2
YELLOW4
  70
0
  62
2
  6
CONTINUOUS
  0
ENDTAB
  0
ENDSEC
  0
SECTION
  2
ENTITIES
0
LINE
8
Black
10
98.0695
20
-29.0868
11
98.0914
21
-29.0868
0
LINE
8
Black
10
98.0914
20
-29.0868
11
98.112
21
-29.0943
0
LINE
8
Black
10
98.112
20
-29.0943
11
98.1335
21
-29.0981
0
LINE
8
Black
10
98.1335
20
-29.0981
11
98.1524
21
-29.109
0
LINE
8
Black
10
98.1524
20
-29.109
11
98.173
21
-29.1165
0
LINE
8
Black
10
98.173
20
-29.1165
11
98.1898
21
-29.1306
0
LINE
8
Black
10
98.1898
20
-29.1306
11
98.2087
21
-29.1415
0
LINE
8
Black
10
98.2087
20
-29.1415
11
98.2228
21
-29.1582
0
LINE
8
Black
10
98.2228
20
-29.1582
11
98.2395
21
-29.1723
0
LINE
8
Black
10
98.2395
20
-29.1723
11
98.2504
21
-29.1912
0
LINE
8
Black
10
98.2504
20
-29.1912
11
98.2645
21
-29.208
0
LINE
8
Black
10
98.2645
20
-29.208
11
98.272
21
-29.2286
0
LINE
8
Black
10
98.272
20
-29.2286
11
98.2829
21
-29.2475
0
LINE
8
Black
10
98.2829
20
-29.2475
11
98.2867
21
-29.269
0
LINE
8
Black
10
98.2867
20
-29.269
11
98.2942
21
-29.2896
0
LINE
8
Black
10
98.2942
20
-29.2896
11
98.2942
21
-29.3115
0
LINE
8
Black
10
98.2942
20
-29.3115
11
98.298
21
-29.333
0
LINE
8
Black
10
98.298
20
-29.333
11
98.298
21
-74.68
0
LINE
8
Black
10
98.298
20
-74.68
11
98.2942
21
-74.7015
0
LINE
8
Black
10
98.2942
20
-74.7015
11
98.2942
21
-74.7234
0
LINE
8
Black
10
98.2942
20
-74.7234
11
98.2867
21
-74.744
0
LINE
8
Black
10
98.2867
20
-74.744
11
98.2829
21
-74.7655
0
LINE
8
Black
10
98.2829
20
-74.7655
11
98.272
21
-74.7844
0
LINE
8
Black
10
98.272
20
-74.7844
11
98.2645
21
-74.805
0
LINE
8
Black
10
98.2645
20
-74.805
11
98.2504
21
-74.8218
0
LINE
8
Black
10
98.2504
20
-74.8218
11
98.2395
21
-74.8407
0
LINE
8
Black
10
98.2395
20
-74.8407
11
98.2228
21
-74.8548
0
LINE
8
Black
10
98.2228
20
-74.8548
11
98.2087
21
-74.8715
0
LINE
8
Black
10
98.2087
20
-74.8715
11
98.1898
21
-74.8824
0
LINE
8
Black
10
98.1898
20
-74.8824
11
98.173
21
-74.8965
0
LINE
8
Black
10
98.173
20
-74.8965
11
98.1524
21
-74.904
0
LINE
8
Black
10
98.1524
20
-74.904
11
98.1335
21
-74.9149
0
LINE
8
Black
10
98.1335
20
-74.9149
11
98.112
21
-74.9187
0
LINE
8
Black
10
98.112
20
-74.9187
11
98.0914
21
-74.9262
0
LINE
8
Black
10
98.0914
20
-74.9262
11
98.0695
21
-74.9262
0
LINE
8
Black
10
98.0695
20
-74.9262
11
98.048
21
-74.93
0
LINE
8
Black
10
98.048
20
-74.93
11
33.524
21
-74.93
0
LINE
8
Black
10
33.524
20
-74.93
11
33.5025
21
-74.9262
0
LINE
8
Black
10
33.5025
20
-74.9262
11
33.4806
21
-74.9262
0
LINE
8
Black
10
33.4806
20
-74.9262
11
33.46
21
-74.9187
0
LINE
8
Black
10
33.46
20
-74.9187
11
33.4385
21
-74.9149
0
LINE
8
Black
10
33.4385
20
-74.9149
11
33.4196
21
-74.904
0
LINE
8
Black
10
33.4196
20
-74.904
11
33.399
21
-74.8965
0
LINE
8
Black
10
33.399
20
-74.8965
11
33.3822
21
-74.8824
0
LINE
8
Black
10
33.3822
20
-74.8824
11
33.3633
21
-74.8715
0
LINE
8
Black
10
33.3633
20
-74.8715
11
33.3492
21
-74.8548
0
LINE
8
Black
10
33.3492
20
-74.8548
11
33.3325
21
-74.8407
0
LINE
8
Black
10
33.3325
20
-74.8407
11
33.3216
21
-74.8218
0
LINE
8
Black
10
33.3216
20
-74.8218
11
33.3075
21
-74.805
0
LINE
8
Black
10
33.3075
20
-74.805
11
33.3
21
-74.7844
0
LINE
8
Black
10
33.3
20
-74.7844
11
33.2891
21
-74.7655
0
LINE
8
Black
10
33.2891
20
-74.7655
11
33.2853
21
-74.744
0
LINE
8
Black
10
33.2853
20
-74.744
11
33.2778
21
-74.7234
0
LINE
8
Black
10
33.2778
20
-74.7234
11
33.2778
21
-74.7015
0
LINE
8
Black
10
33.2778
20
-74.7015
11
33.274
21
-74.68
0
LINE
8
Black
10
33.274
20
-74.68
11
33.274
21
-63.3061
0
LINE
8
Black
10
33.274
20
-63.3061
11
33.274
21
-63.1605
0
LINE
8
Black
10
33.274
20
-63.1605
11
33.276
21
-63.1492
0
LINE
8
Black
10
33.276
20
-63.1492
11
33.2751
21
-63.1376
0
LINE
8
Black
10
33.2751
20
-63.1376
11
33.2835
21
-63.1067
0
LINE
8
Black
10
33.2835
20
-63.1067
11
33.2891
21
-63.075
0
LINE
8
Black
10
33.2891
20
-63.075
11
33.2949
21
-63.065
0
LINE
8
Black
10
33.2949
20
-63.065
11
33.2979
21
-63.0539
0
LINE
8
Black
10
33.2979
20
-63.0539
11
33.3164
21
-63.0276
0
LINE
8
Black
10
33.3164
20
-63.0276
11
33.3325
21
-62.9999
0
LINE
8
Black
10
33.3325
20
-62.9999
11
33.3414
21
-62.9924
0
LINE
8
Black
10
33.3414
20
-62.9924
11
33.348
21
-62.983
0
LINE
8
Black
10
33.348
20
-62.983
11
33.3744
21
-62.9647
0
LINE
8
Black
10
33.3744
20
-62.9647
11
33.399
21
-62.944
0
LINE
8
Black
10
33.399
20
-62.944
11
33.4099
21
-62.9401
0
LINE
8
Black
10
33.4099
20
-62.9401
11
33.4194
21
-62.9335
0
LINE
8
Black
10
33.4194
20
-62.9335
11
33.4504
21
-62.9253
0
LINE
8
Black
10
33.4504
20
-62.9253
11
33.4806
21
-62.9143
0
LINE
8
Black
10
33.4806
20
-62.9143
11
33.4922
21
-62.9143
0
LINE
8
Black
10
33.4922
20
-62.9143
11
33.5034
21
-62.9114
0
LINE
8
Black
10
33.5034
20
-62.9114
11
33.5353
21
-62.9143
0
LINE
8
Black
10
33.5353
20
-62.9143
11
33.5674
21
-62.9143
0
LINE
8
Black
10
33.5674
20
-62.9143
11
33.5783
21
-62.9183
0
LINE
8
Black
10
33.5783
20
-62.9183
11
33.5898
21
-62.9194
0
LINE
8
Black
10
33.5898
20
-62.9194
11
33.6188
21
-62.9331
0
LINE
8
Black
10
33.6188
20
-62.9331
11
33.649
21
-62.944
0
LINE
8
Black
10
33.649
20
-62.944
11
33.6579
21
-62.9515
0
LINE
8
Black
10
33.6579
20
-62.9515
11
33.6683
21
-62.9564
0
LINE
8
Black
10
33.6683
20
-62.9564
11
33.6941
21
-62.9747
0
LINE
8
Black
10
33.6941
20
-62.9747
11
33.7219
21
-62.9469
0
LINE
8
Black
10
33.7219
20
-62.9469
11
33.6679
21
-62.8825
0
LINE
8
Black
10
33.6679
20
-62.8825
11
33.5129
21
-62.4566
0
LINE
8
Black
10
33.5129
20
-62.4566
11
33.5129
21
-62.0034
0
LINE
8
Black
10
33.5129
20
-62.0034
11
33.6679
21
-61.5775
0
LINE
8
Black
10
33.6679
20
-61.5775
11
33.7219
21
-61.5131
0
LINE
8
Black
10
33.7219
20
-61.5131
11
33.6941
21
-61.4853
0
LINE
8
Black
10
33.6941
20
-61.4853
11
33.6683
21
-61.5036
0
LINE
8
Black
10
33.6683
20
-61.5036
11
33.6579
21
-61.5085
0
LINE
8
Black
10
33.6579
20
-61.5085
11
33.649
21
-61.516
0
LINE
8
Black
10
33.649
20
-61.516
11
33.6188
21
-61.5269
0
LINE
8
Black
10
33.6188
20
-61.5269
11
33.5898
21
-61.5406
0
LINE
8
Black
10
33.5898
20
-61.5406
11
33.5783
21
-61.5417
0
LINE
8
Black
10
33.5783
20
-61.5417
11
33.5674
21
-61.5457
0
LINE
8
Black
10
33.5674
20
-61.5457
11
33.5353
21
-61.5457
0
LINE
8
Black
10
33.5353
20
-61.5457
11
33.5034
21
-61.5486
0
LINE
8
Black
10
33.5034
20
-61.5486
11
33.4922
21
-61.5457
0
LINE
8
Black
10
33.4922
20
-61.5457
11
33.4806
21
-61.5457
0
LINE
8
Black
10
33.4806
20
-61.5457
11
33.4504
21
-61.5347
0
LINE
8
Black
10
33.4504
20
-61.5347
11
33.4194
21
-61.5265
0
LINE
8
Black
10
33.4194
20
-61.5265
11
33.4099
21
-61.5199
0
LINE
8
Black
10
33.4099
20
-61.5199
11
33.399
21
-61.516
0
LINE
8
Black
10
33.399
20
-61.516
11
33.3744
21
-61.4953
0
LINE
8
Black
10
33.3744
20
-61.4953
11
33.348
21
-61.477
0
LINE
8
Black
10
33.348
20
-61.477
11
33.3414
21
-61.4676
0
LINE
8
Black
10
33.3414
20
-61.4676
11
33.3325
21
-61.4601
0
LINE
8
Black
10
33.3325
20
-61.4601
11
33.3164
21
-61.4324
0
LINE
8
Black
10
33.3164
20
-61.4324
11
33.2979
21
-61.4061
0
LINE
8
Black
10
33.2979
20
-61.4061
11
33.2949
21
-61.395
0
LINE
8
Black
10
33.2949
20
-61.395
11
33.2891
21
-61.385
0
LINE
8
Black
10
33.2891
20
-61.385
11
33.2835
21
-61.3533
0
LINE
8
Black
10
33.2835
20
-61.3533
11
33.2751
21
-61.3224
0
LINE
8
Black
10
33.2751
20
-61.3224
11
33.276
21
-61.3108
0
LINE
8
Black
10
33.276
20
-61.3108
11
33.274
21
-61.2995
0
LINE
8
Black
10
33.274
20
-61.2995
11
33.274
21
-61.1539
0
LINE
8
Black
10
33.274
20
-61.1539
11
33.274
21
-60.0374
0
LINE
8
Black
10
33.274
20
-60.0374
11
33.274
21
-58.2261
0
LINE
8
Black
10
33.274
20
-58.2261
11
33.274
21
-58.0805
0
LINE
8
Black
10
33.274
20
-58.0805
11
33.276
21
-58.0692
0
LINE
8
Black
10
33.276
20
-58.0692
11
33.2751
21
-58.0576
0
LINE
8
Black
10
33.2751
20
-58.0576
11
33.2835
21
-58.0267
0
LINE
8
Black
10
33.2835
20
-58.0267
11
33.2891
21
-57.995
0
LINE
8
Black
10
33.2891
20
-57.995
11
33.2949
21
-57.985
0
LINE
8
Black
10
33.2949
20
-57.985
11
33.2979
21
-57.9739
0
LINE
8
Black
10
33.2979
20
-57.9739
11
33.3164
21
-57.9476
0
LINE
8
Black
10
33.3164
20
-57.9476
11
33.3325
21
-57.9199
0
LINE
8
Black
10
33.3325
20
-57.9199
11
33.3414
21
-57.9124
0
LINE
8
Black
10
33.3414
20
-57.9124
11
33.348
21
-57.903
0
LINE
8
Black
10
33.348
20
-57.903
11
33.3744
21
-57.8847
0
LINE
8
Black
10
33.3744
20
-57.8847
11
33.399
21
-57.864
0
LINE
8
Black
10
33.399
20
-57.864
11
33.4099
21
-57.8601
0
LINE
8
Black
10
33.4099
20
-57.8601
11
33.4194
21
-57.8535
0
LINE
8
Black
10
33.4194
20
-57.8535
11
33.4504
21
-57.8453
0
LINE
8
Black
10
33.4504
20
-57.8453
11
33.4806
21
-57.8343
0
LINE
8
Black
10
33.4806
20
-57.8343
11
33.4922
21
-57.8343
0
LINE
8
Black
10
33.4922
20
-57.8343
11
33.5034
21
-57.8314
0
LINE
8
Black
10
33.5034
20
-57.8314
11
33.5353
21
-57.8343
0
LINE
8
Black
10
33.5353
20
-57.8343
11
33.5674
21
-57.8343
0
LINE
8
Black
10
33.5674
20
-57.8343
11
33.5783
21
-57.8383
0
LINE
8
Black
10
33.5783
20
-57.8383
11
33.5898
21
-57.8394
0
LINE
8
Black
10
33.5898
20
-57.8394
11
33.6188
21
-57.8531
0
LINE
8
Black
10
33.6188
20
-57.8531
11
33.649
21
-57.864
0
LINE
8
Black
10
33.649
20
-57.864
11
33.6579
21
-57.8715
0
LINE
8
Black
10
33.6579
20
-57.8715
11
33.6683
21
-57.8764
0
LINE
8
Black
10
33.6683
20
-57.8764
11
33.6941
21
-57.8947
0
LINE
8
Black
10
33.6941
20
-57.8947
11
33.7219
21
-57.8669
0
LINE
8
Black
10
33.7219
20
-57.8669
11
33.6679
21
-57.8025
0
LINE
8
Black
10
33.6679
20
-57.8025
11
33.5129
21
-57.3766
0
LINE
8
Black
10
33.5129
20
-57.3766
11
33.5129
21
-56.9234
0
LINE
8
Black
10
33.5129
20
-56.9234
11
33.6679
21
-56.4975
0
LINE
8
Black
10
33.6679
20
-56.4975
11
33.7219
21
-56.4331
0
LINE
8
Black
10
33.7219
20
-56.4331
11
33.6941
21
-56.4053
0
LINE
8
Black
10
33.6941
20
-56.4053
11
33.6683
21
-56.4236
0
LINE
8
Black
10
33.6683
20
-56.4236
11
33.6579
21
-56.4285
0
LINE
8
Black
10
33.6579
20
-56.4285
11
33.649
21
-56.436
0
LINE
8
Black
10
33.649
20
-56.436
11
33.6188
21
-56.4469
0
LINE
8
Black
10
33.6188
20
-56.4469
11
33.5898
21
-56.4606
0
LINE
8
Black
10
33.5898
20
-56.4606
11
33.5783
21
-56.4617
0
LINE
8
Black
10
33.5783
20
-56.4617
11
33.5674
21
-56.4657
0
LINE
8
Black
10
33.5674
20
-56.4657
11
33.5353
21
-56.4657
0
LINE
8
Black
10
33.5353
20
-56.4657
11
33.5034
21
-56.4686
0
LINE
8
Black
10
33.5034
20
-56.4686
11
33.4922
21
-56.4657
0
LINE
8
Black
10
33.4922
20
-56.4657
11
33.4806
21
-56.4657
0
LINE
8
Black
10
33.4806
20
-56.4657
11
33.4504
21
-56.4547
0
LINE
8
Black
10
33.4504
20
-56.4547
11
33.4194
21
-56.4465
0
LINE
8
Black
10
33.4194
20
-56.4465
11
33.4099
21
-56.4399
0
LINE
8
Black
10
33.4099
20
-56.4399
11
33.399
21
-56.436
0
LINE
8
Black
10
33.399
20
-56.436
11
33.3744
21
-56.4153
0
LINE
8
Black
10
33.3744
20
-56.4153
11
33.348
21
-56.397
0
LINE
8
Black
10
33.348
20
-56.397
11
33.3414
21
-56.3876
0
LINE
8
Black
10
33.3414
20
-56.3876
11
33.3325
21
-56.3801
0
LINE
8
Black
10
33.3325
20
-56.3801
11
33.3164
21
-56.3524
0
LINE
8
Black
10
33.3164
20
-56.3524
11
33.2979
21
-56.3261
0
LINE
8
Black
10
33.2979
20
-56.3261
11
33.2949
21
-56.315
0
LINE
8
Black
10
33.2949
20
-56.315
11
33.2891
21
-56.305
0
LINE
8
Black
10
33.2891
20
-56.305
11
33.2835
21
-56.2733
0
LINE
8
Black
10
33.2835
20
-56.2733
11
33.2751
21
-56.2424
0
LINE
8
Black
10
33.2751
20
-56.2424
11
33.276
21
-56.2308
0
LINE
8
Black
10
33.276
20
-56.2308
11
33.274
21
-56.2195
0
LINE
8
Black
10
33.274
20
-56.2195
11
33.274
21
-56.0739
0
LINE
8
Black
10
33.274
20
-56.0739
11
33.274
21
-54.0072
0
LINE
8
Black
10
33.274
20
-54.0072
11
33.274
21
-48.5462
0
LINE
8
Black
10
33.274
20
-48.5462
11
33.274
21
-46.482
0
LINE
8
Black
10
33.274
20
-46.482
11
33.274
21
-29.333
0
LINE
8
Black
10
33.274
20
-29.333
11
33.2778
21
-29.3115
0
LINE
8
Black
10
33.2778
20
-29.3115
11
33.2778
21
-29.2896
0
LINE
8
Black
10
33.2778
20
-29.2896
11
33.2853
21
-29.269
0
LINE
8
Black
10
33.2853
20
-29.269
11
33.2891
21
-29.2475
0
LINE
8
Black
10
33.2891
20
-29.2475
11
33.3
21
-29.2286
0
LINE
8
Black
10
33.3
20
-29.2286
11
33.3075
21
-29.208
0
LINE
8
Black
10
33.3075
20
-29.208
11
33.3216
21
-29.1912
0
LINE
8
Black
10
33.3216
20
-29.1912
11
33.3325
21
-29.1723
0
LINE
8
Black
10
33.3325
20
-29.1723
11
33.3492
21
-29.1582
0
LINE
8
Black
10
33.3492
20
-29.1582
11
33.3633
21
-29.1415
0
LINE
8
Black
10
33.3633
20
-29.1415
11
33.3822
21
-29.1306
0
LINE
8
Black
10
33.3822
20
-29.1306
11
33.399
21
-29.1165
0
LINE
8
Black
10
33.399
20
-29.1165
11
33.4196
21
-29.109
0
LINE
8
Black
10
33.4196
20
-29.109
11
33.4385
21
-29.0981
0
LINE
8
Black
10
33.4385
20
-29.0981
11
33.46
21
-29.0943
0
LINE
8
Black
10
33.46
20
-29.0943
11
33.4806
21
-29.0868
0
LINE
8
Black
10
33.4806
20
-29.0868
11
33.5025
21
-29.0868
0
LINE
8
Black
10
33.5025
20
-29.0868
11
33.524
21
-29.083
0
LINE
8
Black
10
33.524
20
-29.083
11
98.048
21
-29.083
0
LINE
8
Black
10
98.048
20
-29.083
11
98.0695
21
-29.0868
0
LINE
8
Black
10
34.8172
20
-63.5316
11
35.0087
21
-63.5386
0
LINE
8
Black
10
35.0087
20
-63.5386
11
35.2174
21
-63.461
0
LINE
8
Black
10
35.2174
20
-63.461
11
34.8172
21
-63.5316
0
LINE
8
Black
10
39.8972
20
-63.5316
11
40.0887
21
-63.5386
0
LINE
8
Black
10
40.0887
20
-63.5386
11
40.2974
21
-63.461
0
LINE
8
Black
10
40.2974
20
-63.461
11
39.8972
21
-63.5316
0
LINE
8
Black
10
34.4918
20
-63.5196
11
34.7687
21
-63.5298
0
LINE
8
Black
10
34.7687
20
-63.5298
11
34.3546
21
-63.4568
0
LINE
8
Black
10
34.3546
20
-63.4568
11
34.4918
21
-63.5196
0
LINE
8
Black
10
39.5718
20
-63.5196
11
39.8487
21
-63.5298
0
LINE
8
Black
10
39.8487
20
-63.5298
11
39.4346
21
-63.4568
0
LINE
8
Black
10
39.4346
20
-63.4568
11
39.5718
21
-63.5196
0
LINE
8
Black
10
34.0637
20
-63.3235
11
34.3447
21
-63.4523
0
LINE
8
Black
10
34.3447
20
-63.4523
11
34.0849
21
-63.3023
0
LINE
8
Black
10
34.0849
20
-63.3023
11
34.0637
21
-63.3235
0
LINE
8
Black
10
39.1437
20
-63.3235
11
39.4247
21
-63.4523
0
LINE
8
Black
10
39.4247
20
-63.4523
11
39.1649
21
-63.3023
0
LINE
8
Black
10
39.1649
20
-63.3023
11
39.1437
21
-63.3235
0
LINE
8
Black
10
35.2699
20
-63.4415
11
35.5126
21
-63.3513
0
LINE
8
Black
10
35.5126
20
-63.3513
11
35.541
21
-63.3323
0
LINE
8
Black
10
35.541
20
-63.3323
11
35.5111
21
-63.3023
0
LINE
8
Black
10
35.5111
20
-63.3023
11
35.2699
21
-63.4415
0
LINE
8
Black
10
40.3499
20
-63.4415
11
40.5926
21
-63.3513
0
LINE
8
Black
10
40.5926
20
-63.3513
11
40.621
21
-63.3323
0
LINE
8
Black
10
40.621
20
-63.3323
11
40.5911
21
-63.3023
0
LINE
8
Black
10
40.5911
20
-63.3023
11
40.3499
21
-63.4415
0
LINE
8
Black
10
38.5884
20
-61.9238
11
38.5694
21
-62.4407
0
LINE
8
Black
10
38.5694
20
-62.4407
11
38.7567
21
-62.9446
0
LINE
8
Black
10
38.7567
20
-62.9446
11
38.7757
21
-62.973
0
LINE
8
Black
10
38.7757
20
-62.973
11
38.8019
21
-62.9469
0
LINE
8
Black
10
38.8019
20
-62.9469
11
38.7479
21
-62.8825
0
LINE
8
Black
10
38.7479
20
-62.8825
11
38.5929
21
-62.4566
0
LINE
8
Black
10
38.5929
20
-62.4566
11
38.5929
21
-62.0034
0
LINE
8
Black
10
38.5929
20
-62.0034
11
38.7479
21
-61.5775
0
LINE
8
Black
10
38.7479
20
-61.5775
11
38.8019
21
-61.5131
0
LINE
8
Black
10
38.8019
20
-61.5131
11
38.7845
21
-61.4957
0
LINE
8
Black
10
38.7845
20
-61.4957
11
38.5884
21
-61.9238
0
LINE
8
Black
10
35.8741
20
-61.5131
11
35.9281
21
-61.5775
0
LINE
8
Black
10
35.9281
20
-61.5775
11
36.0831
21
-62.0034
0
LINE
8
Black
10
36.0831
20
-62.0034
11
36.0831
21
-62.4566
0
LINE
8
Black
10
36.0831
20
-62.4566
11
35.9281
21
-62.8825
0
LINE
8
Black
10
35.9281
20
-62.8825
11
35.8741
21
-62.9469
0
LINE
8
Black
10
35.8741
20
-62.9469
11
35.8915
21
-62.9643
0
LINE
8
Black
10
35.8915
20
-62.9643
11
36.0876
21
-62.5362
0
LINE
8
Black
10
36.0876
20
-62.5362
11
36.09
21
-62.472
0
LINE
8
Black
10
36.09
20
-62.472
11
36.1066
21
-62.0193
0
LINE
8
Black
10
36.1066
20
-62.0193
11
35.9193
21
-61.5154
0
LINE
8
Black
10
35.9193
20
-61.5154
11
35.9002
21
-61.487
0
LINE
8
Black
10
35.9002
20
-61.487
11
35.8741
21
-61.5131
0
LINE
8
Black
10
40.9541
20
-61.5131
11
41.0081
21
-61.5775
0
LINE
8
Black
10
41.0081
20
-61.5775
11
41.1631
21
-62.0034
0
LINE
8
Black
10
41.1631
20
-62.0034
11
41.1631
21
-62.4566
0
LINE
8
Black
10
41.1631
20
-62.4566
11
41.0081
21
-62.8825
0
LINE
8
Black
10
41.0081
20
-62.8825
11
40.9541
21
-62.9469
0
LINE
8
Black
10
40.9541
20
-62.9469
11
40.9715
21
-62.9643
0
LINE
8
Black
10
40.9715
20
-62.9643
11
41.1676
21
-62.5362
0
LINE
8
Black
10
41.1676
20
-62.5362
11
41.1866
21
-62.0193
0
LINE
8
Black
10
41.1866
20
-62.0193
11
41.1739
21
-61.9851
0
LINE
8
Black
10
41.1739
20
-61.9851
11
41.1739
21
-61.9851
0
LINE
8
Black
10
41.1739
20
-61.9851
11
41.043
21
-61.6331
0
LINE
8
Black
10
41.043
20
-61.6331
11
40.9993
21
-61.5154
0
LINE
8
Black
10
40.9993
20
-61.5154
11
40.9802
21
-61.487
0
LINE
8
Black
10
40.9802
20
-61.487
11
40.9541
21
-61.5131
0
LINE
8
Black
10
83.2142
20
-62.4536
11
83.2482
21
-62.441
0
LINE
8
Black
10
83.2482
20
-62.441
11
83.2678
21
-62.4227
0
LINE
8
Black
10
83.2678
20
-62.4227
11
83.2142
21
-62.4536
0
LINE
8
Black
10
82.3598
20
-62.441
11
82.3938
21
-62.4536
0
LINE
8
Black
10
82.3938
20
-62.4536
11
82.3402
21
-62.4227
0
LINE
8
Black
10
82.3402
20
-62.4227
11
82.3598
21
-62.441
0
LINE
8
Black
10
82.1185
20
-62.2162
11
82.1379
21
-62.2343
0
LINE
8
Black
10
82.1379
20
-62.2343
11
82.1134
21
-62.2052
0
LINE
8
Black
10
82.1134
20
-62.2052
11
82.1185
21
-62.2162
0
LINE
8
Black
10
83.4701
20
-62.2343
11
83.4895
21
-62.2162
0
LINE
8
Black
10
83.4895
20
-62.2162
11
83.4946
21
-62.2052
0
LINE
8
Black
10
83.4946
20
-62.2052
11
83.4701
21
-62.2343
0
LINE
8
Black
10
82.1185
20
-61.2278
11
82.1134
21
-61.2388
0
LINE
8
Black
10
82.1134
20
-61.2388
11
82.1379
21
-61.2097
0
LINE
8
Black
10
82.1379
20
-61.2097
11
82.1185
21
-61.2278
0
LINE
8
Black
10
83.4946
20
-61.2388
11
83.4895
21
-61.2278
0
LINE
8
Black
10
83.4895
20
-61.2278
11
83.4701
21
-61.2097
0
LINE
8
Black
10
83.4701
20
-61.2097
11
83.4946
21
-61.2388
0
LINE
8
Black
10
36.4872
20
-58.4142
11
36.0637
21
-58.8369
0
LINE
8
Black
10
36.0637
20
-58.8369
11
35.8343
21
-59.3895
0
LINE
8
Black
10
35.8343
20
-59.3895
11
35.8337
21
-59.9879
0
LINE
8
Black
10
35.8337
20
-59.9879
11
36.0622
21
-60.5408
0
LINE
8
Black
10
36.0622
20
-60.5408
11
36.4849
21
-60.9643
0
LINE
8
Black
10
36.4849
20
-60.9643
11
37.0375
21
-61.1937
0
LINE
8
Black
10
37.0375
20
-61.1937
11
37.6359
21
-61.1943
0
LINE
8
Black
10
37.6359
20
-61.1943
11
38.1888
21
-60.9658
0
LINE
8
Black
10
38.1888
20
-60.9658
11
38.6123
21
-60.5431
0
LINE
8
Black
10
38.6123
20
-60.5431
11
38.8417
21
-59.9905
0
LINE
8
Black
10
38.8417
20
-59.9905
11
38.8423
21
-59.3921
0
LINE
8
Black
10
38.8423
20
-59.3921
11
38.6138
21
-58.8392
0
LINE
8
Black
10
38.6138
20
-58.8392
11
38.1911
21
-58.4157
0
LINE
8
Black
10
38.1911
20
-58.4157
11
37.6385
21
-58.1863
0
LINE
8
Black
10
37.6385
20
-58.1863
11
37.0401
21
-58.1857
0
LINE
8
Black
10
37.0401
20
-58.1857
11
36.4872
21
-58.4142
0
LINE
8
Black
10
35.5111
20
-61.1577
11
35.5323
21
-61.1365
0
LINE
8
Black
10
35.5323
20
-61.1365
11
35.2513
21
-61.0077
0
LINE
8
Black
10
35.2513
20
-61.0077
11
35.5111
21
-61.1577
0
LINE
8
Black
10
40.5911
20
-61.1577
11
40.6123
21
-61.1365
0
LINE
8
Black
10
40.6123
20
-61.1365
11
40.3313
21
-61.0077
0
LINE
8
Black
10
40.3313
20
-61.0077
11
40.5911
21
-61.1577
0
LINE
8
Black
10
34.0834
20
-61.1087
11
34.055
21
-61.1277
0
LINE
8
Black
10
34.055
20
-61.1277
11
34.0849
21
-61.1577
0
LINE
8
Black
10
34.0849
20
-61.1577
11
34.3261
21
-61.0185
0
LINE
8
Black
10
34.3261
20
-61.0185
11
34.0834
21
-61.1087
0
LINE
8
Black
10
39.1634
20
-61.1087
11
39.135
21
-61.1277
0
LINE
8
Black
10
39.135
20
-61.1277
11
39.1649
21
-61.1577
0
LINE
8
Black
10
39.1649
20
-61.1577
11
39.4061
21
-61.0185
0
LINE
8
Black
10
39.4061
20
-61.0185
11
39.1634
21
-61.1087
0
LINE
8
Black
10
82.3598
20
-61.003
11
82.3402
21
-61.0213
0
LINE
8
Black
10
82.3402
20
-61.0213
11
82.3938
21
-60.9904
0
LINE
8
Black
10
82.3938
20
-60.9904
11
82.3598
21
-61.003
0
LINE
8
Black
10
83.2678
20
-61.0213
11
83.2482
21
-61.003
0
LINE
8
Black
10
83.2482
20
-61.003
11
83.2142
21
-60.9904
0
LINE
8
Black
10
83.2142
20
-60.9904
11
83.2678
21
-61.0213
0
LINE
8
Black
10
35.2414
20
-61.0032
11
35.1042
21
-60.9404
0
LINE
8
Black
10
35.1042
20
-60.9404
11
34.8273
21
-60.9302
0
LINE
8
Black
10
34.8273
20
-60.9302
11
35.2414
21
-61.0032
0
LINE
8
Black
10
40.3214
20
-61.0032
11
40.1842
21
-60.9404
0
LINE
8
Black
10
40.1842
20
-60.9404
11
39.9073
21
-60.9302
0
LINE
8
Black
10
39.9073
20
-60.9302
11
40.3214
21
-61.0032
0
LINE
8
Black
10
34.3786
20
-60.999
11
34.7788
21
-60.9284
0
LINE
8
Black
10
34.7788
20
-60.9284
11
34.5873
21
-60.9214
0
LINE
8
Black
10
34.5873
20
-60.9214
11
34.3786
21
-60.999
0
LINE
8
Black
10
39.4586
20
-60.999
11
39.8588
21
-60.9284
0
LINE
8
Black
10
39.8588
20
-60.9284
11
39.6673
21
-60.9214
0
LINE
8
Black
10
39.6673
20
-60.9214
11
39.4586
21
-60.999
0
LINE
8
Black
10
53.3646
20
-57.15
11
53.1475
21
-57.1932
0
LINE
8
Black
10
53.1475
20
-57.1932
11
53.0917
21
-57.2304
0
LINE
8
Black
10
53.0917
20
-57.2304
11
53.0692
21
-57.2404
0
LINE
8
Black
10
53.0692
20
-57.2404
11
53.0483
21
-57.2536
0
LINE
8
Black
10
53.0483
20
-57.2536
11
52.8996
21
-57.3151
0
LINE
8
Black
10
52.8996
20
-57.3151
11
52.7436
21
-57.4708
0
LINE
8
Black
10
52.7436
20
-57.4708
11
52.6591
21
-57.6743
0
LINE
8
Black
10
52.6591
20
-57.6743
11
52.6589
21
-57.8947
0
LINE
8
Black
10
52.6589
20
-57.8947
11
52.7431
21
-58.0984
0
LINE
8
Black
10
52.7431
20
-58.0984
11
52.8988
21
-58.2544
0
LINE
8
Black
10
52.8988
20
-58.2544
11
53.1023
21
-58.3389
0
LINE
8
Black
10
53.1023
20
-58.3389
11
53.3227
21
-58.3391
0
LINE
8
Black
10
53.3227
20
-58.3391
11
53.5264
21
-58.2549
0
LINE
8
Black
10
53.5264
20
-58.2549
11
53.5423
21
-58.2391
0
LINE
8
Black
10
53.5423
20
-58.2391
11
53.5512
21
-58.2328
0
LINE
8
Black
10
53.5512
20
-58.2328
11
53.5582
21
-58.2245
0
LINE
8
Black
10
53.5582
20
-58.2245
11
53.5866
21
-58.2081
0
LINE
8
Black
10
53.5866
20
-58.2081
11
53.6135
21
-58.1893
0
LINE
8
Black
10
53.6135
20
-58.1893
11
53.624
21
-58.1865
0
LINE
8
Black
10
53.624
20
-58.1865
11
53.6334
21
-58.1811
0
LINE
8
Black
10
53.6334
20
-58.1811
11
53.6657
21
-58.1754
0
LINE
8
Black
10
53.6657
20
-58.1754
11
53.6973
21
-58.1669
0
LINE
8
Black
10
53.6973
20
-58.1669
11
53.7082
21
-58.1679
0
LINE
8
Black
10
53.7082
20
-58.1679
11
53.7189
21
-58.166
0
LINE
8
Black
10
53.7189
20
-58.166
11
56.328
21
-58.166
0
LINE
8
Black
10
56.328
20
-58.166
11
56.3389
21
-58.1679
0
LINE
8
Black
10
56.3389
20
-58.1679
11
56.3498
21
-58.167
0
LINE
8
Black
10
56.3498
20
-58.167
11
56.3814
21
-58.1754
0
LINE
8
Black
10
56.3814
20
-58.1754
11
56.4135
21
-58.1811
0
LINE
8
Black
10
56.4135
20
-58.1811
11
56.4231
21
-58.1866
0
LINE
8
Black
10
56.4231
20
-58.1866
11
56.4337
21
-58.1894
0
LINE
8
Black
10
56.4337
20
-58.1894
11
56.4604
21
-58.2082
0
LINE
8
Black
10
56.4604
20
-58.2082
11
56.4887
21
-58.2245
0
LINE
8
Black
10
56.4887
20
-58.2245
11
56.4958
21
-58.2329
0
LINE
8
Black
10
56.4958
20
-58.2329
11
56.5048
21
-58.2392
0
LINE
8
Black
10
56.5048
20
-58.2392
11
58.9324
21
-60.6668
0
LINE
8
Black
10
58.9324
20
-60.6668
11
59.1165
21
-60.7898
0
LINE
8
Black
10
59.1165
20
-60.7898
11
59.3336
21
-60.833
0
LINE
8
Black
10
59.3336
20
-60.833
11
71.3569
21
-60.833
0
LINE
8
Black
10
71.3569
20
-60.833
11
71.3625
21
-60.834
0
LINE
8
Black
10
71.3625
20
-60.834
11
71.3681
21
-60.8332
0
LINE
8
Black
10
71.3681
20
-60.8332
11
71.4051
21
-60.8415
0
LINE
8
Black
10
71.4051
20
-60.8415
11
71.4424
21
-60.8481
0
LINE
8
Black
10
71.4424
20
-60.8481
11
71.4473
21
-60.8509
0
LINE
8
Black
10
71.4473
20
-60.8509
11
71.4528
21
-60.8521
0
LINE
8
Black
10
71.4528
20
-60.8521
11
71.5173
21
-60.8789
0
LINE
8
Black
10
71.5173
20
-60.8789
11
71.7377
21
-60.8791
0
LINE
8
Black
10
71.7377
20
-60.8791
11
71.9414
21
-60.7949
0
LINE
8
Black
10
71.9414
20
-60.7949
11
72.0974
21
-60.6392
0
LINE
8
Black
10
72.0974
20
-60.6392
11
72.1819
21
-60.4357
0
LINE
8
Black
10
72.1819
20
-60.4357
11
72.1821
21
-60.2153
0
LINE
8
Black
10
72.1821
20
-60.2153
11
72.0979
21
-60.0116
0
LINE
8
Black
10
72.0979
20
-60.0116
11
71.9422
21
-59.8556
0
LINE
8
Black
10
71.9422
20
-59.8556
11
71.7387
21
-59.7711
0
LINE
8
Black
10
71.7387
20
-59.7711
11
71.5183
21
-59.7709
0
LINE
8
Black
10
71.5183
20
-59.7709
11
71.4526
21
-59.7981
0
LINE
8
Black
10
71.4526
20
-59.7981
11
71.4473
21
-59.7992
0
LINE
8
Black
10
71.4473
20
-59.7992
11
71.4426
21
-59.8019
0
LINE
8
Black
10
71.4426
20
-59.8019
11
71.405
21
-59.8085
0
LINE
8
Black
10
71.405
20
-59.8085
11
71.3678
21
-59.8168
0
LINE
8
Black
10
71.3678
20
-59.8168
11
71.3624
21
-59.8161
0
LINE
8
Black
10
71.3624
20
-59.8161
11
71.3571
21
-59.817
0
LINE
8
Black
10
71.3571
20
-59.817
11
59.623
21
-59.817
0
LINE
8
Black
10
59.623
20
-59.817
11
59.6121
21
-59.8151
0
LINE
8
Black
10
59.6121
20
-59.8151
11
59.6012
21
-59.816
0
LINE
8
Black
10
59.6012
20
-59.816
11
59.5696
21
-59.8076
0
LINE
8
Black
10
59.5696
20
-59.8076
11
59.5375
21
-59.8019
0
LINE
8
Black
10
59.5375
20
-59.8019
11
59.5279
21
-59.7964
0
LINE
8
Black
10
59.5279
20
-59.7964
11
59.5173
21
-59.7936
0
LINE
8
Black
10
59.5173
20
-59.7936
11
59.4906
21
-59.7748
0
LINE
8
Black
10
59.4906
20
-59.7748
11
59.4623
21
-59.7585
0
LINE
8
Black
10
59.4623
20
-59.7585
11
59.4552
21
-59.7501
0
LINE
8
Black
10
59.4552
20
-59.7501
11
59.4462
21
-59.7438
0
LINE
8
Black
10
59.4462
20
-59.7438
11
58.5854
21
-58.883
0
LINE
8
Black
10
58.5854
20
-58.883
11
58.5854
21
-58.883
0
LINE
8
Black
10
58.5854
20
-58.883
11
57.0186
21
-57.3162
0
LINE
8
Black
10
57.0186
20
-57.3162
11
56.8345
21
-57.1932
0
LINE
8
Black
10
56.8345
20
-57.1932
11
56.6174
21
-57.15
0
LINE
8
Black
10
56.6174
20
-57.15
11
53.3646
21
-57.15
0
LINE
8
Black
10
81.9773
20
-42.8281
11
81.8614
21
-42.8499
0
LINE
8
Black
10
81.8614
20
-42.8499
11
81.7735
21
-42.9065
0
LINE
8
Black
10
81.7735
20
-42.9065
11
81.7156
21
-42.9913
0
LINE
8
Black
10
81.7156
20
-42.9913
11
81.6901
21
-43.1171
0
LINE
8
Black
10
81.6901
20
-43.1171
11
81.6901
21
-44.7687
0
LINE
8
Black
10
81.6901
20
-44.7687
11
81.7119
21
-44.8846
0
LINE
8
Black
10
81.7119
20
-44.8846
11
81.7685
21
-44.9725
0
LINE
8
Black
10
81.7685
20
-44.9725
11
81.8533
21
-45.0304
0
LINE
8
Black
10
81.8533
20
-45.0304
11
81.9791
21
-45.0559
0
LINE
8
Black
10
81.9791
20
-45.0559
11
82.1474
21
-45.0559
0
LINE
8
Black
10
82.1474
20
-45.0559
11
82.1609
21
-45.0583
0
LINE
8
Black
10
82.1609
20
-45.0583
11
82.1746
21
-45.0574
0
LINE
8
Black
10
82.1746
20
-45.0574
11
82.2034
21
-45.0657
0
LINE
8
Black
10
82.2034
20
-45.0657
11
82.2329
21
-45.0709
0
LINE
8
Black
10
82.2329
20
-45.0709
11
82.2448
21
-45.0778
0
LINE
8
Black
10
82.2448
20
-45.0778
11
82.2579
21
-45.0817
0
LINE
8
Black
10
82.2579
20
-45.0817
11
82.2821
21
-45.0994
0
LINE
8
Black
10
82.2821
20
-45.0994
11
82.3081
21
-45.1144
0
LINE
8
Black
10
82.3081
20
-45.1144
11
82.3169
21
-45.1249
0
LINE
8
Black
10
82.3169
20
-45.1249
11
82.328
21
-45.133
0
LINE
8
Black
10
82.328
20
-45.133
11
82.3446
21
-45.1579
0
LINE
8
Black
10
82.3446
20
-45.1579
11
82.3639
21
-45.1809
0
LINE
8
Black
10
82.3639
20
-45.1809
11
82.3686
21
-45.1938
0
LINE
8
Black
10
82.3686
20
-45.1938
11
82.3762
21
-45.2052
0
LINE
8
Black
10
82.3762
20
-45.2052
11
82.3833
21
-45.2343
0
LINE
8
Black
10
82.3833
20
-45.2343
11
82.3936
21
-45.2625
0
LINE
8
Black
10
82.3936
20
-45.2625
11
82.3936
21
-45.2762
0
LINE
8
Black
10
82.3936
20
-45.2762
11
82.3968
21
-45.2895
0
LINE
8
Black
10
82.3968
20
-45.2895
11
82.3936
21
-45.3193
0
LINE
8
Black
10
82.3936
20
-45.3193
11
82.3936
21
-45.3493
0
LINE
8
Black
10
82.3936
20
-45.3493
11
82.3889
21
-45.3622
0
LINE
8
Black
10
82.3889
20
-45.3622
11
82.3874
21
-45.3758
0
LINE
8
Black
10
82.3874
20
-45.3758
11
82.3741
21
-45.4027
0
LINE
8
Black
10
82.3741
20
-45.4027
11
82.3639
21
-45.4309
0
LINE
8
Black
10
82.3639
20
-45.4309
11
82.355
21
-45.4414
0
LINE
8
Black
10
82.355
20
-45.4414
11
82.349
21
-45.4537
0
LINE
8
Black
10
82.349
20
-45.4537
11
82.3273
21
-45.4744
0
LINE
8
Black
10
82.3273
20
-45.4744
11
82.3081
21
-45.4974
0
LINE
8
Black
10
82.3081
20
-45.4974
11
82.2962
21
-45.5042
0
LINE
8
Black
10
82.2962
20
-45.5042
11
82.2863
21
-45.5137
0
LINE
8
Black
10
82.2863
20
-45.5137
11
82.0003
21
-45.7048
0
LINE
8
Black
10
82.0003
20
-45.7048
11
81.762
21
-46.0614
0
LINE
8
Black
10
81.762
20
-46.0614
11
81.6784
21
-46.482
0
LINE
8
Black
10
81.6784
20
-46.482
11
81.762
21
-46.9026
0
LINE
8
Black
10
81.762
20
-46.9026
11
82.0003
21
-47.2592
0
LINE
8
Black
10
82.0003
20
-47.2592
11
82.3569
21
-47.4974
0
LINE
8
Black
10
82.3569
20
-47.4974
11
82.4039
21
-47.5068
0
LINE
8
Black
10
82.4039
20
-47.5068
11
82.4394
21
-47.5206
0
LINE
8
Black
10
82.4394
20
-47.5206
11
82.4754
21
-47.5328
0
LINE
8
Black
10
82.4754
20
-47.5328
11
82.4797
21
-47.5363
0
LINE
8
Black
10
82.4797
20
-47.5363
11
82.4849
21
-47.5383
0
LINE
8
Black
10
82.4849
20
-47.5383
11
82.5135
21
-47.5633
0
LINE
8
Black
10
82.5135
20
-47.5633
11
82.5431
21
-47.5872
0
LINE
8
Black
10
82.5431
20
-47.5872
11
82.546
21
-47.5919
0
LINE
8
Black
10
82.546
20
-47.5919
11
82.5501
21
-47.5955
0
LINE
8
Black
10
82.5501
20
-47.5955
11
82.5684
21
-47.6289
0
LINE
8
Black
10
82.5684
20
-47.6289
11
82.5882
21
-47.6614
0
LINE
8
Black
10
82.5882
20
-47.6614
11
82.5893
21
-47.6668
0
LINE
8
Black
10
82.5893
20
-47.6668
11
82.5919
21
-47.6716
0
LINE
8
Black
10
82.5919
20
-47.6716
11
82.5977
21
-47.7092
0
LINE
8
Black
10
82.5977
20
-47.7092
11
82.6051
21
-47.7465
0
LINE
8
Black
10
82.6051
20
-47.7465
11
82.6043
21
-47.752
0
LINE
8
Black
10
82.6043
20
-47.752
11
82.6051
21
-47.7575
0
LINE
8
Black
10
82.6051
20
-47.7575
11
82.5977
21
-47.7948
0
LINE
8
Black
10
82.5977
20
-47.7948
11
82.5919
21
-47.8324
0
LINE
8
Black
10
82.5919
20
-47.8324
11
82.5893
21
-47.8372
0
LINE
8
Black
10
82.5893
20
-47.8372
11
82.5882
21
-47.8426
0
LINE
8
Black
10
82.5882
20
-47.8426
11
82.5684
21
-47.8751
0
LINE
8
Black
10
82.5684
20
-47.8751
11
82.5501
21
-47.9085
0
LINE
8
Black
10
82.5501
20
-47.9085
11
82.546
21
-47.9121
0
LINE
8
Black
10
82.546
20
-47.9121
11
82.5431
21
-47.9168
0
LINE
8
Black
10
82.5431
20
-47.9168
11
82.5135
21
-47.9407
0
LINE
8
Black
10
82.5135
20
-47.9407
11
82.4849
21
-47.9657
0
LINE
8
Black
10
82.4849
20
-47.9657
11
82.4797
21
-47.9677
0
LINE
8
Black
10
82.4797
20
-47.9677
11
82.4754
21
-47.9712
0
LINE
8
Black
10
82.4754
20
-47.9712
11
82.4394
21
-47.9834
0
LINE
8
Black
10
82.4394
20
-47.9834
11
82.4039
21
-47.9972
0
LINE
8
Black
10
82.4039
20
-47.9972
11
82.3569
21
-48.0066
0
LINE
8
Black
10
82.3569
20
-48.0066
11
82.0003
21
-48.2448
0
LINE
8
Black
10
82.0003
20
-48.2448
11
81.762
21
-48.6014
0
LINE
8
Black
10
81.762
20
-48.6014
11
81.6784
21
-49.022
0
LINE
8
Black
10
81.6784
20
-49.022
11
81.762
21
-49.4426
0
LINE
8
Black
10
81.762
20
-49.4426
11
82.0003
21
-49.7992
0
LINE
8
Black
10
82.0003
20
-49.7992
11
82.3569
21
-50.0374
0
LINE
8
Black
10
82.3569
20
-50.0374
11
82.4039
21
-50.0468
0
LINE
8
Black
10
82.4039
20
-50.0468
11
82.4394
21
-50.0606
0
LINE
8
Black
10
82.4394
20
-50.0606
11
82.4754
21
-50.0728
0
LINE
8
Black
10
82.4754
20
-50.0728
11
82.4797
21
-50.0763
0
LINE
8
Black
10
82.4797
20
-50.0763
11
82.4849
21
-50.0783
0
LINE
8
Black
10
82.4849
20
-50.0783
11
82.5135
21
-50.1033
0
LINE
8
Black
10
82.5135
20
-50.1033
11
82.5431
21
-50.1272
0
LINE
8
Black
10
82.5431
20
-50.1272
11
82.546
21
-50.1319
0
LINE
8
Black
10
82.546
20
-50.1319
11
82.5501
21
-50.1355
0
LINE
8
Black
10
82.5501
20
-50.1355
11
82.5684
21
-50.1689
0
LINE
8
Black
10
82.5684
20
-50.1689
11
82.5882
21
-50.2014
0
LINE
8
Black
10
82.5882
20
-50.2014
11
82.5893
21
-50.2068
0
LINE
8
Black
10
82.5893
20
-50.2068
11
82.5919
21
-50.2116
0
LINE
8
Black
10
82.5919
20
-50.2116
11
82.5977
21
-50.2492
0
LINE
8
Black
10
82.5977
20
-50.2492
11
82.6051
21
-50.2865
0
LINE
8
Black
10
82.6051
20
-50.2865
11
82.6043
21
-50.292
0
LINE
8
Black
10
82.6043
20
-50.292
11
82.6051
21
-50.2975
0
LINE
8
Black
10
82.6051
20
-50.2975
11
82.5977
21
-50.3348
0
LINE
8
Black
10
82.5977
20
-50.3348
11
82.5919
21
-50.3724
0
LINE
8
Black
10
82.5919
20
-50.3724
11
82.5893
21
-50.3772
0
LINE
8
Black
10
82.5893
20
-50.3772
11
82.5882
21
-50.3826
0
LINE
8
Black
10
82.5882
20
-50.3826
11
82.5684
21
-50.4151
0
LINE
8
Black
10
82.5684
20
-50.4151
11
82.5501
21
-50.4485
0
LINE
8
Black
10
82.5501
20
-50.4485
11
82.546
21
-50.4521
0
LINE
8
Black
10
82.546
20
-50.4521
11
82.5431
21
-50.4568
0
LINE
8
Black
10
82.5431
20
-50.4568
11
82.5135
21
-50.4807
0
LINE
8
Black
10
82.5135
20
-50.4807
11
82.4849
21
-50.5057
0
LINE
8
Black
10
82.4849
20
-50.5057
11
82.4797
21
-50.5077
0
LINE
8
Black
10
82.4797
20
-50.5077
11
82.4754
21
-50.5112
0
LINE
8
Black
10
82.4754
20
-50.5112
11
82.4394
21
-50.5234
0
LINE
8
Black
10
82.4394
20
-50.5234
11
82.4039
21
-50.5372
0
LINE
8
Black
10
82.4039
20
-50.5372
11
82.3569
21
-50.5466
0
LINE
8
Black
10
82.3569
20
-50.5466
11
82.0003
21
-50.7848
0
LINE
8
Black
10
82.0003
20
-50.7848
11
81.762
21
-51.1414
0
LINE
8
Black
10
81.762
20
-51.1414
11
81.6784
21
-51.562
0
LINE
8
Black
10
81.6784
20
-51.562
11
81.762
21
-51.9826
0
LINE
8
Black
10
81.762
20
-51.9826
11
82.0003
21
-52.3392
0
LINE
8
Black
10
82.0003
20
-52.3392
11
82.3569
21
-52.5774
0
LINE
8
Black
10
82.3569
20
-52.5774
11
82.4039
21
-52.5868
0
LINE
8
Black
10
82.4039
20
-52.5868
11
82.4394
21
-52.6006
0
LINE
8
Black
10
82.4394
20
-52.6006
11
82.4754
21
-52.6128
0
LINE
8
Black
10
82.4754
20
-52.6128
11
82.4797
21
-52.6163
0
LINE
8
Black
10
82.4797
20
-52.6163
11
82.4849
21
-52.6183
0
LINE
8
Black
10
82.4849
20
-52.6183
11
82.5135
21
-52.6433
0
LINE
8
Black
10
82.5135
20
-52.6433
11
82.5431
21
-52.6672
0
LINE
8
Black
10
82.5431
20
-52.6672
11
82.546
21
-52.6719
0
LINE
8
Black
10
82.546
20
-52.6719
11
82.5501
21
-52.6755
0
LINE
8
Black
10
82.5501
20
-52.6755
11
82.5684
21
-52.7089
0
LINE
8
Black
10
82.5684
20
-52.7089
11
82.5882
21
-52.7414
0
LINE
8
Black
10
82.5882
20
-52.7414
11
82.5893
21
-52.7468
0
LINE
8
Black
10
82.5893
20
-52.7468
11
82.5919
21
-52.7516
0
LINE
8
Black
10
82.5919
20
-52.7516
11
82.5977
21
-52.7892
0
LINE
8
Black
10
82.5977
20
-52.7892
11
82.6051
21
-52.8265
0
LINE
8
Black
10
82.6051
20
-52.8265
11
82.6043
21
-52.832
0
LINE
8
Black
10
82.6043
20
-52.832
11
82.6051
21
-52.8375
0
LINE
8
Black
10
82.6051
20
-52.8375
11
82.5977
21
-52.8748
0
LINE
8
Black
10
82.5977
20
-52.8748
11
82.5919
21
-52.9124
0
LINE
8
Black
10
82.5919
20
-52.9124
11
82.5893
21
-52.9172
0
LINE
8
Black
10
82.5893
20
-52.9172
11
82.5882
21
-52.9226
0
LINE
8
Black
10
82.5882
20
-52.9226
11
82.5684
21
-52.9551
0
LINE
8
Black
10
82.5684
20
-52.9551
11
82.5501
21
-52.9885
0
LINE
8
Black
10
82.5501
20
-52.9885
11
82.546
21
-52.9921
0
LINE
8
Black
10
82.546
20
-52.9921
11
82.5431
21
-52.9968
0
LINE
8
Black
10
82.5431
20
-52.9968
11
82.5135
21
-53.0207
0
LINE
8
Black
10
82.5135
20
-53.0207
11
82.4849
21
-53.0457
0
LINE
8
Black
10
82.4849
20
-53.0457
11
82.4797
21
-53.0477
0
LINE
8
Black
10
82.4797
20
-53.0477
11
82.4754
21
-53.0512
0
LINE
8
Black
10
82.4754
20
-53.0512
11
82.4394
21
-53.0634
0
LINE
8
Black
10
82.4394
20
-53.0634
11
82.4039
21
-53.0772
0
LINE
8
Black
10
82.4039
20
-53.0772
11
82.3569
21
-53.0866
0
LINE
8
Black
10
82.3569
20
-53.0866
11
82.0003
21
-53.3248
0
LINE
8
Black
10
82.0003
20
-53.3248
11
81.762
21
-53.6814
0
LINE
8
Black
10
81.762
20
-53.6814
11
81.6784
21
-54.102
0
LINE
8
Black
10
81.6784
20
-54.102
11
81.762
21
-54.5226
0
LINE
8
Black
10
81.762
20
-54.5226
11
82.0003
21
-54.8792
0
LINE
8
Black
10
82.0003
20
-54.8792
11
82.3569
21
-55.1174
0
LINE
8
Black
10
82.3569
20
-55.1174
11
82.4039
21
-55.1268
0
LINE
8
Black
10
82.4039
20
-55.1268
11
82.4394
21
-55.1406
0
LINE
8
Black
10
82.4394
20
-55.1406
11
82.4754
21
-55.1528
0
LINE
8
Black
10
82.4754
20
-55.1528
11
82.4797
21
-55.1563
0
LINE
8
Black
10
82.4797
20
-55.1563
11
82.4849
21
-55.1583
0
LINE
8
Black
10
82.4849
20
-55.1583
11
82.5135
21
-55.1833
0
LINE
8
Black
10
82.5135
20
-55.1833
11
82.5431
21
-55.2072
0
LINE
8
Black
10
82.5431
20
-55.2072
11
82.546
21
-55.2119
0
LINE
8
Black
10
82.546
20
-55.2119
11
82.5501
21
-55.2155
0
LINE
8
Black
10
82.5501
20
-55.2155
11
82.5684
21
-55.2489
0
LINE
8
Black
10
82.5684
20
-55.2489
11
82.5882
21
-55.2814
0
LINE
8
Black
10
82.5882
20
-55.2814
11
82.5893
21
-55.2868
0
LINE
8
Black
10
82.5893
20
-55.2868
11
82.5919
21
-55.2916
0
LINE
8
Black
10
82.5919
20
-55.2916
11
82.5977
21
-55.3292
0
LINE
8
Black
10
82.5977
20
-55.3292
11
82.6051
21
-55.3665
0
LINE
8
Black
10
82.6051
20
-55.3665
11
82.6043
21
-55.372
0
LINE
8
Black
10
82.6043
20
-55.372
11
82.6051
21
-55.3775
0
LINE
8
Black
10
82.6051
20
-55.3775
11
82.5977
21
-55.4148
0
LINE
8
Black
10
82.5977
20
-55.4148
11
82.5919
21
-55.4524
0
LINE
8
Black
10
82.5919
20
-55.4524
11
82.5893
21
-55.4572
0
LINE
8
Black
10
82.5893
20
-55.4572
11
82.5882
21
-55.4626
0
LINE
8
Black
10
82.5882
20
-55.4626
11
82.5684
21
-55.4951
0
LINE
8
Black
10
82.5684
20
-55.4951
11
82.5501
21
-55.5285
0
LINE
8
Black
10
82.5501
20
-55.5285
11
82.546
21
-55.5321
0
LINE
8
Black
10
82.546
20
-55.5321
11
82.5431
21
-55.5368
0
LINE
8
Black
10
82.5431
20
-55.5368
11
82.5135
21
-55.5607
0
LINE
8
Black
10
82.5135
20
-55.5607
11
82.4849
21
-55.5857
0
LINE
8
Black
10
82.4849
20
-55.5857
11
82.4797
21
-55.5877
0
LINE
8
Black
10
82.4797
20
-55.5877
11
82.4754
21
-55.5912
0
LINE
8
Black
10
82.4754
20
-55.5912
11
82.4394
21
-55.6034
0
LINE
8
Black
10
82.4394
20
-55.6034
11
82.4039
21
-55.6172
0
LINE
8
Black
10
82.4039
20
-55.6172
11
82.3569
21
-55.6266
0
LINE
8
Black
10
82.3569
20
-55.6266
11
82.0003
21
-55.8648
0
LINE
8
Black
10
82.0003
20
-55.8648
11
81.762
21
-56.2214
0
LINE
8
Black
10
81.762
20
-56.2214
11
81.6784
21
-56.642
0
LINE
8
Black
10
81.6784
20
-56.642
11
81.762
21
-57.0626
0
LINE
8
Black
10
81.762
20
-57.0626
11
82.0003
21
-57.4192
0
LINE
8
Black
10
82.0003
20
-57.4192
11
82.3569
21
-57.6574
0
LINE
8
Black
10
82.3569
20
-57.6574
11
82.4039
21
-57.6668
0
LINE
8
Black
10
82.4039
20
-57.6668
11
82.4394
21
-57.6806
0
LINE
8
Black
10
82.4394
20
-57.6806
11
82.4754
21
-57.6928
0
LINE
8
Black
10
82.4754
20
-57.6928
11
82.4797
21
-57.6963
0
LINE
8
Black
10
82.4797
20
-57.6963
11
82.4849
21
-57.6983
0
LINE
8
Black
10
82.4849
20
-57.6983
11
82.5135
21
-57.7233
0
LINE
8
Black
10
82.5135
20
-57.7233
11
82.5431
21
-57.7472
0
LINE
8
Black
10
82.5431
20
-57.7472
11
82.546
21
-57.7519
0
LINE
8
Black
10
82.546
20
-57.7519
11
82.5501
21
-57.7555
0
LINE
8
Black
10
82.5501
20
-57.7555
11
82.5684
21
-57.7889
0
LINE
8
Black
10
82.5684
20
-57.7889
11
82.5882
21
-57.8214
0
LINE
8
Black
10
82.5882
20
-57.8214
11
82.5893
21
-57.8268
0
LINE
8
Black
10
82.5893
20
-57.8268
11
82.5919
21
-57.8316
0
LINE
8
Black
10
82.5919
20
-57.8316
11
82.5977
21
-57.8692
0
LINE
8
Black
10
82.5977
20
-57.8692
11
82.6051
21
-57.9065
0
LINE
8
Black
10
82.6051
20
-57.9065
11
82.6043
21
-57.912
0
LINE
8
Black
10
82.6043
20
-57.912
11
82.6051
21
-57.9175
0
LINE
8
Black
10
82.6051
20
-57.9175
11
82.5977
21
-57.9548
0
LINE
8
Black
10
82.5977
20
-57.9548
11
82.5919
21
-57.9924
0
LINE
8
Black
10
82.5919
20
-57.9924
11
82.5893
21
-57.9972
0
LINE
8
Black
10
82.5893
20
-57.9972
11
82.5882
21
-58.0026
0
LINE
8
Black
10
82.5882
20
-58.0026
11
82.5684
21
-58.0351
0
LINE
8
Black
10
82.5684
20
-58.0351
11
82.5501
21
-58.0685
0
LINE
8
Black
10
82.5501
20
-58.0685
11
82.546
21
-58.0721
0
LINE
8
Black
10
82.546
20
-58.0721
11
82.5431
21
-58.0768
0
LINE
8
Black
10
82.5431
20
-58.0768
11
82.5135
21
-58.1007
0
LINE
8
Black
10
82.5135
20
-58.1007
11
82.4849
21
-58.1257
0
LINE
8
Black
10
82.4849
20
-58.1257
11
82.4797
21
-58.1277
0
LINE
8
Black
10
82.4797
20
-58.1277
11
82.4754
21
-58.1312
0
LINE
8
Black
10
82.4754
20
-58.1312
11
82.4394
21
-58.1434
0
LINE
8
Black
10
82.4394
20
-58.1434
11
82.4039
21
-58.1572
0
LINE
8
Black
10
82.4039
20
-58.1572
11
82.3569
21
-58.1666
0
LINE
8
Black
10
82.3569
20
-58.1666
11
82.0003
21
-58.4048
0
LINE
8
Black
10
82.0003
20
-58.4048
11
81.762
21
-58.7614
0
LINE
8
Black
10
81.762
20
-58.7614
11
81.6784
21
-59.182
0
LINE
8
Black
10
81.6784
20
-59.182
11
81.762
21
-59.6026
0
LINE
8
Black
10
81.762
20
-59.6026
11
82.0003
21
-59.9592
0
LINE
8
Black
10
82.0003
20
-59.9592
11
82.3569
21
-60.1974
0
LINE
8
Black
10
82.3569
20
-60.1974
11
82.8021
21
-60.286
0
LINE
8
Black
10
82.8021
20
-60.286
11
82.8059
21
-60.286
0
LINE
8
Black
10
82.8059
20
-60.286
11
83.2511
21
-60.1974
0
LINE
8
Black
10
83.2511
20
-60.1974
11
83.6077
21
-59.9592
0
LINE
8
Black
10
83.6077
20
-59.9592
11
83.846
21
-59.6026
0
LINE
8
Black
10
83.846
20
-59.6026
11
83.9296
21
-59.182
0
LINE
8
Black
10
83.9296
20
-59.182
11
83.846
21
-58.7614
0
LINE
8
Black
10
83.846
20
-58.7614
11
83.6077
21
-58.4048
0
LINE
8
Black
10
83.6077
20
-58.4048
11
83.2511
21
-58.1666
0
LINE
8
Black
10
83.2511
20
-58.1666
11
83.204
21
-58.1572
0
LINE
8
Black
10
83.204
20
-58.1572
11
83.1686
21
-58.1434
0
LINE
8
Black
10
83.1686
20
-58.1434
11
83.1326
21
-58.1312
0
LINE
8
Black
10
83.1326
20
-58.1312
11
83.1283
21
-58.1277
0
LINE
8
Black
10
83.1283
20
-58.1277
11
83.1231
21
-58.1257
0
LINE
8
Black
10
83.1231
20
-58.1257
11
83.0945
21
-58.1006
0
LINE
8
Black
10
83.0945
20
-58.1006
11
83.0649
21
-58.0768
0
LINE
8
Black
10
83.0649
20
-58.0768
11
83.062
21
-58.0721
0
LINE
8
Black
10
83.062
20
-58.0721
11
83.0579
21
-58.0685
0
LINE
8
Black
10
83.0579
20
-58.0685
11
83.0396
21
-58.0351
0
LINE
8
Black
10
83.0396
20
-58.0351
11
83.0198
21
-58.0026
0
LINE
8
Black
10
83.0198
20
-58.0026
11
83.0187
21
-57.9972
0
LINE
8
Black
10
83.0187
20
-57.9972
11
83.0161
21
-57.9924
0
LINE
8
Black
10
83.0161
20
-57.9924
11
83.0103
21
-57.9548
0
LINE
8
Black
10
83.0103
20
-57.9548
11
83.0029
21
-57.9175
0
LINE
8
Black
10
83.0029
20
-57.9175
11
83.0037
21
-57.912
0
LINE
8
Black
10
83.0037
20
-57.912
11
83.0029
21
-57.9065
0
LINE
8
Black
10
83.0029
20
-57.9065
11
83.0103
21
-57.8692
0
LINE
8
Black
10
83.0103
20
-57.8692
11
83.0161
21
-57.8316
0
LINE
8
Black
10
83.0161
20
-57.8316
11
83.0187
21
-57.8268
0
LINE
8
Black
10
83.0187
20
-57.8268
11
83.0198
21
-57.8214
0
LINE
8
Black
10
83.0198
20
-57.8214
11
83.0396
21
-57.7889
0
LINE
8
Black
10
83.0396
20
-57.7889
11
83.0579
21
-57.7555
0
LINE
8
Black
10
83.0579
20
-57.7555
11
83.062
21
-57.7519
0
LINE
8
Black
10
83.062
20
-57.7519
11
83.0649
21
-57.7472
0
LINE
8
Black
10
83.0649
20
-57.7472
11
83.0945
21
-57.7234
0
LINE
8
Black
10
83.0945
20
-57.7234
11
83.1231
21
-57.6983
0
LINE
8
Black
10
83.1231
20
-57.6983
11
83.1283
21
-57.6963
0
LINE
8
Black
10
83.1283
20
-57.6963
11
83.1326
21
-57.6928
0
LINE
8
Black
10
83.1326
20
-57.6928
11
83.1686
21
-57.6806
0
LINE
8
Black
10
83.1686
20
-57.6806
11
83.204
21
-57.6668
0
LINE
8
Black
10
83.204
20
-57.6668
11
83.2511
21
-57.6574
0
LINE
8
Black
10
83.2511
20
-57.6574
11
83.6077
21
-57.4192
0
LINE
8
Black
10
83.6077
20
-57.4192
11
83.846
21
-57.0626
0
LINE
8
Black
10
83.846
20
-57.0626
11
83.9296
21
-56.642
0
LINE
8
Black
10
83.9296
20
-56.642
11
83.846
21
-56.2214
0
LINE
8
Black
10
83.846
20
-56.2214
11
83.6077
21
-55.8648
0
LINE
8
Black
10
83.6077
20
-55.8648
11
83.2511
21
-55.6266
0
LINE
8
Black
10
83.2511
20
-55.6266
11
83.204
21
-55.6172
0
LINE
8
Black
10
83.204
20
-55.6172
11
83.1686
21
-55.6034
0
LINE
8
Black
10
83.1686
20
-55.6034
11
83.1326
21
-55.5912
0
LINE
8
Black
10
83.1326
20
-55.5912
11
83.1283
21
-55.5877
0
LINE
8
Black
10
83.1283
20
-55.5877
11
83.1231
21
-55.5857
0
LINE
8
Black
10
83.1231
20
-55.5857
11
83.0945
21
-55.5606
0
LINE
8
Black
10
83.0945
20
-55.5606
11
83.0649
21
-55.5368
0
LINE
8
Black
10
83.0649
20
-55.5368
11
83.062
21
-55.5321
0
LINE
8
Black
10
83.062
20
-55.5321
11
83.0579
21
-55.5285
0
LINE
8
Black
10
83.0579
20
-55.5285
11
83.0396
21
-55.4951
0
LINE
8
Black
10
83.0396
20
-55.4951
11
83.0198
21
-55.4626
0
LINE
8
Black
10
83.0198
20
-55.4626
11
83.0187
21
-55.4572
0
LINE
8
Black
10
83.0187
20
-55.4572
11
83.0161
21
-55.4524
0
LINE
8
Black
10
83.0161
20
-55.4524
11
83.0103
21
-55.4148
0
LINE
8
Black
10
83.0103
20
-55.4148
11
83.0029
21
-55.3775
0
LINE
8
Black
10
83.0029
20
-55.3775
11
83.0037
21
-55.372
0
LINE
8
Black
10
83.0037
20
-55.372
11
83.0029
21
-55.3665
0
LINE
8
Black
10
83.0029
20
-55.3665
11
83.0103
21
-55.3292
0
LINE
8
Black
10
83.0103
20
-55.3292
11
83.0161
21
-55.2916
0
LINE
8
Black
10
83.0161
20
-55.2916
11
83.0187
21
-55.2868
0
LINE
8
Black
10
83.0187
20
-55.2868
11
83.0198
21
-55.2814
0
LINE
8
Black
10
83.0198
20
-55.2814
11
83.0396
21
-55.2489
0
LINE
8
Black
10
83.0396
20
-55.2489
11
83.0579
21
-55.2155
0
LINE
8
Black
10
83.0579
20
-55.2155
11
83.062
21
-55.2119
0
LINE
8
Black
10
83.062
20
-55.2119
11
83.0649
21
-55.2072
0
LINE
8
Black
10
83.0649
20
-55.2072
11
83.0945
21
-55.1834
0
LINE
8
Black
10
83.0945
20
-55.1834
11
83.1231
21
-55.1583
0
LINE
8
Black
10
83.1231
20
-55.1583
11
83.1283
21
-55.1563
0
LINE
8
Black
10
83.1283
20
-55.1563
11
83.1326
21
-55.1528
0
LINE
8
Black
10
83.1326
20
-55.1528
11
83.1686
21
-55.1406
0
LINE
8
Black
10
83.1686
20
-55.1406
11
83.204
21
-55.1268
0
LINE
8
Black
10
83.204
20
-55.1268
11
83.2511
21
-55.1174
0
LINE
8
Black
10
83.2511
20
-55.1174
11
83.6077
21
-54.8792
0
LINE
8
Black
10
83.6077
20
-54.8792
11
83.846
21
-54.5226
0
LINE
8
Black
10
83.846
20
-54.5226
11
83.9296
21
-54.102
0
LINE
8
Black
10
83.9296
20
-54.102
11
83.846
21
-53.6814
0
LINE
8
Black
10
83.846
20
-53.6814
11
83.6077
21
-53.3248
0
LINE
8
Black
10
83.6077
20
-53.3248
11
83.2511
21
-53.0866
0
LINE
8
Black
10
83.2511
20
-53.0866
11
83.204
21
-53.0772
0
LINE
8
Black
10
83.204
20
-53.0772
11
83.1686
21
-53.0634
0
LINE
8
Black
10
83.1686
20
-53.0634
11
83.1326
21
-53.0512
0
LINE
8
Black
10
83.1326
20
-53.0512
11
83.1283
21
-53.0477
0
LINE
8
Black
10
83.1283
20
-53.0477
11
83.1231
21
-53.0457
0
LINE
8
Black
10
83.1231
20
-53.0457
11
83.0945
21
-53.0206
0
LINE
8
Black
10
83.0945
20
-53.0206
11
83.0649
21
-52.9968
0
LINE
8
Black
10
83.0649
20
-52.9968
11
83.062
21
-52.9921
0
LINE
8
Black
10
83.062
20
-52.9921
11
83.0579
21
-52.9885
0
LINE
8
Black
10
83.0579
20
-52.9885
11
83.0396
21
-52.9551
0
LINE
8
Black
10
83.0396
20
-52.9551
11
83.0198
21
-52.9226
0
LINE
8
Black
10
83.0198
20
-52.9226
11
83.0187
21
-52.9172
0
LINE
8
Black
10
83.0187
20
-52.9172
11
83.0161
21
-52.9124
0
LINE
8
Black
10
83.0161
20
-52.9124
11
83.0103
21
-52.8748
0
LINE
8
Black
10
83.0103
20
-52.8748
11
83.0029
21
-52.8375
0
LINE
8
Black
10
83.0029
20
-52.8375
11
83.0037
21
-52.832
0
LINE
8
Black
10
83.0037
20
-52.832
11
83.0029
21
-52.8265
0
LINE
8
Black
10
83.0029
20
-52.8265
11
83.0103
21
-52.7892
0
LINE
8
Black
10
83.0103
20
-52.7892
11
83.0161
21
-52.7516
0
LINE
8
Black
10
83.0161
20
-52.7516
11
83.0187
21
-52.7468
0
LINE
8
Black
10
83.0187
20
-52.7468
11
83.0198
21
-52.7414
0
LINE
8
Black
10
83.0198
20
-52.7414
11
83.0396
21
-52.7089
0
LINE
8
Black
10
83.0396
20
-52.7089
11
83.0579
21
-52.6755
0
LINE
8
Black
10
83.0579
20
-52.6755
11
83.062
21
-52.6719
0
LINE
8
Black
10
83.062
20
-52.6719
11
83.0649
21
-52.6672
0
LINE
8
Black
10
83.0649
20
-52.6672
11
83.0945
21
-52.6434
0
LINE
8
Black
10
83.0945
20
-52.6434
11
83.1231
21
-52.6183
0
LINE
8
Black
10
83.1231
20
-52.6183
11
83.1283
21
-52.6163
0
LINE
8
Black
10
83.1283
20
-52.6163
11
83.1326
21
-52.6128
0
LINE
8
Black
10
83.1326
20
-52.6128
11
83.1686
21
-52.6006
0
LINE
8
Black
10
83.1686
20
-52.6006
11
83.204
21
-52.5868
0
LINE
8
Black
10
83.204
20
-52.5868
11
83.2511
21
-52.5774
0
LINE
8
Black
10
83.2511
20
-52.5774
11
83.6077
21
-52.3392
0
LINE
8
Black
10
83.6077
20
-52.3392
11
83.846
21
-51.9826
0
LINE
8
Black
10
83.846
20
-51.9826
11
83.9296
21
-51.562
0
LINE
8
Black
10
83.9296
20
-51.562
11
83.846
21
-51.1414
0
LINE
8
Black
10
83.846
20
-51.1414
11
83.6077
21
-50.7848
0
LINE
8
Black
10
83.6077
20
-50.7848
11
83.2511
21
-50.5466
0
LINE
8
Black
10
83.2511
20
-50.5466
11
83.204
21
-50.5372
0
LINE
8
Black
10
83.204
20
-50.5372
11
83.1686
21
-50.5234
0
LINE
8
Black
10
83.1686
20
-50.5234
11
83.1326
21
-50.5112
0
LINE
8
Black
10
83.1326
20
-50.5112
11
83.1283
21
-50.5077
0
LINE
8
Black
10
83.1283
20
-50.5077
11
83.1231
21
-50.5057
0
LINE
8
Black
10
83.1231
20
-50.5057
11
83.0945
21
-50.4806
0
LINE
8
Black
10
83.0945
20
-50.4806
11
83.0649
21
-50.4568
0
LINE
8
Black
10
83.0649
20
-50.4568
11
83.062
21
-50.4521
0
LINE
8
Black
10
83.062
20
-50.4521
11
83.0579
21
-50.4485
0
LINE
8
Black
10
83.0579
20
-50.4485
11
83.0396
21
-50.4151
0
LINE
8
Black
10
83.0396
20
-50.4151
11
83.0198
21
-50.3826
0
LINE
8
Black
10
83.0198
20
-50.3826
11
83.0187
21
-50.3772
0
LINE
8
Black
10
83.0187
20
-50.3772
11
83.0161
21
-50.3724
0
LINE
8
Black
10
83.0161
20
-50.3724
11
83.0103
21
-50.3348
0
LINE
8
Black
10
83.0103
20
-50.3348
11
83.0029
21
-50.2975
0
LINE
8
Black
10
83.0029
20
-50.2975
11
83.0037
21
-50.292
0
LINE
8
Black
10
83.0037
20
-50.292
11
83.0029
21
-50.2865
0
LINE
8
Black
10
83.0029
20
-50.2865
11
83.0103
21
-50.2492
0
LINE
8
Black
10
83.0103
20
-50.2492
11
83.0161
21
-50.2116
0
LINE
8
Black
10
83.0161
20
-50.2116
11
83.0187
21
-50.2068
0
LINE
8
Black
10
83.0187
20
-50.2068
11
83.0198
21
-50.2014
0
LINE
8
Black
10
83.0198
20
-50.2014
11
83.0396
21
-50.1689
0
LINE
8
Black
10
83.0396
20
-50.1689
11
83.0579
21
-50.1355
0
LINE
8
Black
10
83.0579
20
-50.1355
11
83.062
21
-50.1319
0
LINE
8
Black
10
83.062
20
-50.1319
11
83.0649
21
-50.1272
0
LINE
8
Black
10
83.0649
20
-50.1272
11
83.0945
21
-50.1034
0
LINE
8
Black
10
83.0945
20
-50.1034
11
83.1231
21
-50.0783
0
LINE
8
Black
10
83.1231
20
-50.0783
11
83.1283
21
-50.0763
0
LINE
8
Black
10
83.1283
20
-50.0763
11
83.1326
21
-50.0728
0
LINE
8
Black
10
83.1326
20
-50.0728
11
83.1686
21
-50.0606
0
LINE
8
Black
10
83.1686
20
-50.0606
11
83.204
21
-50.0468
0
LINE
8
Black
10
83.204
20
-50.0468
11
83.2511
21
-50.0374
0
LINE
8
Black
10
83.2511
20
-50.0374
11
83.6077
21
-49.7992
0
LINE
8
Black
10
83.6077
20
-49.7992
11
83.846
21
-49.4426
0
LINE
8
Black
10
83.846
20
-49.4426
11
83.9296
21
-49.022
0
LINE
8
Black
10
83.9296
20
-49.022
11
83.846
21
-48.6014
0
LINE
8
Black
10
83.846
20
-48.6014
11
83.6077
21
-48.2448
0
LINE
8
Black
10
83.6077
20
-48.2448
11
83.2511
21
-48.0066
0
LINE
8
Black
10
83.2511
20
-48.0066
11
83.204
21
-47.9972
0
LINE
8
Black
10
83.204
20
-47.9972
11
83.1686
21
-47.9834
0
LINE
8
Black
10
83.1686
20
-47.9834
11
83.1326
21
-47.9712
0
LINE
8
Black
10
83.1326
20
-47.9712
11
83.1283
21
-47.9677
0
LINE
8
Black
10
83.1283
20
-47.9677
11
83.1231
21
-47.9657
0
LINE
8
Black
10
83.1231
20
-47.9657
11
83.0945
21
-47.9406
0
LINE
8
Black
10
83.0945
20
-47.9406
11
83.0649
21
-47.9168
0
LINE
8
Black
10
83.0649
20
-47.9168
11
83.062
21
-47.9121
0
LINE
8
Black
10
83.062
20
-47.9121
11
83.0579
21
-47.9085
0
LINE
8
Black
10
83.0579
20
-47.9085
11
83.0396
21
-47.8751
0
LINE
8
Black
10
83.0396
20
-47.8751
11
83.0198
21
-47.8426
0
LINE
8
Black
10
83.0198
20
-47.8426
11
83.0187
21
-47.8372
0
LINE
8
Black
10
83.0187
20
-47.8372
11
83.0161
21
-47.8324
0
LINE
8
Black
10
83.0161
20
-47.8324
11
83.0103
21
-47.7948
0
LINE
8
Black
10
83.0103
20
-47.7948
11
83.0029
21
-47.7575
0
LINE
8
Black
10
83.0029
20
-47.7575
11
83.0037
21
-47.752
0
LINE
8
Black
10
83.0037
20
-47.752
11
83.0029
21
-47.7465
0
LINE
8
Black
10
83.0029
20
-47.7465
11
83.0103
21
-47.7092
0
LINE
8
Black
10
83.0103
20
-47.7092
11
83.0161
21
-47.6716
0
LINE
8
Black
10
83.0161
20
-47.6716
11
83.0187
21
-47.6668
0
LINE
8
Black
10
83.0187
20
-47.6668
11
83.0198
21
-47.6614
0
LINE
8
Black
10
83.0198
20
-47.6614
11
83.0396
21
-47.6289
0
LINE
8
Black
10
83.0396
20
-47.6289
11
83.0579
21
-47.5955
0
LINE
8
Black
10
83.0579
20
-47.5955
11
83.062
21
-47.5919
0
LINE
8
Black
10
83.062
20
-47.5919
11
83.0649
21
-47.5872
0
LINE
8
Black
10
83.0649
20
-47.5872
11
83.0945
21
-47.5634
0
LINE
8
Black
10
83.0945
20
-47.5634
11
83.1231
21
-47.5383
0
LINE
8
Black
10
83.1231
20
-47.5383
11
83.1283
21
-47.5363
0
LINE
8
Black
10
83.1283
20
-47.5363
11
83.1326
21
-47.5328
0
LINE
8
Black
10
83.1326
20
-47.5328
11
83.1686
21
-47.5206
0
LINE
8
Black
10
83.1686
20
-47.5206
11
83.204
21
-47.5068
0
LINE
8
Black
10
83.204
20
-47.5068
11
83.2511
21
-47.4974
0
LINE
8
Black
10
83.2511
20
-47.4974
11
83.6077
21
-47.2592
0
LINE
8
Black
10
83.6077
20
-47.2592
11
83.846
21
-46.9026
0
LINE
8
Black
10
83.846
20
-46.9026
11
83.9296
21
-46.482
0
LINE
8
Black
10
83.9296
20
-46.482
11
83.846
21
-46.0614
0
LINE
8
Black
10
83.846
20
-46.0614
11
83.6077
21
-45.7048
0
LINE
8
Black
10
83.6077
20
-45.7048
11
83.3217
21
-45.5137
0
LINE
8
Black
10
83.3217
20
-45.5137
11
83.3118
21
-45.5042
0
LINE
8
Black
10
83.3118
20
-45.5042
11
83.2999
21
-45.4974
0
LINE
8
Black
10
83.2999
20
-45.4974
11
83.2807
21
-45.4744
0
LINE
8
Black
10
83.2807
20
-45.4744
11
83.259
21
-45.4537
0
LINE
8
Black
10
83.259
20
-45.4537
11
83.253
21
-45.4414
0
LINE
8
Black
10
83.253
20
-45.4414
11
83.2441
21
-45.4309
0
LINE
8
Black
10
83.2441
20
-45.4309
11
83.2339
21
-45.4027
0
LINE
8
Black
10
83.2339
20
-45.4027
11
83.2206
21
-45.3758
0
LINE
8
Black
10
83.2206
20
-45.3758
11
83.2191
21
-45.3622
0
LINE
8
Black
10
83.2191
20
-45.3622
11
83.2144
21
-45.3493
0
LINE
8
Black
10
83.2144
20
-45.3493
11
83.2144
21
-45.3193
0
LINE
8
Black
10
83.2144
20
-45.3193
11
83.2112
21
-45.2895
0
LINE
8
Black
10
83.2112
20
-45.2895
11
83.2144
21
-45.2762
0
LINE
8
Black
10
83.2144
20
-45.2762
11
83.2144
21
-45.2625
0
LINE
8
Black
10
83.2144
20
-45.2625
11
83.2247
21
-45.2343
0
LINE
8
Black
10
83.2247
20
-45.2343
11
83.2318
21
-45.2052
0
LINE
8
Black
10
83.2318
20
-45.2052
11
83.2394
21
-45.1938
0
LINE
8
Black
10
83.2394
20
-45.1938
11
83.2441
21
-45.1809
0
LINE
8
Black
10
83.2441
20
-45.1809
11
83.2634
21
-45.1579
0
LINE
8
Black
10
83.2634
20
-45.1579
11
83.28
21
-45.133
0
LINE
8
Black
10
83.28
20
-45.133
11
83.2911
21
-45.1249
0
LINE
8
Black
10
83.2911
20
-45.1249
11
83.2999
21
-45.1144
0
LINE
8
Black
10
83.2999
20
-45.1144
11
83.3259
21
-45.0994
0
LINE
8
Black
10
83.3259
20
-45.0994
11
83.3501
21
-45.0817
0
LINE
8
Black
10
83.3501
20
-45.0817
11
83.3632
21
-45.0778
0
LINE
8
Black
10
83.3632
20
-45.0778
11
83.3751
21
-45.0709
0
LINE
8
Black
10
83.3751
20
-45.0709
11
83.4046
21
-45.0657
0
LINE
8
Black
10
83.4046
20
-45.0657
11
83.4334
21
-45.0574
0
LINE
8
Black
10
83.4334
20
-45.0574
11
83.4471
21
-45.0583
0
LINE
8
Black
10
83.4471
20
-45.0583
11
83.4606
21
-45.0559
0
LINE
8
Black
10
83.4606
20
-45.0559
11
83.6307
21
-45.0559
0
LINE
8
Black
10
83.6307
20
-45.0559
11
83.7466
21
-45.0341
0
LINE
8
Black
10
83.7466
20
-45.0341
11
83.8345
21
-44.9775
0
LINE
8
Black
10
83.8345
20
-44.9775
11
83.8924
21
-44.8927
0
LINE
8
Black
10
83.8924
20
-44.8927
11
83.9179
21
-44.7669
0
LINE
8
Black
10
83.9179
20
-44.7669
11
83.9179
21
-43.1153
0
LINE
8
Black
10
83.9179
20
-43.1153
11
83.8961
21
-42.9994
0
LINE
8
Black
10
83.8961
20
-42.9994
11
83.8395
21
-42.9115
0
LINE
8
Black
10
83.8395
20
-42.9115
11
83.7547
21
-42.8536
0
LINE
8
Black
10
83.7547
20
-42.8536
11
83.6289
21
-42.8281
0
LINE
8
Black
10
83.6289
20
-42.8281
11
81.9773
21
-42.8281
0
LINE
8
Black
10
69.6636
20
-58.0771
11
69.6477
21
-58.0929
0
LINE
8
Black
10
69.6477
20
-58.0929
11
69.6388
21
-58.0992
0
LINE
8
Black
10
69.6388
20
-58.0992
11
69.6318
21
-58.1075
0
LINE
8
Black
10
69.6318
20
-58.1075
11
69.6034
21
-58.1239
0
LINE
8
Black
10
69.6034
20
-58.1239
11
69.5765
21
-58.1427
0
LINE
8
Black
10
69.5765
20
-58.1427
11
69.566
21
-58.1455
0
LINE
8
Black
10
69.566
20
-58.1455
11
69.5566
21
-58.1509
0
LINE
8
Black
10
69.5566
20
-58.1509
11
69.5243
21
-58.1566
0
LINE
8
Black
10
69.5243
20
-58.1566
11
69.4927
21
-58.1651
0
LINE
8
Black
10
69.4927
20
-58.1651
11
69.4818
21
-58.1641
0
LINE
8
Black
10
69.4818
20
-58.1641
11
69.4711
21
-58.166
0
LINE
8
Black
10
69.4711
20
-58.166
11
61.4661
21
-58.166
0
LINE
8
Black
10
61.4661
20
-58.166
11
61.4552
21
-58.1641
0
LINE
8
Black
10
61.4552
20
-58.1641
11
61.4441
21
-58.165
0
LINE
8
Black
10
61.4441
20
-58.165
11
61.4127
21
-58.1566
0
LINE
8
Black
10
61.4127
20
-58.1566
11
61.3806
21
-58.1509
0
LINE
8
Black
10
61.3806
20
-58.1509
11
61.371
21
-58.1454
0
LINE
8
Black
10
61.371
20
-58.1454
11
61.3603
21
-58.1425
0
LINE
8
Black
10
61.3603
20
-58.1425
11
61.3336
21
-58.1238
0
LINE
8
Black
10
61.3336
20
-58.1238
11
61.3054
21
-58.1075
0
LINE
8
Black
10
61.3054
20
-58.1075
11
61.2983
21
-58.099
0
LINE
8
Black
10
61.2983
20
-58.099
11
61.2892
21
-58.0926
0
LINE
8
Black
10
61.2892
20
-58.0926
11
61.2742
21
-58.0776
0
LINE
8
Black
10
61.2742
20
-58.0776
11
61.0707
21
-57.9931
0
LINE
8
Black
10
61.0707
20
-57.9931
11
60.8503
21
-57.9929
0
LINE
8
Black
10
60.8503
20
-57.9929
11
60.6466
21
-58.0771
0
LINE
8
Black
10
60.6466
20
-58.0771
11
60.4906
21
-58.2328
0
LINE
8
Black
10
60.4906
20
-58.2328
11
60.4061
21
-58.4363
0
LINE
8
Black
10
60.4061
20
-58.4363
11
60.4059
21
-58.6567
0
LINE
8
Black
10
60.4059
20
-58.6567
11
60.4901
21
-58.8604
0
LINE
8
Black
10
60.4901
20
-58.8604
11
60.6458
21
-59.0164
0
LINE
8
Black
10
60.6458
20
-59.0164
11
60.8493
21
-59.1009
0
LINE
8
Black
10
60.8493
20
-59.1009
11
61.0697
21
-59.1011
0
LINE
8
Black
10
61.0697
20
-59.1011
11
61.2734
21
-59.0169
0
LINE
8
Black
10
61.2734
20
-59.0169
11
61.2893
21
-59.0011
0
LINE
8
Black
10
61.2893
20
-59.0011
11
61.2982
21
-58.9948
0
LINE
8
Black
10
61.2982
20
-58.9948
11
61.3052
21
-58.9865
0
LINE
8
Black
10
61.3052
20
-58.9865
11
61.3336
21
-58.9701
0
LINE
8
Black
10
61.3336
20
-58.9701
11
61.3605
21
-58.9513
0
LINE
8
Black
10
61.3605
20
-58.9513
11
61.371
21
-58.9485
0
LINE
8
Black
10
61.371
20
-58.9485
11
61.3804
21
-58.9431
0
LINE
8
Black
10
61.3804
20
-58.9431
11
61.4127
21
-58.9374
0
LINE
8
Black
10
61.4127
20
-58.9374
11
61.4443
21
-58.9289
0
LINE
8
Black
10
61.4443
20
-58.9289
11
61.4552
21
-58.9299
0
LINE
8
Black
10
61.4552
20
-58.9299
11
61.4659
21
-58.928
0
LINE
8
Black
10
61.4659
20
-58.928
11
69.4709
21
-58.928
0
LINE
8
Black
10
69.4709
20
-58.928
11
69.4818
21
-58.9299
0
LINE
8
Black
10
69.4818
20
-58.9299
11
69.4929
21
-58.929
0
LINE
8
Black
10
69.4929
20
-58.929
11
69.5243
21
-58.9374
0
LINE
8
Black
10
69.5243
20
-58.9374
11
69.5564
21
-58.9431
0
LINE
8
Black
10
69.5564
20
-58.9431
11
69.566
21
-58.9486
0
LINE
8
Black
10
69.566
20
-58.9486
11
69.5767
21
-58.9515
0
LINE
8
Black
10
69.5767
20
-58.9515
11
69.6034
21
-58.9702
0
LINE
8
Black
10
69.6034
20
-58.9702
11
69.6316
21
-58.9865
0
LINE
8
Black
10
69.6316
20
-58.9865
11
69.6387
21
-58.995
0
LINE
8
Black
10
69.6387
20
-58.995
11
69.6478
21
-59.0014
0
LINE
8
Black
10
69.6478
20
-59.0014
11
69.6628
21
-59.0164
0
LINE
8
Black
10
69.6628
20
-59.0164
11
69.8663
21
-59.1009
0
LINE
8
Black
10
69.8663
20
-59.1009
11
70.0867
21
-59.1011
0
LINE
8
Black
10
70.0867
20
-59.1011
11
70.2904
21
-59.0169
0
LINE
8
Black
10
70.2904
20
-59.0169
11
70.4464
21
-58.8612
0
LINE
8
Black
10
70.4464
20
-58.8612
11
70.5309
21
-58.6577
0
LINE
8
Black
10
70.5309
20
-58.6577
11
70.5311
21
-58.4373
0
LINE
8
Black
10
70.5311
20
-58.4373
11
70.4469
21
-58.2336
0
LINE
8
Black
10
70.4469
20
-58.2336
11
70.2912
21
-58.0776
0
LINE
8
Black
10
70.2912
20
-58.0776
11
70.0877
21
-57.9931
0
LINE
8
Black
10
70.0877
20
-57.9931
11
69.8673
21
-57.9929
0
LINE
8
Black
10
69.8673
20
-57.9929
11
69.6636
21
-58.0771
0
LINE
8
Black
10
34.8172
20
-58.4516
11
35.0087
21
-58.4586
0
LINE
8
Black
10
35.0087
20
-58.4586
11
35.2174
21
-58.381
0
LINE
8
Black
10
35.2174
20
-58.381
11
34.8172
21
-58.4516
0
LINE
8
Black
10
39.8972
20
-58.4516
11
40.0887
21
-58.4586
0
LINE
8
Black
10
40.0887
20
-58.4586
11
40.2974
21
-58.381
0
LINE
8
Black
10
40.2974
20
-58.381
11
39.8972
21
-58.4516
0
LINE
8
Black
10
34.4918
20
-58.4396
11
34.7687
21
-58.4498
0
LINE
8
Black
10
34.7687
20
-58.4498
11
34.3546
21
-58.3768
0
LINE
8
Black
10
34.3546
20
-58.3768
11
34.4918
21
-58.4396
0
LINE
8
Black
10
39.5718
20
-58.4396
11
39.8487
21
-58.4498
0
LINE
8
Black
10
39.8487
20
-58.4498
11
39.4346
21
-58.3768
0
LINE
8
Black
10
39.4346
20
-58.3768
11
39.5718
21
-58.4396
0
LINE
8
Black
10
34.0637
20
-58.2435
11
34.3447
21
-58.3723
0
LINE
8
Black
10
34.3447
20
-58.3723
11
34.0849
21
-58.2223
0
LINE
8
Black
10
34.0849
20
-58.2223
11
34.0637
21
-58.2435
0
LINE
8
Black
10
39.1437
20
-58.2435
11
39.4247
21
-58.3723
0
LINE
8
Black
10
39.4247
20
-58.3723
11
39.1649
21
-58.2223
0
LINE
8
Black
10
39.1649
20
-58.2223
11
39.1437
21
-58.2435
0
LINE
8
Black
10
35.2699
20
-58.3615
11
35.5126
21
-58.2713
0
LINE
8
Black
10
35.5126
20
-58.2713
11
35.541
21
-58.2523
0
LINE
8
Black
10
35.541
20
-58.2523
11
35.5111
21
-58.2223
0
LINE
8
Black
10
35.5111
20
-58.2223
11
35.2699
21
-58.3615
0
LINE
8
Black
10
40.3499
20
-58.3615
11
40.5926
21
-58.2713
0
LINE
8
Black
10
40.5926
20
-58.2713
11
40.621
21
-58.2523
0
LINE
8
Black
10
40.621
20
-58.2523
11
40.5911
21
-58.2223
0
LINE
8
Black
10
40.5911
20
-58.2223
11
40.3499
21
-58.3615
0
LINE
8
Black
10
38.5884
20
-56.8438
11
38.5694
21
-57.3607
0
LINE
8
Black
10
38.5694
20
-57.3607
11
38.7567
21
-57.8646
0
LINE
8
Black
10
38.7567
20
-57.8646
11
38.7757
21
-57.893
0
LINE
8
Black
10
38.7757
20
-57.893
11
38.8019
21
-57.8669
0
LINE
8
Black
10
38.8019
20
-57.8669
11
38.7479
21
-57.8025
0
LINE
8
Black
10
38.7479
20
-57.8025
11
38.5929
21
-57.3766
0
LINE
8
Black
10
38.5929
20
-57.3766
11
38.5929
21
-56.9234
0
LINE
8
Black
10
38.5929
20
-56.9234
11
38.7479
21
-56.4975
0
LINE
8
Black
10
38.7479
20
-56.4975
11
38.8019
21
-56.4331
0
LINE
8
Black
10
38.8019
20
-56.4331
11
38.7845
21
-56.4157
0
LINE
8
Black
10
38.7845
20
-56.4157
11
38.5884
21
-56.8438
0
LINE
8
Black
10
35.8741
20
-56.4331
11
35.9281
21
-56.4975
0
LINE
8
Black
10
35.9281
20
-56.4975
11
36.0831
21
-56.9234
0
LINE
8
Black
10
36.0831
20
-56.9234
11
36.0831
21
-57.3766
0
LINE
8
Black
10
36.0831
20
-57.3766
11
35.9281
21
-57.8025
0
LINE
8
Black
10
35.9281
20
-57.8025
11
35.8741
21
-57.8669
0
LINE
8
Black
10
35.8741
20
-57.8669
11
35.8915
21
-57.8843
0
LINE
8
Black
10
35.8915
20
-57.8843
11
36.0876
21
-57.4562
0
LINE
8
Black
10
36.0876
20
-57.4562
11
36.09
21
-57.392
0
LINE
8
Black
10
36.09
20
-57.392
11
36.1066
21
-56.9393
0
LINE
8
Black
10
36.1066
20
-56.9393
11
35.9193
21
-56.4354
0
LINE
8
Black
10
35.9193
20
-56.4354
11
35.9002
21
-56.407
0
LINE
8
Black
10
35.9002
20
-56.407
11
35.8741
21
-56.4331
0
LINE
8
Black
10
40.9541
20
-56.4331
11
41.0081
21
-56.4975
0
LINE
8
Black
10
41.0081
20
-56.4975
11
41.1631
21
-56.9234
0
LINE
8
Black
10
41.1631
20
-56.9234
11
41.1631
21
-57.3766
0
LINE
8
Black
10
41.1631
20
-57.3766
11
41.0081
21
-57.8025
0
LINE
8
Black
10
41.0081
20
-57.8025
11
40.9541
21
-57.8669
0
LINE
8
Black
10
40.9541
20
-57.8669
11
40.9715
21
-57.8843
0
LINE
8
Black
10
40.9715
20
-57.8843
11
40.9918
21
-57.8401
0
LINE
8
Black
10
40.9918
20
-57.8401
11
41.1676
21
-57.4562
0
LINE
8
Black
10
41.1676
20
-57.4562
11
41.1866
21
-56.9393
0
LINE
8
Black
10
41.1866
20
-56.9393
11
40.9993
21
-56.4354
0
LINE
8
Black
10
40.9993
20
-56.4354
11
40.9802
21
-56.407
0
LINE
8
Black
10
40.9802
20
-56.407
11
40.9541
21
-56.4331
0
LINE
8
Black
10
35.5111
20
-56.0777
11
35.5323
21
-56.0565
0
LINE
8
Black
10
35.5323
20
-56.0565
11
35.2513
21
-55.9277
0
LINE
8
Black
10
35.2513
20
-55.9277
11
35.5111
21
-56.0777
0
LINE
8
Black
10
40.5911
20
-56.0777
11
40.6123
21
-56.0565
0
LINE
8
Black
10
40.6123
20
-56.0565
11
40.3313
21
-55.9277
0
LINE
8
Black
10
40.3313
20
-55.9277
11
40.5911
21
-56.0777
0
LINE
8
Black
10
34.0834
20
-56.0287
11
34.055
21
-56.0477
0
LINE
8
Black
10
34.055
20
-56.0477
11
34.0849
21
-56.0777
0
LINE
8
Black
10
34.0849
20
-56.0777
11
34.3261
21
-55.9385
0
LINE
8
Black
10
34.3261
20
-55.9385
11
34.0834
21
-56.0287
0
LINE
8
Black
10
39.1634
20
-56.0287
11
39.135
21
-56.0477
0
LINE
8
Black
10
39.135
20
-56.0477
11
39.1649
21
-56.0777
0
LINE
8
Black
10
39.1649
20
-56.0777
11
39.4061
21
-55.9385
0
LINE
8
Black
10
39.4061
20
-55.9385
11
39.1634
21
-56.0287
0
LINE
8
Black
10
35.2414
20
-55.9232
11
35.1042
21
-55.8604
0
LINE
8
Black
10
35.1042
20
-55.8604
11
34.8273
21
-55.8502
0
LINE
8
Black
10
34.8273
20
-55.8502
11
35.2414
21
-55.9232
0
LINE
8
Black
10
40.3214
20
-55.9232
11
40.1842
21
-55.8604
0
LINE
8
Black
10
40.1842
20
-55.8604
11
39.9073
21
-55.8502
0
LINE
8
Black
10
39.9073
20
-55.8502
11
40.3214
21
-55.9232
0
LINE
8
Black
10
34.3786
20
-55.919
11
34.7788
21
-55.8484
0
LINE
8
Black
10
34.7788
20
-55.8484
11
34.5873
21
-55.8414
0
LINE
8
Black
10
34.5873
20
-55.8414
11
34.3786
21
-55.919
0
LINE
8
Black
10
39.4586
20
-55.919
11
39.8588
21
-55.8484
0
LINE
8
Black
10
39.8588
20
-55.8484
11
39.6673
21
-55.8414
0
LINE
8
Black
10
39.6673
20
-55.8414
11
39.4586
21
-55.919
0
LINE
8
Black
10
78.6806
20
-47.5361
11
78.5246
21
-47.6918
0
LINE
8
Black
10
78.5246
20
-47.6918
11
78.4401
21
-47.8953
0
LINE
8
Black
10
78.4401
20
-47.8953
11
78.4399
21
-48.1157
0
LINE
8
Black
10
78.4399
20
-48.1157
11
78.4671
21
-48.1814
0
LINE
8
Black
10
78.4671
20
-48.1814
11
78.4682
21
-48.1867
0
LINE
8
Black
10
78.4682
20
-48.1867
11
78.4709
21
-48.1914
0
LINE
8
Black
10
78.4709
20
-48.1914
11
78.4775
21
-48.229
0
LINE
8
Black
10
78.4775
20
-48.229
11
78.4858
21
-48.2662
0
LINE
8
Black
10
78.4858
20
-48.2662
11
78.4851
21
-48.2716
0
LINE
8
Black
10
78.4851
20
-48.2716
11
78.486
21
-48.2769
0
LINE
8
Black
10
78.486
20
-48.2769
11
78.486
21
-49.851
0
LINE
8
Black
10
78.486
20
-49.851
11
78.4841
21
-49.8619
0
LINE
8
Black
10
78.4841
20
-49.8619
11
78.485
21
-49.8728
0
LINE
8
Black
10
78.485
20
-49.8728
11
78.4766
21
-49.9044
0
LINE
8
Black
10
78.4766
20
-49.9044
11
78.4709
21
-49.9365
0
LINE
8
Black
10
78.4709
20
-49.9365
11
78.4654
21
-49.9461
0
LINE
8
Black
10
78.4654
20
-49.9461
11
78.4626
21
-49.9567
0
LINE
8
Black
10
78.4626
20
-49.9567
11
78.4438
21
-49.9834
0
LINE
8
Black
10
78.4438
20
-49.9834
11
78.4275
21
-50.0117
0
LINE
8
Black
10
78.4275
20
-50.0117
11
78.4191
21
-50.0188
0
LINE
8
Black
10
78.4191
20
-50.0188
11
78.4128
21
-50.0278
0
LINE
8
Black
10
78.4128
20
-50.0278
11
75.1435
21
-53.2971
0
LINE
8
Black
10
75.1435
20
-53.2971
11
75.1389
21
-53.3003
0
LINE
8
Black
10
75.1389
20
-53.3003
11
75.1354
21
-53.3048
0
LINE
8
Black
10
75.1354
20
-53.3048
11
75.1034
21
-53.3252
0
LINE
8
Black
10
75.1034
20
-53.3252
11
75.0723
21
-53.3469
0
LINE
8
Black
10
75.0723
20
-53.3469
11
75.0669
21
-53.3484
0
LINE
8
Black
10
75.0669
20
-53.3484
11
75.0622
21
-53.3514
0
LINE
8
Black
10
75.0622
20
-53.3514
11
74.9976
21
-53.3781
0
LINE
8
Black
10
74.9976
20
-53.3781
11
74.8416
21
-53.5338
0
LINE
8
Black
10
74.8416
20
-53.5338
11
74.7571
21
-53.7373
0
LINE
8
Black
10
74.7571
20
-53.7373
11
74.7569
21
-53.9577
0
LINE
8
Black
10
74.7569
20
-53.9577
11
74.8411
21
-54.1614
0
LINE
8
Black
10
74.8411
20
-54.1614
11
74.9968
21
-54.3174
0
LINE
8
Black
10
74.9968
20
-54.3174
11
75.2003
21
-54.4019
0
LINE
8
Black
10
75.2003
20
-54.4019
11
75.4207
21
-54.4021
0
LINE
8
Black
10
75.4207
20
-54.4021
11
75.6244
21
-54.3179
0
LINE
8
Black
10
75.6244
20
-54.3179
11
75.7804
21
-54.1622
0
LINE
8
Black
10
75.7804
20
-54.1622
11
75.8076
21
-54.0966
0
LINE
8
Black
10
75.8076
20
-54.0966
11
75.8106
21
-54.092
0
LINE
8
Black
10
75.8106
20
-54.092
11
75.812
21
-54.0868
0
LINE
8
Black
10
75.812
20
-54.0868
11
75.8338
21
-54.0555
0
LINE
8
Black
10
75.8338
20
-54.0555
11
75.8544
21
-54.0234
0
LINE
8
Black
10
75.8544
20
-54.0234
11
75.8587
21
-54.0201
0
LINE
8
Black
10
75.8587
20
-54.0201
11
75.8618
21
-54.0157
0
LINE
8
Black
10
75.8618
20
-54.0157
11
79.3358
21
-50.5416
0
LINE
8
Black
10
79.3358
20
-50.5416
11
79.4588
21
-50.3575
0
LINE
8
Black
10
79.4588
20
-50.3575
11
79.502
21
-50.1404
0
LINE
8
Black
10
79.502
20
-50.1404
11
79.502
21
-48.2771
0
LINE
8
Black
10
79.502
20
-48.2771
11
79.503
21
-48.2715
0
LINE
8
Black
10
79.503
20
-48.2715
11
79.5022
21
-48.2659
0
LINE
8
Black
10
79.5022
20
-48.2659
11
79.5105
21
-48.2289
0
LINE
8
Black
10
79.5105
20
-48.2289
11
79.5171
21
-48.1916
0
LINE
8
Black
10
79.5171
20
-48.1916
11
79.5199
21
-48.1867
0
LINE
8
Black
10
79.5199
20
-48.1867
11
79.5211
21
-48.1812
0
LINE
8
Black
10
79.5211
20
-48.1812
11
79.5479
21
-48.1167
0
LINE
8
Black
10
79.5479
20
-48.1167
11
79.5481
21
-47.8963
0
LINE
8
Black
10
79.5481
20
-47.8963
11
79.4639
21
-47.6926
0
LINE
8
Black
10
79.4639
20
-47.6926
11
79.3082
21
-47.5366
0
LINE
8
Black
10
79.3082
20
-47.5366
11
79.1047
21
-47.4521
0
LINE
8
Black
10
79.1047
20
-47.4521
11
78.8843
21
-47.4519
0
LINE
8
Black
10
78.8843
20
-47.4519
11
78.6806
21
-47.5361
0
LINE
8
Black
10
75.7596
20
-47.9171
11
75.6036
21
-48.0728
0
LINE
8
Black
10
75.6036
20
-48.0728
11
75.5191
21
-48.2763
0
LINE
8
Black
10
75.5191
20
-48.2763
11
75.5189
21
-48.4967
0
LINE
8
Black
10
75.5189
20
-48.4967
11
75.6031
21
-48.7004
0
LINE
8
Black
10
75.6031
20
-48.7004
11
75.6189
21
-48.7163
0
LINE
8
Black
10
75.6189
20
-48.7163
11
75.6252
21
-48.7252
0
LINE
8
Black
10
75.6252
20
-48.7252
11
75.6335
21
-48.7322
0
LINE
8
Black
10
75.6335
20
-48.7322
11
75.6499
21
-48.7606
0
LINE
8
Black
10
75.6499
20
-48.7606
11
75.6687
21
-48.7875
0
LINE
8
Black
10
75.6687
20
-48.7875
11
75.6715
21
-48.798
0
LINE
8
Black
10
75.6715
20
-48.798
11
75.6769
21
-48.8074
0
LINE
8
Black
10
75.6769
20
-48.8074
11
75.6826
21
-48.8397
0
LINE
8
Black
10
75.6826
20
-48.8397
11
75.6911
21
-48.8713
0
LINE
8
Black
10
75.6911
20
-48.8713
11
75.6901
21
-48.8822
0
LINE
8
Black
10
75.6901
20
-48.8822
11
75.692
21
-48.8929
0
LINE
8
Black
10
75.692
20
-48.8929
11
75.692
21
-50.2939
0
LINE
8
Black
10
75.692
20
-50.2939
11
75.6901
21
-50.3048
0
LINE
8
Black
10
75.6901
20
-50.3048
11
75.691
21
-50.3159
0
LINE
8
Black
10
75.691
20
-50.3159
11
75.6826
21
-50.3473
0
LINE
8
Black
10
75.6826
20
-50.3473
11
75.6769
21
-50.3794
0
LINE
8
Black
10
75.6769
20
-50.3794
11
75.6714
21
-50.389
0
LINE
8
Black
10
75.6714
20
-50.389
11
75.6685
21
-50.3997
0
LINE
8
Black
10
75.6685
20
-50.3997
11
75.6498
21
-50.4264
0
LINE
8
Black
10
75.6498
20
-50.4264
11
75.6335
21
-50.4546
0
LINE
8
Black
10
75.6335
20
-50.4546
11
75.625
21
-50.4617
0
LINE
8
Black
10
75.625
20
-50.4617
11
75.6186
21
-50.4708
0
LINE
8
Black
10
75.6186
20
-50.4708
11
75.6036
21
-50.4858
0
LINE
8
Black
10
75.6036
20
-50.4858
11
75.5191
21
-50.6893
0
LINE
8
Black
10
75.5191
20
-50.6893
11
75.5189
21
-50.9097
0
LINE
8
Black
10
75.5189
20
-50.9097
11
75.6031
21
-51.1134
0
LINE
8
Black
10
75.6031
20
-51.1134
11
75.7588
21
-51.2694
0
LINE
8
Black
10
75.7588
20
-51.2694
11
75.9623
21
-51.3539
0
LINE
8
Black
10
75.9623
20
-51.3539
11
76.1827
21
-51.3541
0
LINE
8
Black
10
76.1827
20
-51.3541
11
76.3864
21
-51.2699
0
LINE
8
Black
10
76.3864
20
-51.2699
11
76.5424
21
-51.1142
0
LINE
8
Black
10
76.5424
20
-51.1142
11
76.6269
21
-50.9107
0
LINE
8
Black
10
76.6269
20
-50.9107
11
76.6271
21
-50.6903
0
LINE
8
Black
10
76.6271
20
-50.6903
11
76.5429
21
-50.4866
0
LINE
8
Black
10
76.5429
20
-50.4866
11
76.5271
21
-50.4707
0
LINE
8
Black
10
76.5271
20
-50.4707
11
76.5208
21
-50.4618
0
LINE
8
Black
10
76.5208
20
-50.4618
11
76.5125
21
-50.4548
0
LINE
8
Black
10
76.5125
20
-50.4548
11
76.4961
21
-50.4264
0
LINE
8
Black
10
76.4961
20
-50.4264
11
76.4773
21
-50.3995
0
LINE
8
Black
10
76.4773
20
-50.3995
11
76.4745
21
-50.389
0
LINE
8
Black
10
76.4745
20
-50.389
11
76.4691
21
-50.3796
0
LINE
8
Black
10
76.4691
20
-50.3796
11
76.4634
21
-50.3473
0
LINE
8
Black
10
76.4634
20
-50.3473
11
76.4549
21
-50.3157
0
LINE
8
Black
10
76.4549
20
-50.3157
11
76.4559
21
-50.3048
0
LINE
8
Black
10
76.4559
20
-50.3048
11
76.454
21
-50.2941
0
LINE
8
Black
10
76.454
20
-50.2941
11
76.454
21
-48.8931
0
LINE
8
Black
10
76.454
20
-48.8931
11
76.4559
21
-48.8822
0
LINE
8
Black
10
76.4559
20
-48.8822
11
76.455
21
-48.8711
0
LINE
8
Black
10
76.455
20
-48.8711
11
76.4634
21
-48.8397
0
LINE
8
Black
10
76.4634
20
-48.8397
11
76.4691
21
-48.8076
0
LINE
8
Black
10
76.4691
20
-48.8076
11
76.4746
21
-48.798
0
LINE
8
Black
10
76.4746
20
-48.798
11
76.4775
21
-48.7873
0
LINE
8
Black
10
76.4775
20
-48.7873
11
76.4962
21
-48.7606
0
LINE
8
Black
10
76.4962
20
-48.7606
11
76.5125
21
-48.7324
0
LINE
8
Black
10
76.5125
20
-48.7324
11
76.521
21
-48.7253
0
LINE
8
Black
10
76.521
20
-48.7253
11
76.5274
21
-48.7162
0
LINE
8
Black
10
76.5274
20
-48.7162
11
76.5424
21
-48.7012
0
LINE
8
Black
10
76.5424
20
-48.7012
11
76.6269
21
-48.4977
0
LINE
8
Black
10
76.6269
20
-48.4977
11
76.6271
21
-48.2773
0
LINE
8
Black
10
76.6271
20
-48.2773
11
76.5429
21
-48.0736
0
LINE
8
Black
10
76.5429
20
-48.0736
11
76.3872
21
-47.9176
0
LINE
8
Black
10
76.3872
20
-47.9176
11
76.1837
21
-47.8331
0
LINE
8
Black
10
76.1837
20
-47.8331
11
75.9633
21
-47.8329
0
LINE
8
Black
10
75.9633
20
-47.8329
11
75.7596
21
-47.9171
0
LINE
8
Black
10
37.7672
20
-58.5109
11
38.1446
21
-58.7288
0
LINE
8
Black
10
38.1446
20
-58.7288
11
38.4247
21
-59.0626
0
LINE
8
Black
10
38.4247
20
-59.0626
11
38.5737
21
-59.4721
0
LINE
8
Black
10
38.5737
20
-59.4721
11
38.5737
21
-59.9079
0
LINE
8
Black
10
38.5737
20
-59.9079
11
38.4247
21
-60.3174
0
LINE
8
Black
10
38.4247
20
-60.3174
11
38.1446
21
-60.6512
0
LINE
8
Black
10
38.1446
20
-60.6512
11
37.7672
21
-60.8691
0
LINE
8
Black
10
37.7672
20
-60.8691
11
37.338
21
-60.9448
0
LINE
8
Black
10
37.338
20
-60.9448
11
36.9088
21
-60.8691
0
LINE
8
Black
10
36.9088
20
-60.8691
11
36.5314
21
-60.6512
0
LINE
8
Black
10
36.5314
20
-60.6512
11
36.2513
21
-60.3174
0
LINE
8
Black
10
36.2513
20
-60.3174
11
36.1023
21
-59.9079
0
LINE
8
Black
10
36.1023
20
-59.9079
11
36.1023
21
-59.4721
0
LINE
8
Black
10
36.1023
20
-59.4721
11
36.2513
21
-59.0626
0
LINE
8
Black
10
36.2513
20
-59.0626
11
36.5314
21
-58.7288
0
LINE
8
Black
10
36.5314
20
-58.7288
11
36.9088
21
-58.5109
0
LINE
8
Black
10
36.9088
20
-58.5109
11
37.338
21
-58.4352
0
LINE
8
Black
10
37.338
20
-58.4352
11
37.7672
21
-58.5109
0
LINE
8
Black
10
56.653
20
-57.4059
11
56.6641
21
-57.405
0
LINE
8
Black
10
56.6641
20
-57.405
11
56.6962
21
-57.4136
0
LINE
8
Black
10
56.6962
20
-57.4136
11
56.7289
21
-57.4193
0
LINE
8
Black
10
56.7289
20
-57.4193
11
56.7386
21
-57.4249
0
LINE
8
Black
10
56.7386
20
-57.4249
11
56.7493
21
-57.4278
0
LINE
8
Black
10
56.7493
20
-57.4278
11
56.7765
21
-57.4468
0
LINE
8
Black
10
56.7765
20
-57.4468
11
56.8053
21
-57.4634
0
LINE
8
Black
10
56.8053
20
-57.4634
11
56.8125
21
-57.472
0
LINE
8
Black
10
56.8125
20
-57.472
11
56.8216
21
-57.4784
0
LINE
8
Black
10
56.8216
20
-57.4784
11
59.4142
21
-60.071
0
LINE
8
Black
10
59.4142
20
-60.071
11
71.4748
21
-60.071
0
LINE
8
Black
10
71.4748
20
-60.071
11
71.525
21
-60.042
0
LINE
8
Black
10
71.525
20
-60.042
11
71.628
21
-60.0239
0
LINE
8
Black
10
71.628
20
-60.0239
11
71.731
21
-60.042
0
LINE
8
Black
10
71.731
20
-60.042
11
71.8216
21
-60.0943
0
LINE
8
Black
10
71.8216
20
-60.0943
11
71.8888
21
-60.1744
0
LINE
8
Black
10
71.8888
20
-60.1744
11
71.9246
21
-60.2727
0
LINE
8
Black
10
71.9246
20
-60.2727
11
71.9246
21
-60.3773
0
LINE
8
Black
10
71.9246
20
-60.3773
11
71.8888
21
-60.4756
0
LINE
8
Black
10
71.8888
20
-60.4756
11
71.8216
21
-60.5557
0
LINE
8
Black
10
71.8216
20
-60.5557
11
71.731
21
-60.608
0
LINE
8
Black
10
71.731
20
-60.608
11
71.628
21
-60.6261
0
LINE
8
Black
10
71.628
20
-60.6261
11
71.525
21
-60.608
0
LINE
8
Black
10
71.525
20
-60.608
11
71.4748
21
-60.579
0
LINE
8
Black
10
71.4748
20
-60.579
11
59.309
21
-60.579
0
LINE
8
Black
10
59.309
20
-60.579
11
59.298
21
-60.5771
0
LINE
8
Black
10
59.298
20
-60.5771
11
59.2869
21
-60.578
0
LINE
8
Black
10
59.2869
20
-60.578
11
59.2548
21
-60.5694
0
LINE
8
Black
10
59.2548
20
-60.5694
11
59.2221
21
-60.5637
0
LINE
8
Black
10
59.2221
20
-60.5637
11
59.2124
21
-60.5581
0
LINE
8
Black
10
59.2124
20
-60.5581
11
59.2017
21
-60.5552
0
LINE
8
Black
10
59.2017
20
-60.5552
11
59.1745
21
-60.5362
0
LINE
8
Black
10
59.1745
20
-60.5362
11
59.1457
21
-60.5196
0
LINE
8
Black
10
59.1457
20
-60.5196
11
59.1385
21
-60.511
0
LINE
8
Black
10
59.1385
20
-60.511
11
59.1294
21
-60.5046
0
LINE
8
Black
10
59.1294
20
-60.5046
11
56.5368
21
-57.912
0
LINE
8
Black
10
56.5368
20
-57.912
11
53.4824
21
-57.912
0
LINE
8
Black
10
53.4824
20
-57.912
11
53.4738
21
-57.9356
0
LINE
8
Black
10
53.4738
20
-57.9356
11
53.4066
21
-58.0157
0
LINE
8
Black
10
53.4066
20
-58.0157
11
53.316
21
-58.068
0
LINE
8
Black
10
53.316
20
-58.068
11
53.213
21
-58.0861
0
LINE
8
Black
10
53.213
20
-58.0861
11
53.11
21
-58.068
0
LINE
8
Black
10
53.11
20
-58.068
11
53.0194
21
-58.0157
0
LINE
8
Black
10
53.0194
20
-58.0157
11
52.9522
21
-57.9356
0
LINE
8
Black
10
52.9522
20
-57.9356
11
52.9164
21
-57.8373
0
LINE
8
Black
10
52.9164
20
-57.8373
11
52.9164
21
-57.7327
0
LINE
8
Black
10
52.9164
20
-57.7327
11
52.9522
21
-57.6344
0
LINE
8
Black
10
52.9522
20
-57.6344
11
53.0194
21
-57.5543
0
LINE
8
Black
10
53.0194
20
-57.5543
11
53.11
21
-57.502
0
LINE
8
Black
10
53.11
20
-57.502
11
53.1425
21
-57.4963
0
LINE
8
Black
10
53.1425
20
-57.4963
11
53.1604
21
-57.4784
0
LINE
8
Black
10
53.1604
20
-57.4784
11
53.1695
21
-57.472
0
LINE
8
Black
10
53.1695
20
-57.472
11
53.1767
21
-57.4634
0
LINE
8
Black
10
53.1767
20
-57.4634
11
53.2055
21
-57.4468
0
LINE
8
Black
10
53.2055
20
-57.4468
11
53.2327
21
-57.4278
0
LINE
8
Black
10
53.2327
20
-57.4278
11
53.2434
21
-57.4249
0
LINE
8
Black
10
53.2434
20
-57.4249
11
53.2531
21
-57.4193
0
LINE
8
Black
10
53.2531
20
-57.4193
11
53.2858
21
-57.4136
0
LINE
8
Black
10
53.2858
20
-57.4136
11
53.3179
21
-57.405
0
LINE
8
Black
10
53.3179
20
-57.405
11
53.329
21
-57.4059
0
LINE
8
Black
10
53.329
20
-57.4059
11
53.34
21
-57.404
0
LINE
8
Black
10
53.34
20
-57.404
11
56.642
21
-57.404
0
LINE
8
Black
10
56.642
20
-57.404
11
56.653
21
-57.4059
0
LINE
8
Black
10
83.098
20
-58.3833
11
83.3536
21
-58.5309
0
LINE
8
Black
10
83.3536
20
-58.5309
11
83.5434
21
-58.757
0
LINE
8
Black
10
83.5434
20
-58.757
11
83.6443
21
-59.0344
0
LINE
8
Black
10
83.6443
20
-59.0344
11
83.6443
21
-59.3296
0
LINE
8
Black
10
83.6443
20
-59.3296
11
83.5434
21
-59.607
0
LINE
8
Black
10
83.5434
20
-59.607
11
83.3536
21
-59.8331
0
LINE
8
Black
10
83.3536
20
-59.8331
11
83.098
21
-59.9807
0
LINE
8
Black
10
83.098
20
-59.9807
11
82.8072
21
-60.032
0
LINE
8
Black
10
82.8072
20
-60.032
11
82.8008
21
-60.032
0
LINE
8
Black
10
82.8008
20
-60.032
11
82.51
21
-59.9807
0
LINE
8
Black
10
82.51
20
-59.9807
11
82.2544
21
-59.8331
0
LINE
8
Black
10
82.2544
20
-59.8331
11
82.0646
21
-59.607
0
LINE
8
Black
10
82.0646
20
-59.607
11
81.9637
21
-59.3296
0
LINE
8
Black
10
81.9637
20
-59.3296
11
81.9637
21
-59.0344
0
LINE
8
Black
10
81.9637
20
-59.0344
11
82.0646
21
-58.757
0
LINE
8
Black
10
82.0646
20
-58.757
11
82.2544
21
-58.5309
0
LINE
8
Black
10
82.2544
20
-58.5309
11
82.51
21
-58.3833
0
LINE
8
Black
10
82.51
20
-58.3833
11
82.8008
21
-58.332
0
LINE
8
Black
10
82.8008
20
-58.332
11
82.8072
21
-58.332
0
LINE
8
Black
10
82.8072
20
-58.332
11
83.098
21
-58.3833
0
LINE
8
Black
10
83.098
20
-55.8433
11
83.3536
21
-55.9909
0
LINE
8
Black
10
83.3536
20
-55.9909
11
83.5434
21
-56.217
0
LINE
8
Black
10
83.5434
20
-56.217
11
83.6443
21
-56.4944
0
LINE
8
Black
10
83.6443
20
-56.4944
11
83.6443
21
-56.7896
0
LINE
8
Black
10
83.6443
20
-56.7896
11
83.5434
21
-57.067
0
LINE
8
Black
10
83.5434
20
-57.067
11
83.3536
21
-57.2931
0
LINE
8
Black
10
83.3536
20
-57.2931
11
83.098
21
-57.4407
0
LINE
8
Black
10
83.098
20
-57.4407
11
82.8072
21
-57.492
0
LINE
8
Black
10
82.8072
20
-57.492
11
82.8008
21
-57.492
0
LINE
8
Black
10
82.8008
20
-57.492
11
82.51
21
-57.4407
0
LINE
8
Black
10
82.51
20
-57.4407
11
82.2544
21
-57.2931
0
LINE
8
Black
10
82.2544
20
-57.2931
11
82.0646
21
-57.067
0
LINE
8
Black
10
82.0646
20
-57.067
11
81.9637
21
-56.7896
0
LINE
8
Black
10
81.9637
20
-56.7896
11
81.9637
21
-56.4944
0
LINE
8
Black
10
81.9637
20
-56.4944
11
82.0646
21
-56.217
0
LINE
8
Black
10
82.0646
20
-56.217
11
82.2544
21
-55.9909
0
LINE
8
Black
10
82.2544
20
-55.9909
11
82.51
21
-55.8433
0
LINE
8
Black
10
82.51
20
-55.8433
11
82.8008
21
-55.792
0
LINE
8
Black
10
82.8008
20
-55.792
11
82.8072
21
-55.792
0
LINE
8
Black
10
82.8072
20
-55.792
11
83.098
21
-55.8433
0
LINE
8
Black
10
83.098
20
-53.3033
11
83.3536
21
-53.4509
0
LINE
8
Black
10
83.3536
20
-53.4509
11
83.5434
21
-53.677
0
LINE
8
Black
10
83.5434
20
-53.677
11
83.6443
21
-53.9544
0
LINE
8
Black
10
83.6443
20
-53.9544
11
83.6443
21
-54.2496
0
LINE
8
Black
10
83.6443
20
-54.2496
11
83.5434
21
-54.527
0
LINE
8
Black
10
83.5434
20
-54.527
11
83.3536
21
-54.7531
0
LINE
8
Black
10
83.3536
20
-54.7531
11
83.098
21
-54.9007
0
LINE
8
Black
10
83.098
20
-54.9007
11
82.8072
21
-54.952
0
LINE
8
Black
10
82.8072
20
-54.952
11
82.8008
21
-54.952
0
LINE
8
Black
10
82.8008
20
-54.952
11
82.51
21
-54.9007
0
LINE
8
Black
10
82.51
20
-54.9007
11
82.2544
21
-54.7531
0
LINE
8
Black
10
82.2544
20
-54.7531
11
82.0646
21
-54.527
0
LINE
8
Black
10
82.0646
20
-54.527
11
81.9637
21
-54.2496
0
LINE
8
Black
10
81.9637
20
-54.2496
11
81.9637
21
-53.9544
0
LINE
8
Black
10
81.9637
20
-53.9544
11
82.0646
21
-53.677
0
LINE
8
Black
10
82.0646
20
-53.677
11
82.2544
21
-53.4509
0
LINE
8
Black
10
82.2544
20
-53.4509
11
82.51
21
-53.3033
0
LINE
8
Black
10
82.51
20
-53.3033
11
82.8008
21
-53.252
0
LINE
8
Black
10
82.8008
20
-53.252
11
82.8072
21
-53.252
0
LINE
8
Black
10
82.8072
20
-53.252
11
83.098
21
-53.3033
0
LINE
8
Black
10
83.098
20
-50.7633
11
83.3536
21
-50.9109
0
LINE
8
Black
10
83.3536
20
-50.9109
11
83.5434
21
-51.137
0
LINE
8
Black
10
83.5434
20
-51.137
11
83.6443
21
-51.4144
0
LINE
8
Black
10
83.6443
20
-51.4144
11
83.6443
21
-51.7096
0
LINE
8
Black
10
83.6443
20
-51.7096
11
83.5434
21
-51.987
0
LINE
8
Black
10
83.5434
20
-51.987
11
83.3536
21
-52.2131
0
LINE
8
Black
10
83.3536
20
-52.2131
11
83.098
21
-52.3607
0
LINE
8
Black
10
83.098
20
-52.3607
11
82.8072
21
-52.412
0
LINE
8
Black
10
82.8072
20
-52.412
11
82.8008
21
-52.412
0
LINE
8
Black
10
82.8008
20
-52.412
11
82.51
21
-52.3607
0
LINE
8
Black
10
82.51
20
-52.3607
11
82.2544
21
-52.2131
0
LINE
8
Black
10
82.2544
20
-52.2131
11
82.0646
21
-51.987
0
LINE
8
Black
10
82.0646
20
-51.987
11
81.9637
21
-51.7096
0
LINE
8
Black
10
81.9637
20
-51.7096
11
81.9637
21
-51.4144
0
LINE
8
Black
10
81.9637
20
-51.4144
11
82.0646
21
-51.137
0
LINE
8
Black
10
82.0646
20
-51.137
11
82.2544
21
-50.9109
0
LINE
8
Black
10
82.2544
20
-50.9109
11
82.51
21
-50.7633
0
LINE
8
Black
10
82.51
20
-50.7633
11
82.8008
21
-50.712
0
LINE
8
Black
10
82.8008
20
-50.712
11
82.8072
21
-50.712
0
LINE
8
Black
10
82.8072
20
-50.712
11
83.098
21
-50.7633
0
LINE
8
Black
10
83.098
20
-48.2233
11
83.3536
21
-48.3709
0
LINE
8
Black
10
83.3536
20
-48.3709
11
83.5434
21
-48.597
0
LINE
8
Black
10
83.5434
20
-48.597
11
83.6443
21
-48.8744
0
LINE
8
Black
10
83.6443
20
-48.8744
11
83.6443
21
-49.1696
0
LINE
8
Black
10
83.6443
20
-49.1696
11
83.5434
21
-49.447
0
LINE
8
Black
10
83.5434
20
-49.447
11
83.3536
21
-49.6731
0
LINE
8
Black
10
83.3536
20
-49.6731
11
83.098
21
-49.8207
0
LINE
8
Black
10
83.098
20
-49.8207
11
82.8072
21
-49.872
0
LINE
8
Black
10
82.8072
20
-49.872
11
82.8008
21
-49.872
0
LINE
8
Black
10
82.8008
20
-49.872
11
82.51
21
-49.8207
0
LINE
8
Black
10
82.51
20
-49.8207
11
82.2544
21
-49.6731
0
LINE
8
Black
10
82.2544
20
-49.6731
11
82.0646
21
-49.447
0
LINE
8
Black
10
82.0646
20
-49.447
11
81.9637
21
-49.1696
0
LINE
8
Black
10
81.9637
20
-49.1696
11
81.9637
21
-48.8744
0
LINE
8
Black
10
81.9637
20
-48.8744
11
82.0646
21
-48.597
0
LINE
8
Black
10
82.0646
20
-48.597
11
82.2544
21
-48.3709
0
LINE
8
Black
10
82.2544
20
-48.3709
11
82.51
21
-48.2233
0
LINE
8
Black
10
82.51
20
-48.2233
11
82.8008
21
-48.172
0
LINE
8
Black
10
82.8008
20
-48.172
11
82.8072
21
-48.172
0
LINE
8
Black
10
82.8072
20
-48.172
11
83.098
21
-48.2233
0
LINE
8
Black
10
83.098
20
-45.6833
11
83.3536
21
-45.8309
0
LINE
8
Black
10
83.3536
20
-45.8309
11
83.5434
21
-46.057
0
LINE
8
Black
10
83.5434
20
-46.057
11
83.6443
21
-46.3344
0
LINE
8
Black
10
83.6443
20
-46.3344
11
83.6443
21
-46.6296
0
LINE
8
Black
10
83.6443
20
-46.6296
11
83.5434
21
-46.907
0
LINE
8
Black
10
83.5434
20
-46.907
11
83.3536
21
-47.1331
0
LINE
8
Black
10
83.3536
20
-47.1331
11
83.098
21
-47.2807
0
LINE
8
Black
10
83.098
20
-47.2807
11
82.8072
21
-47.332
0
LINE
8
Black
10
82.8072
20
-47.332
11
82.8008
21
-47.332
0
LINE
8
Black
10
82.8008
20
-47.332
11
82.51
21
-47.2807
0
LINE
8
Black
10
82.51
20
-47.2807
11
82.2544
21
-47.1331
0
LINE
8
Black
10
82.2544
20
-47.1331
11
82.0646
21
-46.907
0
LINE
8
Black
10
82.0646
20
-46.907
11
81.9637
21
-46.6296
0
LINE
8
Black
10
81.9637
20
-46.6296
11
81.9637
21
-46.3344
0
LINE
8
Black
10
81.9637
20
-46.3344
11
82.0646
21
-46.057
0
LINE
8
Black
10
82.0646
20
-46.057
11
82.2544
21
-45.8309
0
LINE
8
Black
10
82.2544
20
-45.8309
11
82.51
21
-45.6833
0
LINE
8
Black
10
82.51
20
-45.6833
11
82.8008
21
-45.632
0
LINE
8
Black
10
82.8008
20
-45.632
11
82.8072
21
-45.632
0
LINE
8
Black
10
82.8072
20
-45.632
11
83.098
21
-45.6833
0
LINE
8
Black
10
83.654
20
-44.792
11
81.954
21
-44.792
0
LINE
8
Black
10
81.954
20
-44.792
11
81.954
21
-43.092
0
LINE
8
Black
10
81.954
20
-43.092
11
83.654
21
-43.092
0
LINE
8
Black
10
83.654
20
-43.092
11
83.654
21
-44.792
0
LINE
8
Black
10
70.08
20
-58.264
11
70.1706
21
-58.3163
0
LINE
8
Black
10
70.1706
20
-58.3163
11
70.2378
21
-58.3964
0
LINE
8
Black
10
70.2378
20
-58.3964
11
70.2736
21
-58.4947
0
LINE
8
Black
10
70.2736
20
-58.4947
11
70.2736
21
-58.5993
0
LINE
8
Black
10
70.2736
20
-58.5993
11
70.2378
21
-58.6976
0
LINE
8
Black
10
70.2378
20
-58.6976
11
70.1706
21
-58.7777
0
LINE
8
Black
10
70.1706
20
-58.7777
11
70.08
21
-58.83
0
LINE
8
Black
10
70.08
20
-58.83
11
69.977
21
-58.8481
0
LINE
8
Black
10
69.977
20
-58.8481
11
69.874
21
-58.83
0
LINE
8
Black
10
69.874
20
-58.83
11
69.7834
21
-58.7777
0
LINE
8
Black
10
69.7834
20
-58.7777
11
69.7162
21
-58.6976
0
LINE
8
Black
10
69.7162
20
-58.6976
11
69.7076
21
-58.674
0
LINE
8
Black
10
69.7076
20
-58.674
11
61.2294
21
-58.674
0
LINE
8
Black
10
61.2294
20
-58.674
11
61.2208
21
-58.6976
0
LINE
8
Black
10
61.2208
20
-58.6976
11
61.1536
21
-58.7777
0
LINE
8
Black
10
61.1536
20
-58.7777
11
61.063
21
-58.83
0
LINE
8
Black
10
61.063
20
-58.83
11
60.96
21
-58.8481
0
LINE
8
Black
10
60.96
20
-58.8481
11
60.857
21
-58.83
0
LINE
8
Black
10
60.857
20
-58.83
11
60.7664
21
-58.7777
0
LINE
8
Black
10
60.7664
20
-58.7777
11
60.6992
21
-58.6976
0
LINE
8
Black
10
60.6992
20
-58.6976
11
60.6634
21
-58.5993
0
LINE
8
Black
10
60.6634
20
-58.5993
11
60.6634
21
-58.4947
0
LINE
8
Black
10
60.6634
20
-58.4947
11
60.6992
21
-58.3964
0
LINE
8
Black
10
60.6992
20
-58.3964
11
60.7664
21
-58.3163
0
LINE
8
Black
10
60.7664
20
-58.3163
11
60.857
21
-58.264
0
LINE
8
Black
10
60.857
20
-58.264
11
60.96
21
-58.2459
0
LINE
8
Black
10
60.96
20
-58.2459
11
61.063
21
-58.264
0
LINE
8
Black
10
61.063
20
-58.264
11
61.1536
21
-58.3163
0
LINE
8
Black
10
61.1536
20
-58.3163
11
61.2208
21
-58.3964
0
LINE
8
Black
10
61.2208
20
-58.3964
11
61.2294
21
-58.42
0
LINE
8
Black
10
61.2294
20
-58.42
11
69.7076
21
-58.42
0
LINE
8
Black
10
69.7076
20
-58.42
11
69.7162
21
-58.3964
0
LINE
8
Black
10
69.7162
20
-58.3964
11
69.7834
21
-58.3163
0
LINE
8
Black
10
69.7834
20
-58.3163
11
69.874
21
-58.264
0
LINE
8
Black
10
69.874
20
-58.264
11
69.977
21
-58.2459
0
LINE
8
Black
10
69.977
20
-58.2459
11
70.08
21
-58.264
0
LINE
8
Black
10
79.097
20
-47.723
11
79.1876
21
-47.7753
0
LINE
8
Black
10
79.1876
20
-47.7753
11
79.2548
21
-47.8554
0
LINE
8
Black
10
79.2548
20
-47.8554
11
79.2906
21
-47.9537
0
LINE
8
Black
10
79.2906
20
-47.9537
11
79.2906
21
-48.0583
0
LINE
8
Black
10
79.2906
20
-48.0583
11
79.2548
21
-48.1566
0
LINE
8
Black
10
79.2548
20
-48.1566
11
79.248
21
-48.1647
0
LINE
8
Black
10
79.248
20
-48.1647
11
79.248
21
-50.165
0
LINE
8
Black
10
79.248
20
-50.165
11
79.2461
21
-50.176
0
LINE
8
Black
10
79.2461
20
-50.176
11
79.247
21
-50.1871
0
LINE
8
Black
10
79.247
20
-50.1871
11
79.2384
21
-50.2192
0
LINE
8
Black
10
79.2384
20
-50.2192
11
79.2327
21
-50.2519
0
LINE
8
Black
10
79.2327
20
-50.2519
11
79.2271
21
-50.2616
0
LINE
8
Black
10
79.2271
20
-50.2616
11
79.2242
21
-50.2723
0
LINE
8
Black
10
79.2242
20
-50.2723
11
79.2052
21
-50.2995
0
LINE
8
Black
10
79.2052
20
-50.2995
11
79.1886
21
-50.3283
0
LINE
8
Black
10
79.1886
20
-50.3283
11
79.18
21
-50.3355
0
LINE
8
Black
10
79.18
20
-50.3355
11
79.1736
21
-50.3446
0
LINE
8
Black
10
79.1736
20
-50.3446
11
76.3796
21
-53.1386
0
LINE
8
Black
10
76.3796
20
-53.1386
11
75.6016
21
-53.9166
0
LINE
8
Black
10
75.6016
20
-53.9166
11
75.5718
21
-53.9986
0
LINE
8
Black
10
75.5718
20
-53.9986
11
75.5046
21
-54.0787
0
LINE
8
Black
10
75.5046
20
-54.0787
11
75.414
21
-54.131
0
LINE
8
Black
10
75.414
20
-54.131
11
75.311
21
-54.1491
0
LINE
8
Black
10
75.311
20
-54.1491
11
75.208
21
-54.131
0
LINE
8
Black
10
75.208
20
-54.131
11
75.1174
21
-54.0787
0
LINE
8
Black
10
75.1174
20
-54.0787
11
75.0502
21
-53.9986
0
LINE
8
Black
10
75.0502
20
-53.9986
11
75.0144
21
-53.9003
0
LINE
8
Black
10
75.0144
20
-53.9003
11
75.0144
21
-53.7957
0
LINE
8
Black
10
75.0144
20
-53.7957
11
75.0502
21
-53.6974
0
LINE
8
Black
10
75.0502
20
-53.6974
11
75.1174
21
-53.6173
0
LINE
8
Black
10
75.1174
20
-53.6173
11
75.208
21
-53.565
0
LINE
8
Black
10
75.208
20
-53.565
11
75.2405
21
-53.5593
0
LINE
8
Black
10
75.2405
20
-53.5593
11
76.0204
21
-52.7794
0
LINE
8
Black
10
76.0204
20
-52.7794
11
78.74
21
-50.0598
0
LINE
8
Black
10
78.74
20
-50.0598
11
78.74
21
-48.1647
0
LINE
8
Black
10
78.74
20
-48.1647
11
78.7332
21
-48.1566
0
LINE
8
Black
10
78.7332
20
-48.1566
11
78.6974
21
-48.0583
0
LINE
8
Black
10
78.6974
20
-48.0583
11
78.6974
21
-47.9537
0
LINE
8
Black
10
78.6974
20
-47.9537
11
78.7332
21
-47.8554
0
LINE
8
Black
10
78.7332
20
-47.8554
11
78.8004
21
-47.7753
0
LINE
8
Black
10
78.8004
20
-47.7753
11
78.891
21
-47.723
0
LINE
8
Black
10
78.891
20
-47.723
11
78.994
21
-47.7049
0
LINE
8
Black
10
78.994
20
-47.7049
11
79.097
21
-47.723
0
LINE
8
Black
10
76.176
20
-48.104
11
76.2666
21
-48.1563
0
LINE
8
Black
10
76.2666
20
-48.1563
11
76.3338
21
-48.2364
0
LINE
8
Black
10
76.3338
20
-48.2364
11
76.3696
21
-48.3347
0
LINE
8
Black
10
76.3696
20
-48.3347
11
76.3696
21
-48.4393
0
LINE
8
Black
10
76.3696
20
-48.4393
11
76.3338
21
-48.5376
0
LINE
8
Black
10
76.3338
20
-48.5376
11
76.2666
21
-48.6177
0
LINE
8
Black
10
76.2666
20
-48.6177
11
76.2
21
-48.6561
0
LINE
8
Black
10
76.2
20
-48.6561
11
76.2
21
-50.5309
0
LINE
8
Black
10
76.2
20
-50.5309
11
76.2666
21
-50.5693
0
LINE
8
Black
10
76.2666
20
-50.5693
11
76.3338
21
-50.6494
0
LINE
8
Black
10
76.3338
20
-50.6494
11
76.3696
21
-50.7477
0
LINE
8
Black
10
76.3696
20
-50.7477
11
76.3696
21
-50.8523
0
LINE
8
Black
10
76.3696
20
-50.8523
11
76.3338
21
-50.9506
0
LINE
8
Black
10
76.3338
20
-50.9506
11
76.2666
21
-51.0307
0
LINE
8
Black
10
76.2666
20
-51.0307
11
76.176
21
-51.083
0
LINE
8
Black
10
76.176
20
-51.083
11
76.073
21
-51.1011
0
LINE
8
Black
10
76.073
20
-51.1011
11
75.97
21
-51.083
0
LINE
8
Black
10
75.97
20
-51.083
11
75.8794
21
-51.0307
0
LINE
8
Black
10
75.8794
20
-51.0307
11
75.8122
21
-50.9506
0
LINE
8
Black
10
75.8122
20
-50.9506
11
75.7764
21
-50.8523
0
LINE
8
Black
10
75.7764
20
-50.8523
11
75.7764
21
-50.7477
0
LINE
8
Black
10
75.7764
20
-50.7477
11
75.8122
21
-50.6494
0
LINE
8
Black
10
75.8122
20
-50.6494
11
75.8794
21
-50.5693
0
LINE
8
Black
10
75.8794
20
-50.5693
11
75.946
21
-50.5309
0
LINE
8
Black
10
75.946
20
-50.5309
11
75.946
21
-48.6561
0
LINE
8
Black
10
75.946
20
-48.6561
11
75.8794
21
-48.6177
0
LINE
8
Black
10
75.8794
20
-48.6177
11
75.8122
21
-48.5376
0
LINE
8
Black
10
75.8122
20
-48.5376
11
75.7764
21
-48.4393
0
LINE
8
Black
10
75.7764
20
-48.4393
11
75.7764
21
-48.3347
0
LINE
8
Black
10
75.7764
20
-48.3347
11
75.8122
21
-48.2364
0
LINE
8
Black
10
75.8122
20
-48.2364
11
75.8794
21
-48.1563
0
LINE
8
Black
10
75.8794
20
-48.1563
11
75.97
21
-48.104
0
LINE
8
Black
10
75.97
20
-48.104
11
76.073
21
-48.0859
0
LINE
8
Black
10
76.073
20
-48.0859
11
76.176
21
-48.104
0
CIRCLE
8
Black
10
74.803
20
-47.498
40
0.2
0
CIRCLE
8
Black
10
77.47
20
-55.88
40
0.2
0
CIRCLE
8
Black
10
71.12
20
-64.77
40
0.2
0
CIRCLE
8
Black
10
60.96
20
-43.18
40
0.2
0
CIRCLE
8
Black
10
80.01
20
-62.23
40
0.2
0
CIRCLE
8
Black
10
71.628
20
-60.325
40
0.2
0
CIRCLE
8
Black
10
53.213
20
-57.785
40
0.2
0
CIRCLE
8
Black
10
69.977
20
-58.547
40
0.2
0
CIRCLE
8
Black
10
60.96
20
-58.547
40
0.2
0
CIRCLE
8
Black
10
75.311
20
-53.848
40
0.2
0
CIRCLE
8
Black
10
78.994
20
-48.006
40
0.2
0
CIRCLE
8
Black
10
76.073
20
-48.387
40
0.2
0
CIRCLE
8
Black
10
76.073
20
-50.8
40
0.2
  0
ENDSEC
  0
EOF
